<svg xmlns="http://www.w3.org/2000/svg" xmlns:xlink="http://www.w3.org/1999/xlink" width="108" height="108" viewBox="0 0 108 108">
  <defs>
    <filter id="Trazado_904820" x="0" y="0" width="108" height="108" filterUnits="userSpaceOnUse">
      <feOffset dy="3" input="SourceAlpha"/>
      <feGaussianBlur stdDeviation="3" result="blur"/>
      <feFlood flood-opacity="0.161"/>
      <feComposite operator="in" in2="blur"/>
      <feComposite in="SourceGraphic"/>
    </filter>
  </defs>
  <g id="_12" data-name="12" transform="translate(-307 -3453)">
    <g transform="matrix(1, 0, 0, 1, 307, 3453)" filter="url(#Trazado_904820)">
      <g id="Trazado_904820-2" data-name="Trazado 904820" transform="translate(9 6)" fill="#ecf4fa">
        <path d="M 45 88.5 C 39.12687683105469 88.5 33.43022537231445 87.35007476806641 28.06830024719238 85.08217620849609 C 22.88852500915527 82.89131164550781 18.23629951477051 79.75458526611328 14.2408504486084 75.75914764404297 C 10.24541282653809 71.76370239257812 7.108687400817871 67.11147308349609 4.917825222015381 61.93170166015625 C 2.649924993515015 56.56977462768555 1.5 50.87312316894531 1.5 45 C 1.5 39.12687683105469 2.649924993515015 33.43022537231445 4.917825222015381 28.06830024719238 C 7.108687400817871 22.88852500915527 10.24541282653809 18.23629951477051 14.2408504486084 14.2408504486084 C 18.23629951477051 10.24541282653809 22.88852500915527 7.108687400817871 28.06830024719238 4.917825222015381 C 33.43022537231445 2.649924993515015 39.12687683105469 1.5 45 1.5 C 50.87312316894531 1.5 56.56977462768555 2.649924993515015 61.93170166015625 4.917825222015381 C 67.11147308349609 7.108687400817871 71.76370239257812 10.24541282653809 75.75914764404297 14.2408504486084 C 79.75458526611328 18.23629951477051 82.89131164550781 22.88852500915527 85.08217620849609 28.06830024719238 C 87.35007476806641 33.43022537231445 88.5 39.12687683105469 88.5 45 C 88.5 50.87312316894531 87.35007476806641 56.56977462768555 85.08217620849609 61.93170166015625 C 82.89131164550781 67.11147308349609 79.75458526611328 71.76370239257812 75.75914764404297 75.75914764404297 C 71.76370239257812 79.75458526611328 67.11147308349609 82.89131164550781 61.93170166015625 85.08217620849609 C 56.56977462768555 87.35007476806641 50.87312316894531 88.5 45 88.5 Z" stroke="none"/>
        <path d="M 45 3 C 39.32871246337891 3 33.82865524291992 4.110054016113281 28.65262985229492 6.299339294433594 C 23.65165710449219 8.414573669433594 19.15968322753906 11.44334411621094 15.301513671875 15.301513671875 C 11.44334411621094 19.15968322753906 8.414573669433594 23.65165710449219 6.299339294433594 28.65262985229492 C 4.110054016113281 33.82865524291992 3 39.32871246337891 3 45 C 3 50.67128753662109 4.110054016113281 56.17134475708008 6.299339294433594 61.34737396240234 C 8.414573669433594 66.34834289550781 11.44334411621094 70.84031677246094 15.301513671875 74.698486328125 C 19.15968322753906 78.55665588378906 23.65165710449219 81.58542633056641 28.65262985229492 83.70066070556641 C 33.82865524291992 85.88994598388672 39.32871246337891 87 45 87 C 50.67128753662109 87 56.17134475708008 85.88994598388672 61.34737396240234 83.70066070556641 C 66.34834289550781 81.58542633056641 70.84031677246094 78.55665588378906 74.698486328125 74.698486328125 C 78.55665588378906 70.84031677246094 81.58542633056641 66.34834289550781 83.70066070556641 61.34737396240234 C 85.88994598388672 56.17134475708008 87 50.67128753662109 87 45 C 87 39.32871246337891 85.88994598388672 33.82865524291992 83.70066070556641 28.65262985229492 C 81.58542633056641 23.65165710449219 78.55665588378906 19.15968322753906 74.698486328125 15.301513671875 C 70.84031677246094 11.44334411621094 66.34834289550781 8.414573669433594 61.34737396240234 6.299339294433594 C 56.17134475708008 4.110054016113281 50.67128753662109 3 45 3 M 45 0 C 69.85281372070312 0 90 20.14718627929688 90 45 C 90 69.85281372070312 69.85281372070312 90 45 90 C 20.14718627929688 90 0 69.85281372070312 0 45 C 0 20.14718627929688 20.14718627929688 0 45 0 Z" stroke="none" fill="#2a5673"/>
      </g>
    </g>
    <g id="Grupo_1144476" data-name="Grupo 1144476" transform="translate(330.125 3474.875)">
      <path id="Trazado_979781" data-name="Trazado 979781" d="M51,53H7a2,2,0,0,1-2-2V21a2,2,0,0,1,2-2H23.039a2,2,0,0,1,1.562.751l2.8,3.5A2,2,0,0,0,28.961,24H51a2,2,0,0,1,2,2V51a2,2,0,0,1-2,2Z" fill="#ffd37d"/>
      <path id="Trazado_979782" data-name="Trazado 979782" d="M51,46H7a2,2,0,0,1-2-2v7a2,2,0,0,0,2,2H51a2,2,0,0,0,2-2V44A2,2,0,0,1,51,46Z" fill="#eeab4d"/>
      <path id="Trazado_979783" data-name="Trazado 979783" d="M48,5H10A2,2,0,0,0,8,7V19H23.039a2,2,0,0,1,1.562.751l2.8,3.5A2,2,0,0,0,28.961,24H50V7a2,2,0,0,0-2-2Z" fill="#e0e3ee"/>
      <path id="Trazado_979784" data-name="Trazado 979784" d="M47.21,59h0c-6.855-1.488-11.79-8.021-11.79-15.61V34.537L47.21,31,59,34.537V43.39C59,50.979,54.066,57.512,47.21,59Z" fill="#9ccc65"/>
      <path id="Trazado_979785" data-name="Trazado 979785" d="M52.4,41.11a.877.877,0,0,0-1.237.038l-5.438,5.786-2.433-2.906a.875.875,0,1,0-1.342,1.123l3.066,3.662a.876.876,0,0,0,.646.313h.025a.876.876,0,0,0,.638-.275l6.114-6.5A.876.876,0,0,0,52.4,41.11Z" fill="#fff"/>
      <path id="Trazado_979786" data-name="Trazado 979786" d="M47.21,54.284c-6.855-1.488-11.79-8.021-11.79-15.61V43.39c0,7.588,4.934,14.121,11.79,15.61C54.066,57.512,59,50.979,59,43.39V38.675C59,46.263,54.066,52.8,47.21,54.284Z" fill="#43a047"/>
      <g id="Grupo_1144475" data-name="Grupo 1144475">
        <path id="Trazado_979787" data-name="Trazado 979787" d="M34,53.875H7A2.878,2.878,0,0,1,4.125,51V21A2.878,2.878,0,0,1,7,18.124H23.04A2.869,2.869,0,0,1,25.28,19.2l2.8,3.5a1.124,1.124,0,0,0,.877.422H51A2.878,2.878,0,0,1,53.875,26v3a.875.875,0,0,1-1.75,0V26A1.127,1.127,0,0,0,51,24.874H28.96A2.869,2.869,0,0,1,26.719,23.8l-2.8-3.5a1.128,1.128,0,0,0-.877-.422H7A1.127,1.127,0,0,0,5.875,21V51A1.127,1.127,0,0,0,7,52.125H34a.875.875,0,0,1,0,1.75Z" fill="#1a237e"/>
        <path id="Trazado_979788" data-name="Trazado 979788" d="M50,24.875A.875.875,0,0,1,49.125,24V7A1.127,1.127,0,0,0,48,5.875H10A1.127,1.127,0,0,0,8.875,7v8a.875.875,0,0,1-1.75,0V7A2.878,2.878,0,0,1,10,4.125H48A2.878,2.878,0,0,1,50.875,7V24A.875.875,0,0,1,50,24.875Z" fill="#1a237e"/>
        <path id="Trazado_979789" data-name="Trazado 979789" d="M47.21,59.875a.914.914,0,0,1-.186-.02c-7.231-1.57-12.479-8.494-12.479-16.465V34.537a.874.874,0,0,1,.624-.838l11.79-3.537a.882.882,0,0,1,.5,0L59.251,33.7a.874.874,0,0,1,.624.838v8.854c0,7.971-5.248,14.895-12.479,16.465a.914.914,0,0,1-.186.02ZM36.3,35.188v8.2c0,7.084,4.579,13.238,10.915,14.713,6.336-1.475,10.915-7.629,10.915-14.713v-8.2L47.21,31.913Z" fill="#1a237e"/>
        <path id="Trazado_979790" data-name="Trazado 979790" d="M37,10.875H21a.875.875,0,0,1,0-1.75H37a.875.875,0,0,1,0,1.75Z" fill="#1a237e"/>
        <path id="Trazado_979791" data-name="Trazado 979791" d="M45,15.375H13a.875.875,0,0,1,0-1.75H45a.875.875,0,0,1,0,1.75Z" fill="#1a237e"/>
        <path id="Trazado_979792" data-name="Trazado 979792" d="M45,19.875H34a.875.875,0,0,1,0-1.75H45a.875.875,0,0,1,0,1.75Z" fill="#1a237e"/>
      </g>
      <path id="Trazado_979793" data-name="Trazado 979793" d="M43,27.125H42a.875.875,0,0,0,0,1.75h1a.875.875,0,0,0,0-1.75Z" fill="#fff"/>
      <path id="Trazado_979794" data-name="Trazado 979794" d="M38,27.125H31a.875.875,0,0,0,0,1.75h7a.875.875,0,0,0,0-1.75Z" fill="#fff"/>
      <path id="Trazado_979795" data-name="Trazado 979795" d="M19,23.125H10a.875.875,0,0,0,0,1.75h9a.875.875,0,0,0,0-1.75Z" fill="#fff"/>
    </g>
  </g>
</svg>
