<svg xmlns="http://www.w3.org/2000/svg" xmlns:xlink="http://www.w3.org/1999/xlink" width="108" height="108" viewBox="0 0 108 108">
  <defs>
    <filter id="Trazado_904820" x="0" y="0" width="108" height="108" filterUnits="userSpaceOnUse">
      <feOffset dy="3" input="SourceAlpha"/>
      <feGaussianBlur stdDeviation="3" result="blur"/>
      <feFlood flood-opacity="0.161"/>
      <feComposite operator="in" in2="blur"/>
      <feComposite in="SourceGraphic"/>
    </filter>
  </defs>
  <g id="_21" data-name="21" transform="translate(-307 -6620)">
    <g id="Grupo_1144491" data-name="Grupo 1144491">
      <g transform="matrix(1, 0, 0, 1, 307, 6620)" filter="url(#Trazado_904820)">
        <g id="Trazado_904820-2" data-name="Trazado 904820" transform="translate(9 6)" fill="#ecf4fa">
          <path d="M 45 88.5 C 39.12687683105469 88.5 33.43022537231445 87.35007476806641 28.06830024719238 85.08217620849609 C 22.88852500915527 82.89131164550781 18.23629951477051 79.75458526611328 14.2408504486084 75.75914764404297 C 10.24541282653809 71.76370239257812 7.108687400817871 67.11147308349609 4.917825222015381 61.93170166015625 C 2.649924993515015 56.56977462768555 1.5 50.87312316894531 1.5 45 C 1.5 39.12687683105469 2.649924993515015 33.43022537231445 4.917825222015381 28.06830024719238 C 7.108687400817871 22.88852500915527 10.24541282653809 18.23629951477051 14.2408504486084 14.2408504486084 C 18.23629951477051 10.24541282653809 22.88852500915527 7.108687400817871 28.06830024719238 4.917825222015381 C 33.43022537231445 2.649924993515015 39.12687683105469 1.5 45 1.5 C 50.87312316894531 1.5 56.56977462768555 2.649924993515015 61.93170166015625 4.917825222015381 C 67.11147308349609 7.108687400817871 71.76370239257812 10.24541282653809 75.75914764404297 14.2408504486084 C 79.75458526611328 18.23629951477051 82.89131164550781 22.88852500915527 85.08217620849609 28.06830024719238 C 87.35007476806641 33.43022537231445 88.5 39.12687683105469 88.5 45 C 88.5 50.87312316894531 87.35007476806641 56.56977462768555 85.08217620849609 61.93170166015625 C 82.89131164550781 67.11147308349609 79.75458526611328 71.76370239257812 75.75914764404297 75.75914764404297 C 71.76370239257812 79.75458526611328 67.11147308349609 82.89131164550781 61.93170166015625 85.08217620849609 C 56.56977462768555 87.35007476806641 50.87312316894531 88.5 45 88.5 Z" stroke="none"/>
          <path d="M 45 3 C 39.32871246337891 3 33.82865524291992 4.110054016113281 28.65262985229492 6.299339294433594 C 23.65165710449219 8.414573669433594 19.15968322753906 11.44334411621094 15.301513671875 15.301513671875 C 11.44334411621094 19.15968322753906 8.414573669433594 23.65165710449219 6.299339294433594 28.65262985229492 C 4.110054016113281 33.82865524291992 3 39.32871246337891 3 45 C 3 50.67128753662109 4.110054016113281 56.17134475708008 6.299339294433594 61.34737396240234 C 8.414573669433594 66.34834289550781 11.44334411621094 70.84031677246094 15.301513671875 74.698486328125 C 19.15968322753906 78.55665588378906 23.65165710449219 81.58542633056641 28.65262985229492 83.70066070556641 C 33.82865524291992 85.88994598388672 39.32871246337891 87 45 87 C 50.67128753662109 87 56.17134475708008 85.88994598388672 61.34737396240234 83.70066070556641 C 66.34834289550781 81.58542633056641 70.84031677246094 78.55665588378906 74.698486328125 74.698486328125 C 78.55665588378906 70.84031677246094 81.58542633056641 66.34834289550781 83.70066070556641 61.34737396240234 C 85.88994598388672 56.17134475708008 87 50.67128753662109 87 45 C 87 39.32871246337891 85.88994598388672 33.82865524291992 83.70066070556641 28.65262985229492 C 81.58542633056641 23.65165710449219 78.55665588378906 19.15968322753906 74.698486328125 15.301513671875 C 70.84031677246094 11.44334411621094 66.34834289550781 8.414573669433594 61.34737396240234 6.299339294433594 C 56.17134475708008 4.110054016113281 50.67128753662109 3 45 3 M 45 0 C 69.85281372070312 0 90 20.14718627929688 90 45 C 90 69.85281372070312 69.85281372070312 90 45 90 C 20.14718627929688 90 0 69.85281372070312 0 45 C 0 20.14718627929688 20.14718627929688 0 45 0 Z" stroke="none" fill="#2a5673"/>
        </g>
      </g>
    </g>
    <g id="Grupo_1144490" data-name="Grupo 1144490" transform="translate(334.785 6646.787)">
      <g id="Grupo_1144488" data-name="Grupo 1144488" transform="translate(0.77 0.768)">
        <g id="Grupo_1144483" data-name="Grupo 1144483">
          <path id="Trazado_979816" data-name="Trazado 979816" d="M27.46,7.5a3.393,3.393,0,0,0-3.393,3.393V41.857h47.5V10.893A3.393,3.393,0,0,0,68.172,7.5H27.46Z" transform="translate(-22.371 -7.5)" fill="#cfd7e6"/>
          <path id="Trazado_979817" data-name="Trazado 979817" d="M57.2,71.6V42.33a1.7,1.7,0,0,1,1.7-1.7h37.32a1.7,1.7,0,0,1,1.7,1.7V71.6Z" transform="translate(-52.11 -37.241)" fill="#8db5ff"/>
          <path id="Trazado_979818" data-name="Trazado 979818" d="M437.549,10.893A3.393,3.393,0,0,0,434.156,7.5H431.8a3.393,3.393,0,0,1,3.393,3.393V41.857h2.355Z" transform="translate(-388.355 -7.5)" fill="#b4c2db"/>
          <path id="Trazado_979819" data-name="Trazado 979819" d="M417.588,40.634h-2.355a1.7,1.7,0,0,1,1.7,1.7V71.6h2.355V42.33A1.7,1.7,0,0,0,417.588,40.634Z" transform="translate(-373.484 -37.241)" fill="#7784ff"/>
          <path id="Trazado_979820" data-name="Trazado 979820" d="M7.5,323.961v1.7a3.393,3.393,0,0,0,3.393,3.393H55a3.393,3.393,0,0,0,3.393-3.393v-1.7a1.7,1.7,0,0,0-1.7-1.7H9.2a1.7,1.7,0,0,0-1.7,1.7Z" transform="translate(-7.502 -290.035)" fill="#f3f5f9"/>
          <path id="Trazado_979821" data-name="Trazado 979821" d="M452.345,322.265h-2.363a1.7,1.7,0,0,1,1.7,1.7v1.7a3.392,3.392,0,0,1-3.393,3.393h2.363a3.393,3.393,0,0,0,3.393-3.393v-1.7A1.7,1.7,0,0,0,452.345,322.265Z" transform="translate(-403.151 -290.035)" fill="#cfd7e6"/>
        </g>
        <g id="Grupo_1144486" data-name="Grupo 1144486" transform="translate(8.481 6.785)">
          <g id="Grupo_1144485" data-name="Grupo 1144485" transform="translate(11.874 0)">
            <g id="Grupo_1144484" data-name="Grupo 1144484">
              <path id="Trazado_979822" data-name="Trazado 979822" d="M221.567,83.945v-9.33a.848.848,0,0,0-.848-.848H207.148a.848.848,0,0,0-.848.848V83.1a.848.848,0,0,0,.848.848Z" transform="translate(-206.3 -73.767)" fill="#f3f5f9"/>
            </g>
          </g>
          <circle id="Elipse_11577" data-name="Elipse 11577" cx="3.393" cy="3.393" r="3.393" transform="translate(1.696 5.089)" fill="#ffd9b3"/>
          <path id="Trazado_979823" data-name="Trazado 979823" d="M129.711,123.466a3.386,3.386,0,0,0-1.178.21,3.394,3.394,0,0,1,0,6.365,3.393,3.393,0,1,0,1.178-6.575Z" transform="translate(-124.622 -118.377)" fill="#fb9"/>
          <path id="Trazado_979824" data-name="Trazado 979824" d="M92.416,199.328a5.082,5.082,0,0,0-2.083,4.107v4.241a.848.848,0,0,0,.848.848h8.482a.848.848,0,0,0,.848-.848v-4.157a5.212,5.212,0,0,0-2.093-4.178Z" transform="translate(-90.333 -186.471)" fill="#68d9c0"/>
          <path id="Trazado_979825" data-name="Trazado 979825" d="M148.563,199.407,146.2,199.4a5.208,5.208,0,0,1,2.1,4.183v4.157a.848.848,0,0,1-.848.848h2.355a.848.848,0,0,0,.848-.848v-4.157A5.21,5.21,0,0,0,148.563,199.407Z" transform="translate(-140.48 -186.538)" fill="#4fc6b9"/>
          <path id="Trazado_979826" data-name="Trazado 979826" d="M326.472,73.766h-2.355a.848.848,0,0,1,.848.848v9.33h2.355v-9.33A.848.848,0,0,0,326.472,73.766Z" transform="translate(-300.179 -73.766)" fill="#cfd7e6"/>
          <path id="Trazado_979827" data-name="Trazado 979827" d="M114.714,192.278l1.936-1.549a4.99,4.99,0,0,0-2.909-1,5.068,5.068,0,0,0-3.1.984h0l1.949,1.56A1.7,1.7,0,0,0,114.714,192.278Z" transform="translate(-108.565 -177.859)" fill="#f3f5f9"/>
          <path id="Trazado_979828" data-name="Trazado 979828" d="M128.47,189.871h0a5.086,5.086,0,0,1,2.873,1.9l1.307-1.046a4.99,4.99,0,0,0-2.909-1A5.108,5.108,0,0,0,128.47,189.871Z" transform="translate(-124.564 -177.859)" fill="#cfd7e6"/>
        </g>
        <g id="Grupo_1144487" data-name="Grupo 1144487" transform="translate(21.204 10.178)">
          <path id="Trazado_979829" data-name="Trazado 979829" d="M313.983,332.251h8.482V335.3h-8.482Z" transform="translate(-303.805 -309.176)" fill="#ffd9b3"/>
          <path id="Trazado_979830" data-name="Trazado 979830" d="M373.816,332.25h2.355v3.044h-2.355Z" transform="translate(-357.512 -309.175)" fill="#fb9"/>
          <path id="Trazado_979831" data-name="Trazado 979831" d="M294.45,231.9a8.514,8.514,0,0,1-3.607,4.124l-8.495-.008a8.514,8.514,0,0,1-3.594-4.117l7.848-8.229Z" transform="translate(-272.183 -211.712)" fill="#ffd9b3"/>
          <path id="Trazado_979832" data-name="Trazado 979832" d="M344.967,223.667l-1.19,1.248,6.658,6.982a8.513,8.513,0,0,1-3.6,4.122l2.377,0a8.513,8.513,0,0,0,3.607-4.124Z" transform="translate(-330.548 -211.711)" fill="#fb9"/>
          <path id="Trazado_979833" data-name="Trazado 979833" d="M248.311,213.085a1.7,1.7,0,0,0,1.7-1.7V208a1.7,1.7,0,0,0-1.7-1.7H224.562a1.7,1.7,0,0,0-1.7,1.7v3.393a1.7,1.7,0,0,0,1.7,1.7Z" transform="translate(-222.018 -196.122)" fill="#fb9"/>
          <path id="Trazado_979834" data-name="Trazado 979834" d="M451.2,206.3h-2.3a1.7,1.7,0,0,1,1.7,1.7v3.393a1.7,1.7,0,0,1-1.7,1.7h2.3a1.7,1.7,0,0,0,1.7-1.7V208A1.7,1.7,0,0,0,451.2,206.3Z" transform="translate(-424.907 -196.122)" fill="#ffa27d"/>
          <path id="Trazado_979835" data-name="Trazado 979835" d="M297.417,359.506v-.713l.688-2.75a.848.848,0,0,1,.823-.642h8.854a.848.848,0,0,1,.823.642l.688,2.75v.713Z" transform="translate(-288.935 -329.955)" fill="#cfd7e6"/>
          <path id="Trazado_979836" data-name="Trazado 979836" d="M378.81,356.042a.848.848,0,0,0-.823-.642h-2.355a.848.848,0,0,1,.823.642l.688,2.75v.713H379.5v-.713Z" transform="translate(-359.142 -329.955)" fill="#b4c2db"/>
          <path id="Trazado_979837" data-name="Trazado 979837" d="M236.637,388.535a6.785,6.785,0,0,1,6.785,6.785v3.393a1.7,1.7,0,0,1-1.7,1.7H216.28a1.7,1.7,0,0,1-1.7-1.7V395.32a6.785,6.785,0,0,1,6.785-6.785Z" transform="translate(-214.584 -359.697)" fill="#68d9c0"/>
          <path id="Trazado_979838" data-name="Trazado 979838" d="M276.356,123.863V113.685a6.785,6.785,0,0,0-6.785-6.785h-6.785A6.785,6.785,0,0,0,256,113.685v10.178a3.393,3.393,0,0,0,3.393,3.393h13.571A3.393,3.393,0,0,0,276.356,123.863Z" transform="translate(-251.759 -106.9)" fill="#595353"/>
          <path id="Trazado_979839" data-name="Trazado 979839" d="M409.308,388.535h-2.355a6.785,6.785,0,0,1,6.785,6.785v3.393a1.7,1.7,0,0,1-1.7,1.7H414.4a1.7,1.7,0,0,0,1.7-1.7V395.32A6.785,6.785,0,0,0,409.308,388.535Z" transform="translate(-387.255 -359.697)" fill="#4fc6b9"/>
          <path id="Trazado_979840" data-name="Trazado 979840" d="M367.89,106.9h-2.355a6.785,6.785,0,0,1,6.785,6.785v10.178a3.393,3.393,0,0,1-3.393,3.393h2.355a3.393,3.393,0,0,0,3.393-3.393V113.685A6.785,6.785,0,0,0,367.89,106.9Z" transform="translate(-350.078 -106.9)" fill="#403939"/>
        </g>
      </g>
      <g id="Grupo_1144489" data-name="Grupo 1144489" transform="translate(0.002 0)">
        <path id="Trazado_979841" data-name="Trazado 979841" d="M52.428,36.391v-1.7a2.468,2.468,0,0,0-1.7-2.341V4.16A4.165,4.165,0,0,0,46.571,0H5.859A4.165,4.165,0,0,0,1.7,4.16V32.353A2.468,2.468,0,0,0,0,34.695v1.7a4.165,4.165,0,0,0,4.16,4.161H7.716a.768.768,0,0,0,0-1.536H4.162a2.628,2.628,0,0,1-2.625-2.625v-1.7a.929.929,0,0,1,.928-.928h18.06l.381,1.526A2.461,2.461,0,0,0,23.3,37.159h5.833a2.458,2.458,0,0,0,1.281-.361c0,.016-.01.032-.014.049l-.542,2.169H10.787a.768.768,0,0,0,0,1.536H24.2a7.545,7.545,0,0,0-2.994,6.017v3.393a2.467,2.467,0,0,0,2.464,2.464H42.25a.768.768,0,0,0,0-1.536H23.67a.929.929,0,0,1-.928-.928V46.569a6.024,6.024,0,0,1,6.017-6.017H44.026a6.024,6.024,0,0,1,6.017,6.017v3.393a.929.929,0,0,1-.928.928H45.322a.768.768,0,1,0,0,1.536h3.794a2.467,2.467,0,0,0,2.464-2.464V46.569a7.545,7.545,0,0,0-3.01-6.029,4.165,4.165,0,0,0,3.858-4.149ZM44.571,32.23c.087-.163.169-.328.246-.5a4.171,4.171,0,0,0,.987-.6v1.1H44.571Zm-3.515,1.823a.768.768,0,0,0-1.19.641v.928H32.92v-.928a.768.768,0,0,0-1.19-.641A7.806,7.806,0,0,1,29.9,32.07H42.887A7.8,7.8,0,0,1,41.056,34.054ZM6.627,32.23V5.857a.929.929,0,0,1,.928-.928h37.32a.929.929,0,0,1,.928.928v7.316a7.545,7.545,0,0,0-6.017-2.995H37.161V8.4a1.618,1.618,0,0,0-1.616-1.616H21.974A1.618,1.618,0,0,0,20.358,8.4v8.482A1.618,1.618,0,0,0,21.974,18.5h3.473v1.857h-.928a2.467,2.467,0,0,0-2.464,2.464v3.393a2.467,2.467,0,0,0,2.464,2.464h1a4.174,4.174,0,0,0,2.45,3.056c.077.168.159.334.246.5H6.627Zm36.552-1.7H29.608a2.628,2.628,0,0,1-2.625-2.625V17.731A6.024,6.024,0,0,1,33,11.714h6.785A6.024,6.024,0,0,1,45.8,17.731V27.909h0A2.628,2.628,0,0,1,43.178,30.534Zm-18.66-3.393a.929.929,0,0,1-.928-.928V22.82a.929.929,0,0,1,.928-.928h.928v5.249h-.928ZM35.625,10.178H33a7.564,7.564,0,0,0-7.514,6.785H21.974a.08.08,0,0,1-.08-.08V8.4a.08.08,0,0,1,.08-.08H35.545a.08.08,0,0,1,.08.08ZM47.339,21.892h.928a.929.929,0,0,1,.928.928v3.393a.929.929,0,0,1-.928.928h-.928ZM31.384,35.732l-.023.009c.008-.016.016-.032.023-.048Zm15.955-7.055h.928A2.452,2.452,0,0,0,49.2,28.5V32.23H47.339V28.677ZM5.859,1.536H46.571A2.627,2.627,0,0,1,49.2,4.16V20.538a2.449,2.449,0,0,0-.928-.182h-.928V5.857a2.467,2.467,0,0,0-2.464-2.464H7.555A2.467,2.467,0,0,0,5.091,5.857V32.23H3.234V4.16A2.628,2.628,0,0,1,5.859,1.536ZM29.131,35.623H23.3a.927.927,0,0,1-.9-.7l-.288-1.154h7.128a9.346,9.346,0,0,0,.855.911l-.061.243A.927.927,0,0,1,29.131,35.623Zm2.757,1.6a.08.08,0,0,1,.078-.061h8.853a.08.08,0,0,1,.078.061l.449,1.8H31.439Zm19-.829a2.628,2.628,0,0,1-2.625,2.625H42.93l-.542-2.169a1.613,1.613,0,0,0-.986-1.115v-.047a9.321,9.321,0,0,0,2.147-1.919h6.415a.929.929,0,0,1,.928.928v1.7Z" transform="translate(-0.002 0)"/>
        <path id="Trazado_979842" data-name="Trazado 979842" d="M342.081,132.533h-1.7a.768.768,0,0,0,0,1.536h1.7a.768.768,0,1,0,0-1.536Z" transform="translate(-304.842 -118.962)"/>
        <path id="Trazado_979843" data-name="Trazado 979843" d="M91.288,123.373a4.16,4.16,0,1,0-5.208-.01,5.876,5.876,0,0,0-1.5,1.069,5.814,5.814,0,0,0-1.75,4.176v4.241a1.618,1.618,0,0,0,1.616,1.616h8.482a1.618,1.618,0,0,0,1.616-1.616v-4.157A5.978,5.978,0,0,0,91.288,123.373Zm-.961,1.246-1.057.845a.923.923,0,0,1-1.16,0l-1.067-.854a4.313,4.313,0,0,1,1.647-.324h.074A4.189,4.189,0,0,1,90.327,124.619ZM88.69,117.5a2.625,2.625,0,1,1-2.625,2.625A2.628,2.628,0,0,1,88.69,117.5Zm4.321,15.347a.08.08,0,0,1-.08.08H84.449a.08.08,0,0,1-.08-.08v-4.241a4.29,4.29,0,0,1,1.291-3.081l.032-.03,1.458,1.167a2.451,2.451,0,0,0,3.079,0l1.439-1.151a4.437,4.437,0,0,1,1.342,3.18Z" transform="translate(-74.352 -104.092)"/>
      </g>
    </g>
  </g>
</svg>
