<svg xmlns="http://www.w3.org/2000/svg" xmlns:xlink="http://www.w3.org/1999/xlink" width="108" height="108" viewBox="0 0 108 108">
  <defs>
    <filter id="Trazado_904820" x="0" y="0" width="108" height="108" filterUnits="userSpaceOnUse">
      <feOffset dy="3" input="SourceAlpha"/>
      <feGaussianBlur stdDeviation="3" result="blur"/>
      <feFlood flood-opacity="0.161"/>
      <feComposite operator="in" in2="blur"/>
      <feComposite in="SourceGraphic"/>
    </filter>
  </defs>
  <g id="_25" data-name="25" transform="translate(-307 -7525)">
    <g transform="matrix(1, 0, 0, 1, 307, 7525)" filter="url(#Trazado_904820)">
      <g id="Trazado_904820-2" data-name="Trazado 904820" transform="translate(9 6)" fill="#ecf4fa">
        <path d="M 45 88.5 C 39.12687683105469 88.5 33.43022537231445 87.35007476806641 28.06830024719238 85.08217620849609 C 22.88852500915527 82.89131164550781 18.23629951477051 79.75458526611328 14.2408504486084 75.75914764404297 C 10.24541282653809 71.76370239257812 7.108687400817871 67.11147308349609 4.917825222015381 61.93170166015625 C 2.649924993515015 56.56977462768555 1.5 50.87312316894531 1.5 45 C 1.5 39.12687683105469 2.649924993515015 33.43022537231445 4.917825222015381 28.06830024719238 C 7.108687400817871 22.88852500915527 10.24541282653809 18.23629951477051 14.2408504486084 14.2408504486084 C 18.23629951477051 10.24541282653809 22.88852500915527 7.108687400817871 28.06830024719238 4.917825222015381 C 33.43022537231445 2.649924993515015 39.12687683105469 1.5 45 1.5 C 50.87312316894531 1.5 56.56977462768555 2.649924993515015 61.93170166015625 4.917825222015381 C 67.11147308349609 7.108687400817871 71.76370239257812 10.24541282653809 75.75914764404297 14.2408504486084 C 79.75458526611328 18.23629951477051 82.89131164550781 22.88852500915527 85.08217620849609 28.06830024719238 C 87.35007476806641 33.43022537231445 88.5 39.12687683105469 88.5 45 C 88.5 50.87312316894531 87.35007476806641 56.56977462768555 85.08217620849609 61.93170166015625 C 82.89131164550781 67.11147308349609 79.75458526611328 71.76370239257812 75.75914764404297 75.75914764404297 C 71.76370239257812 79.75458526611328 67.11147308349609 82.89131164550781 61.93170166015625 85.08217620849609 C 56.56977462768555 87.35007476806641 50.87312316894531 88.5 45 88.5 Z" stroke="none"/>
        <path d="M 45 3 C 39.32871246337891 3 33.82865524291992 4.110054016113281 28.65262985229492 6.299339294433594 C 23.65165710449219 8.414573669433594 19.15968322753906 11.44334411621094 15.301513671875 15.301513671875 C 11.44334411621094 19.15968322753906 8.414573669433594 23.65165710449219 6.299339294433594 28.65262985229492 C 4.110054016113281 33.82865524291992 3 39.32871246337891 3 45 C 3 50.67128753662109 4.110054016113281 56.17134475708008 6.299339294433594 61.34737396240234 C 8.414573669433594 66.34834289550781 11.44334411621094 70.84031677246094 15.301513671875 74.698486328125 C 19.15968322753906 78.55665588378906 23.65165710449219 81.58542633056641 28.65262985229492 83.70066070556641 C 33.82865524291992 85.88994598388672 39.32871246337891 87 45 87 C 50.67128753662109 87 56.17134475708008 85.88994598388672 61.34737396240234 83.70066070556641 C 66.34834289550781 81.58542633056641 70.84031677246094 78.55665588378906 74.698486328125 74.698486328125 C 78.55665588378906 70.84031677246094 81.58542633056641 66.34834289550781 83.70066070556641 61.34737396240234 C 85.88994598388672 56.17134475708008 87 50.67128753662109 87 45 C 87 39.32871246337891 85.88994598388672 33.82865524291992 83.70066070556641 28.65262985229492 C 81.58542633056641 23.65165710449219 78.55665588378906 19.15968322753906 74.698486328125 15.301513671875 C 70.84031677246094 11.44334411621094 66.34834289550781 8.414573669433594 61.34737396240234 6.299339294433594 C 56.17134475708008 4.110054016113281 50.67128753662109 3 45 3 M 45 0 C 69.85281372070312 0 90 20.14718627929688 90 45 C 90 69.85281372070312 69.85281372070312 90 45 90 C 20.14718627929688 90 0 69.85281372070312 0 45 C 0 20.14718627929688 20.14718627929688 0 45 0 Z" stroke="none" fill="#2a5673"/>
      </g>
    </g>
    <g id="Grupo_1144497" data-name="Grupo 1144497" transform="translate(330.791 7514.137)">
      <g id="Grupo_1144495" data-name="Grupo 1144495" transform="translate(0.897 39.938)">
        <path id="Trazado_979844" data-name="Trazado 979844" d="M61.288,428.476H13.127a5.709,5.709,0,0,1-5.611-4.658.953.953,0,0,1,.937-1.128h57.51a.953.953,0,0,1,.937,1.128A5.709,5.709,0,0,1,61.288,428.476Z" transform="translate(-7.5 -382.683)" fill="#c5d3dd"/>
        <path id="Trazado_979845" data-name="Trazado 979845" d="M428.052,422.689H423.43a.953.953,0,0,1,.937,1.128,5.709,5.709,0,0,1-5.611,4.659h4.623a5.709,5.709,0,0,0,5.611-4.659A.953.953,0,0,0,428.052,422.689Z" transform="translate(-369.59 -382.683)" fill="#b6c4cf"/>
        <path id="Trazado_979846" data-name="Trazado 979846" d="M47.769,386.52H97.557v4.324H47.769Z" transform="translate(-42.955 -350.838)" fill="#60b7ff"/>
        <path id="Trazado_979847" data-name="Trazado 979847" d="M425.56,386.52h4.623v4.324H425.56Z" transform="translate(-375.581 -350.838)" fill="#26a6fe"/>
        <path id="Trazado_979848" data-name="Trazado 979848" d="M97.557,127.558v28.609H47.769V127.558a2.669,2.669,0,0,1,2.668-2.668H94.888a2.669,2.669,0,0,1,2.668,2.668Z" transform="translate(-42.955 -120.485)" fill="#c4e2ff"/>
        <path id="Trazado_979849" data-name="Trazado 979849" d="M97.557,127.558v28.609H47.769V127.558a2.669,2.669,0,0,1,2.668-2.668H94.888a2.669,2.669,0,0,1,2.668,2.668Z" transform="translate(-42.955 -120.485)" fill="#c4e2ff"/>
        <path id="Trazado_979850" data-name="Trazado 979850" d="M94.051,183.068H77.784a1.642,1.642,0,0,1-1.642-1.642V162a1.642,1.642,0,0,1,1.642-1.642H88.2a5.853,5.853,0,0,1,5.853,5.853v16.86Z" transform="translate(-67.936 -151.711)" fill="#8ac9fe"/>
        <path id="Trazado_979851" data-name="Trazado 979851" d="M407.863,124.89H403.24a2.669,2.669,0,0,1,2.668,2.668v28.609h4.623V127.558A2.669,2.669,0,0,0,407.863,124.89Z" transform="translate(-355.929 -120.485)" fill="#8ac9fe"/>
        <g id="Grupo_1144494" data-name="Grupo 1144494" transform="translate(11.201)">
          <g id="Grupo_1144492" data-name="Grupo 1144492" transform="translate(0 8.645)">
            <path id="Trazado_979852" data-name="Trazado 979852" d="M119.7,183.068H102.834a1.642,1.642,0,0,1-1.642-1.642V162a1.642,1.642,0,0,1,1.642-1.642h11.013a5.853,5.853,0,0,1,5.853,5.853Z" transform="translate(-101.192 -160.356)" fill="#e8edf2"/>
            <path id="Trazado_979853" data-name="Trazado 979853" d="M180.586,160.356h-3.592a5.853,5.853,0,0,1,5.853,5.853v16.86h3.592v-16.86A5.852,5.852,0,0,0,180.586,160.356Z" transform="translate(-167.932 -160.356)" fill="#d9e7ec"/>
            <path id="Trazado_979854" data-name="Trazado 979854" d="M256,183.068h16.865a1.642,1.642,0,0,0,1.642-1.642V162a1.642,1.642,0,0,0-1.642-1.642H261.852A5.853,5.853,0,0,0,256,166.209v16.86Z" transform="translate(-237.492 -160.356)" fill="#e8edf2"/>
            <path id="Trazado_979855" data-name="Trazado 979855" d="M370.617,160.356h-3.592A1.642,1.642,0,0,1,368.667,162v19.429a1.642,1.642,0,0,1-1.642,1.642h3.592a1.642,1.642,0,0,0,1.642-1.642V162A1.642,1.642,0,0,0,370.617,160.356Z" transform="translate(-335.245 -160.356)" fill="#d9e7ec"/>
          </g>
          <g id="Grupo_1144493" data-name="Grupo 1144493" transform="translate(22.531)">
            <path id="Trazado_979856" data-name="Trazado 979856" d="M309.964,168.627h5.6v3.719a1.811,1.811,0,0,1-1.811,1.811h-1.982a1.811,1.811,0,0,1-1.811-1.811v-3.719Z" transform="translate(-307.536 -158.994)" fill="#c5d3dd"/>
            <path id="Trazado_979857" data-name="Trazado 979857" d="M323.155,168.627v3.719a1.811,1.811,0,0,1-1.409,1.765,1.809,1.809,0,0,0,.4.047h1.982a1.811,1.811,0,0,0,1.811-1.811v-3.719Z" transform="translate(-317.91 -158.994)" fill="#b6c4cf"/>
            <circle id="Elipse_11578" data-name="Elipse 11578" cx="5.23" cy="5.23" r="5.23" transform="translate(0 0)" fill="#ffe177"/>
            <path id="Trazado_979858" data-name="Trazado 979858" d="M323.14,88.046a5.226,5.226,0,0,0-1.393.189,5.23,5.23,0,0,1,0,10.082,5.23,5.23,0,1,0,1.393-10.271Z" transform="translate(-317.91 -88.046)" fill="#ffd15b"/>
          </g>
        </g>
        <path id="Trazado_979859" data-name="Trazado 979859" d="M206.445,428.475h-7.787a3.364,3.364,0,0,1-3.364-3.364v-2.423h14.514v2.423A3.364,3.364,0,0,1,206.445,428.475Z" transform="translate(-172.843 -382.682)" fill="#b6c4cf"/>
        <path id="Trazado_979860" data-name="Trazado 979860" d="M265.622,422.688v2.423a3.364,3.364,0,0,1-3.364,3.364H265.4a3.364,3.364,0,0,0,3.364-3.364v-2.423Z" transform="translate(-231.802 -382.682)" fill="#9facba"/>
      </g>
      <g id="Grupo_1144496" data-name="Grupo 1144496" transform="translate(0 33.405)">
        <path id="Trazado_979861" data-name="Trazado 979861" d="M60.783,121.22a1.844,1.844,0,0,0-1.423-.668H56.395V88.516a3.569,3.569,0,0,0-3.565-3.565H49.266a.9.9,0,1,0,0,1.793H52.83A1.773,1.773,0,0,1,54.6,88.515v27.713H31.5V113.7H47.47a2.541,2.541,0,0,0,2.539-2.538V91.729a2.541,2.541,0,0,0-2.539-2.538H45.441a6.125,6.125,0,1,0-11.462-4.24H8.379a3.569,3.569,0,0,0-3.565,3.565v32.037H1.85a1.85,1.85,0,0,0-1.818,2.19,6.608,6.608,0,0,0,6.493,5.39h48.16a6.608,6.608,0,0,0,6.493-5.39,1.845,1.845,0,0,0-.4-1.522ZM14.8,116.228a.9.9,0,1,0,0,1.793H54.6v2.531H6.608v-2.531H10.6a.9.9,0,1,0,0-1.793H6.608V88.515A1.773,1.773,0,0,1,8.38,86.744H33.733a6.086,6.086,0,0,0,.694,2.76A6.744,6.744,0,0,0,30.6,92.582a6.752,6.752,0,0,0-5.851-3.391H13.739A2.541,2.541,0,0,0,11.2,91.729v19.429a2.541,2.541,0,0,0,2.538,2.538H29.708v2.532ZM39.858,92.8a6.1,6.1,0,0,0,1.905-.3v2.3a.916.916,0,0,1-.914.915H38.868a.916.916,0,0,1-.915-.915v-2.3a6.092,6.092,0,0,0,1.9.3Zm-10.15,19.1H13.739a.746.746,0,0,1-.745-.745V91.729a.746.746,0,0,1,.745-.745H24.752a4.962,4.962,0,0,1,4.956,4.956ZM47.47,90.984a.746.746,0,0,1,.746.745v19.429a.746.746,0,0,1-.746.745H31.5V95.94h0a4.924,4.924,0,0,1,4.088-4.879,6.167,6.167,0,0,0,.571.492V94.8A2.711,2.711,0,0,0,38.868,97.5h1.981A2.711,2.711,0,0,0,43.557,94.8V91.553a6.175,6.175,0,0,0,.65-.569Zm-7.611-8.645a4.334,4.334,0,0,1,.9,8.573v-3.2a.9.9,0,1,0-1.793,0v3.2a4.334,4.334,0,0,1,.9-8.573ZM1.795,122.412a.051.051,0,0,1,.012-.046.052.052,0,0,1,.043-.02h20.6v1.526a4.236,4.236,0,0,0,.79,2.467H6.525a4.814,4.814,0,0,1-4.73-3.927Zm24.917,3.927a2.47,2.47,0,0,1-2.467-2.467v-1.526H36.965v1.526a2.47,2.47,0,0,1-2.467,2.467Zm32.7-3.927a4.814,4.814,0,0,1-4.73,3.927H37.968a4.235,4.235,0,0,0,.79-2.467v-1.526h20.6a.056.056,0,0,1,.055.067Z" transform="translate(0 -74.91)"/>
        <path id="Trazado_979862" data-name="Trazado 979862" d="M151.717,208.524h-6.353a.9.9,0,1,0,0,1.793h6.353a.9.9,0,1,0,0-1.793Z" transform="translate(-127.197 -187.589)"/>
        <path id="Trazado_979863" data-name="Trazado 979863" d="M151.717,239.51h-6.353a.9.9,0,1,0,0,1.793h6.353a.9.9,0,0,0,0-1.793Z" transform="translate(-127.197 -214.87)"/>
        <path id="Trazado_979864" data-name="Trazado 979864" d="M151.717,270.495h-6.353a.9.9,0,1,0,0,1.793h6.353a.9.9,0,1,0,0-1.793Z" transform="translate(-127.197 -242.151)"/>
        <path id="Trazado_979865" data-name="Trazado 979865" d="M151.717,301.481h-6.353a.9.9,0,1,0,0,1.793h6.353a.9.9,0,1,0,0-1.793Z" transform="translate(-127.197 -269.433)"/>
        <path id="Trazado_979866" data-name="Trazado 979866" d="M306.64,239.51h-6.353a.9.9,0,0,0,0,1.793h6.353a.9.9,0,0,0,0-1.793Z" transform="translate(-263.599 -214.87)"/>
        <path id="Trazado_979867" data-name="Trazado 979867" d="M306.64,270.495h-6.353a.9.9,0,0,0,0,1.793h6.353a.9.9,0,0,0,0-1.793Z" transform="translate(-263.599 -242.151)"/>
        <path id="Trazado_979868" data-name="Trazado 979868" d="M306.64,301.481h-6.353a.9.9,0,1,0,0,1.793h6.353a.9.9,0,1,0,0-1.793Z" transform="translate(-263.599 -269.433)"/>
        <path id="Trazado_979869" data-name="Trazado 979869" d="M276.359,37.539a.9.9,0,0,0,.776-1.345l-1.351-2.34a.9.9,0,0,0-1.553.9l1.351,2.34A.9.9,0,0,0,276.359,37.539Z" transform="translate(-241.34 -33.405)"/>
        <path id="Trazado_979870" data-name="Trazado 979870" d="M367.97,37.54a.9.9,0,0,0,.777-.448l1.351-2.34a.9.9,0,0,0-1.553-.9l-1.351,2.34a.9.9,0,0,0,.776,1.345Z" transform="translate(-323.191 -33.407)"/>
        <circle id="Elipse_11579" data-name="Elipse 11579" cx="0.897" cy="0.897" r="0.897" transform="translate(47.457 5.914)"/>
        <circle id="Elipse_11580" data-name="Elipse 11580" cx="0.897" cy="0.897" r="0.897" transform="translate(30.548 5.914)"/>
        <circle id="Elipse_11581" data-name="Elipse 11581" cx="0.897" cy="0.897" r="0.897" transform="translate(39.002 1.032)"/>
      </g>
    </g>
  </g>
</svg>
