<svg xmlns="http://www.w3.org/2000/svg" xmlns:xlink="http://www.w3.org/1999/xlink" width="108" height="108" viewBox="0 0 108 108">
  <defs>
    <filter id="Trazado_904820" x="0" y="0" width="108" height="108" filterUnits="userSpaceOnUse">
      <feOffset dy="3" input="SourceAlpha"/>
      <feGaussianBlur stdDeviation="3" result="blur"/>
      <feFlood flood-opacity="0.161"/>
      <feComposite operator="in" in2="blur"/>
      <feComposite in="SourceGraphic"/>
    </filter>
  </defs>
  <g id="_29" data-name="29" transform="translate(-307 -9773)">
    <g transform="matrix(1, 0, 0, 1, 307, 9773)" filter="url(#Trazado_904820)">
      <g id="Trazado_904820-2" data-name="Trazado 904820" transform="translate(9 6)" fill="#ecf4fa">
        <path d="M 45 88.5 C 39.12687683105469 88.5 33.43022537231445 87.35007476806641 28.06830024719238 85.08217620849609 C 22.88852500915527 82.89131164550781 18.23629951477051 79.75458526611328 14.2408504486084 75.75914764404297 C 10.24541282653809 71.76370239257812 7.108687400817871 67.11147308349609 4.917825222015381 61.93170166015625 C 2.649924993515015 56.56977462768555 1.5 50.87312316894531 1.5 45 C 1.5 39.12687683105469 2.649924993515015 33.43022537231445 4.917825222015381 28.06830024719238 C 7.108687400817871 22.88852500915527 10.24541282653809 18.23629951477051 14.2408504486084 14.2408504486084 C 18.23629951477051 10.24541282653809 22.88852500915527 7.108687400817871 28.06830024719238 4.917825222015381 C 33.43022537231445 2.649924993515015 39.12687683105469 1.5 45 1.5 C 50.87312316894531 1.5 56.56977462768555 2.649924993515015 61.93170166015625 4.917825222015381 C 67.11147308349609 7.108687400817871 71.76370239257812 10.24541282653809 75.75914764404297 14.2408504486084 C 79.75458526611328 18.23629951477051 82.89131164550781 22.88852500915527 85.08217620849609 28.06830024719238 C 87.35007476806641 33.43022537231445 88.5 39.12687683105469 88.5 45 C 88.5 50.87312316894531 87.35007476806641 56.56977462768555 85.08217620849609 61.93170166015625 C 82.89131164550781 67.11147308349609 79.75458526611328 71.76370239257812 75.75914764404297 75.75914764404297 C 71.76370239257812 79.75458526611328 67.11147308349609 82.89131164550781 61.93170166015625 85.08217620849609 C 56.56977462768555 87.35007476806641 50.87312316894531 88.5 45 88.5 Z" stroke="none"/>
        <path d="M 45 3 C 39.32871246337891 3 33.82865524291992 4.110054016113281 28.65262985229492 6.299339294433594 C 23.65165710449219 8.414573669433594 19.15968322753906 11.44334411621094 15.301513671875 15.301513671875 C 11.44334411621094 19.15968322753906 8.414573669433594 23.65165710449219 6.299339294433594 28.65262985229492 C 4.110054016113281 33.82865524291992 3 39.32871246337891 3 45 C 3 50.67128753662109 4.110054016113281 56.17134475708008 6.299339294433594 61.34737396240234 C 8.414573669433594 66.34834289550781 11.44334411621094 70.84031677246094 15.301513671875 74.698486328125 C 19.15968322753906 78.55665588378906 23.65165710449219 81.58542633056641 28.65262985229492 83.70066070556641 C 33.82865524291992 85.88994598388672 39.32871246337891 87 45 87 C 50.67128753662109 87 56.17134475708008 85.88994598388672 61.34737396240234 83.70066070556641 C 66.34834289550781 81.58542633056641 70.84031677246094 78.55665588378906 74.698486328125 74.698486328125 C 78.55665588378906 70.84031677246094 81.58542633056641 66.34834289550781 83.70066070556641 61.34737396240234 C 85.88994598388672 56.17134475708008 87 50.67128753662109 87 45 C 87 39.32871246337891 85.88994598388672 33.82865524291992 83.70066070556641 28.65262985229492 C 81.58542633056641 23.65165710449219 78.55665588378906 19.15968322753906 74.698486328125 15.301513671875 C 70.84031677246094 11.44334411621094 66.34834289550781 8.414573669433594 61.34737396240234 6.299339294433594 C 56.17134475708008 4.110054016113281 50.67128753662109 3 45 3 M 45 0 C 69.85281372070312 0 90 20.14718627929688 90 45 C 90 69.85281372070312 69.85281372070312 90 45 90 C 20.14718627929688 90 0 69.85281372070312 0 45 C 0 20.14718627929688 20.14718627929688 0 45 0 Z" stroke="none" fill="#2a5673"/>
      </g>
    </g>
    <g id="Grupo_1144503" data-name="Grupo 1144503" transform="translate(324 9786.691)">
      <g id="Grupo_1144502" data-name="Grupo 1144502" transform="translate(8.936 9.284)">
        <g id="Grupo_1144499" data-name="Grupo 1144499" transform="translate(0 4.997)">
          <path id="Trazado_979871" data-name="Trazado 979871" d="M180.572,373.09h17.641v10.048H180.572Z" transform="translate(-161.328 -336.371)" fill="#a79ba7" fill-rule="evenodd"/>
          <path id="Trazado_979872" data-name="Trazado 979872" d="M319.73,373.09H321.1v10.048H319.73Z" transform="translate(-284.213 -336.371)" fill="#837683" fill-rule="evenodd"/>
          <path id="Trazado_979873" data-name="Trazado 979873" d="M92.936,451.247h38.136v-2.94c0-1.617-1.656-2.94-3.68-2.94H96.616c-2.024,0-3.68,1.323-3.68,2.94Z" transform="translate(-83.939 -400.197)" fill="#9facba" fill-rule="evenodd"/>
          <path id="Trazado_979874" data-name="Trazado 979874" d="M92.936,455.663h38.136v-2.94a2.8,2.8,0,0,0-1.484-2.355,2.426,2.426,0,0,1,.315,1.186v2.94H92.936Z" transform="translate(-83.939 -404.612)" fill="#8d9ca8" fill-rule="evenodd"/>
          <path id="Trazado_979875" data-name="Trazado 979875" d="M20.315,59.082h47.5A4.328,4.328,0,0,1,72.129,63.4V93.082A4.328,4.328,0,0,1,67.814,97.4h-47.5A4.328,4.328,0,0,1,16,93.082V63.4A4.328,4.328,0,0,1,20.315,59.082Z" transform="translate(-16 -59.082)" fill="#9facba" fill-rule="evenodd"/>
          <path id="Trazado_979876" data-name="Trazado 979876" d="M75.8,65.4a4.32,4.32,0,0,1,1.908,3.576V98.66a4.328,4.328,0,0,1-4.315,4.315h-47.5a4.32,4.32,0,0,1-3.576-1.908,4.284,4.284,0,0,0,2.407.739h47.5a4.328,4.328,0,0,0,4.315-4.315V67.806A4.285,4.285,0,0,0,75.8,65.4Z" transform="translate(-21.579 -64.66)" fill="#8d9ca8" fill-rule="evenodd"/>
          <path id="Trazado_979877" data-name="Trazado 979877" d="M47.456,89.939H95.172a.6.6,0,0,1,.6.6v26.871H46.858V90.537A.6.6,0,0,1,47.456,89.939Z" transform="translate(-43.25 -86.331)" fill="#d8ecfe" fill-rule="evenodd"/>
          <path id="Trazado_979878" data-name="Trazado 979878" d="M440.024,89.939h2.339a.6.6,0,0,1,.6.6v26.871h-2.339V90.537A.6.6,0,0,0,440.024,89.939Z" transform="translate(-390.441 -86.331)" fill="#c4e2ff" fill-rule="evenodd"/>
        </g>
        <g id="Grupo_1144500" data-name="Grupo 1144500" transform="translate(12.426 0)">
          <path id="Trazado_979879" data-name="Trazado 979879" d="M371.245,124.657l1.973,1.075v5.679l-1.973-1.4-1.973,1.4v-5.679Z" transform="translate(-340.388 -111.992)" fill="#ffe177" fill-rule="evenodd"/>
          <path id="Trazado_979880" data-name="Trazado 979880" d="M172.353,47l11.076.272v9.853a.957.957,0,0,1-.789.948c-12.008,2.224-8.566,2.224-20.574,0a.957.957,0,0,1-.789-.948V47.268Z" transform="translate(-156.715 -43.412)" fill="#837683" fill-rule="evenodd"/>
          <path id="Trazado_979881" data-name="Trazado 979881" d="M183.43,57.179V58.9a.957.957,0,0,1-.789.948c-12.008,2.224-8.566,2.224-20.574,0a.957.957,0,0,1-.789-.948V49.05l1.487-.037v9.244c11.176,2.093,8.108,2.049,19.876-.13A.957.957,0,0,0,183.43,57.179Z" transform="translate(-156.715 -45.193)" fill="#685e68" fill-rule="evenodd"/>
          <path id="Trazado_979882" data-name="Trazado 979882" d="M137.9,16.346l15.5,4.116a.193.193,0,0,1,0,.373l-15.5,4.116-15.5-4.116a.193.193,0,0,1,0-.373Z" transform="translate(-122.262 -16.346)" fill="#837683" fill-rule="evenodd"/>
          <path id="Trazado_979883" data-name="Trazado 979883" d="M150.472,44.9l2.925.777a.194.194,0,0,1,0,.374l-15.5,4.116-15.5-4.116a.194.194,0,0,1,0-.374l2.925-.777L137.9,48.24Z" transform="translate(-122.263 -41.562)" fill="#685e68" fill-rule="evenodd"/>
        </g>
        <g id="Grupo_1144501" data-name="Grupo 1144501" transform="translate(22.525 25.536)">
          <path id="Trazado_979884" data-name="Trazado 979884" d="M239.524,254.057a2.715,2.715,0,0,1,2.71,2.71v18.728a2.618,2.618,0,0,1-.794,1.916l-4.1,4.1a2.618,2.618,0,0,1-1.916.794H211.34a2.715,2.715,0,0,1-2.71-2.71V256.767a2.715,2.715,0,0,1,2.71-2.71Z" transform="translate(-208.63 -251.797)" fill="#eceff1" fill-rule="evenodd"/>
          <path id="Trazado_979885" data-name="Trazado 979885" d="M456.963,254.057a2.715,2.715,0,0,1,2.71,2.71v18.728a2.618,2.618,0,0,1-.794,1.916h-1.307V256.767a2.715,2.715,0,0,0-2.71-2.71Z" transform="translate(-426.07 -251.797)" fill="#d1d1d6" fill-rule="evenodd"/>
          <path id="Trazado_979886" data-name="Trazado 979886" d="M447.333,447.665v4.779a2.717,2.717,0,0,0,.794-.559l4.1-4.1a2.718,2.718,0,0,0,.559-.794h-4.779A.679.679,0,0,0,447.333,447.665Z" transform="translate(-419.42 -422.166)" fill="#d1d1d6" fill-rule="evenodd"/>
          <path id="Trazado_979887" data-name="Trazado 979887" d="M478.039,449.087l1.307-1.307a2.718,2.718,0,0,0,.559-.794h-1.865Z" transform="translate(-446.536 -422.166)" fill="#b1b1b5" fill-rule="evenodd"/>
          <path id="Trazado_979888" data-name="Trazado 979888" d="M208.63,259.971h33.6v-3.2a2.715,2.715,0,0,0-2.71-2.71H211.34a2.715,2.715,0,0,0-2.71,2.71Z" transform="translate(-208.63 -251.797)" fill="#d1d1d6" fill-rule="evenodd"/>
          <path id="Trazado_979889" data-name="Trazado 979889" d="M457.574,259.971h2.1v-3.2a2.715,2.715,0,0,0-2.71-2.71h-2.1a2.715,2.715,0,0,1,2.71,2.71Z" transform="translate(-426.07 -251.797)" fill="#b1b1b5" fill-rule="evenodd"/>
          <path id="Trazado_979890" data-name="Trazado 979890" d="M251.733,339.84h-2.561a.7.7,0,0,0-.7.7V343.1a.7.7,0,0,0,.7.7h2.561a.7.7,0,0,0,.7-.7V340.54A.7.7,0,0,0,251.733,339.84Z" transform="translate(-243.813 -327.548)" fill="#fe646f" fill-rule="evenodd"/>
          <path id="Trazado_979891" data-name="Trazado 979891" d="M251.733,339.84V342.4a.7.7,0,0,1-.7.7h-2.561a.7.7,0,0,0,.7.7h2.561a.7.7,0,0,0,.7-.7V340.54A.7.7,0,0,0,251.733,339.84Z" transform="translate(-243.813 -327.548)" fill="#fd4755" fill-rule="evenodd"/>
          <path id="Trazado_979892" data-name="Trazado 979892" d="M295.185,339.84h-2.561a.7.7,0,0,0-.7.7V343.1a.7.7,0,0,0,.7.7h2.561a.7.7,0,0,0,.7-.7V340.54A.7.7,0,0,0,295.185,339.84Z" transform="translate(-282.184 -327.548)" fill="#8ac9fe" fill-rule="evenodd"/>
          <path id="Trazado_979893" data-name="Trazado 979893" d="M295.186,339.84V342.4a.7.7,0,0,1-.7.7h-2.561a.7.7,0,0,0,.7.7h2.561a.7.7,0,0,0,.7-.7V340.54A.7.7,0,0,0,295.186,339.84Z" transform="translate(-282.185 -327.548)" fill="#60b7ff" fill-rule="evenodd"/>
          <path id="Trazado_979894" data-name="Trazado 979894" d="M338.638,339.84h-2.561a.7.7,0,0,0-.7.7V343.1a.7.7,0,0,0,.7.7h2.561a.7.7,0,0,0,.7-.7V340.54A.7.7,0,0,0,338.638,339.84Z" transform="translate(-320.556 -327.548)" fill="#8ac9fe" fill-rule="evenodd"/>
          <path id="Trazado_979895" data-name="Trazado 979895" d="M338.639,339.84V342.4a.7.7,0,0,1-.7.7h-2.561a.7.7,0,0,0,.7.7h2.561a.7.7,0,0,0,.7-.7V340.54A.7.7,0,0,0,338.639,339.84Z" transform="translate(-320.557 -327.548)" fill="#60b7ff" fill-rule="evenodd"/>
          <path id="Trazado_979896" data-name="Trazado 979896" d="M382.091,339.84H379.53a.7.7,0,0,0-.7.7V343.1a.7.7,0,0,0,.7.7h2.561a.7.7,0,0,0,.7-.7V340.54A.7.7,0,0,0,382.091,339.84Z" transform="translate(-358.928 -327.548)" fill="#8ac9fe" fill-rule="evenodd"/>
          <path id="Trazado_979897" data-name="Trazado 979897" d="M382.092,339.84V342.4a.7.7,0,0,1-.7.7h-2.561a.7.7,0,0,0,.7.7h2.561a.7.7,0,0,0,.7-.7V340.54A.7.7,0,0,0,382.092,339.84Z" transform="translate(-358.928 -327.548)" fill="#60b7ff" fill-rule="evenodd"/>
          <path id="Trazado_979898" data-name="Trazado 979898" d="M425.545,339.84h-2.561a.7.7,0,0,0-.7.7V343.1a.7.7,0,0,0,.7.7h2.561a.7.7,0,0,0,.7-.7V340.54A.7.7,0,0,0,425.545,339.84Z" transform="translate(-397.3 -327.548)" fill="#8ac9fe" fill-rule="evenodd"/>
          <path id="Trazado_979899" data-name="Trazado 979899" d="M425.546,339.84V342.4a.7.7,0,0,1-.7.7h-2.561a.7.7,0,0,0,.7.7h2.561a.7.7,0,0,0,.7-.7V340.54A.7.7,0,0,0,425.546,339.84Z" transform="translate(-397.301 -327.548)" fill="#60b7ff" fill-rule="evenodd"/>
          <path id="Trazado_979900" data-name="Trazado 979900" d="M425.545,383.293h-2.561a.7.7,0,0,0-.7.7v2.561a.7.7,0,0,0,.7.7h2.561a.7.7,0,0,0,.7-.7v-2.561A.7.7,0,0,0,425.545,383.293Z" transform="translate(-397.3 -365.92)" fill="#8ac9fe" fill-rule="evenodd"/>
          <path id="Trazado_979901" data-name="Trazado 979901" d="M425.546,383.293v2.561a.7.7,0,0,1-.7.7h-2.561a.7.7,0,0,0,.7.7h2.561a.7.7,0,0,0,.7-.7v-2.561A.7.7,0,0,0,425.546,383.293Z" transform="translate(-397.301 -365.92)" fill="#60b7ff" fill-rule="evenodd"/>
          <path id="Trazado_979902" data-name="Trazado 979902" d="M382.091,383.293H379.53a.7.7,0,0,0-.7.7v2.561a.7.7,0,0,0,.7.7h2.561a.7.7,0,0,0,.7-.7v-2.561A.7.7,0,0,0,382.091,383.293Z" transform="translate(-358.928 -365.92)" fill="#8ac9fe" fill-rule="evenodd"/>
          <path id="Trazado_979903" data-name="Trazado 979903" d="M382.092,383.293v2.561a.7.7,0,0,1-.7.7h-2.561a.7.7,0,0,0,.7.7h2.561a.7.7,0,0,0,.7-.7v-2.561A.7.7,0,0,0,382.092,383.293Z" transform="translate(-358.928 -365.92)" fill="#60b7ff" fill-rule="evenodd"/>
          <path id="Trazado_979904" data-name="Trazado 979904" d="M338.638,383.293h-2.561a.7.7,0,0,0-.7.7v2.561a.7.7,0,0,0,.7.7h2.561a.7.7,0,0,0,.7-.7v-2.561A.7.7,0,0,0,338.638,383.293Z" transform="translate(-320.556 -365.92)" fill="#8ac9fe" fill-rule="evenodd"/>
          <path id="Trazado_979905" data-name="Trazado 979905" d="M338.639,383.293v2.561a.7.7,0,0,1-.7.7h-2.561a.7.7,0,0,0,.7.7h2.561a.7.7,0,0,0,.7-.7v-2.561A.7.7,0,0,0,338.639,383.293Z" transform="translate(-320.557 -365.92)" fill="#60b7ff" fill-rule="evenodd"/>
          <path id="Trazado_979906" data-name="Trazado 979906" d="M295.185,383.293h-2.561a.7.7,0,0,0-.7.7v2.561a.7.7,0,0,0,.7.7h2.561a.7.7,0,0,0,.7-.7v-2.561A.7.7,0,0,0,295.185,383.293Z" transform="translate(-282.184 -365.92)" fill="#8ac9fe" fill-rule="evenodd"/>
          <path id="Trazado_979907" data-name="Trazado 979907" d="M295.186,383.293v2.561a.7.7,0,0,1-.7.7h-2.561a.7.7,0,0,0,.7.7h2.561a.7.7,0,0,0,.7-.7v-2.561A.7.7,0,0,0,295.186,383.293Z" transform="translate(-282.185 -365.92)" fill="#60b7ff" fill-rule="evenodd"/>
          <path id="Trazado_979908" data-name="Trazado 979908" d="M251.733,383.293h-2.561a.7.7,0,0,0-.7.7v2.561a.7.7,0,0,0,.7.7h2.561a.7.7,0,0,0,.7-.7v-2.561A.7.7,0,0,0,251.733,383.293Z" transform="translate(-243.813 -365.92)" fill="#fe646f" fill-rule="evenodd"/>
          <path id="Trazado_979909" data-name="Trazado 979909" d="M251.733,383.293v2.561a.7.7,0,0,1-.7.7h-2.561a.7.7,0,0,0,.7.7h2.561a.7.7,0,0,0,.7-.7v-2.561A.7.7,0,0,0,251.733,383.293Z" transform="translate(-243.813 -365.92)" fill="#fd4755" fill-rule="evenodd"/>
          <path id="Trazado_979910" data-name="Trazado 979910" d="M251.733,426.746h-2.561a.7.7,0,0,0-.7.7v2.561a.7.7,0,0,0,.7.7h2.561a.7.7,0,0,0,.7-.7v-2.561A.7.7,0,0,0,251.733,426.746Z" transform="translate(-243.813 -404.292)" fill="#fe646f" fill-rule="evenodd"/>
          <path id="Trazado_979911" data-name="Trazado 979911" d="M251.733,426.746v2.561a.7.7,0,0,1-.7.7h-2.561a.7.7,0,0,0,.7.7h2.561a.7.7,0,0,0,.7-.7v-2.561A.7.7,0,0,0,251.733,426.746Z" transform="translate(-243.813 -404.292)" fill="#fd4755" fill-rule="evenodd"/>
          <path id="Trazado_979912" data-name="Trazado 979912" d="M295.185,426.746h-2.561a.7.7,0,0,0-.7.7v2.561a.7.7,0,0,0,.7.7h2.561a.7.7,0,0,0,.7-.7v-2.561A.7.7,0,0,0,295.185,426.746Z" transform="translate(-282.184 -404.292)" fill="#8ac9fe" fill-rule="evenodd"/>
          <path id="Trazado_979913" data-name="Trazado 979913" d="M295.186,426.746v2.561a.7.7,0,0,1-.7.7h-2.561a.7.7,0,0,0,.7.7h2.561a.7.7,0,0,0,.7-.7v-2.561A.7.7,0,0,0,295.186,426.746Z" transform="translate(-282.185 -404.292)" fill="#60b7ff" fill-rule="evenodd"/>
          <path id="Trazado_979914" data-name="Trazado 979914" d="M338.638,426.746h-2.561a.7.7,0,0,0-.7.7v2.561a.7.7,0,0,0,.7.7h2.561a.7.7,0,0,0,.7-.7v-2.561A.7.7,0,0,0,338.638,426.746Z" transform="translate(-320.556 -404.292)" fill="#8ac9fe" fill-rule="evenodd"/>
          <path id="Trazado_979915" data-name="Trazado 979915" d="M338.639,426.746v2.561a.7.7,0,0,1-.7.7h-2.561a.7.7,0,0,0,.7.7h2.561a.7.7,0,0,0,.7-.7v-2.561A.7.7,0,0,0,338.639,426.746Z" transform="translate(-320.557 -404.292)" fill="#60b7ff" fill-rule="evenodd"/>
          <path id="Trazado_979916" data-name="Trazado 979916" d="M382.091,426.746H379.53a.7.7,0,0,0-.7.7v2.561a.7.7,0,0,0,.7.7h2.561a.7.7,0,0,0,.7-.7v-2.561A.7.7,0,0,0,382.091,426.746Z" transform="translate(-358.928 -404.292)" fill="#8ac9fe" fill-rule="evenodd"/>
          <path id="Trazado_979917" data-name="Trazado 979917" d="M382.092,426.746v2.561a.7.7,0,0,1-.7.7h-2.561a.7.7,0,0,0,.7.7h2.561a.7.7,0,0,0,.7-.7v-2.561A.7.7,0,0,0,382.092,426.746Z" transform="translate(-358.928 -404.292)" fill="#60b7ff" fill-rule="evenodd"/>
          <path id="Trazado_979918" data-name="Trazado 979918" d="M244.825,234.727h1.343a.679.679,0,0,1,.677.678v4.11a.679.679,0,0,1-.677.678h-1.343a.679.679,0,0,1-.678-.678V235.4A.679.679,0,0,1,244.825,234.727Zm22.6,0h1.343a.679.679,0,0,1,.677.678v4.11a.679.679,0,0,1-.677.678h-1.343a.679.679,0,0,1-.677-.678V235.4A.679.679,0,0,1,267.423,234.727Zm-7.533,0h1.343a.679.679,0,0,1,.678.678v4.11a.679.679,0,0,1-.678.678h-1.343a.679.679,0,0,1-.678-.678V235.4A.679.679,0,0,1,259.891,234.727Zm-7.533,0H253.7a.679.679,0,0,1,.678.678v4.11a.679.679,0,0,1-.678.678h-1.343a.679.679,0,0,1-.677-.678V235.4A.679.679,0,0,1,252.357,234.727Z" transform="translate(-239.994 -234.727)" fill="#837683" fill-rule="evenodd"/>
          <path id="Trazado_979919" data-name="Trazado 979919" d="M266.746,239.513a.679.679,0,0,0,.677.678h1.343a.679.679,0,0,0,.677-.678V235.4a.679.679,0,0,0-.678-.678v4.11a.679.679,0,0,1-.678.678Zm-13.723,0H251.68a.679.679,0,0,0,.677.678H253.7a.679.679,0,0,0,.678-.678V235.4a.679.679,0,0,0-.678-.678v4.11A.679.679,0,0,1,253.023,239.513Zm-6.855.678a.679.679,0,0,0,.678-.678V235.4a.679.679,0,0,0-.678-.678v4.11a.679.679,0,0,1-.678.678h-1.343a.679.679,0,0,0,.678.678Zm15.066,0a.679.679,0,0,0,.678-.678V235.4a.679.679,0,0,0-.678-.678v4.11a.679.679,0,0,1-.678.678h-1.343a.679.679,0,0,0,.678.678Z" transform="translate(-239.994 -234.726)" fill="#685e68" fill-rule="evenodd"/>
        </g>
      </g>
      <path id="Trazado_979920" data-name="Trazado 979920" d="M29.736,36.25a.936.936,0,0,1-.936.935H19.7a.935.935,0,1,1,0-1.871h9.1A.935.935,0,0,1,29.736,36.25Zm-11.529,0a.936.936,0,0,1-.936.935H16.1a.935.935,0,0,1,0-1.871h1.169A.935.935,0,0,1,18.207,36.25Zm1.5-8.574h9.1a.936.936,0,1,1,0,1.871H19.7a.936.936,0,1,1,0-1.871Zm-1.5.935a.936.936,0,0,1-.936.936H16.1a.936.936,0,0,1,0-1.871h1.169A.936.936,0,0,1,18.207,28.612ZM29.736,32.43a.935.935,0,0,1-.936.936H19.7a.936.936,0,0,1,0-1.871h9.1A.936.936,0,0,1,29.736,32.43Zm-11.529,0a.936.936,0,0,1-.936.936H16.1a.936.936,0,0,1,0-1.871h1.169A.936.936,0,0,1,18.207,32.43ZM56.82,55.779V52.568h3.211v3.211Zm-5.081,5.081v-3.21h3.21v3.21ZM36.5,57.651h3.211v3.21H36.5Zm3.211-10.163V50.7H36.5V47.488ZM51.739,50.7V47.488h3.21V50.7Zm-5.081,5.082V52.568h3.21v3.211Zm0,1.871h3.21v3.21h-3.21Zm-1.871,0v3.21H41.577v-3.21Zm1.871-10.163h3.21V50.7h-3.21ZM44.787,50.7H41.577V47.488h3.209Zm-5.08,5.082H36.5V52.568h3.211Zm1.871-3.211h3.209v3.211H41.577Zm13.371,3.211h-3.21V52.568h3.21ZM60.031,50.7H56.82V47.488h3.211ZM61.9,56.715V46.552a.935.935,0,0,0-.936-.935H35.56a.935.935,0,0,0-.936.935V61.8a.935.935,0,0,0,.936.935H55.884a.935.935,0,0,0,.936-.935V57.651h4.147A.936.936,0,0,0,61.9,56.715Zm-1.593,6.359v-2.5h2.5ZM34.172,64.4H58.251c.064,0,.126,0,.187-.008V60.319a1.615,1.615,0,0,1,1.613-1.613h4.069c.006-.061.008-.123.008-.187V43.931H32.4V62.623A1.776,1.776,0,0,0,34.172,64.4Zm-15.3-2c0-1.086,1.256-2,2.743-2h8.914v2.235a3.607,3.607,0,0,0,.463,1.774H18.868Zm10.247-8.86h1.41v4.985h-1.41ZM9.871,48.282a3.383,3.383,0,0,0,3.38,3.379H30.526v-5.4H12.545a.935.935,0,0,1-.935-.936V18.489a1.535,1.535,0,0,1,1.534-1.534H24.988V15.667l-1.694-.45H13.251a3.384,3.384,0,0,0-3.38,3.38ZM37,10.252l12.555,3.335L37,16.922,24.445,13.587ZM64.129,18.6V36.608a3.618,3.618,0,0,0-1.737-.461V18.489a1.535,1.535,0,0,0-1.534-1.534h-7.7V15.217h7.6a3.383,3.383,0,0,1,3.379,3.38ZM32.4,39.791a1.777,1.777,0,0,1,1.775-1.774h.507v1.591a1.615,1.615,0,0,0,1.612,1.612h1.344a1.614,1.614,0,0,0,1.612-1.612V38.017h2.964v1.591a1.615,1.615,0,0,0,1.613,1.612h1.343a1.614,1.614,0,0,0,1.612-1.612V38.017h2.965v1.591a1.615,1.615,0,0,0,1.612,1.612H52.7a1.614,1.614,0,0,0,1.612-1.612V38.017h2.965v1.591a1.615,1.615,0,0,0,1.612,1.612h1.344a1.615,1.615,0,0,0,1.612-1.612V38.017h.509a1.776,1.776,0,0,1,1.774,1.774v2.268H32.4Zm4.98-4.034H36.55V39.35h.827Zm7.533,0h-.827V39.35h.827Zm7.533,0h-.827V39.35h.827Zm7.533,0h-.827V39.35h.827Zm-6.83-12.191V26.83l-.364-.274a.939.939,0,0,0-1.125,0l-.365.274V23.565l.927-.534Zm-27.39,1.152a.936.936,0,0,1-.767-.921v-4.97H13.48V44.392H30.526v-4.6a3.649,3.649,0,0,1,3.646-3.645h.507V35.5a1.615,1.615,0,0,1,1.612-1.612h1.344A1.614,1.614,0,0,1,39.248,35.5v.648h2.964V35.5a1.615,1.615,0,0,1,1.613-1.612h1.343A1.614,1.614,0,0,1,46.781,35.5v.648h2.965V35.5a1.615,1.615,0,0,1,1.612-1.612H52.7A1.614,1.614,0,0,1,54.314,35.5v.648h2.965V35.5a1.615,1.615,0,0,1,1.612-1.612h1.344a1.686,1.686,0,0,1,.286.026V18.826H53.155V21.41l1.394.8a.934.934,0,0,1,.467.811V28.7a.935.935,0,0,1-1.5.747l-1.3-.976-1.3.976a.935.935,0,0,1-1.5-.747V23.025a.937.937,0,0,1,.468-.811l1.4-.8V15.217h-.578l-1.694.45V23.8a.936.936,0,0,1-.767.921c-1.884.344-3.44.645-4.688.886A35.806,35.806,0,0,1,37,26.546a35.8,35.8,0,0,1-6.557-.943c-1.249-.241-2.8-.542-4.688-.886Zm11-5.923a.916.916,0,0,0,.479,0l9.9-2.63v6.854c-1.552.288-2.859.54-3.94.748-6.2,1.2-6.2,1.2-12.4,0-1.08-.208-2.387-.461-3.94-.748V16.164Zm23.99-5.448H54.1a.938.938,0,0,0-.664-.663l-16.2-4.3a.956.956,0,0,0-.479,0l-16.2,4.3a.937.937,0,0,0-.664.663H13.251A5.257,5.257,0,0,0,8,18.6V48.282a5.256,5.256,0,0,0,5.251,5.25H27.244v4.985H21.612c-2.545,0-4.614,1.739-4.614,3.875v2.94a.936.936,0,0,0,.935.936H58.251A3.575,3.575,0,0,0,60.829,65.2l4.1-4.1A3.575,3.575,0,0,0,66,58.52V18.6a5.257,5.257,0,0,0-5.25-5.251Z" transform="translate(0)" fill-rule="evenodd"/>
    </g>
  </g>
</svg>
