<svg xmlns="http://www.w3.org/2000/svg" xmlns:xlink="http://www.w3.org/1999/xlink" width="108" height="108" viewBox="0 0 108 108">
  <defs>
    <filter id="Trazado_904820" x="0" y="0" width="108" height="108" filterUnits="userSpaceOnUse">
      <feOffset dy="3" input="SourceAlpha"/>
      <feGaussianBlur stdDeviation="3" result="blur"/>
      <feFlood flood-opacity="0.161"/>
      <feComposite operator="in" in2="blur"/>
      <feComposite in="SourceGraphic"/>
    </filter>
  </defs>
  <g id="_41" data-name="41" transform="translate(-306 -4675)">
    <g transform="matrix(1, 0, 0, 1, 306, 4675)" filter="url(#Trazado_904820)">
      <g id="Trazado_904820-2" data-name="Trazado 904820" transform="translate(9 6)" fill="#ecf4fa">
        <path d="M 45 88.5 C 39.12687683105469 88.5 33.43022537231445 87.35007476806641 28.06830024719238 85.08217620849609 C 22.88852500915527 82.89131164550781 18.23629951477051 79.75458526611328 14.2408504486084 75.75914764404297 C 10.24541282653809 71.76370239257812 7.108687400817871 67.11147308349609 4.917825222015381 61.93170166015625 C 2.649924993515015 56.56977462768555 1.5 50.87312316894531 1.5 45 C 1.5 39.12687683105469 2.649924993515015 33.43022537231445 4.917825222015381 28.06830024719238 C 7.108687400817871 22.88852500915527 10.24541282653809 18.23629951477051 14.2408504486084 14.2408504486084 C 18.23629951477051 10.24541282653809 22.88852500915527 7.108687400817871 28.06830024719238 4.917825222015381 C 33.43022537231445 2.649924993515015 39.12687683105469 1.5 45 1.5 C 50.87312316894531 1.5 56.56977462768555 2.649924993515015 61.93170166015625 4.917825222015381 C 67.11147308349609 7.108687400817871 71.76370239257812 10.24541282653809 75.75914764404297 14.2408504486084 C 79.75458526611328 18.23629951477051 82.89131164550781 22.88852500915527 85.08217620849609 28.06830024719238 C 87.35007476806641 33.43022537231445 88.5 39.12687683105469 88.5 45 C 88.5 50.87312316894531 87.35007476806641 56.56977462768555 85.08217620849609 61.93170166015625 C 82.89131164550781 67.11147308349609 79.75458526611328 71.76370239257812 75.75914764404297 75.75914764404297 C 71.76370239257812 79.75458526611328 67.11147308349609 82.89131164550781 61.93170166015625 85.08217620849609 C 56.56977462768555 87.35007476806641 50.87312316894531 88.5 45 88.5 Z" stroke="none"/>
        <path d="M 45 3 C 39.32871246337891 3 33.82865524291992 4.110054016113281 28.65262985229492 6.299339294433594 C 23.65165710449219 8.414573669433594 19.15968322753906 11.44334411621094 15.301513671875 15.301513671875 C 11.44334411621094 19.15968322753906 8.414573669433594 23.65165710449219 6.299339294433594 28.65262985229492 C 4.110054016113281 33.82865524291992 3 39.32871246337891 3 45 C 3 50.67128753662109 4.110054016113281 56.17134475708008 6.299339294433594 61.34737396240234 C 8.414573669433594 66.34834289550781 11.44334411621094 70.84031677246094 15.301513671875 74.698486328125 C 19.15968322753906 78.55665588378906 23.65165710449219 81.58542633056641 28.65262985229492 83.70066070556641 C 33.82865524291992 85.88994598388672 39.32871246337891 87 45 87 C 50.67128753662109 87 56.17134475708008 85.88994598388672 61.34737396240234 83.70066070556641 C 66.34834289550781 81.58542633056641 70.84031677246094 78.55665588378906 74.698486328125 74.698486328125 C 78.55665588378906 70.84031677246094 81.58542633056641 66.34834289550781 83.70066070556641 61.34737396240234 C 85.88994598388672 56.17134475708008 87 50.67128753662109 87 45 C 87 39.32871246337891 85.88994598388672 33.82865524291992 83.70066070556641 28.65262985229492 C 81.58542633056641 23.65165710449219 78.55665588378906 19.15968322753906 74.698486328125 15.301513671875 C 70.84031677246094 11.44334411621094 66.34834289550781 8.414573669433594 61.34737396240234 6.299339294433594 C 56.17134475708008 4.110054016113281 50.67128753662109 3 45 3 M 45 0 C 69.85281372070312 0 90 20.14718627929688 90 45 C 90 69.85281372070312 69.85281372070312 90 45 90 C 20.14718627929688 90 0 69.85281372070312 0 45 C 0 20.14718627929688 20.14718627929688 0 45 0 Z" stroke="none" fill="#2a5673"/>
      </g>
    </g>
    <g id="Grupo_1144513" data-name="Grupo 1144513" transform="translate(331.928 4698.929)">
      <g id="Grupo_1144511" data-name="Grupo 1144511" transform="translate(0.793 0.793)">
        <path id="Trazado_979921" data-name="Trazado 979921" d="M84.026,43.478H43.166A2.764,2.764,0,0,1,40.4,40.714V10.264A2.764,2.764,0,0,1,43.166,7.5h40.86a2.764,2.764,0,0,1,2.764,2.764V40.713A2.764,2.764,0,0,1,84.026,43.478Z" transform="translate(-36.923 -7.5)" fill="#c8effe"/>
        <path id="Trazado_979922" data-name="Trazado 979922" d="M45.881,43.478H43.164A2.765,2.765,0,0,1,40.4,40.714V10.264A2.765,2.765,0,0,1,43.164,7.5h2.717a2.765,2.765,0,0,0-2.764,2.764V40.714a2.765,2.765,0,0,0,2.764,2.764Z" transform="translate(-36.921 -7.5)" fill="#99e6fc"/>
        <g id="Grupo_1144506" data-name="Grupo 1144506" transform="translate(7.723 1.976)">
          <path id="Trazado_979923" data-name="Trazado 979923" d="M114.582,228.2h.934a6.091,6.091,0,0,1,6.091,6.091c0,.578-.469,6.549-1.047,6.549H109.538c-.578,0-1.047-5.971-1.047-6.549A6.091,6.091,0,0,1,114.582,228.2Z" transform="translate(-105.534 -206.833)" fill="#9be69d"/>
          <path id="Trazado_979924" data-name="Trazado 979924" d="M89.752,26.184A9.219,9.219,0,0,0,80.533,35.4v3.371a5.245,5.245,0,0,0,5.245,5.245h7.948a5.245,5.245,0,0,0,5.245-5.245V35.4A9.219,9.219,0,0,0,89.752,26.184Z" transform="translate(-80.533 -26.184)" fill="#fe646f"/>
          <path id="Trazado_979925" data-name="Trazado 979925" d="M90.911,44.019H85.776a5.244,5.244,0,0,1-5.244-5.245V35.4a9.225,9.225,0,0,1,11.787-8.856c-5.2-.244-8.966,6.5-4.858,10.246l-1.794,1.981A5.245,5.245,0,0,0,90.911,44.019Z" transform="translate(-80.532 -26.184)" fill="#fd4755"/>
          <path id="Trazado_979926" data-name="Trazado 979926" d="M111.021,229.974a6.072,6.072,0,0,0-1.784,4.307c0,.578-.678,4.01-.1,4.01H105.57c-.578,0,.1-3.432.1-4.01a6.09,6.09,0,0,1,6.091-6.091h.935a6.1,6.1,0,0,1,1.317.143A6.078,6.078,0,0,0,111.021,229.974Z" transform="translate(-102.714 -206.828)" fill="#6fd7a3"/>
          <g id="Grupo_1144505" data-name="Grupo 1144505" transform="translate(3.162 9.383)">
            <path id="Trazado_979927" data-name="Trazado 979927" d="M123.14,117.163v2.906A6.354,6.354,0,0,1,119.076,126v1.414a2.325,2.325,0,0,1-2.2,2.343,2.29,2.29,0,0,1-2.374-2.288v-1.47a6.354,6.354,0,0,1-4.062-5.926v-2.906a6.419,6.419,0,0,1,.059-.873.533.533,0,0,1,.732-.416,5.075,5.075,0,0,0,5.2-.828.563.563,0,0,1,.725,0,5.075,5.075,0,0,0,5.2.828.532.532,0,0,1,.731.416A6.369,6.369,0,0,1,123.14,117.163Z" transform="translate(-110.436 -114.914)" fill="#ffdfcf"/>
            <path id="Trazado_979928" data-name="Trazado 979928" d="M119.383,133.643c-.1.047-.2.09-.307.129v1.414a2.325,2.325,0,0,1-2.2,2.343,2.29,2.29,0,0,1-2.374-2.288v-1.47a6.354,6.354,0,0,1-4.062-5.926V124.94a6.418,6.418,0,0,1,.059-.873.533.533,0,0,1,.732-.417,5.1,5.1,0,0,0,2.975.266c-.017.189-.025.379-.025.572v2.906a6.354,6.354,0,0,0,5.206,6.249Z" transform="translate(-110.436 -122.69)" fill="#ffcebf"/>
          </g>
        </g>
        <g id="Grupo_1144507" data-name="Grupo 1144507" transform="translate(18.328 25.069)">
          <path id="Trazado_979929" data-name="Trazado 979929" d="M195.784,422.093h-14.03a.935.935,0,0,1-.935-.935V420.3a7.951,7.951,0,1,1,15.9,0v.859A.935.935,0,0,1,195.784,422.093Z" transform="translate(-180.818 -394.605)" fill="#fe646f"/>
          <path id="Trazado_979930" data-name="Trazado 979930" d="M185.552,420.294v.86a.936.936,0,0,0,.935.935h-4.734a.936.936,0,0,1-.935-.935v-.86a7.956,7.956,0,0,1,10.318-7.592A7.953,7.953,0,0,0,185.552,420.294Z" transform="translate(-180.818 -394.601)" fill="#fd4755"/>
          <path id="Trazado_979931" data-name="Trazado 979931" d="M195.571,262.963H181.965a1.147,1.147,0,0,1-1.147-1.147v-9.3a7.951,7.951,0,1,1,15.9,0v9.3a1.147,1.147,0,0,1-1.147,1.147Z" transform="translate(-180.817 -244.565)" fill="#ffe177"/>
          <path id="Trazado_979932" data-name="Trazado 979932" d="M185.271,252.521v9.3a1.147,1.147,0,0,0,1.147,1.148h-4.454a1.147,1.147,0,0,1-1.147-1.148v-9.3a7.954,7.954,0,0,1,10.177-7.634A7.953,7.953,0,0,0,185.271,252.521Z" transform="translate(-180.817 -244.569)" fill="#ffd15b"/>
        </g>
        <g id="Grupo_1144508" data-name="Grupo 1144508" transform="translate(36.656 25.069)">
          <path id="Trazado_979933" data-name="Trazado 979933" d="M369.1,422.093h-14.03a.935.935,0,0,1-.935-.935V420.3a7.951,7.951,0,1,1,15.9,0v.859A.935.935,0,0,1,369.1,422.093Z" transform="translate(-354.133 -394.605)" fill="#d9b1ee"/>
          <path id="Trazado_979934" data-name="Trazado 979934" d="M375.724,347.585h-3.74A4.689,4.689,0,0,1,367.3,342.9v-2.97h13.117v2.97A4.689,4.689,0,0,1,375.724,347.585Z" transform="translate(-365.903 -329.843)" fill="#ffdfcf"/>
          <path id="Trazado_979935" data-name="Trazado 979935" d="M375.708,347.587h-3.723A4.688,4.688,0,0,1,367.3,342.9v-2.969h3.723V342.9A4.689,4.689,0,0,0,375.708,347.587Z" transform="translate(-365.904 -329.844)" fill="#ffcebf"/>
          <path id="Trazado_979936" data-name="Trazado 979936" d="M358.868,420.294v.86a.936.936,0,0,0,.935.935h-4.734a.936.936,0,0,1-.935-.935v-.86a7.956,7.956,0,0,1,10.318-7.592A7.953,7.953,0,0,0,358.868,420.294Z" transform="translate(-354.134 -394.601)" fill="#cb97e7"/>
          <path id="Trazado_979937" data-name="Trazado 979937" d="M366.153,258.494h-8.139a3.881,3.881,0,0,1-3.881-3.881v-2.1a7.951,7.951,0,1,1,15.9,0v2.1A3.881,3.881,0,0,1,366.153,258.494Z" transform="translate(-354.133 -244.565)" fill="#d1a08f"/>
          <path id="Trazado_979938" data-name="Trazado 979938" d="M361.847,258.5h-3.833a3.881,3.881,0,0,1-3.881-3.881v-2.1A7.955,7.955,0,0,1,364,244.8a7.951,7.951,0,0,0-6.034,7.717v2.1A3.881,3.881,0,0,0,361.847,258.5Z" transform="translate(-354.133 -244.567)" fill="#c68d7a"/>
        </g>
        <g id="Grupo_1144509" data-name="Grupo 1144509" transform="translate(0 25.069)">
          <path id="Trazado_979939" data-name="Trazado 979939" d="M22.466,422.093H8.435a.935.935,0,0,1-.935-.935V420.3a7.951,7.951,0,1,1,15.9,0v.859A.935.935,0,0,1,22.466,422.093Z" transform="translate(-7.5 -394.605)" fill="#03bed7"/>
          <path id="Trazado_979940" data-name="Trazado 979940" d="M29.091,347.585h-3.74a4.689,4.689,0,0,1-4.689-4.689v-2.97H33.779v2.97A4.689,4.689,0,0,1,29.091,347.585Z" transform="translate(-19.27 -329.843)" fill="#d1a08f"/>
          <path id="Trazado_979941" data-name="Trazado 979941" d="M29.075,347.587H25.352a4.688,4.688,0,0,1-4.689-4.689v-2.969h3.723V342.9A4.689,4.689,0,0,0,29.075,347.587Z" transform="translate(-19.271 -329.844)" fill="#c68d7a"/>
          <path id="Trazado_979942" data-name="Trazado 979942" d="M12.234,420.294v.86a.936.936,0,0,0,.935.935H8.435a.936.936,0,0,1-.935-.935v-.86A7.956,7.956,0,0,1,17.818,412.7,7.953,7.953,0,0,0,12.234,420.294Z" transform="translate(-7.5 -394.601)" fill="#07b2cd"/>
          <path id="Trazado_979943" data-name="Trazado 979943" d="M19.52,258.494H11.381A3.881,3.881,0,0,1,7.5,254.613v-2.1a7.951,7.951,0,1,1,15.9,0v2.1a3.881,3.881,0,0,1-3.881,3.881Z" transform="translate(-7.5 -244.565)" fill="#596c76"/>
          <path id="Trazado_979944" data-name="Trazado 979944" d="M15.214,258.5H11.381A3.881,3.881,0,0,1,7.5,254.615v-2.1a7.955,7.955,0,0,1,9.867-7.717,7.951,7.951,0,0,0-6.034,7.717v2.1A3.881,3.881,0,0,0,15.214,258.5Z" transform="translate(-7.5 -244.567)" fill="#465a61"/>
        </g>
        <g id="Grupo_1144510" data-name="Grupo 1144510" transform="translate(29.221 3.43)">
          <path id="Trazado_979945" data-name="Trazado 979945" d="M297.945,39.933H287.177a3.355,3.355,0,0,0-3.355,3.355v5.706a3.356,3.356,0,0,0,3.356,3.356h3.357v3.078a1.141,1.141,0,0,0,2.042.7l2.941-3.779h2.427a3.356,3.356,0,0,0,3.356-3.356V43.288A3.356,3.356,0,0,0,297.945,39.933Z" transform="translate(-283.822 -39.933)" fill="#ffe177"/>
          <path id="Trazado_979946" data-name="Trazado 979946" d="M290.039,52.351h-2.863A3.356,3.356,0,0,1,283.821,49V43.289a3.356,3.356,0,0,1,3.355-3.355h2.863a3.356,3.356,0,0,0-3.355,3.355V49A3.356,3.356,0,0,0,290.039,52.351Z" transform="translate(-283.821 -39.934)" fill="#ffd15b"/>
        </g>
      </g>
      <g id="Grupo_1144512" data-name="Grupo 1144512" transform="translate(0 0)">
        <path id="Trazado_979947" data-name="Trazado 979947" d="M149.982,180.046a.793.793,0,1,0-.72-1.413,3.4,3.4,0,0,1-3.082,0,.793.793,0,0,0-.72,1.413,5,5,0,0,0,4.522,0Z" transform="translate(-129.691 -159.665)"/>
        <path id="Trazado_979948" data-name="Trazado 979948" d="M142.218,139.7v-.91a.793.793,0,0,0-1.586,0v.91a.793.793,0,0,0,1.586,0Z" transform="translate(-125.76 -123.402)"/>
        <path id="Trazado_979949" data-name="Trazado 979949" d="M186.171,140.491a.793.793,0,0,0,.793-.793v-.91a.793.793,0,1,0-1.586,0v.91A.793.793,0,0,0,186.171,140.491Z" transform="translate(-165.774 -123.402)"/>
        <path id="Trazado_979950" data-name="Trazado 979950" d="M52.741,39.245a4.66,4.66,0,0,0,1.4-3.334v-2.1a8.717,8.717,0,0,0-2.689-6.3V3.557A3.561,3.561,0,0,0,47.9,0H7.037A3.561,3.561,0,0,0,3.479,3.557v15.2a.793.793,0,0,0,1.586,0V3.557A1.973,1.973,0,0,1,7.037,1.586H47.9a1.973,1.973,0,0,1,1.971,1.971V26.3a8.739,8.739,0,0,0-13.212,7.512v2.1c0,.023,0,.045,0,.067h-.843V33.813c0-.141,0-.285-.011-.425a.793.793,0,1,0-1.584.079c.006.115.009.231.009.347v9.3a.355.355,0,0,1-.354.354H20.269a.355.355,0,0,1-.354-.354v-9.3A7.159,7.159,0,0,1,33.3,30.28a.793.793,0,1,0,1.379-.783,8.741,8.741,0,0,0-10.959-3.759,6.931,6.931,0,0,0-2.607-1.885v-.1a7.181,7.181,0,0,0,3.114-2.907,6.012,6.012,0,0,0,3.522-5.49V11.988a10.012,10.012,0,1,0-20.025,0v3.371A6.02,6.02,0,0,0,12,21.133a7.213,7.213,0,0,0,.983,1.227,7.122,7.122,0,0,0,1.969,1.394v.1a6.89,6.89,0,0,0-2.25,1.5c-.148.148-.288.3-.422.463a8.715,8.715,0,0,0-7.21.067V22.455a.793.793,0,0,0-1.586,0v4.383A8.735,8.735,0,0,0,0,33.813v2.1a4.66,4.66,0,0,0,1.4,3.334,5.491,5.491,0,0,0,3.153,4.638A8.75,8.75,0,0,0,0,51.556v.859a1.731,1.731,0,0,0,1.728,1.728h14.03a1.73,1.73,0,0,0,1.728-1.728v-.859a8.751,8.751,0,0,0-4.555-7.673,5.491,5.491,0,0,0,3.152-4.638,4.685,4.685,0,0,0,1.1-1.681h1.144v5.55a1.943,1.943,0,0,0,1.94,1.941h.955a8.744,8.744,0,0,0-2.9,6.5v.86a1.73,1.73,0,0,0,1.728,1.728h14.03a1.73,1.73,0,0,0,1.728-1.728v-.86a8.687,8.687,0,0,0-2.561-6.183c-.11-.109-.222-.215-.337-.318h.957a1.943,1.943,0,0,0,1.94-1.94v-5.55h1.144a4.687,4.687,0,0,0,1.1,1.681,5.491,5.491,0,0,0,3.152,4.638,8.751,8.751,0,0,0-4.555,7.673v.859a1.73,1.73,0,0,0,1.728,1.728h14.03a1.73,1.73,0,0,0,1.728-1.728v-.859a8.751,8.751,0,0,0-4.555-7.673,5.491,5.491,0,0,0,3.153-4.638ZM9.31,15.359V11.988a8.426,8.426,0,1,1,16.852,0v3.371a4.44,4.44,0,0,1-1.049,2.877,7.02,7.02,0,0,0,.063-.928V14.4a7.187,7.187,0,0,0-.067-.981,1.326,1.326,0,0,0-1.817-1.042,4.282,4.282,0,0,1-4.385-.7,1.349,1.349,0,0,0-1.752,0,4.282,4.282,0,0,1-4.385.7,1.326,1.326,0,0,0-1.818,1.043,7.241,7.241,0,0,0-.067.981v2.906a7.2,7.2,0,0,0,.181,1.6A4.444,4.444,0,0,1,9.31,15.359Zm4.79,5.88a5.526,5.526,0,0,1-1.628-3.931V14.4c0-.145.006-.291.017-.435a5.871,5.871,0,0,0,5.542-.954,5.87,5.87,0,0,0,5.542.954c.011.144.017.29.017.435v2.906a5.594,5.594,0,0,1-3.556,5.187.793.793,0,0,0-.507.74v1.414a1.538,1.538,0,0,1-1.44,1.55,1.5,1.5,0,0,1-1.552-1.5v-1.47a.793.793,0,0,0-.507-.74A5.542,5.542,0,0,1,14.1,21.239ZM1.586,33.813a7.157,7.157,0,0,1,14.315,0v2.1A3.091,3.091,0,0,1,12.813,39H4.674a3.091,3.091,0,0,1-3.088-3.088ZM15.9,51.556v.859a.142.142,0,0,1-.142.142H1.729a.142.142,0,0,1-.142-.142v-.859A7.165,7.165,0,0,1,8.734,44.4h.02A7.165,7.165,0,0,1,15.9,51.556Zm-5.287-8.743H6.874a3.9,3.9,0,0,1-3.615-2.447,4.654,4.654,0,0,0,1.416.22h8.139a4.656,4.656,0,0,0,1.415-.22,3.9,3.9,0,0,1-3.614,2.447Zm6.872-6.835c0-.022,0-.045,0-.067v-2.1a8.74,8.74,0,0,0-3.8-7.2c.042-.045.084-.09.128-.134a5.3,5.3,0,0,1,1.246-.924,3.086,3.086,0,0,0,2.963,2.235l.115,0a3.076,3.076,0,0,0,2.843-2.238,5.343,5.343,0,0,1,1.289.962,8.743,8.743,0,0,0-3.946,7.305v2.165h-.843ZM32.133,46.494a7.111,7.111,0,0,1,2.1,5.061v.86a.142.142,0,0,1-.142.142H20.057a.142.142,0,0,1-.142-.142v-.86a7.159,7.159,0,0,1,4.162-6.5h5.99A7.153,7.153,0,0,1,32.133,46.494Zm6.11-12.681a7.157,7.157,0,0,1,14.315,0v2.1A3.091,3.091,0,0,1,49.47,39H41.33a3.091,3.091,0,0,1-3.088-3.088ZM52.557,51.556v.859a.142.142,0,0,1-.142.142H38.385a.142.142,0,0,1-.142-.142v-.859A7.165,7.165,0,0,1,45.39,44.4h.02A7.165,7.165,0,0,1,52.557,51.556ZM47.27,42.813H43.53a3.9,3.9,0,0,1-3.614-2.447,4.656,4.656,0,0,0,1.415.22H49.47a4.654,4.654,0,0,0,1.416-.22,3.9,3.9,0,0,1-3.615,2.448Z" transform="translate(0 0)"/>
        <path id="Trazado_979951" data-name="Trazado 979951" d="M281.481,32.43h-1.012a4.153,4.153,0,0,0-4.149,4.149v5.706a4.153,4.153,0,0,0,4.149,4.149h2.564v2.285a1.91,1.91,0,0,0,1.306,1.829,1.971,1.971,0,0,0,.641.108,1.909,1.909,0,0,0,1.513-.749l2.7-3.474h2.039a4.153,4.153,0,0,0,4.149-4.149V36.579a4.153,4.153,0,0,0-4.149-4.149h-6.054a.793.793,0,1,0,0,1.586h6.054a2.565,2.565,0,0,1,2.562,2.562v5.706a2.565,2.565,0,0,1-2.562,2.562h-2.427a.793.793,0,0,0-.626.306l-2.942,3.779a.348.348,0,0,1-.622-.214V45.64a.793.793,0,0,0-.793-.793h-3.358a2.565,2.565,0,0,1-2.562-2.562V36.579a2.565,2.565,0,0,1,2.562-2.562h1.012a.793.793,0,0,0,0-1.586Z" transform="translate(-247.099 -29.001)"/>
        <path id="Trazado_979952" data-name="Trazado 979952" d="M321.907,72.83H311.755a.793.793,0,1,0,0,1.586h10.152a.793.793,0,1,0,0-1.586Z" transform="translate(-278.078 -65.128)"/>
        <path id="Trazado_979953" data-name="Trazado 979953" d="M321.907,105.078H311.755a.793.793,0,1,0,0,1.586h10.152a.793.793,0,1,0,0-1.586Z" transform="translate(-278.078 -93.966)"/>
      </g>
    </g>
  </g>
</svg>
