<svg xmlns="http://www.w3.org/2000/svg" xmlns:xlink="http://www.w3.org/1999/xlink" width="108" height="108" viewBox="0 0 108 108">
  <defs>
    <filter id="Trazado_904820" x="0" y="0" width="108" height="108" filterUnits="userSpaceOnUse">
      <feOffset dy="3" input="SourceAlpha"/>
      <feGaussianBlur stdDeviation="3" result="blur"/>
      <feFlood flood-opacity="0.161"/>
      <feComposite operator="in" in2="blur"/>
      <feComposite in="SourceGraphic"/>
    </filter>
  </defs>
  <g id="_5" data-name="5" transform="translate(-306 -1338)">
    <g transform="matrix(1, 0, 0, 1, 306, 1338)" filter="url(#Trazado_904820)">
      <g id="Trazado_904820-2" data-name="Trazado 904820" transform="translate(9 6)" fill="#ecf4fa">
        <path d="M 45 88.5 C 39.12687683105469 88.5 33.43022537231445 87.35007476806641 28.06830024719238 85.08217620849609 C 22.88852500915527 82.89131164550781 18.23629951477051 79.75458526611328 14.2408504486084 75.75914764404297 C 10.24541282653809 71.76370239257812 7.108687400817871 67.11147308349609 4.917825222015381 61.93170166015625 C 2.649924993515015 56.56977462768555 1.5 50.87312316894531 1.5 45 C 1.5 39.12687683105469 2.649924993515015 33.43022537231445 4.917825222015381 28.06830024719238 C 7.108687400817871 22.88852500915527 10.24541282653809 18.23629951477051 14.2408504486084 14.2408504486084 C 18.23629951477051 10.24541282653809 22.88852500915527 7.108687400817871 28.06830024719238 4.917825222015381 C 33.43022537231445 2.649924993515015 39.12687683105469 1.5 45 1.5 C 50.87312316894531 1.5 56.56977462768555 2.649924993515015 61.93170166015625 4.917825222015381 C 67.11147308349609 7.108687400817871 71.76370239257812 10.24541282653809 75.75914764404297 14.2408504486084 C 79.75458526611328 18.23629951477051 82.89131164550781 22.88852500915527 85.08217620849609 28.06830024719238 C 87.35007476806641 33.43022537231445 88.5 39.12687683105469 88.5 45 C 88.5 50.87312316894531 87.35007476806641 56.56977462768555 85.08217620849609 61.93170166015625 C 82.89131164550781 67.11147308349609 79.75458526611328 71.76370239257812 75.75914764404297 75.75914764404297 C 71.76370239257812 79.75458526611328 67.11147308349609 82.89131164550781 61.93170166015625 85.08217620849609 C 56.56977462768555 87.35007476806641 50.87312316894531 88.5 45 88.5 Z" stroke="none"/>
        <path d="M 45 3 C 39.32871246337891 3 33.82865524291992 4.110054016113281 28.65262985229492 6.299339294433594 C 23.65165710449219 8.414573669433594 19.15968322753906 11.44334411621094 15.301513671875 15.301513671875 C 11.44334411621094 19.15968322753906 8.414573669433594 23.65165710449219 6.299339294433594 28.65262985229492 C 4.110054016113281 33.82865524291992 3 39.32871246337891 3 45 C 3 50.67128753662109 4.110054016113281 56.17134475708008 6.299339294433594 61.34737396240234 C 8.414573669433594 66.34834289550781 11.44334411621094 70.84031677246094 15.301513671875 74.698486328125 C 19.15968322753906 78.55665588378906 23.65165710449219 81.58542633056641 28.65262985229492 83.70066070556641 C 33.82865524291992 85.88994598388672 39.32871246337891 87 45 87 C 50.67128753662109 87 56.17134475708008 85.88994598388672 61.34737396240234 83.70066070556641 C 66.34834289550781 81.58542633056641 70.84031677246094 78.55665588378906 74.698486328125 74.698486328125 C 78.55665588378906 70.84031677246094 81.58542633056641 66.34834289550781 83.70066070556641 61.34737396240234 C 85.88994598388672 56.17134475708008 87 50.67128753662109 87 45 C 87 39.32871246337891 85.88994598388672 33.82865524291992 83.70066070556641 28.65262985229492 C 81.58542633056641 23.65165710449219 78.55665588378906 19.15968322753906 74.698486328125 15.301513671875 C 70.84031677246094 11.44334411621094 66.34834289550781 8.414573669433594 61.34737396240234 6.299339294433594 C 56.17134475708008 4.110054016113281 50.67128753662109 3 45 3 M 45 0 C 69.85281372070312 0 90 20.14718627929688 90 45 C 90 69.85281372070312 69.85281372070312 90 45 90 C 20.14718627929688 90 0 69.85281372070312 0 45 C 0 20.14718627929688 20.14718627929688 0 45 0 Z" stroke="none" fill="#2a5673"/>
      </g>
    </g>
    <g id="Grupo_1144471" data-name="Grupo 1144471" transform="translate(319.497 1362.863)">
      <path id="Trazado_979754" data-name="Trazado 979754" d="M188.5,337.5h3.063v17.05H188.5Z" transform="translate(-154.888 -303.042)" fill="#c56a4b"/>
      <path id="Trazado_979755" data-name="Trazado 979755" d="M293.5,337.5h3.063v17.05H293.5Z" transform="translate(-249.168 -303.042)" fill="#b05638"/>
      <path id="Trazado_979756" data-name="Trazado 979756" d="M245.594,234.031,241,232.5v6.126l4.594-1.531a1.531,1.531,0,1,0,0-3.063Z" transform="translate(-202.028 -208.762)" fill="#90969e"/>
      <path id="Trazado_979757" data-name="Trazado 979757" d="M217.126,235.563a1.531,1.531,0,0,0-1.531-1.531l-1.531-1.531-1.531,1.531a1.531,1.531,0,0,0,0,3.063l1.531,1.531,1.531-1.531A1.531,1.531,0,0,0,217.126,235.563Z" transform="translate(-175.091 -208.762)" fill="#a7a9ad"/>
      <path id="Trazado_979758" data-name="Trazado 979758" d="M326.563,277.5H323.5v6.126h6.126v-3.063A3.063,3.063,0,0,0,326.563,277.5Z" transform="translate(-276.105 -249.168)" fill="#d5d6d6"/>
      <path id="Trazado_979759" data-name="Trazado 979759" d="M148.409,277.5H131.563a3.063,3.063,0,0,0-3.063,3.063v3.063h22.972v-3.063A3.063,3.063,0,0,0,148.409,277.5Z" transform="translate(-101.014 -249.168)" fill="#ebebeb"/>
      <path id="Trazado_979760" data-name="Trazado 979760" d="M245.594,204.031,241,202.5l1.531,4.594h3.063a1.531,1.531,0,1,0,0-3.063Z" transform="translate(-202.028 -181.825)" fill="#a7a9ad"/>
      <path id="Trazado_979761" data-name="Trazado 979761" d="M217.126,205.563a1.531,1.531,0,0,0-1.531-1.531l-1.531-1.531-1.531,1.531a1.531,1.531,0,0,0,0,3.063h3.063A1.531,1.531,0,0,0,217.126,205.563Z" transform="translate(-175.091 -181.825)" fill="#c1c2c4"/>
      <path id="Trazado_979762" data-name="Trazado 979762" d="M245.594,174.031,241,172.5l1.531,4.594h3.063a1.531,1.531,0,1,0,0-3.063Z" transform="translate(-202.028 -154.888)" fill="#90969e"/>
      <path id="Trazado_979763" data-name="Trazado 979763" d="M217.126,175.563a1.531,1.531,0,0,0-1.531-1.531l-1.531-1.531-1.531,1.531a1.531,1.531,0,0,0,0,3.063h3.063A1.531,1.531,0,0,0,217.126,175.563Z" transform="translate(-175.091 -154.888)" fill="#a7a9ad"/>
      <path id="Trazado_979764" data-name="Trazado 979764" d="M326.563,307.5l-3.063,3.063,3.063,3.063h6.126V307.5Z" transform="translate(-276.105 -276.105)" fill="#d97c5b"/>
      <path id="Trazado_979765" data-name="Trazado 979765" d="M98.5,307.5h26.035v6.126H98.5Z" transform="translate(-74.077 -276.105)" fill="#ec8e6b"/>
      <path id="Trazado_979766" data-name="Trazado 979766" d="M326.563,127.5l-3.063,3.063,3.063,3.063h6.126V127.5Z" transform="translate(-276.105 -114.483)" fill="#d97c5b"/>
      <path id="Trazado_979767" data-name="Trazado 979767" d="M98.5,127.5h26.035v6.126H98.5Z" transform="translate(-74.077 -114.483)" fill="#ec8e6b"/>
      <path id="Trazado_979768" data-name="Trazado 979768" d="M83.5,67.5h4.594v43.085H83.5Z" transform="translate(-60.608 -60.608)" fill="#b05638"/>
      <path id="Trazado_979769" data-name="Trazado 979769" d="M53.5,70.563v40.022h4.594V67.5Z" transform="translate(-33.671 -60.608)" fill="#c56a4b"/>
      <path id="Trazado_979770" data-name="Trazado 979770" d="M101.563,474.5H98.5l3.063,3.063h3.063A3.063,3.063,0,0,0,101.563,474.5Z" transform="translate(-74.077 -426.055)" fill="#c56a4b"/>
      <path id="Trazado_979771" data-name="Trazado 979771" d="M31.157,474.5H26.563a3.063,3.063,0,0,0-3.063,3.063H34.22A3.063,3.063,0,0,0,31.157,474.5Z" transform="translate(-6.734 -426.055)" fill="#d97c5b"/>
      <path id="Trazado_979772" data-name="Trazado 979772" d="M413.5,67.5v43.085h4.594V70.563Z" transform="translate(-356.916 -60.608)" fill="#b05638"/>
      <path id="Trazado_979773" data-name="Trazado 979773" d="M383.5,67.5h4.594v43.085H383.5Z" transform="translate(-329.979 -60.608)" fill="#c56a4b"/>
      <path id="Trazado_979774" data-name="Trazado 979774" d="M368.5,22.5l6.126,7.657h3.063V22.5Z" transform="translate(-316.511 -20.203)" fill="#d97c5b"/>
      <path id="Trazado_979775" data-name="Trazado 979775" d="M53.5,22.5H91.786v7.657H53.5Z" transform="translate(-33.671 -20.203)" fill="#ec8e6b"/>
      <path id="Trazado_979776" data-name="Trazado 979776" d="M431.563,474.5H428.5l3.063,3.063h3.063A3.063,3.063,0,0,0,431.563,474.5Z" transform="translate(-370.385 -426.055)" fill="#c56a4b"/>
      <path id="Trazado_979777" data-name="Trazado 979777" d="M361.157,474.5h-4.594a3.063,3.063,0,0,0-3.063,3.063h10.72A3.063,3.063,0,0,0,361.157,474.5Z" transform="translate(-303.042 -426.055)" fill="#d97c5b"/>
      <path id="Trazado_979778" data-name="Trazado 979778" d="M431.563,10.563H428.5L431.563,7.5h3.063A3.063,3.063,0,0,1,431.563,10.563Z" transform="translate(-370.385 -6.734)" fill="#c56a4b"/>
      <path id="Trazado_979779" data-name="Trazado 979779" d="M64.849,10.563H26.563A3.063,3.063,0,0,1,23.5,7.5H67.912A3.063,3.063,0,0,1,64.849,10.563Z" transform="translate(-6.734 -6.734)" fill="#d97c5b"/>
      <path id="Trazado_979780" data-name="Trazado 979780" d="M61.944,47.756v-8.7a.766.766,0,1,0-1.531,0v8.627H54.286V10.72h6.126V35.989a.766.766,0,1,0,1.531,0V4.517A3.835,3.835,0,0,0,65.006.766.766.766,0,0,0,64.241,0H16.766A.766.766,0,0,0,16,.766a3.835,3.835,0,0,0,3.063,3.752V17.612a.766.766,0,1,0,1.531,0V10.72H26.72V47.679H20.594v-27a.766.766,0,1,0-1.531,0V47.756A3.835,3.835,0,0,0,16,51.508a.766.766,0,0,0,.766.766H30.549a.766.766,0,0,0,.766-.766,3.835,3.835,0,0,0-3.063-3.752v-9.47h4.594V51.508a.766.766,0,0,0,.766.766h3.063a.766.766,0,0,0,.766-.766V38.286h6.126V51.508a.766.766,0,0,0,.766.766h3.063a.766.766,0,0,0,.766-.766V38.286h4.594v9.47a3.835,3.835,0,0,0-3.063,3.752.766.766,0,0,0,.766.766H64.241a.766.766,0,0,0,.766-.766A3.835,3.835,0,0,0,61.944,47.756ZM28.252,13.783h24.5v4.594h-24.5Zm21.44-3.063v1.531H31.315V10.72Zm-5.36,13.017a.767.767,0,0,1-.766.766H37.44a.766.766,0,0,1,0-1.531h6.126A.767.767,0,0,1,44.332,23.738ZM36.675,26.8a.767.767,0,0,1,.766-.766h6.126a.766.766,0,1,1,0,1.531H37.44A.767.767,0,0,1,36.675,26.8Zm7.657-6.126a.767.767,0,0,1-.766.766H37.44a.766.766,0,0,1,0-1.531h6.126A.767.767,0,0,1,44.332,20.675Zm-9.057-.766a2.292,2.292,0,0,0,.455,2.3,2.292,2.292,0,0,0,0,3.063,2.292,2.292,0,0,0-.455,2.3H30.549a3.808,3.808,0,0,0-2.3.768V19.909ZM30.549,29.1H50.458a2.3,2.3,0,0,1,2.166,1.531H28.383A2.3,2.3,0,0,1,30.549,29.1Zm19.909-1.531H45.732a2.292,2.292,0,0,0-.455-2.3,2.292,2.292,0,0,0,0-3.063,2.292,2.292,0,0,0,.455-2.3h7.023v8.425A3.808,3.808,0,0,0,50.458,27.566Zm2.3-15.315H51.223V10.72h1.531ZM17.663,1.531H63.344a2.3,2.3,0,0,1-2.166,1.531H19.829A2.3,2.3,0,0,1,17.663,1.531Zm2.932,3.063H60.412V9.189H20.594Zm9.189,6.126v1.531H28.252V10.72Zm-.131,40.022H17.663a2.3,2.3,0,0,1,2.166-1.531h7.657A2.3,2.3,0,0,1,29.652,50.742Zm6.257,0H34.377V38.286h1.531Zm10.72,0H45.1V38.286h1.531ZM28.252,36.755V32.161h24.5v4.594Zm23.1,13.987a2.3,2.3,0,0,1,2.166-1.531h7.657a2.3,2.3,0,0,1,2.166,1.531Z" transform="translate(0 0)"/>
    </g>
  </g>
</svg>
