<svg xmlns="http://www.w3.org/2000/svg" xmlns:xlink="http://www.w3.org/1999/xlink" width="108" height="108" viewBox="0 0 108 108">
  <defs>
    <filter id="Trazado_904820" x="0" y="0" width="108" height="108" filterUnits="userSpaceOnUse">
      <feOffset dy="3" input="SourceAlpha"/>
      <feGaussianBlur stdDeviation="3" result="blur"/>
      <feFlood flood-opacity="0.161"/>
      <feComposite operator="in" in2="blur"/>
      <feComposite in="SourceGraphic"/>
    </filter>
  </defs>
  <g id="_8" data-name="8" transform="translate(-726 -2279)">
    <g transform="matrix(1, 0, 0, 1, 726, 2279)" filter="url(#Trazado_904820)">
      <g id="Trazado_904820-2" data-name="Trazado 904820" transform="translate(9 6)" fill="#ecf4fa">
        <path d="M 45 88.5 C 39.12687683105469 88.5 33.43022537231445 87.35007476806641 28.06830024719238 85.08217620849609 C 22.88852500915527 82.89131164550781 18.23629951477051 79.75458526611328 14.2408504486084 75.75914764404297 C 10.24541282653809 71.76370239257812 7.108687400817871 67.11147308349609 4.917825222015381 61.93170166015625 C 2.649924993515015 56.56977462768555 1.5 50.87312316894531 1.5 45 C 1.5 39.12687683105469 2.649924993515015 33.43022537231445 4.917825222015381 28.06830024719238 C 7.108687400817871 22.88852500915527 10.24541282653809 18.23629951477051 14.2408504486084 14.2408504486084 C 18.23629951477051 10.24541282653809 22.88852500915527 7.108687400817871 28.06830024719238 4.917825222015381 C 33.43022537231445 2.649924993515015 39.12687683105469 1.5 45 1.5 C 50.87312316894531 1.5 56.56977462768555 2.649924993515015 61.93170166015625 4.917825222015381 C 67.11147308349609 7.108687400817871 71.76370239257812 10.24541282653809 75.75914764404297 14.2408504486084 C 79.75458526611328 18.23629951477051 82.89131164550781 22.88852500915527 85.08217620849609 28.06830024719238 C 87.35007476806641 33.43022537231445 88.5 39.12687683105469 88.5 45 C 88.5 50.87312316894531 87.35007476806641 56.56977462768555 85.08217620849609 61.93170166015625 C 82.89131164550781 67.11147308349609 79.75458526611328 71.76370239257812 75.75914764404297 75.75914764404297 C 71.76370239257812 79.75458526611328 67.11147308349609 82.89131164550781 61.93170166015625 85.08217620849609 C 56.56977462768555 87.35007476806641 50.87312316894531 88.5 45 88.5 Z" stroke="none"/>
        <path d="M 45 3 C 39.32871246337891 3 33.82865524291992 4.110054016113281 28.65262985229492 6.299339294433594 C 23.65165710449219 8.414573669433594 19.15968322753906 11.44334411621094 15.301513671875 15.301513671875 C 11.44334411621094 19.15968322753906 8.414573669433594 23.65165710449219 6.299339294433594 28.65262985229492 C 4.110054016113281 33.82865524291992 3 39.32871246337891 3 45 C 3 50.67128753662109 4.110054016113281 56.17134475708008 6.299339294433594 61.34737396240234 C 8.414573669433594 66.34834289550781 11.44334411621094 70.84031677246094 15.301513671875 74.698486328125 C 19.15968322753906 78.55665588378906 23.65165710449219 81.58542633056641 28.65262985229492 83.70066070556641 C 33.82865524291992 85.88994598388672 39.32871246337891 87 45 87 C 50.67128753662109 87 56.17134475708008 85.88994598388672 61.34737396240234 83.70066070556641 C 66.34834289550781 81.58542633056641 70.84031677246094 78.55665588378906 74.698486328125 74.698486328125 C 78.55665588378906 70.84031677246094 81.58542633056641 66.34834289550781 83.70066070556641 61.34737396240234 C 85.88994598388672 56.17134475708008 87 50.67128753662109 87 45 C 87 39.32871246337891 85.88994598388672 33.82865524291992 83.70066070556641 28.65262985229492 C 81.58542633056641 23.65165710449219 78.55665588378906 19.15968322753906 74.698486328125 15.301513671875 C 70.84031677246094 11.44334411621094 66.34834289550781 8.414573669433594 61.34737396240234 6.299339294433594 C 56.17134475708008 4.110054016113281 50.67128753662109 3 45 3 M 45 0 C 69.85281372070312 0 90 20.14718627929688 90 45 C 90 69.85281372070312 69.85281372070312 90 45 90 C 20.14718627929688 90 0 69.85281372070312 0 45 C 0 20.14718627929688 20.14718627929688 0 45 0 Z" stroke="none" fill="#2a5673"/>
      </g>
    </g>
    <g id="Page-1" transform="translate(747 2306)">
      <g id="_019---Gaming-Setup" data-name="019---Gaming-Setup" transform="translate(0 0)">
        <g id="Icons" transform="translate(1.05 1.05)">
          <path id="Shape" d="M59.15,2.07v42L53.469,38.39a2.106,2.106,0,0,0-1.491-.619H42.172a2.106,2.106,0,0,0-1.491.619L35,44.07v-42A2.053,2.053,0,0,1,35.619.59L40.68,5.651a2.106,2.106,0,0,0,1.491.62h9.807a2.106,2.106,0,0,0,1.491-.62L58.53.59a2.053,2.053,0,0,1,.619,1.48Z" transform="translate(1.75 0.03)" fill="#7f8e94"/>
          <path id="Shape-2" data-name="Shape" d="M57.531.59,55,3.12v37.8l3.15,3.15v-42A2.053,2.053,0,0,0,57.531.59Z" transform="translate(2.75 0.03)" fill="#545c60"/>
          <path id="Shape-3" data-name="Shape" d="M59.15,42.3H35l5.68-5.681A2.106,2.106,0,0,1,42.172,36h9.807a2.106,2.106,0,0,1,1.491.619Z" transform="translate(1.75 1.8)" fill="#9e9e9e"/>
          <path id="Shape-4" data-name="Shape" d="M52.811,36.619A2.106,2.106,0,0,0,51.32,36H48.17a2.106,2.106,0,0,1,1.491.619L55.341,42.3h3.15Z" transform="translate(2.408 1.8)" fill="#707070"/>
          <rect id="Rectangle-path" width="42" height="25" rx="3" transform="translate(-0.05 9.95)" fill="#02a9f4"/>
          <path id="Shape-5" data-name="Shape" d="M37.15,9H34a3.15,3.15,0,0,1,3.15,3.15v18.9A3.15,3.15,0,0,1,34,34.2h3.15a3.15,3.15,0,0,0,3.15-3.15V12.15A3.15,3.15,0,0,0,37.15,9Z" transform="translate(1.7 0.45)" fill="#0377bc"/>
          <path id="Rectangle-path-2" data-name="Rectangle-path" d="M18,33h4.2v5.25H18Z" transform="translate(0.9 1.65)" fill="#607d8b"/>
          <path id="Shape-6" data-name="Shape" d="M22.62,38l8.224,5.757a1.4,1.4,0,0,1-1.369,2.422L20.52,42.2,11.566,46.18A1.4,1.4,0,0,1,10.2,43.757L18.42,38Z" transform="translate(0.48 1.9)" fill="#7f8e94"/>
          <path id="Shape-7" data-name="Shape" d="M35,42v3.15a1.05,1.05,0,0,0,1.05,1.05h3.765a1.05,1.05,0,0,0,.742-.308L44.45,42Z" transform="translate(1.75 2.1)" fill="#607d8b"/>
          <path id="Shape-8" data-name="Shape" d="M58.45,42v3.15A1.05,1.05,0,0,1,57.4,46.2H53.635a1.05,1.05,0,0,1-.742-.308L49,42Z" transform="translate(2.45 2.1)" fill="#607d8b"/>
          <path id="Shape-9" data-name="Shape" d="M55.05,42v3.15A1.05,1.05,0,0,1,54,46.2h3.15a1.05,1.05,0,0,0,1.05-1.05V42Z" transform="translate(2.7 2.1)" fill="#37474f"/>
          <path id="Shape-10" data-name="Shape" d="M58.5.62,53.44,5.681a2.106,2.106,0,0,1-1.491.62H42.142a2.106,2.106,0,0,1-1.491-.62L35.59.62A2.053,2.053,0,0,1,37.071,0h19.95A2.053,2.053,0,0,1,58.5.62Z" transform="translate(1.779 0)" fill="#9e9e9e"/>
          <path id="Shape-11" data-name="Shape" d="M56.391,0h-3.15a2.053,2.053,0,0,1,1.48.619L49.661,5.681a2.106,2.106,0,0,1-1.491.62h3.15a2.106,2.106,0,0,0,1.491-.62L57.872.62A2.053,2.053,0,0,0,56.391,0Z" transform="translate(2.408 0)" fill="#707070"/>
          <circle id="Oval" cx="2.5" cy="2.5" r="2.5" transform="translate(45.95 17.95)" fill="#02a9f4"/>
        </g>
        <g id="Icons_copy">
          <path id="Shape-12" data-name="Shape" d="M5.05,17.2a1.05,1.05,0,0,1-.742-1.792l2.1-2.1a1.05,1.05,0,0,1,1.485,1.485l-2.1,2.1a1.05,1.05,0,0,1-.742.308Z" transform="translate(0.2 0.651)" fill="#f5f5f5"/>
          <path id="Shape-13" data-name="Shape" d="M5.05,22.449a1.05,1.05,0,0,1-.742-1.792l7.35-7.35a1.05,1.05,0,0,1,1.485,1.485l-7.35,7.35a1.05,1.05,0,0,1-.742.308Z" transform="translate(0.2 0.651)" fill="#f5f5f5"/>
          <g id="Grupo_1144473" data-name="Grupo 1144473">
            <path id="Shape-14" data-name="Shape" d="M4.2,36.75H18.9V40.4l-7.77,5.444a2.448,2.448,0,0,0,2.4,4.242L22.05,46.3l8.527,3.791a2.448,2.448,0,0,0,2.4-4.242L25.2,40.4V36.75H36.75V48.3a2.1,2.1,0,0,0,2.1,2.1h3.765a2.112,2.112,0,0,0,1.485-.615L47.685,46.2h4.381l3.585,3.585a2.112,2.112,0,0,0,1.485.615H60.9A2.1,2.1,0,0,0,63,48.3V3.15A3.15,3.15,0,0,0,59.85,0H39.9a3.15,3.15,0,0,0-3.15,3.15v6.3H4.2A4.2,4.2,0,0,0,0,13.65v18.9a4.2,4.2,0,0,0,4.2,4.2ZM31.92,47.9a.332.332,0,0,1-.232.28.338.338,0,0,1-.252-.013L22.48,44.19a1.057,1.057,0,0,0-.853,0L12.671,48.17a.337.337,0,0,1-.25.013.349.349,0,0,1-.089-.615L20.281,42h3.538l7.953,5.565a.335.335,0,0,1,.148.337Zm-8.82-8H21V36.75h2.1Zm17.235,4.2,3.885-3.885a1.05,1.05,0,0,1,.749-.315h9.807a1.05,1.05,0,0,1,.749.315L59.409,44.1Zm2.281,4.2H38.85V46.2h5.865Zm14.519,0-2.1-2.1H60.9v2.1ZM59.415,2.1,55.53,5.985a1.05,1.05,0,0,1-.749.315h-9.81a1.05,1.05,0,0,1-.749-.315L40.335,2.1ZM38.85,3.585,42.735,7.47a3.134,3.134,0,0,0,2.236.93h9.807a3.134,3.134,0,0,0,2.233-.927L60.9,3.588V11.55H59.85a1.05,1.05,0,1,0,0,2.1H60.9v2.1H59.85a1.05,1.05,0,1,0,0,2.1H60.9v2.1H59.85a1.05,1.05,0,1,0,0,2.1H60.9v2.1H59.85a1.05,1.05,0,1,0,0,2.1H60.9v2.1H59.85a1.05,1.05,0,1,0,0,2.1H60.9v2.1H59.85a1.05,1.05,0,1,0,0,2.1H60.9v7.965L57.015,38.73a3.134,3.134,0,0,0-2.236-.93H44.971a3.134,3.134,0,0,0-2.233.927l-3.885,3.885V36.75H39.9a4.2,4.2,0,0,0,4.2-4.2V13.65a4.2,4.2,0,0,0-4.2-4.2H38.85ZM2.1,13.65a2.1,2.1,0,0,1,2.1-2.1H39.9a2.1,2.1,0,0,1,2.1,2.1v18.9a2.1,2.1,0,0,1-2.1,2.1H4.2a2.1,2.1,0,0,1-2.1-2.1Z" transform="translate(0 0)"/>
            <path id="Shape-15" data-name="Shape" d="M47.675,24.35A3.675,3.675,0,1,0,44,20.675a3.675,3.675,0,0,0,3.675,3.675Zm0-5.25A1.575,1.575,0,1,1,46.1,20.675,1.575,1.575,0,0,1,47.675,19.1Z" transform="translate(2.2 0.85)"/>
            <path id="Shape-16" data-name="Shape" d="M46.05,25A1.05,1.05,0,0,0,45,26.05V29.2a1.05,1.05,0,0,0,2.1,0V26.05A1.05,1.05,0,0,0,46.05,25Z" transform="translate(2.25 1.25)"/>
            <path id="Shape-17" data-name="Shape" d="M49.05,25A1.05,1.05,0,0,0,48,26.05V29.2a1.05,1.05,0,0,0,2.1,0V26.05A1.05,1.05,0,0,0,49.05,25Z" transform="translate(2.4 1.25)"/>
          </g>
        </g>
      </g>
    </g>
  </g>
</svg>
