<svg xmlns="http://www.w3.org/2000/svg" xmlns:xlink="http://www.w3.org/1999/xlink" width="108" height="108" viewBox="0 0 108 108">
  <defs>
    <filter id="Trazado_904820" x="0" y="0" width="108" height="108" filterUnits="userSpaceOnUse">
      <feOffset dy="3" input="SourceAlpha"/>
      <feGaussianBlur stdDeviation="3" result="blur"/>
      <feFlood flood-opacity="0.161"/>
      <feComposite operator="in" in2="blur"/>
      <feComposite in="SourceGraphic"/>
    </filter>
  </defs>
  <g id="_16" data-name="16" transform="translate(-307 -5158)">
    <g transform="matrix(1, 0, 0, 1, 307, 5158)" filter="url(#Trazado_904820)">
      <g id="Trazado_904820-2" data-name="Trazado 904820" transform="translate(9 6)" fill="#ecf4fa">
        <path d="M 45 88.5 C 39.12687683105469 88.5 33.43022537231445 87.35007476806641 28.06830024719238 85.08217620849609 C 22.88852500915527 82.89131164550781 18.23629951477051 79.75458526611328 14.2408504486084 75.75914764404297 C 10.24541282653809 71.76370239257812 7.108687400817871 67.11147308349609 4.917825222015381 61.93170166015625 C 2.649924993515015 56.56977462768555 1.5 50.87312316894531 1.5 45 C 1.5 39.12687683105469 2.649924993515015 33.43022537231445 4.917825222015381 28.06830024719238 C 7.108687400817871 22.88852500915527 10.24541282653809 18.23629951477051 14.2408504486084 14.2408504486084 C 18.23629951477051 10.24541282653809 22.88852500915527 7.108687400817871 28.06830024719238 4.917825222015381 C 33.43022537231445 2.649924993515015 39.12687683105469 1.5 45 1.5 C 50.87312316894531 1.5 56.56977462768555 2.649924993515015 61.93170166015625 4.917825222015381 C 67.11147308349609 7.108687400817871 71.76370239257812 10.24541282653809 75.75914764404297 14.2408504486084 C 79.75458526611328 18.23629951477051 82.89131164550781 22.88852500915527 85.08217620849609 28.06830024719238 C 87.35007476806641 33.43022537231445 88.5 39.12687683105469 88.5 45 C 88.5 50.87312316894531 87.35007476806641 56.56977462768555 85.08217620849609 61.93170166015625 C 82.89131164550781 67.11147308349609 79.75458526611328 71.76370239257812 75.75914764404297 75.75914764404297 C 71.76370239257812 79.75458526611328 67.11147308349609 82.89131164550781 61.93170166015625 85.08217620849609 C 56.56977462768555 87.35007476806641 50.87312316894531 88.5 45 88.5 Z" stroke="none"/>
        <path d="M 45 3 C 39.32871246337891 3 33.82865524291992 4.110054016113281 28.65262985229492 6.299339294433594 C 23.65165710449219 8.414573669433594 19.15968322753906 11.44334411621094 15.301513671875 15.301513671875 C 11.44334411621094 19.15968322753906 8.414573669433594 23.65165710449219 6.299339294433594 28.65262985229492 C 4.110054016113281 33.82865524291992 3 39.32871246337891 3 45 C 3 50.67128753662109 4.110054016113281 56.17134475708008 6.299339294433594 61.34737396240234 C 8.414573669433594 66.34834289550781 11.44334411621094 70.84031677246094 15.301513671875 74.698486328125 C 19.15968322753906 78.55665588378906 23.65165710449219 81.58542633056641 28.65262985229492 83.70066070556641 C 33.82865524291992 85.88994598388672 39.32871246337891 87 45 87 C 50.67128753662109 87 56.17134475708008 85.88994598388672 61.34737396240234 83.70066070556641 C 66.34834289550781 81.58542633056641 70.84031677246094 78.55665588378906 74.698486328125 74.698486328125 C 78.55665588378906 70.84031677246094 81.58542633056641 66.34834289550781 83.70066070556641 61.34737396240234 C 85.88994598388672 56.17134475708008 87 50.67128753662109 87 45 C 87 39.32871246337891 85.88994598388672 33.82865524291992 83.70066070556641 28.65262985229492 C 81.58542633056641 23.65165710449219 78.55665588378906 19.15968322753906 74.698486328125 15.301513671875 C 70.84031677246094 11.44334411621094 66.34834289550781 8.414573669433594 61.34737396240234 6.299339294433594 C 56.17134475708008 4.110054016113281 50.67128753662109 3 45 3 M 45 0 C 69.85281372070312 0 90 20.14718627929688 90 45 C 90 69.85281372070312 69.85281372070312 90 45 90 C 20.14718627929688 90 0 69.85281372070312 0 45 C 0 20.14718627929688 20.14718627929688 0 45 0 Z" stroke="none" fill="#2a5673"/>
      </g>
    </g>
    <g id="Grupo_1144481" data-name="Grupo 1144481" transform="translate(322.992 5171.496)">
      <g id="Grupo_1144479" data-name="Grupo 1144479" transform="translate(8.952 8.952)">
        <g id="Grupo_1144478" data-name="Grupo 1144478" transform="translate(0 0)">
          <path id="Trazado_979796" data-name="Trazado 979796" d="M73.1,106.855v29.5H16v-29.5A2.856,2.856,0,0,1,18.855,104H70.249A2.856,2.856,0,0,1,73.1,106.855Z" transform="translate(-16 -93.531)" fill="#83d8f4"/>
          <path id="Trazado_979797" data-name="Trazado 979797" d="M73.1,376v2.855a2.856,2.856,0,0,1-2.855,2.855H18.855A2.856,2.856,0,0,1,16,378.855V376Z" transform="translate(-16 -333.172)" fill="#e0e0e2"/>
          <path id="Trazado_979798" data-name="Trazado 979798" d="M213.324,429.71H200l1.9-5.71h9.517Z" transform="translate(-178.11 -375.461)" fill="#57565c"/>
          <path id="Trazado_979799" data-name="Trazado 979799" d="M168,472h20.938v2.855H168Z" transform="translate(-149.917 -417.751)" fill="#e0e0e2"/>
          <path id="Trazado_979800" data-name="Trazado 979800" d="M195.035,80V91.421a24.745,24.745,0,0,1-19.035,0V80" transform="translate(-156.965 -72.386)" fill="#2d2d30"/>
          <ellipse id="Elipse_11576" data-name="Elipse 11576" cx="1.5" cy="2" rx="1.5" ry="2" transform="translate(39.552 20.552)" fill="#ffda44"/>
          <path id="Trazado_979801" data-name="Trazado 979801" d="M150.276,27.421,136,21.71,150.276,16l14.276,5.71Z" transform="translate(-121.724 -16)" fill="#3e3d42"/>
        </g>
        <path id="Trazado_979802" data-name="Trazado 979802" d="M80,248H99.035v11.421H80Z" transform="translate(-72.386 -220.4)" fill="#ffda44"/>
      </g>
      <g id="Grupo_1144480" data-name="Grupo 1144480" transform="translate(8 8)">
        <path id="Trazado_979803" data-name="Trazado 979803" d="M63.2,18.469H50.828v-2.4l1.305-.522a.952.952,0,0,0,0-1.768L37.857,8.068a.954.954,0,0,0-.707,0l-14.276,5.71a.952.952,0,0,0,0,1.768l4.16,1.664v1.259H11.807A3.811,3.811,0,0,0,8,22.276V54.635a3.811,3.811,0,0,0,3.807,3.807H31.425l-1.269,3.807H27.035a.952.952,0,0,0-.952.952v2.855a.952.952,0,0,0,.952.952H47.973a.952.952,0,0,0,.952-.952V63.2a.952.952,0,0,0-.952-.952H44.853l-1.269-3.807H63.2a3.811,3.811,0,0,0,3.807-3.807V22.276A3.811,3.811,0,0,0,63.2,18.469ZM50.828,31.794a.952.952,0,1,1-.952-.952A.952.952,0,0,1,50.828,31.794ZM25.79,14.662,37.5,9.977l11.714,4.685L37.5,19.347ZM48.925,16.83v1.639h-.952V17.21ZM46.07,17.972v9.363a23.83,23.83,0,0,1-17.131,0V17.972l8.212,3.285a.954.954,0,0,0,.707,0Zm.952,46.181V65.1H27.987v-.952Zm-14.859-1.9,1.269-3.807h8.145l1.269,3.807ZM65.1,54.635a1.906,1.906,0,0,1-1.9,1.9H11.807a1.906,1.906,0,0,1-1.9-1.9v-1.9H65.1Zm0-3.807H9.9V22.276a1.906,1.906,0,0,1,1.9-1.9H27.035v7.614a.952.952,0,0,0,.6.884,25.784,25.784,0,0,0,19.741,0,.952.952,0,0,0,.6-.884V20.373h.952v8.566a1,1,0,0,0,.014.159,2.855,2.855,0,1,0,1.875,0,1,1,0,0,0,.014-.159V20.373H63.2a1.906,1.906,0,0,1,1.9,1.9Z" transform="translate(-8 -8)"/>
        <path id="Trazado_979804" data-name="Trazado 979804" d="M46.662,392h-5.71a.952.952,0,1,0,0,1.9h5.71a.952.952,0,1,0,0-1.9Z" transform="translate(-36.193 -346.316)"/>
        <path id="Trazado_979805" data-name="Trazado 979805" d="M113.9,392h-.952a.952.952,0,1,0,0,1.9h.952a.952.952,0,1,0,0-1.9Z" transform="translate(-99.627 -346.316)"/>
        <path id="Trazado_979806" data-name="Trazado 979806" d="M72.952,253.324H91.987a.952.952,0,0,0,.952-.952V240.952a.952.952,0,0,0-.952-.952H72.952a.952.952,0,0,0-.952.952v11.421A.952.952,0,0,0,72.952,253.324ZM73.9,241.9H91.035v9.517H73.9Z" transform="translate(-64.386 -212.4)"/>
        <path id="Trazado_979807" data-name="Trazado 979807" d="M72.952,217.9h7.614a.952.952,0,1,0,0-1.9H72.952a.952.952,0,1,0,0,1.9Z" transform="translate(-64.386 -191.255)"/>
        <path id="Trazado_979808" data-name="Trazado 979808" d="M72.952,193.9h2.855a.952.952,0,1,0,0-1.9H72.952a.952.952,0,0,0,0,1.9Z" transform="translate(-64.386 -170.11)"/>
        <path id="Trazado_979809" data-name="Trazado 979809" d="M264.952,241.9h19.035a.952.952,0,0,0,0-1.9H264.952a.952.952,0,1,0,0,1.9Z" transform="translate(-233.544 -212.4)"/>
        <path id="Trazado_979810" data-name="Trazado 979810" d="M264.952,265.9h19.035a.952.952,0,0,0,0-1.9H264.952a.952.952,0,1,0,0,1.9Z" transform="translate(-233.544 -233.544)"/>
        <path id="Trazado_979811" data-name="Trazado 979811" d="M264.952,289.9h15.109a.952.952,0,0,0,0-1.9H264.952a.952.952,0,1,0,0,1.9Z" transform="translate(-233.544 -254.689)"/>
        <path id="Trazado_979812" data-name="Trazado 979812" d="M417.9,288h-.952a.952.952,0,1,0,0,1.9h.952a.952.952,0,1,0,0-1.9Z" transform="translate(-367.461 -254.689)"/>
        <path id="Trazado_979813" data-name="Trazado 979813" d="M264.952,313.9h19.035a.952.952,0,0,0,0-1.9H264.952a.952.952,0,1,0,0,1.9Z" transform="translate(-233.544 -275.834)"/>
        <path id="Trazado_979814" data-name="Trazado 979814" d="M264.952,337.9h15.109a.952.952,0,0,0,0-1.9H264.952a.952.952,0,1,0,0,1.9Z" transform="translate(-233.544 -296.979)"/>
        <path id="Trazado_979815" data-name="Trazado 979815" d="M417.9,336h-.952a.952.952,0,1,0,0,1.9h.952a.952.952,0,1,0,0-1.9Z" transform="translate(-367.461 -296.979)"/>
      </g>
    </g>
  </g>
</svg>
