<svg xmlns="http://www.w3.org/2000/svg" width="80.431" height="81.18" viewBox="0 0 80.431 81.18">
  <g id="_2" data-name="2" transform="translate(-0.8 -0.5)">
    <g id="Grupo_1144261" data-name="Grupo 1144261" transform="translate(1.05 1.499)">
      <circle id="Elipse_11554" data-name="Elipse 11554" cx="40.091" cy="40.091" r="40.091" fill="#fdbf5e"/>
    </g>
    <g id="Grupo_1144277" data-name="Grupo 1144277" transform="translate(0.8 11.615)">
      <g id="Grupo_1144262" data-name="Grupo 1144262" transform="translate(0 0)">
        <path id="Trazado_979712" data-name="Trazado 979712" d="M8.669,10.3A6.849,6.849,0,0,0,1.8,17.169v8.118H15.663V17.169A6.957,6.957,0,0,0,8.669,10.3Z" transform="translate(-0.551 -9.176)" fill="#fff"/>
        <path id="Trazado_979713" data-name="Trazado 979713" d="M15.912,26.885H2.049A1.18,1.18,0,0,1,.8,25.636V17.518a8.118,8.118,0,1,1,16.236,0v8.118A1.148,1.148,0,0,1,15.912,26.885ZM3.3,24.387H14.663V17.518a5.62,5.62,0,0,0-11.24,0v6.869Z" transform="translate(-0.8 -9.4)" fill="#193651"/>
      </g>
      <g id="Grupo_1144263" data-name="Grupo 1144263" transform="translate(6.994)">
        <path id="Trazado_979714" data-name="Trazado 979714" d="M62.752,17.269A6.849,6.849,0,0,0,55.883,10.4H7.3a6.849,6.849,0,0,1,6.869,6.869V72.722a3.68,3.68,0,0,0,3.747,3.747H47.765L62.752,61.481Z" transform="translate(-6.176 -9.151)" fill="#e1e6e9"/>
        <path id="Trazado_979715" data-name="Trazado 979715" d="M47.989,77.841H18.265a5.01,5.01,0,0,1-5-5v-55.2A5.625,5.625,0,0,0,7.649,11.9,1.18,1.18,0,0,1,6.4,10.649,1.18,1.18,0,0,1,7.649,9.4H56.107a8.1,8.1,0,0,1,8.118,8.118V61.73a1.134,1.134,0,0,1-.375.874L48.864,77.592A1.805,1.805,0,0,1,47.989,77.841Zm-34.6-66.068a8.384,8.384,0,0,1,2.248,5.62V72.721a2.505,2.505,0,0,0,2.5,2.5H47.365L61.6,60.981V17.518a5.6,5.6,0,0,0-5.62-5.62H13.394Z" transform="translate(-6.4 -9.4)" fill="#193651"/>
      </g>
      <g id="Grupo_1144264" data-name="Grupo 1144264" transform="translate(19.983 6.245)">
        <path id="Trazado_979716" data-name="Trazado 979716" d="M16.925,70.352V16.4a10.1,10.1,0,0,0-.125-2H53.519a1.839,1.839,0,0,1,1.873,1.873V60.486L45.4,70.477H16.925Z" transform="translate(-16.8 -14.4)" fill="#fff"/>
      </g>
      <g id="Grupo_1144265" data-name="Grupo 1144265" transform="translate(47.334 50.956)">
        <path id="Trazado_979717" data-name="Trazado 979717" d="M39.7,66.187,54.687,51.2H43.447A3.68,3.68,0,0,0,39.7,54.947Z" transform="translate(-38.451 -49.951)" fill="#fff"/>
        <path id="Trazado_979718" data-name="Trazado 979718" d="M39.949,67.685a.751.751,0,0,1-.5-.125,1.2,1.2,0,0,1-.749-1.124V55.2a5.01,5.01,0,0,1,5-5h11.24a1.092,1.092,0,0,1,1.124.749,1.14,1.14,0,0,1-.25,1.374L40.823,67.31A1.134,1.134,0,0,1,39.949,67.685ZM43.7,52.823a2.505,2.505,0,0,0-2.5,2.5v8.243L51.939,52.823Z" transform="translate(-38.7 -50.2)" fill="#193651"/>
      </g>
      <g id="Grupo_1144266" data-name="Grupo 1144266" transform="translate(23.979 15.861)">
        <path id="Trazado_979719" data-name="Trazado 979719" d="M20,22.1H50.6v2.5H20Z" transform="translate(-20 -22.1)" fill="#193651"/>
      </g>
      <g id="Grupo_1144267" data-name="Grupo 1144267" transform="translate(23.979 15.861)">
        <path id="Trazado_979720" data-name="Trazado 979720" d="M20,22.1H50.6v2.5H20Z" transform="translate(-20 -22.1)" fill="#cfd0d1"/>
      </g>
      <g id="Grupo_1144268" data-name="Grupo 1144268" transform="translate(23.979 22.855)">
        <path id="Trazado_979721" data-name="Trazado 979721" d="M20,27.7H50.6v2.5H20Z" transform="translate(-20 -27.7)" fill="#cfd0d1"/>
      </g>
      <g id="Grupo_1144269" data-name="Grupo 1144269" transform="translate(23.979 29.849)">
        <path id="Trazado_979722" data-name="Trazado 979722" d="M20,33.3H50.6v2.5H20Z" transform="translate(-20 -33.3)" fill="#cfd0d1"/>
      </g>
      <g id="Grupo_1144270" data-name="Grupo 1144270" transform="translate(23.979 36.968)">
        <path id="Trazado_979723" data-name="Trazado 979723" d="M20,39H50.6v2.5H20Z" transform="translate(-20 -39)" fill="#cfd0d1"/>
      </g>
      <g id="Grupo_1144271" data-name="Grupo 1144271" transform="translate(23.979 43.962)">
        <path id="Trazado_979724" data-name="Trazado 979724" d="M20,44.6H50.6v2.5H20Z" transform="translate(-20 -44.6)" fill="#cfd0d1"/>
      </g>
      <g id="Grupo_1144276" data-name="Grupo 1144276" transform="translate(23.979 51.081)">
        <g id="Grupo_1144272" data-name="Grupo 1144272">
          <path id="Trazado_979725" data-name="Trazado 979725" d="M20,50.3h2.5v2.5H20Z" transform="translate(-20 -50.3)" fill="#193651"/>
        </g>
        <g id="Grupo_1144273" data-name="Grupo 1144273" transform="translate(4.996)">
          <path id="Trazado_979726" data-name="Trazado 979726" d="M24,50.3h2.5v2.5H24Z" transform="translate(-24 -50.3)" fill="#193651"/>
        </g>
        <g id="Grupo_1144274" data-name="Grupo 1144274" transform="translate(9.991)">
          <path id="Trazado_979727" data-name="Trazado 979727" d="M28,50.3h2.5v2.5H28Z" transform="translate(-28 -50.3)" fill="#193651"/>
        </g>
        <g id="Grupo_1144275" data-name="Grupo 1144275" transform="translate(14.987)">
          <path id="Trazado_979728" data-name="Trazado 979728" d="M32,50.3h2.5v2.5H32Z" transform="translate(-32 -50.3)" fill="#193651"/>
        </g>
      </g>
    </g>
    <g id="Grupo_1144278" data-name="Grupo 1144278" transform="translate(58.75 29.1)">
      <circle id="Elipse_11555" data-name="Elipse 11555" cx="9.867" cy="9.867" r="9.867" transform="translate(1.249 1.124)" fill="#4fbf9f"/>
      <path id="Trazado_979729" data-name="Trazado 979729" d="M58.315,45.631A11.115,11.115,0,1,1,69.431,34.515,11.14,11.14,0,0,1,58.315,45.631Zm0-19.858a8.618,8.618,0,1,0,8.618,8.618A8.635,8.635,0,0,0,58.315,25.773Z" transform="translate(-47.2 -23.4)" fill="#193651"/>
    </g>
    <g id="Grupo_1144279" data-name="Grupo 1144279" transform="translate(56.252 1.874)">
      <circle id="Elipse_11556" data-name="Elipse 11556" cx="9.867" cy="9.867" r="9.867" transform="translate(1.249 1.124)" fill="#f16051"/>
      <path id="Trazado_979730" data-name="Trazado 979730" d="M56.315,23.831A11.115,11.115,0,1,1,67.431,12.715,11.14,11.14,0,0,1,56.315,23.831Zm0-19.858a8.618,8.618,0,1,0,8.618,8.618,8.635,8.635,0,0,0-8.618-8.618Z" transform="translate(-45.2 -1.6)" fill="#193651"/>
    </g>
    <g id="Grupo_1144280" data-name="Grupo 1144280" transform="translate(25.529 0.5)">
      <circle id="Elipse_11557" data-name="Elipse 11557" cx="9.867" cy="9.867" r="9.867" transform="translate(1.249 1.249)" fill="#2ea2db"/>
      <path id="Trazado_979731" data-name="Trazado 979731" d="M31.715,22.731A11.115,11.115,0,1,1,42.831,11.615,11.14,11.14,0,0,1,31.715,22.731ZM31.715,3a8.618,8.618,0,1,0,8.618,8.618A8.635,8.635,0,0,0,31.715,3Z" transform="translate(-20.6 -0.5)" fill="#193651"/>
    </g>
    <g id="Grupo_1144284" data-name="Grupo 1144284" transform="translate(32.148 6.12)">
      <g id="Grupo_1144281" data-name="Grupo 1144281">
        <path id="Trazado_979732" data-name="Trazado 979732" d="M31.27,5H29.647l-3.622,8.243-.125.125h1.749l.874-1.873h3.872l.874,1.873h1.749Zm.5,5H29.147L30.4,7Z" transform="translate(-25.9 -5)" fill="#fff"/>
      </g>
      <g id="Grupo_1144282" data-name="Grupo 1144282" transform="translate(32.847 2.498)">
        <path id="Trazado_979733" data-name="Trazado 979733" d="M58.32,14.618a2.63,2.63,0,0,0,.624-1.624,1.878,1.878,0,0,0-.5-1.374,2.719,2.719,0,0,0-1-.624c.125,0,.125-.125.375-.25a2.068,2.068,0,0,0,.624-1.5,2.3,2.3,0,0,0-.624-1.5,3.458,3.458,0,0,0-1-.624c-.375,0-.874-.125-1.374-.125H52.2v8.368h3.747a2.537,2.537,0,0,0,2.373-.749ZM53.7,10.5V8.624h1.624a1.614,1.614,0,0,1,1,.25c.25.125.25.375.25.749,0,.25,0,.874-1.374.874Zm3.5,2.373a.755.755,0,0,1-.375.749,2.494,2.494,0,0,1-1.124.25h-2V12h1.873C56.7,12,57.2,12.246,57.2,12.87Z" transform="translate(-52.2 -7)" fill="#fff"/>
      </g>
      <g id="Grupo_1144283" data-name="Grupo 1144283" transform="translate(33.471 29.6)">
        <path id="Trazado_979734" data-name="Trazado 979734" d="M59.194,34.945a4.094,4.094,0,0,1-1,.749,3.647,3.647,0,0,1-1.124.25,2.542,2.542,0,0,1-1.873-.749,2.75,2.75,0,0,1,2-4.746,2.494,2.494,0,0,1,1.124.25,2.949,2.949,0,0,1,1.124.749l.125.125,1-1.249-.125-.125A4.2,4.2,0,0,0,57.2,28.7a4.423,4.423,0,0,0-3.247,1.249,4.527,4.527,0,0,0,0,6.245,4.143,4.143,0,0,0,3.122,1.249,4.2,4.2,0,0,0,3.247-1.5l.125-.125Z" transform="translate(-52.7 -28.7)" fill="#fff"/>
      </g>
    </g>
  </g>
</svg>
