<svg xmlns="http://www.w3.org/2000/svg" xmlns:xlink="http://www.w3.org/1999/xlink" width="108" height="108" viewBox="0 0 108 108">
  <defs>
    <filter id="Fondo" x="0" y="0" width="108" height="108" filterUnits="userSpaceOnUse">
      <feOffset dy="3" input="SourceAlpha"/>
      <feGaussianBlur stdDeviation="3" result="blur"/>
      <feFlood flood-opacity="0.161"/>
      <feComposite operator="in" in2="blur"/>
      <feComposite in="SourceGraphic"/>
    </filter>
  </defs>
  <g id="_44" data-name="44" transform="translate(-1166 -5189)">
    <g transform="matrix(1, 0, 0, 1, 1166, 5189)" filter="url(#Fondo)">
      <g id="Fondo-2" data-name="Fondo" transform="translate(9 6)" fill="#fffbe8" stroke="#bca724" stroke-width="3">
        <circle cx="45" cy="45" r="45" stroke="none"/>
        <circle cx="45" cy="45" r="43.5" fill="none"/>
      </g>
    </g>
    <g id="Grupo_1144519" data-name="Grupo 1144519" transform="translate(1185.436 5188.53)">
      <g id="Grupo_1144518" data-name="Grupo 1144518" transform="translate(8.95 22.461)">
        <g id="Grupo_1144515" data-name="Grupo 1144515" transform="translate(0 0)">
          <path id="Trazado_979954" data-name="Trazado 979954" d="M55.719,68.184a2.426,2.426,0,0,1,2.422,2.422v44.563a2.426,2.426,0,0,1-2.422,2.422h-37.3A2.426,2.426,0,0,1,16,115.168V70.606a2.426,2.426,0,0,1,2.422-2.422h37.3Z" transform="translate(-16 -63.572)" fill="#837683" fill-rule="evenodd"/>
          <path id="Trazado_979955" data-name="Trazado 979955" d="M322.861,117.591h3.126a2.427,2.427,0,0,0,2.422-2.422V70.607a2.427,2.427,0,0,0-2.422-2.422h-3.126Z" transform="translate(-286.268 -63.573)" fill="#685e68" fill-rule="evenodd"/>
          <path id="Trazado_979956" data-name="Trazado 979956" d="M78.566,96.437H45.342a1.091,1.091,0,0,0-1.089,1.089v40.49a1.091,1.091,0,0,0,1.089,1.089H78.566a1.091,1.091,0,0,0,1.089-1.089V97.526A1.091,1.091,0,0,0,78.566,96.437Z" transform="translate(-40.884 -88.456)" fill="#eceff1" fill-rule="evenodd"/>
          <path id="Trazado_979957" data-name="Trazado 979957" d="M322.861,139.105h1.089c.034,0,.068,0,.1,0a1.092,1.092,0,0,0,.987-1.084V97.526a1.092,1.092,0,0,0-.987-1.084c-.034,0-.067,0-.1,0h-1.089Z" transform="translate(-286.268 -88.456)" fill="#d1d1d6" fill-rule="evenodd"/>
          <path id="Trazado_979958" data-name="Trazado 979958" d="M93.41,349.111h4.084a1.352,1.352,0,0,1,1.348,1.348v4.084a1.352,1.352,0,0,1-1.348,1.348H93.41a1.352,1.352,0,0,1-1.348-1.348v-4.084A1.351,1.351,0,0,1,93.41,349.111Z" transform="translate(-82.992 -310.998)" fill="#fe646f" fill-rule="evenodd"/>
          <path id="Trazado_979959" data-name="Trazado 979959" d="M127.611,349.111H128.8a1.352,1.352,0,0,1,1.348,1.348v4.084a1.352,1.352,0,0,1-1.348,1.348h-1.193a1.352,1.352,0,0,0,1.348-1.348v-4.084A1.351,1.351,0,0,0,127.611,349.111Z" transform="translate(-114.301 -310.998)" fill="#fd4755" fill-rule="evenodd"/>
          <path id="Trazado_979960" data-name="Trazado 979960" d="M93.41,253.052h4.084a1.352,1.352,0,0,1,1.348,1.348v4.084a1.352,1.352,0,0,1-1.348,1.348H93.41a1.352,1.352,0,0,1-1.348-1.348V254.4A1.351,1.351,0,0,1,93.41,253.052Z" transform="translate(-82.992 -226.394)" fill="#ffe177" fill-rule="evenodd"/>
          <path id="Trazado_979961" data-name="Trazado 979961" d="M127.611,253.052H128.8a1.352,1.352,0,0,1,1.348,1.348v4.084a1.352,1.352,0,0,1-1.348,1.348h-1.193a1.352,1.352,0,0,0,1.348-1.348V254.4A1.352,1.352,0,0,0,127.611,253.052Z" transform="translate(-114.301 -226.394)" fill="#ffd064" fill-rule="evenodd"/>
          <path id="Trazado_979962" data-name="Trazado 979962" d="M93.41,156.993h4.084a1.352,1.352,0,0,1,1.348,1.348v4.084a1.352,1.352,0,0,1-1.348,1.348H93.41a1.352,1.352,0,0,1-1.348-1.348v-4.084A1.351,1.351,0,0,1,93.41,156.993Z" transform="translate(-82.992 -141.79)" fill="#8ac9fe" fill-rule="evenodd"/>
          <path id="Trazado_979963" data-name="Trazado 979963" d="M127.611,156.993H128.8a1.352,1.352,0,0,1,1.348,1.348v4.084a1.352,1.352,0,0,1-1.348,1.348h-1.193a1.352,1.352,0,0,0,1.348-1.348v-4.084A1.352,1.352,0,0,0,127.611,156.993Z" transform="translate(-114.301 -141.79)" fill="#60b7ff" fill-rule="evenodd"/>
          <path id="Trazado_979964" data-name="Trazado 979964" d="M115.589,32.655h3.452a1.069,1.069,0,0,0,1-.658,4.118,4.118,0,0,1,7.566,0,1.069,1.069,0,0,0,1,.658h3.452a1.091,1.091,0,0,1,1.089,1.089v4.119a1.091,1.091,0,0,1-1.089,1.089h-16.47a1.091,1.091,0,0,1-1.089-1.089V33.744A1.091,1.091,0,0,1,115.589,32.655Z" transform="translate(-102.754 -29.507)" fill="#e3a76f" fill-rule="evenodd"/>
          <path id="Trazado_979965" data-name="Trazado 979965" d="M130.969,61.116H114.5a1.091,1.091,0,0,0,1.089,1.089h16.47a1.091,1.091,0,0,0,1.089-1.089V57a1.091,1.091,0,0,0-1.089-1.089v4.119a1.091,1.091,0,0,1-1.089,1.089Z" transform="translate(-102.753 -52.76)" fill="#c48958" fill-rule="evenodd"/>
        </g>
        <g id="Grupo_1144516" data-name="Grupo 1144516" transform="translate(27.041 11.047)">
          <path id="Trazado_979966" data-name="Trazado 979966" d="M244.545,158.68h15.607q.937-5.246,6.327-4.023,3.6.624,3.52-1.006c.012-1.686.3-2.3.736-2.625.962-.742-.11-1.7-1.212-2.294.927-.074,2.117-.819,1.861-1.416-.41-1.4-.216-1.969.417-2.3q1.85-.9.754-2.3a13.092,13.092,0,0,1-2.017-2.809,4.653,4.653,0,0,1-.524-2.726,13.66,13.66,0,1,0-27.25-1.379A13.6,13.6,0,0,0,246,144.629a4.657,4.657,0,0,1,1.122,2.608c.368,3.358-.531,7.284-2.576,11.443Z" transform="translate(-242.763 -122.143)" fill="#ffddce" fill-rule="evenodd"/>
          <path id="Trazado_979967" data-name="Trazado 979967" d="M244.543,158.68h1.3c2.045-4.159,2.944-8.085,2.576-11.443a4.656,4.656,0,0,0-1.122-2.608,13.659,13.659,0,0,1,9.774-22.47q-.323-.015-.651-.016A13.659,13.659,0,0,0,246,144.629a4.657,4.657,0,0,1,1.122,2.608C247.487,150.595,246.588,154.521,244.543,158.68Z" transform="translate(-242.761 -122.143)" fill="#f1cbbc" fill-rule="evenodd"/>
        </g>
        <g id="Grupo_1144517" data-name="Grupo 1144517" transform="translate(34.011 18.359)">
          <path id="Trazado_979968" data-name="Trazado 979968" d="M312.525,193.941v-3.536a3.368,3.368,0,0,0,1.745.467c1.569,0,2.84-.991,2.84-2.214s-1.271-2.214-2.84-2.214a3.368,3.368,0,0,0-1.745.467V184.3a.837.837,0,0,0-.835-.835h-9.646a.837.837,0,0,0-.835.835v9.646a.837.837,0,0,0,.835.835h2.617a3.368,3.368,0,0,1-.467-1.745c0-1.569.991-2.84,2.214-2.84s2.214,1.271,2.214,2.84a3.368,3.368,0,0,1-.467,1.745h3.536A.837.837,0,0,0,312.525,193.941Z" transform="translate(-301.208 -183.46)" fill="#6cf5c2" fill-rule="evenodd"/>
          <path id="Trazado_979969" data-name="Trazado 979969" d="M317.005,189.257a1.765,1.765,0,0,0,.1-.6c0-1.223-1.271-2.214-2.84-2.214a3.368,3.368,0,0,0-1.745.467v1.192a3.368,3.368,0,0,1,1.745-.467A2.824,2.824,0,0,1,317.005,189.257Zm-4.481-3.767V184.3a.837.837,0,0,0-.835-.835h-9.646a.837.837,0,0,0-.835.835v1.192a.837.837,0,0,1,.835-.835h9.646A.837.837,0,0,1,312.524,185.49Z" transform="translate(-301.208 -183.462)" fill="#00e499" fill-rule="evenodd"/>
        </g>
      </g>
      <path id="Trazado_979970" data-name="Trazado 979970" d="M56.021,47.278a2.44,2.44,0,0,1-1.249-.328.954.954,0,0,0-1.45.814v3.418H51.259a4.664,4.664,0,0,0,.068-.792c0-2.091-1.422-3.793-3.169-3.793s-3.168,1.7-3.168,3.793a4.556,4.556,0,0,0,.068.792H43.913V41.774h9.409v2.5a.954.954,0,0,0,1.45.814,2.43,2.43,0,0,1,1.249-.328c1.023,0,1.887.577,1.887,1.259S57.044,47.278,56.021,47.278Zm0-4.428a4.545,4.545,0,0,0-.791.068v-2.1a.953.953,0,0,0-.954-.954H42.959a.954.954,0,0,0-.953.954V52.137a.954.954,0,0,0,.953.954h3.453a.954.954,0,0,0,.814-1.45,2.441,2.441,0,0,1-.328-1.25c0-1.022.577-1.885,1.261-1.885s1.26.863,1.26,1.885a2.431,2.431,0,0,1-.329,1.25.954.954,0,0,0,.816,1.45h4.37a.953.953,0,0,0,.954-.954V49.118a4.557,4.557,0,0,0,.791.068c2.092,0,3.794-1.421,3.794-3.168s-1.7-3.167-3.795-3.167Zm9.213,12.208c0-.019-.016-.141-.184-.363a14.048,14.048,0,0,1-2.132-2.984,5.631,5.631,0,0,1-.627-3.261,12.706,12.706,0,1,0-22.338,6.926A5.633,5.633,0,0,1,41.3,58.5a21.221,21.221,0,0,1-2.03,10.593H52.611a5.649,5.649,0,0,1,2.233-3.433,6.384,6.384,0,0,1,5.048-.571c1.77.3,2.284.077,2.38.019a.2.2,0,0,0,0-.045c0-.016,0-.033,0-.051.013-1.755.316-2.73,1.041-3.32a3.568,3.568,0,0,0-1.018-.754.954.954,0,0,1,.38-1.789,2.016,2.016,0,0,0,.965-.389c-.235-.842-.567-2.434.95-3.22l.02-.011C65.167,55.255,65.234,55.06,65.234,55.059Zm-15.1,19V71H48.674v2.11a.954.954,0,0,1-.954.954h-35.4a.954.954,0,0,1-.954-.954V30.443a.954.954,0,0,1,.954-.954h7.423v-1.46h-8.37A1.469,1.469,0,0,0,9.9,29.495V74.057a1.469,1.469,0,0,0,1.468,1.468h37.3a1.469,1.469,0,0,0,1.467-1.468ZM21.649,26.564h4.368a.954.954,0,0,0,.927-.73,3.164,3.164,0,0,1,6.15,0,.954.954,0,0,0,.928.73h4.367v4.388H21.649ZM40.3,31.906a.954.954,0,0,1-.954.954H20.695a.954.954,0,0,1-.954-.954V31.4H13.272V72.156H46.766V71H37.772a.955.955,0,0,1-.857-1.375q.569-1.157,1.013-2.286h-7.29a.954.954,0,0,1,0-1.908H38.6a20.757,20.757,0,0,0,.684-2.935H30.639a.954.954,0,0,1,0-1.908h8.825a13.127,13.127,0,0,0-.065-1.881,3.683,3.683,0,0,0-.9-2.1q-.3-.355-.577-.727H30.639a.954.954,0,0,1,0-1.908H36.72a14.648,14.648,0,0,1-1.16-2.935H30.639a.954.954,0,0,1,0-1.908h4.53a14.628,14.628,0,0,1,.125-4.7H30.639a.954.954,0,0,1,0-1.908h5.154a14.567,14.567,0,0,1,1.367-2.935H30.639a.954.954,0,0,1,0-1.908h7.907a14.628,14.628,0,0,1,8.22-4.838V31.4H40.3v.509Zm8.371-3.878a1.469,1.469,0,0,1,1.467,1.467v3.068c-.161-.006-.323-.01-.485-.01-.328,0-.652.012-.975.034V30.443a.954.954,0,0,0-.954-.954H40.3v-1.46ZM66.532,53.493c-.016-.02-.033-.039-.05-.058a12.179,12.179,0,0,1-1.872-2.6,3.678,3.678,0,0,1-.421-2.19c.049-.488.073-.984.073-1.475A14.637,14.637,0,0,0,52.043,32.75V29.495a3.378,3.378,0,0,0-3.375-3.375H40.3v-.51a.954.954,0,0,0-.954-.954h-4.63a5.074,5.074,0,0,0-9.389,0h-4.63a.955.955,0,0,0-.954.954v.51h-8.37A3.379,3.379,0,0,0,8,29.495V74.057a3.38,3.38,0,0,0,3.376,3.376h37.3a3.379,3.379,0,0,0,3.375-3.376V71h1.336a.954.954,0,0,0,.94-.787,4.278,4.278,0,0,1,1.58-2.964,4.623,4.623,0,0,1,3.6-.3l.048.01c2,.347,3.277.208,4.01-.439A1.866,1.866,0,0,0,64.18,65c.008-1.027.134-1.682.353-1.845l.011-.008a1.725,1.725,0,0,0,.74-1.531,2.152,2.152,0,0,0-.6-1.256,2.471,2.471,0,0,0,.687-.711,1.454,1.454,0,0,0,.147-1.276c-.25-.873-.145-1.078-.144-1.078a.26.26,0,0,1,.088-.06,2.739,2.739,0,0,0,1.636-1.752,2.331,2.331,0,0,0-.562-1.993ZM31.108,25.836a1.089,1.089,0,1,0-1.089,1.088A1.089,1.089,0,0,0,31.108,25.836ZM23.845,66.005a.4.4,0,0,1-.394.393H19.367a.4.4,0,0,1-.394-.393V61.922a.4.4,0,0,1,.394-.394h4.085a.4.4,0,0,1,.394.394Zm-.393-6.386a2.3,2.3,0,0,1,2.3,2.3v4.084a2.3,2.3,0,0,1-2.3,2.3H19.367a2.3,2.3,0,0,1-2.3-2.3V61.922a2.3,2.3,0,0,1,2.3-2.3Zm.393-5.069a.4.4,0,0,1-.394.394H19.367a.4.4,0,0,1-.394-.394V50.466a.4.4,0,0,1,.394-.393h4.085a.4.4,0,0,1,.394.393Zm-.393-6.386a2.3,2.3,0,0,1,2.3,2.3v4.085a2.3,2.3,0,0,1-2.3,2.3H19.367a2.3,2.3,0,0,1-2.3-2.3V50.466a2.3,2.3,0,0,1,2.3-2.3Zm.393-9.154V43.1a.4.4,0,0,1-.394.394H19.367a.4.4,0,0,1-.394-.394V39.011a.4.4,0,0,1,.394-.394h4.085A.4.4,0,0,1,23.845,39.011Zm-6.779,0a2.3,2.3,0,0,1,2.3-2.3h4.085a2.3,2.3,0,0,1,2.3,2.3V43.1a2.3,2.3,0,0,1-2.3,2.3H19.367a2.3,2.3,0,0,1-2.3-2.3Z" fill-rule="evenodd"/>
    </g>
  </g>
</svg>
