<svg xmlns="http://www.w3.org/2000/svg" xmlns:xlink="http://www.w3.org/1999/xlink" width="108" height="108" viewBox="0 0 108 108">
  <defs>
    <filter id="Fondo" x="0" y="0" width="108" height="108" filterUnits="userSpaceOnUse">
      <feOffset dy="3" input="SourceAlpha"/>
      <feGaussianBlur stdDeviation="3" result="blur"/>
      <feFlood flood-opacity="0.161"/>
      <feComposite operator="in" in2="blur"/>
      <feComposite in="SourceGraphic"/>
    </filter>
  </defs>
  <g id="_47" data-name="47" transform="translate(-273 -6729)">
    <g transform="matrix(1, 0, 0, 1, 273, 6729)" filter="url(#Fondo)">
      <g id="Fondo-2" data-name="Fondo" transform="translate(9 6)" fill="#fffbe8" stroke="#bca724" stroke-width="3">
        <circle cx="45" cy="45" r="45" stroke="none"/>
        <circle cx="45" cy="45" r="43.5" fill="none"/>
      </g>
    </g>
    <g id="Grupo_1144555" data-name="Grupo 1144555" transform="translate(301.696 6754.349)">
      <g id="Grupo_1144554" data-name="Grupo 1144554" transform="translate(0.964 0.751)">
        <g id="Grupo_1144545" data-name="Grupo 1144545" transform="translate(2.828)">
          <g id="Grupo_1144543" data-name="Grupo 1144543" transform="translate(2.547)">
            <g id="Grupo_1144542" data-name="Grupo 1144542">
              <g id="Grupo_1144540" data-name="Grupo 1144540">
                <path id="Trazado_980060" data-name="Trazado 980060" d="M98.551,30.79h-35.2a1.913,1.913,0,0,1-1.912-1.915V9.415A1.913,1.913,0,0,1,63.347,7.5h35.2a1.913,1.913,0,0,1,1.912,1.915v19.46A1.913,1.913,0,0,1,98.551,30.79Z" transform="translate(-61.435 -7.5)" fill="#df9874"/>
                <path id="Trazado_980061" data-name="Trazado 980061" d="M390.047,7.5h-4.712V30.79h4.712a1.913,1.913,0,0,0,1.912-1.915V9.415A1.913,1.913,0,0,0,390.047,7.5Z" transform="translate(-352.93 -7.5)" fill="#da8659"/>
                <path id="Trazado_980062" data-name="Trazado 980062" d="M91.432,54.265V38.009a.511.511,0,0,1,.511-.511h32a.511.511,0,0,1,.511.511V54.265a.511.511,0,0,1-.511.511h-32A.511.511,0,0,1,91.432,54.265Z" transform="translate(-88.431 -34.492)" fill="#b9ea6a"/>
                <path id="Trazado_980063" data-name="Trazado 980063" d="M388.448,37.5h-3.112V54.776h3.112a.511.511,0,0,0,.511-.511V38.009A.511.511,0,0,0,388.448,37.5Z" transform="translate(-352.931 -34.492)" fill="#a1e42c"/>
              </g>
              <g id="Grupo_1144541" data-name="Grupo 1144541" transform="translate(15.241 9.79)">
                <ellipse id="Elipse_11583" data-name="Elipse 11583" cx="4.273" cy="4.279" rx="4.273" ry="4.279" fill="#ffb983"/>
              </g>
              <path id="Trazado_980064" data-name="Trazado 980064" d="M131.857,302.875H156.7v18.766h-24.84Z" transform="translate(-124.812 -273.278)" fill="#f5f5f5"/>
              <path id="Trazado_980065" data-name="Trazado 980065" d="M314.188,302.875h6.6v18.766h-6.6Z" transform="translate(-288.901 -273.278)" fill="#dfdfdf"/>
            </g>
          </g>
          <g id="Grupo_1144544" data-name="Grupo 1144544" transform="translate(0 35.516)">
            <path id="Trazado_980066" data-name="Trazado 980066" d="M39.36,368.721a3.387,3.387,0,1,1,3.382-3.387A3.389,3.389,0,0,1,39.36,368.721Z" transform="translate(-35.978 -361.946)" fill="#ffb983"/>
            <path id="Trazado_980067" data-name="Trazado 980067" d="M163.5,368.721a3.387,3.387,0,1,1,3.382-3.387A3.389,3.389,0,0,1,163.5,368.721Z" transform="translate(-147.701 -361.946)" fill="#ffb983"/>
            <path id="Trazado_980068" data-name="Trazado 980068" d="M287.647,368.721a3.387,3.387,0,1,1,3.382-3.387A3.389,3.389,0,0,1,287.647,368.721Z" transform="translate(-259.425 -361.946)" fill="#ffb983"/>
            <path id="Trazado_980069" data-name="Trazado 980069" d="M411.79,368.721a3.387,3.387,0,1,1,3.382-3.387A3.389,3.389,0,0,1,411.79,368.721Z" transform="translate(-371.148 -361.946)" fill="#ffb983"/>
          </g>
        </g>
        <g id="Grupo_1144552" data-name="Grupo 1144552" transform="translate(0 42.081)">
          <g id="Grupo_1144546" data-name="Grupo 1144546" transform="translate(0 0)">
            <path id="Trazado_980070" data-name="Trazado 980070" d="M20.134,435.185H8.648a.935.935,0,0,1-.934-.935v-.564a6.21,6.21,0,1,1,12.42,0Z" transform="translate(-7.714 -427.466)" fill="#fb636f"/>
          </g>
          <g id="Grupo_1144547" data-name="Grupo 1144547" transform="translate(12.42 0)">
            <path id="Trazado_980071" data-name="Trazado 980071" d="M144.277,435.184h-12.42v-1.5a6.21,6.21,0,1,1,12.42,0Z" transform="translate(-131.857 -427.465)" fill="#89c6fc"/>
          </g>
          <g id="Grupo_1144548" data-name="Grupo 1144548" transform="translate(24.84 0)">
            <path id="Trazado_980072" data-name="Trazado 980072" d="M268.42,435.184H256v-1.5a6.21,6.21,0,1,1,12.42,0Z" transform="translate(-256 -427.465)" fill="#fb636f"/>
          </g>
          <g id="Grupo_1144549" data-name="Grupo 1144549" transform="translate(37.26 0)">
            <path id="Trazado_980073" data-name="Trazado 980073" d="M391.629,435.184H380.143v-1.5a6.21,6.21,0,1,1,12.42,0v.564A.935.935,0,0,1,391.629,435.184Z" transform="translate(-380.143 -427.465)" fill="#89c6fc"/>
          </g>
          <g id="Grupo_1144550" data-name="Grupo 1144550" transform="translate(40.185 0)">
            <path id="Trazado_980074" data-name="Trazado 980074" d="M412.669,427.465a6.172,6.172,0,0,0-3.285.942,6.216,6.216,0,0,1,2.925,5.278v1.5h5.635a.935.935,0,0,0,.934-.935v-.564A6.215,6.215,0,0,0,412.669,427.465Z" transform="translate(-409.384 -427.465)" fill="#62b4fd"/>
          </g>
          <g id="Grupo_1144551" data-name="Grupo 1144551" transform="translate(27.765)">
            <path id="Trazado_980075" data-name="Trazado 980075" d="M294.736,433.684a6.207,6.207,0,0,0-9.495-5.278,6.217,6.217,0,0,1,2.925,5.278v1.5h6.569Z" transform="translate(-285.241 -427.464)" fill="#fa2a3b"/>
          </g>
          <path id="Trazado_980076" data-name="Trazado 980076" d="M164.382,427.465a6.172,6.172,0,0,0-3.285.942,6.217,6.217,0,0,1,2.925,5.278v1.5h6.569v-1.5A6.215,6.215,0,0,0,164.382,427.465Z" transform="translate(-145.752 -427.465)" fill="#62b4fd"/>
          <path id="Trazado_980077" data-name="Trazado 980077" d="M46.45,435.184v-1.5a6.207,6.207,0,0,0-9.495-5.278,6.217,6.217,0,0,1,2.925,5.278v1.5H46.45Z" transform="translate(-34.03 -427.465)" fill="#fa2a3b"/>
        </g>
        <g id="Grupo_1144553" data-name="Grupo 1144553" transform="translate(10.321 18.248)">
          <path id="Trazado_980078" data-name="Trazado 980078" d="M197.267,199.36H182.453v-2.328a7.407,7.407,0,1,1,14.814,0Z" transform="translate(-175.292 -189.614)" fill="#3590bb"/>
          <path id="Trazado_980079" data-name="Trazado 980079" d="M227.091,189.614a7.366,7.366,0,0,0-3.268.761,7.419,7.419,0,0,1,4.139,6.658v2.328H234.5v-2.328A7.412,7.412,0,0,0,227.091,189.614Z" transform="translate(-212.523 -189.614)" fill="#0e80ac"/>
          <path id="Trazado_980080" data-name="Trazado 980080" d="M138.87,287.2H112.012a1.14,1.14,0,0,1-1.139-1.141v-1.177a1.14,1.14,0,0,1,1.139-1.141H138.87a1.14,1.14,0,0,1,1.139,1.141v1.177A1.14,1.14,0,0,1,138.87,287.2Z" transform="translate(-110.873 -274.305)" fill="#dfdfdf"/>
          <path id="Trazado_980081" data-name="Trazado 980081" d="M331.92,283.736h-5.4v2.319a1.14,1.14,0,0,1-1.139,1.141h6.536a1.14,1.14,0,0,0,1.139-1.141v-1.177A1.14,1.14,0,0,0,331.92,283.736Z" transform="translate(-303.923 -274.305)" fill="#cbcbcb"/>
        </g>
      </g>
      <path id="Trazado_980082" data-name="Trazado 980082" d="M47.248,42.678a4.133,4.133,0,1,0-5.627,0,7,7,0,0,0-2.646,2.058V37.613a.75.75,0,1,0-1.5,0v7.123a7,7,0,0,0-2.646-2.058,4.133,4.133,0,1,0-5.627,0,7.006,7.006,0,0,0-3.4,3.232,7.007,7.007,0,0,0-3.4-3.232,4.133,4.133,0,1,0-5.627,0,7,7,0,0,0-2.646,2.058V32.642H37.474V34.1a.75.75,0,1,0,1.5,0V32.642h.307a1.893,1.893,0,0,0,1.89-1.893V29.572a1.893,1.893,0,0,0-1.89-1.893H34.01V26.418a8.183,8.183,0,0,0-.163-1.625h9.608a2.667,2.667,0,0,0,2.662-2.666V2.666A2.667,2.667,0,0,0,43.455,0H8.251A2.667,2.667,0,0,0,5.588,2.666v19.46a2.667,2.667,0,0,0,2.662,2.666h9.608a8.191,8.191,0,0,0-.163,1.625v1.261H12.424a1.893,1.893,0,0,0-1.89,1.893v1.177a1.893,1.893,0,0,0,1.89,1.893h.21V44.736a7,7,0,0,0-2.646-2.058,4.133,4.133,0,1,0-5.627,0A6.98,6.98,0,0,0,.214,49.052v.564A1.688,1.688,0,0,0,1.9,51.3H49.71a1.688,1.688,0,0,0,1.684-1.687v-.564a6.98,6.98,0,0,0-4.147-6.374Zm-39-19.388a1.164,1.164,0,0,1-1.162-1.163V2.666A1.164,1.164,0,0,1,8.251,1.5h35.2a1.164,1.164,0,0,1,1.162,1.163v19.46a1.164,1.164,0,0,1-1.162,1.163H33.387a8.165,8.165,0,0,0-.819-1.5h9.287a1.263,1.263,0,0,0,1.261-1.263V4.269a1.263,1.263,0,0,0-1.261-1.263h-32A1.263,1.263,0,0,0,8.59,4.269V6.5a.75.75,0,1,0,1.5,0V4.509H41.616V20.284H31.232a8.167,8.167,0,0,0-2.348-1.449,5.023,5.023,0,1,0-6.062,0,8.169,8.169,0,0,0-2.348,1.449H10.09V10.013a.75.75,0,1,0-1.5,0V20.524a1.263,1.263,0,0,0,1.261,1.263h9.287a8.167,8.167,0,0,0-.819,1.5Zm14.08-8.47a3.522,3.522,0,1,1,4.209,3.459c-.227-.019-.455-.031-.687-.031s-.46.012-.687.031A3.515,3.515,0,0,1,22.33,14.82ZM19.2,26.418a6.656,6.656,0,1,1,13.313,0v1.261H19.2Zm-7.161,4.331V29.572a.39.39,0,0,1,.389-.39H39.281a.39.39,0,0,1,.389.39v1.177a.39.39,0,0,1-.389.39H12.424a.39.39,0,0,1-.389-.39ZM41.8,39.655a2.632,2.632,0,1,1,3.507,2.483,6.744,6.744,0,0,0-1.75,0A2.651,2.651,0,0,1,41.8,39.655Zm-12.42,0a2.632,2.632,0,1,1,3.507,2.483,6.744,6.744,0,0,0-1.75,0A2.65,2.65,0,0,1,29.382,39.655Zm-12.42,0a2.632,2.632,0,1,1,3.507,2.483,6.744,6.744,0,0,0-1.75,0A2.65,2.65,0,0,1,16.962,39.655Zm-12.42,0a2.632,2.632,0,1,1,3.507,2.483,6.744,6.744,0,0,0-1.75,0,2.651,2.651,0,0,1-1.757-2.483ZM1.715,49.616v-.564a5.46,5.46,0,1,1,10.919,0V49.8H1.9a.184.184,0,0,1-.184-.184Zm12.42-.564a5.46,5.46,0,1,1,10.919,0V49.8H14.134Zm12.42,0a5.46,5.46,0,1,1,10.919,0V49.8H26.554Zm23.339.564a.184.184,0,0,1-.184.184H38.974v-.748a5.46,5.46,0,1,1,10.919,0Z"/>
    </g>
  </g>
</svg>
