<svg xmlns="http://www.w3.org/2000/svg" xmlns:xlink="http://www.w3.org/1999/xlink" width="108" height="108" viewBox="0 0 108 108">
  <defs>
    <filter id="Fondo" x="0" y="0" width="108" height="108" filterUnits="userSpaceOnUse">
      <feOffset dy="3" input="SourceAlpha"/>
      <feGaussianBlur stdDeviation="3" result="blur"/>
      <feFlood flood-opacity="0.161"/>
      <feComposite operator="in" in2="blur"/>
      <feComposite in="SourceGraphic"/>
    </filter>
  </defs>
  <g id="_49" data-name="49" transform="translate(-903 -6729)">
    <g transform="matrix(1, 0, 0, 1, 903, 6729)" filter="url(#Fondo)">
      <g id="Fondo-2" data-name="Fondo" transform="translate(9 6)" fill="#fffbe8" stroke="#bca724" stroke-width="3">
        <circle cx="45" cy="45" r="45" stroke="none"/>
        <circle cx="45" cy="45" r="43.5" fill="none"/>
      </g>
    </g>
    <g id="Grupo_1144531" data-name="Grupo 1144531" transform="translate(923.959 6750.85)">
      <g id="Grupo_1144529" data-name="Grupo 1144529" transform="translate(9.76 2.294)">
        <path id="Trazado_980004" data-name="Trazado 980004" d="M174.529,59.308V76.73l1.632,1.828h18.561l1.1-.339A3.04,3.04,0,0,0,192.895,76H178.549a1.7,1.7,0,0,1-1.7-1.7V61.679a3.04,3.04,0,0,0-1.98-2.849Z" transform="translate(-156.525 -54.426)" fill="#ff7ab9"/>
        <path id="Trazado_980005" data-name="Trazado 980005" d="M310.566,329.808h5.2l-.634-3.647h-5.373Z" transform="translate(-276.353 -291.316)" fill="#b5dcff"/>
        <path id="Trazado_980006" data-name="Trazado 980006" d="M158.115,76.541a2.512,2.512,0,0,1-2.512-2.512V57.8a2.528,2.528,0,0,1,.028-.377,3.028,3.028,0,0,0-1.229-.26h-1.365l-.408.448v19.8l6.593,2.28h15.828l1.478-.772V77.565a3.034,3.034,0,0,0-.177-1.023Z" transform="translate(-137.12 -52.947)" fill="#ff5ca8"/>
        <path id="Trazado_980007" data-name="Trazado 980007" d="M283.112,326.161h-3.9a11.767,11.767,0,0,1,.958,3.647h3.661A15.441,15.441,0,0,0,283.112,326.161Z" transform="translate(-249.284 -291.316)" fill="#8bcaff"/>
        <path id="Trazado_980008" data-name="Trazado 980008" d="M389.531,395.578H387.57l-1.708,3.847V403.9l1.442,2.657,2.006.678a6.631,6.631,0,0,0,.221-11.66Z" transform="translate(-343.794 -352.828)" fill="#8896e0"/>
        <path id="Trazado_980009" data-name="Trazado 980009" d="M337.663,394.988a6.629,6.629,0,0,1,3.362-5.77,6.59,6.59,0,0,0-2.5-.817l-.642.586-2.3.169-.662-.169a6.633,6.633,0,1,0,6.1,11.771A6.63,6.63,0,0,1,337.663,394.988Z" transform="translate(-295.287 -346.469)" fill="#6b7ed9"/>
        <path id="Trazado_980010" data-name="Trazado 980010" d="M98.516,20.15H96.4V23.8h2.118a1.075,1.075,0,0,1,.946.567h.917l.759.952V44.908l1.751-.12.348-.5V24.871A4.726,4.726,0,0,0,98.516,20.15Z" transform="translate(-87.291 -20.15)" fill="#dbedff"/>
        <path id="Trazado_980011" data-name="Trazado 980011" d="M121.949,75.448l1.566-.107V56.29a1.765,1.765,0,0,0-1.765-1.765h-.55a1.071,1.071,0,0,1,.367.807V75.076Z" transform="translate(-109.269 -50.611)" fill="#b5dcff"/>
        <path id="Trazado_980012" data-name="Trazado 980012" d="M231.593,252.034l.1.639,1.144.135.769.8,2.591,16.587,1.1,1.7h.375a1.819,1.819,0,0,0,.5-1.553l-3.262-20.709a1.824,1.824,0,0,0-1.8-1.54H216.751v.334l3.718,3.06.8.253h9.974A.351.351,0,0,1,231.593,252.034Z" transform="translate(-193.939 -222.135)" fill="#dbedff"/>
        <path id="Trazado_980013" data-name="Trazado 980013" d="M352.293,304.018a1.813,1.813,0,0,0,1.022-.532,5.45,5.45,0,0,1-1.386-2.886l-2.285-15.179a1.971,1.971,0,0,0-1.949-1.678h-.441l2.954,18.757A1.824,1.824,0,0,0,352.293,304.018Z" transform="translate(-309.582 -253.729)" fill="#b5dcff"/>
        <path id="Trazado_980014" data-name="Trazado 980014" d="M35.633,20.15H30.163a1.824,1.824,0,1,0,0,3.647h5.471Z" transform="translate(-26.982 -20.15)" fill="#60b9fe"/>
        <path id="Trazado_980015" data-name="Trazado 980015" d="M152.523,344.859l-.412.114-1.082,1.5v2.239l.645.892.854.588a2.972,2.972,0,0,0-.006-5.332Z" transform="translate(-135.701 -307.885)" fill="#8896e0"/>
        <path id="Trazado_980016" data-name="Trazado 980016" d="M129.491,345.149a2.974,2.974,0,0,1,1.487-2.573,2.973,2.973,0,1,0,0,5.147A2.975,2.975,0,0,1,129.491,345.149Z" transform="translate(-113.981 -305.507)" fill="#6b7ed9"/>
        <path id="Trazado_980017" data-name="Trazado 980017" d="M61.712,232.075q-.377,0-.749.018l-1.672.688-5.219,2.989-4.042,5.808v3.944a11.863,11.863,0,1,1,0,4.129v3.367l3.1,5.043,3.245,3.074,3.9,1.48,1.938.472a15.51,15.51,0,0,0-.5-31.012Z" transform="translate(-46.202 -207.943)" fill="#8896e0"/>
        <g id="Grupo_1144528" data-name="Grupo 1144528" transform="translate(0 24.132)">
          <path id="Trazado_980018" data-name="Trazado 980018" d="M20.264,249.753a11.894,11.894,0,0,1,0-4.334,15.517,15.517,0,0,1,13.512-13.233,15.51,15.51,0,1,0,0,30.8A15.517,15.517,0,0,1,20.264,249.753Z" transform="translate(-16.418 -232.076)" fill="#6b7ed9"/>
        </g>
      </g>
      <g id="Grupo_1144530" data-name="Grupo 1144530" transform="translate(8.904 0)">
        <path id="Trazado_980019" data-name="Trazado 980019" d="M64.323,49.987H59.666a7.481,7.481,0,0,0-5.92-6.5l-.81-5.145a.854.854,0,0,0-1.687.266l1.894,12.027a.97.97,0,1,1-1.916.3L48.256,32.061a1.2,1.2,0,0,0-1.191-1.018H37.479A16.408,16.408,0,0,0,35.425,29.1h13.5l.058,0,.072.008h.014a.964.964,0,0,1,.814.807l.747,4.745a.854.854,0,1,0,1.687-.266l-.747-4.745a2.663,2.663,0,0,0-1.548-2.027v-.717a3.9,3.9,0,0,0-3.893-3.893H45.28V21.411a3.685,3.685,0,0,0-3.68-3.68H30.935V9.548a3.9,3.9,0,0,0-3.893-3.893h-.652a5.584,5.584,0,0,0-5.406-4.214H19.264V.854a.854.854,0,1,0-1.708,0V1.44H12.939a2.678,2.678,0,0,0,0,5.355h4.617v.586a.854.854,0,0,0,1.708,0V6.8h1.719a.22.22,0,0,1,.22.22V26.084a16.365,16.365,0,1,0,20.43,15.853c0-.1,0-.2,0-.3h6.406l.426,2.7A7.486,7.486,0,1,0,59.66,51.7h4.663a.854.854,0,0,0,0-1.708Zm-6.378,0H54.771l-.734-4.663A5.777,5.777,0,0,1,57.945,49.987Zm-10.754-13.7H40.627A16.324,16.324,0,0,0,38.8,32.751h7.83ZM46.128,24.727a2.188,2.188,0,0,1,2.185,2.185V27.4H45.28V24.727h.848ZM41.6,19.439a1.975,1.975,0,0,1,1.972,1.972v1.608H39.414a.854.854,0,0,0,0,1.708h4.157V27.4H32.78a16.136,16.136,0,0,0-6.222-1.773V19.439h2.669v2.732a2.559,2.559,0,0,0,2.556,2.556h3.647a.854.854,0,0,0,0-1.708H31.782a.849.849,0,0,1-.848-.848V19.439ZM29.227,9.548v8.183H26.558V7.363h.483A2.188,2.188,0,0,1,29.227,9.548ZM12.939,5.088a.97.97,0,0,1,0-1.939h4.617V5.087H12.939Zm9.972,20.654V7.015a1.93,1.93,0,0,0-1.928-1.928H19.264V3.148h1.719A3.872,3.872,0,0,1,24.85,7.015V25.577a17.142,17.142,0,0,0-1.939.164Zm2.357,30.851A14.656,14.656,0,1,1,39.925,41.937,14.673,14.673,0,0,1,25.268,56.593ZM41.51,39.933a16.64,16.64,0,0,0-.357-1.939h6.308l.305,1.939Zm10.716,16.66a5.778,5.778,0,0,1-3.474-10.4l.788,5a2.678,2.678,0,0,0,5.163.5h3.235A5.788,5.788,0,0,1,52.226,56.593Z" transform="translate(-8.904 0)"/>
        <path id="Trazado_980020" data-name="Trazado 980020" d="M53.649,256.6a12.717,12.717,0,1,0,12.717,12.717A12.732,12.732,0,0,0,53.649,256.6Zm8.361,19.871-5.121-5.121a3.805,3.805,0,0,0,.49-1.179h7.246A10.961,10.961,0,0,1,62.011,276.475Zm-19.338-6.3h7.246a3.8,3.8,0,0,0,.49,1.179l-5.121,5.121A10.962,10.962,0,0,1,42.673,270.175Zm2.615-8.007,5.121,5.121a3.805,3.805,0,0,0-.489,1.179H42.673A10.962,10.962,0,0,1,45.288,262.168Zm8.361,9.273a2.119,2.119,0,1,1,2.119-2.119A2.122,2.122,0,0,1,53.649,271.441Zm2.033-5.36a3.806,3.806,0,0,0-1.179-.49v-7.246a10.962,10.962,0,0,1,6.3,2.615Zm-2.887-.49a3.8,3.8,0,0,0-1.179.49L46.5,260.96a10.962,10.962,0,0,1,6.3-2.615v7.246Zm-1.179,6.971a3.806,3.806,0,0,0,1.179.49V280.3a10.962,10.962,0,0,1-6.3-2.615Zm2.887.49a3.806,3.806,0,0,0,1.179-.49l5.121,5.121a10.963,10.963,0,0,1-6.3,2.615Zm2.876-4.584a3.805,3.805,0,0,0-.49-1.179l5.121-5.121a10.962,10.962,0,0,1,2.615,6.3Z" transform="translate(-37.285 -227.385)"/>
      </g>
    </g>
  </g>
</svg>
