<svg xmlns="http://www.w3.org/2000/svg" xmlns:xlink="http://www.w3.org/1999/xlink" width="108" height="108" viewBox="0 0 108 108">
  <defs>
    <filter id="Fondo" x="0" y="0" width="108" height="108" filterUnits="userSpaceOnUse">
      <feOffset dy="3" input="SourceAlpha"/>
      <feGaussianBlur stdDeviation="3" result="blur"/>
      <feFlood flood-opacity="0.161"/>
      <feComposite operator="in" in2="blur"/>
      <feComposite in="SourceGraphic"/>
    </filter>
  </defs>
  <g id="_50" data-name="50" transform="translate(-1218 -6729)">
    <g transform="matrix(1, 0, 0, 1, 1218, 6729)" filter="url(#Fondo)">
      <g id="Fondo-2" data-name="Fondo" transform="translate(9 6)" fill="#fffbe8" stroke="#bca724" stroke-width="3">
        <circle cx="45" cy="45" r="45" stroke="none"/>
        <circle cx="45" cy="45" r="43.5" fill="none"/>
      </g>
    </g>
    <g id="Grupo_1144536" data-name="Grupo 1144536" transform="translate(1219.833 6754.219)">
      <g id="Grupo_1144534" data-name="Grupo 1144534" transform="translate(26.515 0.863)">
        <path id="Trazado_980021" data-name="Trazado 980021" d="M58.386,196.194l-10.3,10.3-2.623-2.623a3.049,3.049,0,0,0-1.809-.873l-9.1-1.042a1.588,1.588,0,0,1-1.407-1.578V186.84a1.53,1.53,0,0,1,1.881-1.489l2.436.575,13.939,3.292Z" transform="translate(-33.153 -164.84)" fill="#ffcebf"/>
        <path id="Trazado_980022" data-name="Trazado 980022" d="M171.909,186.137a1.53,1.53,0,0,0-1.819-1.5l-19.609,3.777h0a3.891,3.891,0,0,0-3.9,1.111l-1.538,1.887-2.45,3.006L132.2,211.365a2.657,2.657,0,0,0,4.874,2.117,2.657,2.657,0,0,0,4.874,2.118,2.657,2.657,0,1,0,4.874,2.117,2.657,2.657,0,0,0,4.684,2.476,10.376,10.376,0,0,1,.633-.921l10.82-13.692,1.153-5.128h6.2a1.588,1.588,0,0,0,1.588-1.588V186.137Z" transform="translate(-120.607 -164.219)" fill="#ffdfcf"/>
        <g id="Grupo_1144533" data-name="Grupo 1144533" transform="translate(14.283 20.389)">
          <path id="Trazado_980023" data-name="Trazado 980023" d="M280.2,322.236h3.454l-1.153,5.128-10.82,13.692a10.6,10.6,0,0,0-.633.921A2.656,2.656,0,0,1,267.747,343a2.58,2.58,0,0,1-.669-.418,2.62,2.62,0,0,0,.52-.6,10.6,10.6,0,0,1,.633-.921l10.82-13.692Z" transform="translate(-254.433 -306.393)" fill="#ffcebf"/>
          <path id="Trazado_980024" data-name="Trazado 980024" d="M440.049,186.141v12.726a1.587,1.587,0,0,1-1.587,1.587h-3.454a1.587,1.587,0,0,0,1.587-1.587V186.141a1.521,1.521,0,0,0-.464-1.1l2.1-.4A1.529,1.529,0,0,1,440.049,186.141Z" transform="translate(-403.031 -184.612)" fill="#ffcebf"/>
          <path id="Trazado_980025" data-name="Trazado 980025" d="M178.081,212.787l-.906-5.248a6.343,6.343,0,0,0-4.355-4.974l-6.836-1.832a3.855,3.855,0,0,0-3.225.576L160.367,203l-1.916,1.734-1.221,1.105,4.088,6.1a11.075,11.075,0,0,0,8.513-3.243l3.693,5.27a3.217,3.217,0,0,0,2.041,1.318A2.161,2.161,0,0,0,178.081,212.787Z" transform="translate(-157.23 -198.761)" fill="#ffcebf"/>
        </g>
        <path id="Trazado_980026" data-name="Trazado 980026" d="M223.789,215.285a3.212,3.212,0,0,1-1.253-.53,2.164,2.164,0,0,0,.672-1.97l-.906-5.247a6.344,6.344,0,0,0-4.354-4.974l-6.22-1.666a3.84,3.84,0,0,1,2.48-.165l6.837,1.831a6.344,6.344,0,0,1,4.354,4.974l.906,5.247A2.161,2.161,0,0,1,223.789,215.285Z" transform="translate(-191.17 -178.372)" fill="#ffb09e"/>
        <path id="Trazado_980027" data-name="Trazado 980027" d="M352.294,361.323a2.657,2.657,0,0,0-.013,3.757l2.186,2.2a2.657,2.657,0,1,0,3.771-3.744l-2.186-2.2A2.657,2.657,0,0,0,352.294,361.323Z" transform="translate(-314.86 -319.909)" fill="#ffcebf"/>
        <path id="Trazado_980028" data-name="Trazado 980028" d="M367.525,365.414a2.657,2.657,0,0,1-4.205,2.158,2.587,2.587,0,0,0,.323-.274,2.654,2.654,0,0,0,.013-3.756l-2.186-2.2a2.676,2.676,0,0,0-.338-.287,2.659,2.659,0,0,1,3.434.287l2.186,2.2A2.645,2.645,0,0,1,367.525,365.414Z" transform="translate(-323.376 -319.913)" fill="#ffb09e"/>
        <path id="Trazado_980029" data-name="Trazado 980029" d="M371.814,315.567a2.657,2.657,0,0,0-.013,3.757l2.186,2.2a2.657,2.657,0,0,0,3.771-3.744l-2.186-2.2A2.657,2.657,0,0,0,371.814,315.567Z" transform="translate(-332.133 -279.42)" fill="#ffcebf"/>
        <path id="Trazado_980030" data-name="Trazado 980030" d="M387.046,319.656a2.657,2.657,0,0,1-4.205,2.158,2.588,2.588,0,0,0,.323-.272,2.655,2.655,0,0,0,.013-3.757l-2.186-2.2a2.681,2.681,0,0,0-.338-.287,2.659,2.659,0,0,1,3.434.287l2.186,2.2A2.646,2.646,0,0,1,387.046,319.656Z" transform="translate(-340.649 -279.422)" fill="#ffb09e"/>
        <path id="Trazado_980031" data-name="Trazado 980031" d="M319.539,393.844a2.657,2.657,0,0,0-.013,3.757l2.186,2.2a2.657,2.657,0,0,0,3.771-3.744l-2.186-2.2A2.657,2.657,0,0,0,319.539,393.844Z" transform="translate(-285.876 -348.687)" fill="#ffcebf"/>
        <path id="Trazado_980032" data-name="Trazado 980032" d="M334.769,397.934a2.657,2.657,0,0,1-4.205,2.158,2.591,2.591,0,0,0,.323-.273,2.655,2.655,0,0,0,.013-3.757l-2.186-2.2a2.592,2.592,0,0,0-.337-.287,2.658,2.658,0,0,1,3.434.287l2.186,2.2A2.648,2.648,0,0,1,334.769,397.934Z" transform="translate(-294.391 -348.688)" fill="#ffb09e"/>
        <path id="Trazado_980033" data-name="Trazado 980033" d="M286.783,426.366a2.657,2.657,0,0,0-.013,3.757l2.186,2.2a2.657,2.657,0,1,0,3.771-3.744l-2.186-2.2A2.657,2.657,0,0,0,286.783,426.366Z" transform="translate(-256.891 -377.464)" fill="#ffcebf"/>
        <path id="Trazado_980034" data-name="Trazado 980034" d="M302.014,430.453a2.657,2.657,0,0,1-4.205,2.158,2.587,2.587,0,0,0,.323-.273,2.655,2.655,0,0,0,.013-3.757l-2.186-2.2a2.585,2.585,0,0,0-.338-.287,2.657,2.657,0,0,1,3.434.287l2.186,2.2A2.648,2.648,0,0,1,302.014,430.453Z" transform="translate(-265.406 -377.464)" fill="#ffb09e"/>
        <path id="Trazado_980035" data-name="Trazado 980035" d="M357.974,109.583H348.6a1.494,1.494,0,0,1-1.494-1.494V106.6a2.833,2.833,0,0,1,2.833-2.833h6.694a2.833,2.833,0,0,1,2.833,2.833v1.491a1.494,1.494,0,0,1-1.494,1.494Z" transform="translate(-310.966 -92.683)" fill="#fe646f"/>
        <path id="Trazado_980036" data-name="Trazado 980036" d="M406.155,106.6v1.491a1.494,1.494,0,0,1-1.494,1.494h-3.454a1.494,1.494,0,0,0,1.494-1.494V106.6a2.833,2.833,0,0,0-2.833-2.833h3.454A2.833,2.833,0,0,1,406.155,106.6Z" transform="translate(-357.653 -92.685)" fill="#fd4755"/>
        <path id="Trazado_980037" data-name="Trazado 980037" d="M213.165,109.583h-9.373a1.494,1.494,0,0,1-1.494-1.494V106.6a2.833,2.833,0,0,1,2.833-2.833h6.694a2.833,2.833,0,0,1,2.833,2.833v1.491A1.494,1.494,0,0,1,213.165,109.583Z" transform="translate(-182.827 -92.683)" fill="#dcf5f8"/>
        <path id="Trazado_980038" data-name="Trazado 980038" d="M261.346,106.6v1.491a1.494,1.494,0,0,1-1.494,1.494H256.4a1.494,1.494,0,0,0,1.494-1.494V106.6a2.833,2.833,0,0,0-2.833-2.833h3.454A2.833,2.833,0,0,1,261.346,106.6Z" transform="translate(-229.514 -92.685)" fill="#c2eef2"/>
        <path id="Trazado_980039" data-name="Trazado 980039" d="M68.344,109.583H58.972a1.494,1.494,0,0,1-1.494-1.494V106.6a2.833,2.833,0,0,1,2.833-2.833H67a2.833,2.833,0,0,1,2.833,2.833v1.491a1.494,1.494,0,0,1-1.494,1.494Z" transform="translate(-54.678 -92.683)" fill="#dcf5f8"/>
        <path id="Trazado_980040" data-name="Trazado 980040" d="M116.525,106.6v1.491a1.494,1.494,0,0,1-1.494,1.494h-3.454a1.494,1.494,0,0,0,1.494-1.494V106.6a2.833,2.833,0,0,0-2.833-2.833h3.454A2.833,2.833,0,0,1,116.525,106.6Z" transform="translate(-101.364 -92.685)" fill="#c2eef2"/>
        <path id="Trazado_980041" data-name="Trazado 980041" d="M85.789,10.749v1.423a3.8,3.8,0,0,1-5.52,3.38h0A3.79,3.79,0,0,1,78.2,12.171V10.749a3.251,3.251,0,0,1,2.577-3.18A3.313,3.313,0,0,1,81.45,7.5h1.09A3.249,3.249,0,0,1,85.789,10.749Z" transform="translate(-73.014 -7.5)" fill="#d77f4a"/>
        <path id="Trazado_980042" data-name="Trazado 980042" d="M101.69,10.749v1.423a3.8,3.8,0,0,1-5.52,3.38h0a3.791,3.791,0,0,0,2.066-3.379V9.594a2.094,2.094,0,0,0-1.558-2.025,3.313,3.313,0,0,1,.672-.069h1.09A3.249,3.249,0,0,1,101.69,10.749Z" transform="translate(-88.916 -7.5)" fill="#c86d36"/>
        <path id="Trazado_980043" data-name="Trazado 980043" d="M230.609,10.749v1.423a3.8,3.8,0,0,1-5.52,3.38h0a3.79,3.79,0,0,1-2.069-3.379V10.749a3.251,3.251,0,0,1,2.577-3.18,3.313,3.313,0,0,1,.672-.069h1.09A3.249,3.249,0,0,1,230.609,10.749Z" transform="translate(-201.163 -7.5)" fill="#ffdfcf"/>
        <path id="Trazado_980044" data-name="Trazado 980044" d="M246.51,10.749v1.423a3.8,3.8,0,0,1-5.52,3.38h0a3.791,3.791,0,0,0,2.066-3.379V9.594A2.094,2.094,0,0,0,241.5,7.569a3.313,3.313,0,0,1,.672-.069h1.09A3.249,3.249,0,0,1,246.51,10.749Z" transform="translate(-217.064 -7.5)" fill="#ffcebf"/>
        <path id="Trazado_980045" data-name="Trazado 980045" d="M375.419,10.75v1.423a3.8,3.8,0,0,1-5.52,3.38h0a3.79,3.79,0,0,1-2.069-3.379V10.75a3.251,3.251,0,0,1,2.577-3.18,3.313,3.313,0,0,1,.672-.069h1.09A3.249,3.249,0,0,1,375.419,10.75Z" transform="translate(-329.303 -7.501)" fill="#ffdfcf"/>
        <path id="Trazado_980046" data-name="Trazado 980046" d="M391.32,10.75v1.423a3.8,3.8,0,0,1-5.52,3.38h0a3.791,3.791,0,0,0,2.066-3.379V9.595a2.094,2.094,0,0,0-1.558-2.025,3.313,3.313,0,0,1,.672-.069h1.09A3.249,3.249,0,0,1,391.32,10.75Z" transform="translate(-345.204 -7.501)" fill="#ffcebf"/>
      </g>
      <g id="Grupo_1144535" data-name="Grupo 1144535" transform="translate(25.652)">
        <path id="Trazado_980047" data-name="Trazado 980047" d="M77.818,182.878a.863.863,0,0,0,.863-.863V179.5a2.393,2.393,0,0,0-2.846-2.35L56.421,180.89l-6.644-1.78a4.705,4.705,0,0,0-3.947.7l-1.6,1.131-7.241-1.71a.863.863,0,1,0-.4,1.681l7.62,1.8a.854.854,0,0,0,.7-.135l1.919-1.355a2.982,2.982,0,0,1,2.5-.447l6.818,1.827a5.459,5.459,0,0,1,3.745,4.292l.906,5.248a1.292,1.292,0,0,1-.372,1.155c-.677.709-2.05.239-2.626-.617l-4.9-7.218a.863.863,0,1,0-1.467.911l.866,1.4a10.419,10.419,0,0,1-5.925,2.5.874.874,0,0,0-.666.409l-4.4,7.186L39.439,196a3.927,3.927,0,0,0-2.321-1.12l-9.1-1.042a.724.724,0,0,1-.642-.72V179.582a.667.667,0,0,1,.82-.649L32.717,180a.863.863,0,0,0,.4-1.681L28.6,177.253a2.393,2.393,0,0,0-2.943,2.329v13.534a2.45,2.45,0,0,0,2.173,2.436l9.1,1.042a2.194,2.194,0,0,1,1.3.626l2.159,2.159-3,4.9a3.514,3.514,0,0,0,4.685,4.686,3.606,3.606,0,0,0,1.959,2.168,3.514,3.514,0,0,0,2.915-.052A3.606,3.606,0,0,0,48.9,213.25a3.673,3.673,0,0,0,2.915-.05,3.527,3.527,0,0,0,6.339.815c.122-.193.233-.365.345-.526a3.494,3.494,0,0,0,1.958.6,3.563,3.563,0,0,0,3.524-3.754,3.573,3.573,0,0,0,3.769-3.744,3.567,3.567,0,0,0,3.781-3.5,3.5,3.5,0,0,0-.512-1.843,3.521,3.521,0,0,0,1.737-5.918l-.654-.659h4.131a2.454,2.454,0,0,0,2.452-2.452v-6.042a.863.863,0,1,0-1.727,0v6.042a.726.726,0,0,1-.725.725H70.368a3.519,3.519,0,0,0-5.306,4.5,3.5,3.5,0,0,0-1.722.937,3.634,3.634,0,0,0-1.031,2.732,3.574,3.574,0,0,0-3.769,3.744,3.656,3.656,0,0,0-2.741,1.012,3.52,3.52,0,0,0-.018,4.978l1.441,1.451c-.2.266-.372.537-.534.8a1.8,1.8,0,0,1-2.233.686,1.867,1.867,0,0,1-.929-2.359.863.863,0,0,0-1.584-.688,1.828,1.828,0,0,1-2.36.93,1.867,1.867,0,0,1-.93-2.359.863.863,0,0,0-1.583-.689,1.8,1.8,0,0,1-2.362.929,1.867,1.867,0,0,1-.929-2.359.863.863,0,0,0-1.584-.688h0a1.793,1.793,0,0,1-3.311-1.378l8.073-13.178a12.073,12.073,0,0,0,6.309-2.725l3.12,4.452c1.072,1.593,3.642,2.447,5.252.857a3.037,3.037,0,0,0,.862-2.679l-.906-5.248a7.18,7.18,0,0,0-2.645-4.441l17.212-3.315a.666.666,0,0,1,.793.654v2.513A.864.864,0,0,0,77.818,182.878ZM66.8,194.342a1.782,1.782,0,0,1,1.264-.521h.007a1.782,1.782,0,0,1,1.266.53l2.186,2.2a1.793,1.793,0,0,1-1.273,3.057h-.007a1.779,1.779,0,0,1-1.149-.422l-2.3-2.31A1.8,1.8,0,0,1,66.8,194.342Zm-2.247,5.267a1.8,1.8,0,0,1,2.423-.094l2.3,2.305a1.793,1.793,0,0,1-1.273,3.057H68a1.781,1.781,0,0,1-1.266-.53l-2.186-2.2A1.8,1.8,0,0,1,64.557,199.609Zm-3.771,3.744a1.782,1.782,0,0,1,1.264-.521h.007a1.782,1.782,0,0,1,1.266.53l2.186,2.2A1.8,1.8,0,0,1,65.5,208.1a1.757,1.757,0,0,1-1.27.521,1.782,1.782,0,0,1-1.266-.53l-2.186-2.2A1.8,1.8,0,0,1,60.786,203.353Zm-3.78,6.28a1.793,1.793,0,0,1,1.273-3.057h.007a1.781,1.781,0,0,1,1.266.53l2.186,2.2a1.793,1.793,0,0,1-1.273,3.057h-.007a1.781,1.781,0,0,1-1.266-.53Z" transform="translate(-25.652 -156.719)"/>
        <path id="Trazado_980048" data-name="Trazado 980048" d="M341.966,103.81h9.373a2.36,2.36,0,0,0,2.357-2.357V99.962a3.7,3.7,0,0,0-3.7-3.7h-6.694a3.7,3.7,0,0,0-3.7,3.7v1.491A2.359,2.359,0,0,0,341.966,103.81Zm-.63-3.848a1.972,1.972,0,0,1,1.97-1.97H350a1.972,1.972,0,0,1,1.97,1.97v1.491a.631.631,0,0,1-.63.63h-9.373a.631.631,0,0,1-.63-.63V99.962Z" transform="translate(-303.467 -85.183)"/>
        <path id="Trazado_980049" data-name="Trazado 980049" d="M197.156,103.81h.892a.863.863,0,0,0,0-1.727h-.892a.631.631,0,0,1-.63-.63V99.962a1.972,1.972,0,0,1,1.97-1.97h6.694a1.972,1.972,0,0,1,1.97,1.97v1.491a.631.631,0,0,1-.63.63h-4.5a.863.863,0,0,0,0,1.727h4.5a2.36,2.36,0,0,0,2.357-2.357V99.962a3.7,3.7,0,0,0-3.7-3.7H198.5a3.7,3.7,0,0,0-3.7,3.7v1.491A2.36,2.36,0,0,0,197.156,103.81Z" transform="translate(-175.327 -85.183)"/>
        <path id="Trazado_980050" data-name="Trazado 980050" d="M52.335,103.81h9.373a2.36,2.36,0,0,0,2.357-2.357V99.962a3.7,3.7,0,0,0-3.7-3.7H53.675a3.7,3.7,0,0,0-3.7,3.7v1.491A2.36,2.36,0,0,0,52.335,103.81Zm-.63-3.848a1.972,1.972,0,0,1,1.97-1.97h6.694a1.972,1.972,0,0,1,1.97,1.97v1.491a.631.631,0,0,1-.63.63H52.335a.631.631,0,0,1-.63-.63Z" transform="translate(-47.178 -85.183)"/>
        <path id="Trazado_980051" data-name="Trazado 980051" d="M73.2,9.661l.04.022a4.659,4.659,0,0,0,6.777-4.148V4.112A4.117,4.117,0,0,0,75.9,0h-1.09a4.178,4.178,0,0,0-.85.088A4.129,4.129,0,0,0,70.7,4.112V5.535a4.637,4.637,0,0,0,2.5,4.126Zm-.771-5.549a2.394,2.394,0,0,1,1.89-2.334,2.453,2.453,0,0,1,.5-.051H75.9a2.388,2.388,0,0,1,2.385,2.385V5.535a2.934,2.934,0,0,1-2.931,2.931,2.9,2.9,0,0,1-1.3-.3l-.034-.018a2.918,2.918,0,0,1-1.6-2.61Z" transform="translate(-65.513)"/>
        <path id="Trazado_980052" data-name="Trazado 980052" d="M218.019,9.661l.041.022a4.659,4.659,0,0,0,6.777-4.148V4.112A4.117,4.117,0,0,0,220.724,0h-1.09a4.181,4.181,0,0,0-.85.088,4.129,4.129,0,0,0-3.263,4.024V5.535a4.637,4.637,0,0,0,2.5,4.126Zm-.771-5.549a2.394,2.394,0,0,1,1.889-2.334,2.455,2.455,0,0,1,.5-.051h1.09a2.388,2.388,0,0,1,2.385,2.385V5.535a2.934,2.934,0,0,1-2.931,2.931,2.9,2.9,0,0,1-1.3-.3l-.034-.018a2.918,2.918,0,0,1-1.6-2.61V4.112Z" transform="translate(-193.664)"/>
        <path id="Trazado_980053" data-name="Trazado 980053" d="M362.827,9.663l.039.022a4.659,4.659,0,0,0,6.777-4.148V4.113A4.117,4.117,0,0,0,365.531,0h-1.09a4.179,4.179,0,0,0-.85.088,4.13,4.13,0,0,0-3.263,4.024V5.536A4.638,4.638,0,0,0,362.827,9.663Zm-.772-5.55a2.394,2.394,0,0,1,1.89-2.334,2.453,2.453,0,0,1,.5-.051h1.09a2.388,2.388,0,0,1,2.385,2.385V5.536a2.934,2.934,0,0,1-2.931,2.931,2.893,2.893,0,0,1-1.3-.3l-.033-.018a2.919,2.919,0,0,1-1.6-2.61Z" transform="translate(-321.801 -0.001)"/>
      </g>
    </g>
  </g>
</svg>
