<svg xmlns="http://www.w3.org/2000/svg" xmlns:xlink="http://www.w3.org/1999/xlink" width="108" height="108" viewBox="0 0 108 108">
  <defs>
    <filter id="Fondo" x="0" y="0" width="108" height="108" filterUnits="userSpaceOnUse">
      <feOffset dy="3" input="SourceAlpha"/>
      <feGaussianBlur stdDeviation="3" result="blur"/>
      <feFlood flood-opacity="0.161"/>
      <feComposite operator="in" in2="blur"/>
      <feComposite in="SourceGraphic"/>
    </filter>
  </defs>
  <g id="_54" data-name="54" transform="translate(-326 -1447)">
    <g transform="matrix(1, 0, 0, 1, 326, 1447)" filter="url(#Fondo)">
      <g id="Fondo-2" data-name="Fondo" transform="translate(9 6)" fill="#fffbe8" stroke="#bca724" stroke-width="3">
        <circle cx="45" cy="45" r="45" stroke="none"/>
        <circle cx="45" cy="45" r="43.5" fill="none"/>
      </g>
    </g>
    <g id="Grupo_1144565" data-name="Grupo 1144565" transform="translate(349.336 1467.404)">
      <g id="Grupo_1144559" data-name="Grupo 1144559" transform="translate(2.811 4.901)">
        <g id="Grupo_1144558" data-name="Grupo 1144558">
          <g id="Grupo_1144557" data-name="Grupo 1144557">
            <path id="Trazado_980083" data-name="Trazado 980083" d="M47.293,50c-.369,4.151.461,7.1,2.675,12.914" transform="translate(-6.254 -8.623)" fill="none" stroke="#101f2d" stroke-linecap="round" stroke-linejoin="round" stroke-miterlimit="10" stroke-width="2"/>
            <path id="Trazado_980084" data-name="Trazado 980084" d="M18.39,59.436s-.553-.553-1.291-4.428v-.184a3.546,3.546,0,0,0-3.413-2.952H9.719a3.5,3.5,0,0,1-3.505-3.505,2.191,2.191,0,0,1,.277-1.107l.83-1.66L6.214,44.584a1.257,1.257,0,0,1-.184-1.66L6.675,42,4.738,40.433l.738-1.291a1.182,1.182,0,0,0-.369-1.476L4,37.02a2.5,2.5,0,0,1-.646-3.69L6.4,29.456a5.9,5.9,0,0,0,1.2-3.69c0-26.751,39.3-26.567,43.355-4.7a19.7,19.7,0,0,1-.922,10.055" transform="translate(-2.811 -5.145)" fill="none" stroke="#101f2d" stroke-linecap="round" stroke-linejoin="round" stroke-miterlimit="10" stroke-width="2"/>
          </g>
          <path id="Trazado_980085" data-name="Trazado 980085" d="M14.6,55.675h7.564A2.677,2.677,0,0,0,24.839,53" transform="translate(-3.725 -8.856)" fill="none" stroke="#101f2d" stroke-linecap="round" stroke-linejoin="round" stroke-miterlimit="10" stroke-width="2"/>
        </g>
      </g>
      <g id="Grupo_1144562" data-name="Grupo 1144562" transform="translate(13.686 17.866)">
        <g id="Grupo_1144561" data-name="Grupo 1144561" transform="translate(0)">
          <path id="Trazado_980086" data-name="Trazado 980086" d="M14.6,33.59,27.976,19.2l4.059,3.874L18.659,37.464Z" transform="translate(-14.6 -19.2)" fill="#64c4f6" stroke="#101f2d" stroke-linecap="round" stroke-linejoin="round" stroke-miterlimit="10" stroke-width="2"/>
          <g id="Grupo_1144560" data-name="Grupo 1144560" transform="translate(5.719 5.442)">
            <path id="Trazado_980087" data-name="Trazado 980087" d="M37.035,46.962l1.384,1.291a2.088,2.088,0,0,1-2.86,3.044l-9.5-8.763a17.525,17.525,0,0,1-1.66-1.845c-.646-.83-3.229-3.6-3.6-4.612L31.039,25.1l1.476,1.384a2.034,2.034,0,0,0,1.384.553,1.877,1.877,0,0,1,1.384.553l.369.277" transform="translate(-20.8 -25.1)" fill="none" stroke="#101f2d" stroke-linecap="round" stroke-linejoin="round" stroke-miterlimit="10" stroke-width="2"/>
            <path id="Trazado_980088" data-name="Trazado 980088" d="M43.506,40.541l6.273,5.811a2.088,2.088,0,1,0,2.86-3.044L41.2,32.7" transform="translate(-22.382 -25.689)" fill="none" stroke="#101f2d" stroke-linecap="round" stroke-linejoin="round" stroke-miterlimit="10" stroke-width="2"/>
            <path id="Trazado_980089" data-name="Trazado 980089" d="M40.96,45.2l2.675,2.491a2.088,2.088,0,1,1-2.86,3.044L38.1,48.244" transform="translate(-22.142 -26.659)" fill="none" stroke="#101f2d" stroke-linecap="round" stroke-linejoin="round" stroke-miterlimit="10" stroke-width="2"/>
            <path id="Trazado_980090" data-name="Trazado 980090" d="M44.7,42.4l3.321,3.136a2.088,2.088,0,0,1-2.86,3.044L42.3,45.905" transform="translate(-22.467 -26.442)" fill="none" stroke="#101f2d" stroke-linecap="round" stroke-linejoin="round" stroke-miterlimit="10" stroke-width="2"/>
          </g>
        </g>
        <path id="Trazado_980091" data-name="Trazado 980091" d="M40.59,32.194l.092.83A4.5,4.5,0,0,1,37.454,38.1l-1.568-5.535a4.421,4.421,0,0,1,1.937-4.981l2.86-1.845A5.277,5.277,0,0,1,44,24.907L45.018,25a5.081,5.081,0,0,0,3.044-.646l1.015-.553" transform="translate(-16.237 -19.557)" fill="none" stroke="#101f2d" stroke-linecap="round" stroke-linejoin="round" stroke-miterlimit="10" stroke-width="2"/>
        <path id="Trazado_980092" data-name="Trazado 980092" d="M62.153,39.248l-5.442,1.845L49.7,21.537,55.142,19.6Z" transform="translate(-17.322 -19.231)" fill="#64c4f6" stroke="#101f2d" stroke-linecap="round" stroke-linejoin="round" stroke-miterlimit="10" stroke-width="2"/>
        <path id="Trazado_980093" data-name="Trazado 980093" d="M56.413,41.7,53,42.807" transform="translate(-17.578 -20.945)" fill="none" stroke="#101f2d" stroke-linecap="round" stroke-linejoin="round" stroke-miterlimit="10" stroke-width="2"/>
      </g>
      <g id="Grupo_1144564" data-name="Grupo 1144564" transform="translate(26.692 2)">
        <g id="Grupo_1144563" data-name="Grupo 1144563">
          <path id="Trazado_980094" data-name="Trazado 980094" d="M39.124,20.449S49.547,13.992,49.547,8A6.006,6.006,0,0,0,39.124,3.937,6.006,6.006,0,0,0,28.7,8C28.7,13.992,39.124,20.449,39.124,20.449Z" transform="translate(-28.7 -2)" fill="#ef6561" stroke="#101f2d" stroke-linecap="round" stroke-linejoin="round" stroke-miterlimit="10" stroke-width="2"/>
        </g>
      </g>
    </g>
  </g>
</svg>
