<svg xmlns="http://www.w3.org/2000/svg" xmlns:xlink="http://www.w3.org/1999/xlink" width="108" height="108" viewBox="0 0 108 108">
  <defs>
    <filter id="Fondo" x="0" y="0" width="108" height="108" filterUnits="userSpaceOnUse">
      <feOffset dy="3" input="SourceAlpha"/>
      <feGaussianBlur stdDeviation="3" result="blur"/>
      <feFlood flood-opacity="0.161"/>
      <feComposite operator="in" in2="blur"/>
      <feComposite in="SourceGraphic"/>
    </filter>
  </defs>
  <g id="_55" data-name="55" transform="translate(-746 -1447)">
    <g transform="matrix(1, 0, 0, 1, 746, 1447)" filter="url(#Fondo)">
      <g id="Fondo-2" data-name="Fondo" transform="translate(9 6)" fill="#fffbe8" stroke="#bca724" stroke-width="3">
        <circle cx="45" cy="45" r="45" stroke="none"/>
        <circle cx="45" cy="45" r="43.5" fill="none"/>
      </g>
    </g>
    <g id="Grupo_1144567" data-name="Grupo 1144567" transform="translate(773.048 1469.538)">
      <path id="Trazado_980095" data-name="Trazado 980095" d="M205.244,246.926a2.928,2.928,0,0,1-2.094,1l-12.978.636-.869-1.968-1.272-2.884a3.073,3.073,0,0,1,.963-.2l13.849-.679a2.739,2.739,0,0,1,2.979,2.411,2.371,2.371,0,0,1-.578,1.69Zm0,0" transform="translate(-167.126 -215.825)" fill="#ffc48f"/>
      <path id="Trazado_980096" data-name="Trazado 980096" d="M215.414,271.726a2.928,2.928,0,0,1-2.094,1l-12.978.636-.869-1.968,13.54-.664a2.954,2.954,0,0,1,2.4,1Zm0,0" transform="translate(-177.296 -240.625)" fill="#e59a5c"/>
      <path id="Trazado_980097" data-name="Trazado 980097" d="M71.855,314.141v20.84a2.8,2.8,0,0,0,1.269.3,2.829,2.829,0,0,0,2.829-2.829V314.4" transform="translate(-63.867 -279.215)" fill="#3b3d4c"/>
      <path id="Trazado_980098" data-name="Trazado 980098" d="M19.383,170.024v8.682H7.641v-8.682a5.871,5.871,0,1,1,11.742,0Zm0,0" transform="translate(-6.792 -145.902)" fill="#e3f4fc"/>
      <path id="Trazado_980099" data-name="Trazado 980099" d="M37.715,31.366a6.89,6.89,0,1,1-11.8,3.661l.769-4.837,4.95-2.748Zm0,0" transform="translate(-22.956 -24.391)" fill="#ffc48f"/>
      <path id="Trazado_980100" data-name="Trazado 980100" d="M33.182,42.986a6.9,6.9,0,0,1-7.268-7.959l.77-4.837,4.95-2.749,1.808,1.167-3.719,2.066-.77,4.837a6.893,6.893,0,0,0,4.229,7.476Zm0,0" transform="translate(-22.956 -24.391)" fill="#e59a5c"/>
      <path id="Trazado_980101" data-name="Trazado 980101" d="M27.375,12.588l-.77,4.838a3.512,3.512,0,0,0,4.02-2.917l.278-1.751,8.872,1.411c.125.02.249.036.373.047,3.49.316,4.092-4.891.631-5.441L34.1,7.712a5.872,5.872,0,0,0-6.721,4.876Zm0,0" transform="translate(-23.648 -6.789)" fill="#f78e39"/>
      <path id="Trazado_980102" data-name="Trazado 980102" d="M37.871,8.311a5.872,5.872,0,0,0-6.648,4.5l-.319-.051-.278,1.75a3.513,3.513,0,0,1-4.02,2.917l.77-4.837A5.872,5.872,0,0,1,34.1,7.711Zm0,0" transform="translate(-23.648 -6.789)" fill="#e27727"/>
      <path id="Trazado_980103" data-name="Trazado 980103" d="M19.382,295.046a5.874,5.874,0,0,1-3.041,5.145v15.29a2.829,2.829,0,1,1-5.658,0V300.192a5.871,5.871,0,0,1-3.042-5.146Zm0,0" transform="translate(-6.792 -262.243)" fill="#5c5e70"/>
      <path id="Trazado_980104" data-name="Trazado 980104" d="M14.518,164.239a5.873,5.873,0,0,0-4.866,5.785v8.682H7.641v-8.682a5.876,5.876,0,0,1,6.878-5.785Zm0,0" transform="translate(-6.792 -145.902)" fill="#bdd9e5"/>
      <path id="Trazado_980105" data-name="Trazado 980105" d="M14.518,318.126a2.83,2.83,0,0,1-3.835-2.645V300.193a5.871,5.871,0,0,1-3.042-5.146H9.652a5.871,5.871,0,0,0,3.042,5.146v15.289a2.828,2.828,0,0,0,1.824,2.645Zm0,0" transform="translate(-6.792 -262.244)" fill="#3b3d4c"/>
      <path id="Trazado_980106" data-name="Trazado 980106" d="M219.683,327.722h-5.922l-2.776,7.01a2.514,2.514,0,1,1-4.676-1.851l3.295-8.321a2.517,2.517,0,0,1,1.907-1.551l5.544-.965" transform="translate(-183.215 -286.239)" fill="#34abe0"/>
      <path id="Trazado_980107" data-name="Trazado 980107" d="M223.059,381.638a2.429,2.429,0,0,0,.632.083,2.515,2.515,0,0,0,2.339-1.589l2.776-7.01a1.87,1.87,0,0,0-1.738,1.181l-2.308,5.829A2.509,2.509,0,0,1,223.059,381.638Zm0,0" transform="translate(-198.26 -331.638)" fill="#1895b7"/>
      <path id="Trazado_980108" data-name="Trazado 980108" d="M298.91,231.874v-4.987a6.957,6.957,0,1,1,13.914,0v3.91" transform="translate(-265.678 -195.478)" fill="#f75772"/>
      <path id="Trazado_980109" data-name="Trazado 980109" d="M347.191,220.111a6.961,6.961,0,0,1,5.369,6.775v4.157l3.177-.246v-3.91a6.964,6.964,0,0,0-8.546-6.775Zm0,0" transform="translate(-308.591 -195.478)" fill="#e0244c"/>
      <path id="Trazado_980110" data-name="Trazado 980110" d="M308.832,82.5l4.456,3.492v4.9a6.89,6.89,0,1,1-11.081-5.469Zm0,0" transform="translate(-266.209 -73.324)" fill="#ffc48f"/>
      <path id="Trazado_980111" data-name="Trazado 980111" d="M347.645,97.605a6.9,6.9,0,0,0,8.428-6.719v-4.9L351.617,82.5l-1.969.868L353,85.989v4.9a6.894,6.894,0,0,1-5.35,6.719Zm0,0" transform="translate(-308.994 -73.325)" fill="#e59a5c"/>
      <path id="Trazado_980112" data-name="Trazado 980112" d="M293.924,309.613a11.463,11.463,0,1,1-11.463-11.464A11.463,11.463,0,0,1,293.924,309.613Zm0,0" transform="translate(-240.868 -265.001)" fill="#3b3d4c"/>
      <path id="Trazado_980113" data-name="Trazado 980113" d="M314.251,332.847a8.557,8.557,0,1,1-8.557-8.557A8.557,8.557,0,0,1,314.251,332.847Zm0,0" transform="translate(-264.101 -288.235)" fill="#e6e6e6"/>
      <path id="Trazado_980114" data-name="Trazado 980114" d="M302.33,66.965v4.9a3.512,3.512,0,0,1-3.512-3.512V66.579h-6.154a5.485,5.485,0,0,1-5.485-5.485h9.28a5.871,5.871,0,0,1,5.871,5.871Zm0,0" transform="translate(-255.251 -54.301)" fill="#5c5e70"/>
      <path id="Trazado_980115" data-name="Trazado 980115" d="M336.266,61.094a5.871,5.871,0,0,1,5.859,5.486h.323v1.772a3.513,3.513,0,0,0,3.512,3.512v-4.9a5.872,5.872,0,0,0-5.872-5.872Zm0,0" transform="translate(-298.88 -54.302)" fill="#3b3d4c"/>
      <path id="Trazado_980116" data-name="Trazado 980116" d="M351.953,282.5v5.179l-2.624,2.625a2.514,2.514,0,1,0,3.556,3.556l3.361-3.361a2.515,2.515,0,0,0,.737-1.778V282.5" transform="translate(-309.836 -251.096)" fill="#ffc48f"/>
      <path id="Trazado_980117" data-name="Trazado 980117" d="M359.91,294.264a2.515,2.515,0,0,0,3.034-.4l3.362-3.361a2.514,2.514,0,0,0,.736-1.778V282.5H364.53v6.221a2.513,2.513,0,0,1-.737,1.778l-3.361,3.361A2.46,2.46,0,0,1,359.91,294.264Zm0,0" transform="translate(-319.896 -251.095)" fill="#e59a5c"/>
      <path id="Trazado_980118" data-name="Trazado 980118" d="M227.849,453.462a3,3,0,1,1-3-3A3,3,0,0,1,227.849,453.462Zm0,0" transform="translate(-197.19 -400.383)" fill="#3b3d4c"/>
      <path id="Trazado_980119" data-name="Trazado 980119" d="M59.268,210.309c-3.98,0-8.706-.889-12.318-4.257a13.787,13.787,0,0,1-1.92-2.218,2.789,2.789,0,0,1,1.589-4.29l.08-.022a2.772,2.772,0,0,1,2.978,1.087,8.187,8.187,0,0,0,1.345,1.494c1.965,1.712,4.733,2.568,8.247,2.552.664,0,.889,5.653,0,5.653Zm0,0" transform="translate(-39.579 -177.259)" fill="#e3f4fc"/>
      <path id="Trazado_980120" data-name="Trazado 980120" d="M63.786,236.551c-.082.743-.25,1.281-.524,1.281-3.98,0-8.706-.889-12.318-4.257a13.786,13.786,0,0,1-1.92-2.218l.96-.96a13.864,13.864,0,0,0,1.692,1.9c3.549,3.309,8.174,4.225,12.111,4.255Zm0,0" transform="translate(-43.574 -204.783)" fill="#bdd9e5"/>
      <path id="Trazado_980121" data-name="Trazado 980121" d="M179.621,251.038c-.793.07-1.643.116-2.532.116V245.5q1-.005,2.076-.1a2.829,2.829,0,0,1,3.08,2.62A2.865,2.865,0,0,1,179.621,251.038Zm0,0" transform="translate(-157.401 -218.104)" fill="#ffc48f"/>
      <path id="Trazado_980122" data-name="Trazado 980122" d="M179.621,269.792c-.793.07-1.643.116-2.532.116v-1.3c.889,0,1.738-.045,2.532-.116a2.58,2.58,0,0,0,2.588-2.009,2.681,2.681,0,0,1,.035.286A2.865,2.865,0,0,1,179.621,269.792Zm0,0" transform="translate(-157.401 -236.857)" fill="#e59a5c"/>
      <path id="Trazado_980123" data-name="Trazado 980123" d="M92.89,78.337a.881.881,0,0,0,.134.01.849.849,0,0,0,.837-.715l.252-1.586a.849.849,0,0,0-1.677-.267l-.252,1.586A.85.85,0,0,0,92.89,78.337Zm0,0" transform="translate(-81.927 -66.719)"/>
      <path id="Trazado_980124" data-name="Trazado 980124" d="M117.846,82.306a.883.883,0,0,0,.135.01.848.848,0,0,0,.837-.715l.252-1.586a.849.849,0,1,0-1.676-.267l-.252,1.586A.849.849,0,0,0,117.846,82.306Zm0,0" transform="translate(-104.109 -70.246)"/>
      <path id="Trazado_980125" data-name="Trazado 980125" d="M47.995,34.094V31.408a7.813,7.813,0,0,0-4.28-6.961,7.746,7.746,0,0,0,4.213-6.886v-4.9a6.727,6.727,0,0,0-6.72-6.72h-9.28a.849.849,0,0,0-.849.849,6.339,6.339,0,0,0,3.358,5.589,7.738,7.738,0,0,0,2.221,12.063,7.817,7.817,0,0,0-1.989,1.444c-.106.107-.209.217-.308.328l-2.253.11a.849.849,0,0,0,.04,1.7h.042l.986-.048a7.771,7.771,0,0,0-.793,3.434v.02l-7.1.348a3.6,3.6,0,0,0,.4-1.922,3.67,3.67,0,0,0-.432-1.491l3.542-.174a.849.849,0,1,0-.083-1.7l-5.2.255a3.653,3.653,0,0,0-1.827-.3c-3.411.311-6.175-.108-8.248-1.245V24.122a6.7,6.7,0,0,0-2.061-4.836,7.735,7.735,0,0,0,5.318-11,3.459,3.459,0,0,0,3.565-3.125,3.513,3.513,0,0,0-3-4.015L10.581.085A6.72,6.72,0,0,0,2.889,5.666L2.119,10.5h0a7.744,7.744,0,0,0,2.706,7.171A6.731,6.731,0,0,0,0,24.121V32.8a6.727,6.727,0,0,0,3.042,5.625V53.237A3.678,3.678,0,0,0,7.989,56.69a3.678,3.678,0,0,0,4.947-3.452V46.555a.849.849,0,1,0-1.7,0v6.683A1.984,1.984,0,0,1,9.88,55.116a3.655,3.655,0,0,0,.518-1.879V38.427a6.76,6.76,0,0,0,.84-.651V43.16a.849.849,0,1,0,1.7,0v-7.8a6.7,6.7,0,0,0,.5-2.276,22.868,22.868,0,0,0,6.256.81c.85,0,1.727-.04,2.607-.118a3.717,3.717,0,0,0,.925-.2l9.163-.449V35.2l-4.233.737A3.386,3.386,0,0,0,25.6,38.008l-3.3,8.321a3.343,3.343,0,0,0,.04,2.574,3.45,3.45,0,0,0,.165.33H21.318a.849.849,0,1,0,0,1.7h3.156a3.845,3.845,0,1,0,6.376,0h.18A12.311,12.311,0,1,0,47.995,34.094ZM4.565,5.932a5.022,5.022,0,0,1,5.749-4.171L17,2.824a1.818,1.818,0,0,1,1.578,2.128,1.753,1.753,0,0,1-2,1.629c-.1-.009-.211-.023-.316-.039L15.1,6.358l-.008,0L7.389,5.131a.848.848,0,0,0-.972.7L6.139,7.586A2.668,2.668,0,0,1,3.951,9.8Zm-.84,5.592a4.363,4.363,0,0,0,4.09-3.671l.145-.912,6.548,1.042A6.041,6.041,0,1,1,3.725,11.524ZM6.72,19.1a5.027,5.027,0,0,1,5.017,4.864,7.274,7.274,0,0,1-.943-1.1.849.849,0,1,0-1.394.969,9.029,9.029,0,0,0,1.484,1.65,12.435,12.435,0,0,0,7.956,2.746v3.955c-4.531-.149-8.191-1.5-10.89-4.014a12.921,12.921,0,0,1-1.8-2.08.849.849,0,0,0-1.4.967,14.622,14.622,0,0,0,2.039,2.355,15.391,15.391,0,0,0,3.68,2.541H1.7V24.121A5.028,5.028,0,0,1,6.72,19.1Zm3.551,17.255a5.022,5.022,0,0,1-1.131.851.849.849,0,0,0-.439.743v15.29a1.98,1.98,0,1,1-3.961,0V37.949a.85.85,0,0,0-.439-.744,5.028,5.028,0,0,1-2.528-3.554h9.9a4.981,4.981,0,0,1-1.4,2.7Zm10.267-4.169V28.226q.638-.026,1.3-.087A1.98,1.98,0,0,1,24,29.973a2.017,2.017,0,0,1-1.852,2.116c-.54.048-1.077.079-1.607.1ZM46.3,37.629a1.656,1.656,0,0,1-.488,1.178l-3.361,3.361a1.666,1.666,0,0,1-2.356-2.355l2.625-2.625a.849.849,0,0,0,.249-.6V32.257H46.3Zm-7.4.983a3.363,3.363,0,1,0,4.756,4.756l3.361-3.361a3.352,3.352,0,0,0,.387-.465,7.707,7.707,0,1,1-6.871-2.565ZM32.854,7.641h8.353a5.028,5.028,0,0,1,5.022,5.022v3.911a2.667,2.667,0,0,1-1.814-2.524V12.277a.849.849,0,0,0-.849-.849H37.413a4.645,4.645,0,0,1-4.558-3.787Zm1.293,9.92a6,6,0,0,1,2.068-4.55,6.359,6.359,0,0,0,1.2.115h5.305v.924a4.368,4.368,0,0,0,3.463,4.267A6.048,6.048,0,0,1,40.2,23.6h-.024a6.048,6.048,0,0,1-6.029-6.041ZM40.177,25.3H40.2a6.117,6.117,0,0,1,6.036,5.259H42.966v-.919a.849.849,0,1,0-1.7,0V32.3a12.247,12.247,0,0,0-7.187,2.559V31.408a6.108,6.108,0,0,1,6.1-6.108ZM24.819,49.116a1.666,1.666,0,0,1-.935-2.162l3.295-8.32a1.678,1.678,0,0,1,1.263-1.028L31.92,37a12.3,12.3,0,0,0-2.127,4.09c-.013.026-2.813,7.09-2.813,7.09a1.664,1.664,0,0,1-2.162.935Zm4.99,3.963a2.147,2.147,0,1,1-2.148-2.148A2.15,2.15,0,0,1,29.809,53.079Zm-1.456-3.845a3.436,3.436,0,0,0,.206-.428l.879-2.221a12.216,12.216,0,0,0,.742,2.649Zm13.24,5.992A10.615,10.615,0,0,1,41.268,34v1.212a9.4,9.4,0,1,0,6.724,2.507c0-.03,0-.06,0-.091V36.145a10.615,10.615,0,0,1-6.4,19.081Zm0,0" transform="translate(0 0)"/>
      <path id="Trazado_980126" data-name="Trazado 980126" d="M344.165,125.66a.849.849,0,0,0-.849.849v1.606a.849.849,0,0,0,1.7,0v-1.606A.849.849,0,0,0,344.165,125.66Zm0,0" transform="translate(-305.147 -111.689)"/>
      <path id="Trazado_980127" data-name="Trazado 980127" d="M318.9,125.66a.849.849,0,0,0-.849.849v1.606a.849.849,0,1,0,1.7,0v-1.606A.849.849,0,0,0,318.9,125.66Zm0,0" transform="translate(-282.691 -111.689)"/>
      <path id="Trazado_980128" data-name="Trazado 980128" d="M241.564,471.338a.849.849,0,1,0-.32-1.011A.856.856,0,0,0,241.564,471.338Zm0,0" transform="translate(-214.373 -417.554)"/>
    </g>
  </g>
</svg>
