<svg xmlns="http://www.w3.org/2000/svg" xmlns:xlink="http://www.w3.org/1999/xlink" width="1328" height="677" viewBox="0 0 1328 677">
  <defs>
    <linearGradient id="linear-gradient" x1="0.5" x2="0.5" y2="1" gradientUnits="objectBoundingBox">
      <stop offset="0" stop-color="#fff"/>
      <stop offset="0.464" stop-color="#fffbe7"/>
      <stop offset="1" stop-color="#fff"/>
    </linearGradient>
    <filter id="Trazado_980249" x="259" y="443" width="74" height="74" filterUnits="userSpaceOnUse">
      <feOffset dy="3" input="SourceAlpha"/>
      <feGaussianBlur stdDeviation="3" result="blur"/>
      <feFlood flood-opacity="0.161"/>
      <feComposite operator="in" in2="blur"/>
      <feComposite in="SourceGraphic"/>
    </filter>
    <filter id="Trazado_980250" x="749" y="443" width="74" height="74" filterUnits="userSpaceOnUse">
      <feOffset dy="3" input="SourceAlpha"/>
      <feGaussianBlur stdDeviation="3" result="blur-2"/>
      <feFlood flood-opacity="0.161"/>
      <feComposite operator="in" in2="blur-2"/>
      <feComposite in="SourceGraphic"/>
    </filter>
    <filter id="Trazado_980247" x="507" y="148" width="74" height="74" filterUnits="userSpaceOnUse">
      <feOffset dy="3" input="SourceAlpha"/>
      <feGaussianBlur stdDeviation="3" result="blur-3"/>
      <feFlood flood-opacity="0.161"/>
      <feComposite operator="in" in2="blur-3"/>
      <feComposite in="SourceGraphic"/>
    </filter>
    <filter id="Trazado_980248" x="995" y="148" width="74" height="74" filterUnits="userSpaceOnUse">
      <feOffset dy="3" input="SourceAlpha"/>
      <feGaussianBlur stdDeviation="3" result="blur-4"/>
      <feFlood flood-opacity="0.161"/>
      <feComposite operator="in" in2="blur-4"/>
      <feComposite in="SourceGraphic"/>
    </filter>
  </defs>
  <g id="_58" data-name="58" transform="translate(-136 -2716)">
    <g id="Grupo_1144234" data-name="Grupo 1144234" transform="translate(0 1074)">
      <rect id="Rectángulo_405628" data-name="Rectángulo 405628" width="1328" height="677" transform="translate(136 1642)" fill="url(#linear-gradient)"/>
    </g>
    <path id="Trazado_980251" data-name="Trazado 980251" d="M23.351,19H20.512V6.4h2.839Zm11.287,0H31.87V14q0-2.092-1.494-2.092a1.483,1.483,0,0,0-1.187.554,2.109,2.109,0,0,0-.466,1.406V19H25.946V10h2.777v1.424h.035A3.183,3.183,0,0,1,31.65,9.78q2.988,0,2.988,3.709Zm9.019-.325a5.492,5.492,0,0,1-2.716.545,4.593,4.593,0,0,1-3.357-1.257A4.341,4.341,0,0,1,36.3,14.72,4.782,4.782,0,0,1,37.677,11.1,5.083,5.083,0,0,1,41.355,9.78a4.72,4.72,0,0,1,2.3.422v2.355a3.166,3.166,0,0,0-1.942-.65,2.559,2.559,0,0,0-1.894.7,2.607,2.607,0,0,0-.7,1.929,2.565,2.565,0,0,0,.668,1.876,2.455,2.455,0,0,0,1.837.681,3.666,3.666,0,0,0,2.03-.65Zm6.11.545a4.838,4.838,0,0,1-3.538-1.261,4.573,4.573,0,0,1-1.288-3.423,4.573,4.573,0,0,1,1.336-3.494A5.048,5.048,0,0,1,49.891,9.78a4.78,4.78,0,0,1,3.516,1.261,4.483,4.483,0,0,1,1.274,3.335,4.759,4.759,0,0,1-1.314,3.542A4.892,4.892,0,0,1,49.768,19.22Zm.07-7.312a1.852,1.852,0,0,0-1.529.677,2.984,2.984,0,0,0-.545,1.916q0,2.593,2.092,2.593,2,0,2-2.663Q51.851,11.907,49.838,11.907Zm12.517.6a2.409,2.409,0,0,0-1.169-.272,1.684,1.684,0,0,0-1.415.664,2.9,2.9,0,0,0-.51,1.806V19H56.484V10h2.777v1.67H59.3A2.4,2.4,0,0,1,61.67,9.842a1.788,1.788,0,0,1,.686.105Zm4.106,5.449h-.035V23.14H63.649V10h2.777v1.354h.035a3.534,3.534,0,0,1,5.594-.374,5.108,5.108,0,0,1,.954,3.265A5.537,5.537,0,0,1,71.9,17.857,3.625,3.625,0,0,1,68.94,19.22,2.8,2.8,0,0,1,66.462,17.954Zm-.079-3.691v.721a2.291,2.291,0,0,0,.492,1.521,1.6,1.6,0,0,0,1.292.589,1.7,1.7,0,0,0,1.472-.734,3.543,3.543,0,0,0,.523-2.079q0-2.373-1.846-2.373a1.733,1.733,0,0,0-1.393.646A2.576,2.576,0,0,0,66.383,14.263ZM79.1,19.22a4.838,4.838,0,0,1-3.538-1.261,4.573,4.573,0,0,1-1.288-3.423,4.573,4.573,0,0,1,1.336-3.494A5.048,5.048,0,0,1,79.225,9.78a4.78,4.78,0,0,1,3.516,1.261,4.483,4.483,0,0,1,1.274,3.335A4.759,4.759,0,0,1,82.7,17.919,4.892,4.892,0,0,1,79.1,19.22Zm.07-7.312a1.852,1.852,0,0,0-1.529.677A2.984,2.984,0,0,0,77.1,14.5q0,2.593,2.092,2.593,2,0,2-2.663Q81.185,11.907,79.172,11.907Zm12.517.6a2.409,2.409,0,0,0-1.169-.272,1.684,1.684,0,0,0-1.415.664A2.9,2.9,0,0,0,88.6,14.7V19H85.819V10H88.6v1.67h.035A2.4,2.4,0,0,1,91,9.842a1.788,1.788,0,0,1,.686.105Zm8.782,6.5H97.844V17.708h-.035a2.933,2.933,0,0,1-2.681,1.512,2.8,2.8,0,0,1-2.061-.743,2.661,2.661,0,0,1-.751-1.982q0-2.619,3.1-3.023l2.443-.325q0-1.477-1.6-1.477a5.46,5.46,0,0,0-3.059.958V10.536a6.881,6.881,0,0,1,1.586-.527,8.339,8.339,0,0,1,1.833-.229q3.85,0,3.85,3.841Zm-2.61-3.656v-.606l-1.635.211q-1.354.176-1.354,1.222a1.01,1.01,0,0,0,.33.778,1.266,1.266,0,0,0,.892.3,1.644,1.644,0,0,0,1.274-.541A1.952,1.952,0,0,0,97.862,15.344ZM108.542,12.5a2.409,2.409,0,0,0-1.169-.272,1.684,1.684,0,0,0-1.415.664,2.9,2.9,0,0,0-.51,1.806V19h-2.777V10h2.777v1.67h.035a2.4,2.4,0,0,1,2.373-1.828,1.788,1.788,0,0,1,.686.105Zm13.082,6.17a5.492,5.492,0,0,1-2.716.545,4.593,4.593,0,0,1-3.357-1.257,4.341,4.341,0,0,1-1.283-3.243,4.782,4.782,0,0,1,1.375-3.617,5.083,5.083,0,0,1,3.678-1.323,4.72,4.72,0,0,1,2.3.422v2.355a3.166,3.166,0,0,0-1.942-.65,2.559,2.559,0,0,0-1.894.7,2.607,2.607,0,0,0-.7,1.929,2.565,2.565,0,0,0,.668,1.876,2.455,2.455,0,0,0,1.837.681,3.666,3.666,0,0,0,2.03-.65Zm6.11.545a4.838,4.838,0,0,1-3.538-1.261,4.573,4.573,0,0,1-1.288-3.423,4.573,4.573,0,0,1,1.336-3.494,5.048,5.048,0,0,1,3.612-1.261,4.78,4.78,0,0,1,3.516,1.261,4.483,4.483,0,0,1,1.274,3.335,4.759,4.759,0,0,1-1.314,3.542A4.892,4.892,0,0,1,127.734,19.22Zm.07-7.312a1.852,1.852,0,0,0-1.529.677,2.984,2.984,0,0,0-.545,1.916q0,2.593,2.092,2.593,2,0,2-2.663Q129.817,11.907,127.8,11.907ZM143.143,19h-2.769V14q0-2.092-1.494-2.092a1.483,1.483,0,0,0-1.187.554,2.109,2.109,0,0,0-.466,1.406V19h-2.777V10h2.777v1.424h.035a3.183,3.183,0,0,1,2.892-1.644q2.988,0,2.988,3.709Zm7.639-.105a4.105,4.105,0,0,1-1.854.325q-2.936,0-2.936-3.05V12.048h-1.459V10h1.459V8.058l2.769-.791V10h2.021v2.048h-2.021v3.639q0,1.406,1.116,1.406a1.882,1.882,0,0,0,.905-.255Zm9.582-3.6h-5.871q.141,1.96,2.47,1.96a4.822,4.822,0,0,0,2.61-.7v2a6.858,6.858,0,0,1-3.243.668,4.565,4.565,0,0,1-3.384-1.208,4.566,4.566,0,0,1-1.2-3.371,4.816,4.816,0,0,1,1.3-3.551,4.334,4.334,0,0,1,3.2-1.31,3.933,3.933,0,0,1,3.045,1.169,4.5,4.5,0,0,1,1.077,3.173Zm-2.575-1.705q0-1.934-1.564-1.934a1.494,1.494,0,0,0-1.156.554,2.513,2.513,0,0,0-.593,1.38ZM170.711,19h-2.769V14q0-2.092-1.494-2.092a1.483,1.483,0,0,0-1.187.554,2.109,2.109,0,0,0-.466,1.406V19h-2.777V10H164.8v1.424h.035a3.183,3.183,0,0,1,2.892-1.644q2.988,0,2.988,3.709Zm3.605-10.424a1.622,1.622,0,0,1-1.151-.417,1.345,1.345,0,0,1-.448-1.024,1.3,1.3,0,0,1,.448-1.02,1.88,1.88,0,0,1,2.307,0,1.3,1.3,0,0,1,.444,1.02,1.34,1.34,0,0,1-.444,1.037A1.65,1.65,0,0,1,174.316,8.576ZM175.687,19H172.91V10h2.777Zm11.146,0h-2.777V17.761h-.035a3.114,3.114,0,0,1-2.786,1.459,3.412,3.412,0,0,1-2.716-1.191,4.93,4.93,0,0,1-1.028-3.327,5.366,5.366,0,0,1,1.134-3.577A3.7,3.7,0,0,1,181.6,9.78a2.527,2.527,0,0,1,2.426,1.248h.035V5.676h2.777Zm-2.725-4.377v-.677a2.13,2.13,0,0,0-.51-1.459,1.8,1.8,0,0,0-2.769.145,3.367,3.367,0,0,0-.519,1.991,2.914,2.914,0,0,0,.5,1.828,1.779,1.779,0,0,0,2.764-.035A2.821,2.821,0,0,0,184.109,14.623Zm9.353,4.6a4.838,4.838,0,0,1-3.538-1.261,4.573,4.573,0,0,1-1.288-3.423,4.573,4.573,0,0,1,1.336-3.494,5.048,5.048,0,0,1,3.612-1.261,4.78,4.78,0,0,1,3.516,1.261,4.483,4.483,0,0,1,1.274,3.335,4.759,4.759,0,0,1-1.314,3.542A4.892,4.892,0,0,1,193.462,19.22Zm.07-7.312a1.852,1.852,0,0,0-1.529.677,2.984,2.984,0,0,0-.545,1.916q0,2.593,2.092,2.593,2,0,2-2.663Q195.546,11.907,193.533,11.907Zm6.057,6.855v-2.25a5.913,5.913,0,0,0,1.367.615,4.531,4.531,0,0,0,1.288.2,2.762,2.762,0,0,0,1.165-.2.653.653,0,0,0,.426-.615.569.569,0,0,0-.193-.439,1.8,1.8,0,0,0-.5-.308,5.635,5.635,0,0,0-.664-.237q-.36-.105-.694-.237a6.653,6.653,0,0,1-.945-.435,2.731,2.731,0,0,1-.686-.541,2.125,2.125,0,0,1-.422-.712,2.841,2.841,0,0,1-.145-.958,2.466,2.466,0,0,1,.33-1.3,2.692,2.692,0,0,1,.879-.892,4.016,4.016,0,0,1,1.257-.51,6.553,6.553,0,0,1,1.472-.163,8.168,8.168,0,0,1,1.213.092,9.053,9.053,0,0,1,1.213.268v2.145a4.383,4.383,0,0,0-1.129-.461,4.764,4.764,0,0,0-1.182-.154,2.619,2.619,0,0,0-.514.048,1.693,1.693,0,0,0-.426.141.783.783,0,0,0-.29.237.546.546,0,0,0-.105.33.609.609,0,0,0,.158.422,1.374,1.374,0,0,0,.413.3,4.078,4.078,0,0,0,.567.229q.312.1.62.207a8.056,8.056,0,0,1,1,.422,3.2,3.2,0,0,1,.769.536,2.105,2.105,0,0,1,.492.721,2.884,2.884,0,0,1-.176,2.351,2.78,2.78,0,0,1-.923.923,4.185,4.185,0,0,1-1.327.519,7.357,7.357,0,0,1-1.56.163A8.042,8.042,0,0,1,199.59,18.763ZM42.566,45.675a5.492,5.492,0,0,1-2.716.545,4.593,4.593,0,0,1-3.357-1.257,4.341,4.341,0,0,1-1.283-3.243A4.782,4.782,0,0,1,36.585,38.1a5.083,5.083,0,0,1,3.678-1.323,4.72,4.72,0,0,1,2.3.422v2.355a3.166,3.166,0,0,0-1.942-.65,2.559,2.559,0,0,0-1.894.7,2.607,2.607,0,0,0-.7,1.929,2.565,2.565,0,0,0,.668,1.876,2.455,2.455,0,0,0,1.837.681,3.666,3.666,0,0,0,2.03-.65ZM52.939,46H50.17V44.629h-.044a3.141,3.141,0,0,1-2.751,1.591q-3.129,0-3.129-3.788V37h2.769v5.186q0,1.907,1.512,1.907a1.5,1.5,0,0,0,1.2-.523,2.109,2.109,0,0,0,.448-1.419V37h2.769Zm5.117,0H55.278V32.676h2.777Zm7.78-.105a4.105,4.105,0,0,1-1.854.325q-2.936,0-2.936-3.05V39.048H59.587V37h1.459V35.058l2.769-.791V37h2.021v2.048H63.814v3.639q0,1.406,1.116,1.406a1.882,1.882,0,0,0,.905-.255ZM75.954,46H73.185V44.629h-.044A3.141,3.141,0,0,1,70.39,46.22q-3.129,0-3.129-3.788V37H70.03v5.186q0,1.907,1.512,1.907a1.5,1.5,0,0,0,1.2-.523,2.109,2.109,0,0,0,.448-1.419V37h2.769Zm8.211-6.5A2.409,2.409,0,0,0,83,39.232a1.684,1.684,0,0,0-1.415.664,2.9,2.9,0,0,0-.51,1.806V46H78.294V37h2.777v1.67h.035a2.4,2.4,0,0,1,2.373-1.828,1.788,1.788,0,0,1,.686.105ZM92.947,46H90.319V44.708h-.035A2.933,2.933,0,0,1,87.6,46.22a2.8,2.8,0,0,1-2.061-.743A2.661,2.661,0,0,1,84.79,43.5q0-2.619,3.1-3.023l2.443-.325q0-1.477-1.6-1.477a5.46,5.46,0,0,0-3.059.958V37.536a6.881,6.881,0,0,1,1.586-.527A8.339,8.339,0,0,1,89.1,36.78q3.85,0,3.85,3.841Zm-2.61-3.656v-.606l-1.635.211q-1.354.176-1.354,1.222a1.01,1.01,0,0,0,.33.778,1.266,1.266,0,0,0,.892.3,1.644,1.644,0,0,0,1.274-.541A1.952,1.952,0,0,0,90.336,42.344ZM97.923,46H95.146V32.676h2.777Zm10.426-3.709h-5.871q.141,1.96,2.47,1.96a4.822,4.822,0,0,0,2.61-.7v2a6.858,6.858,0,0,1-3.243.668,4.189,4.189,0,0,1-4.588-4.579,4.816,4.816,0,0,1,1.3-3.551,4.334,4.334,0,0,1,3.2-1.31,3.933,3.933,0,0,1,3.045,1.169,4.5,4.5,0,0,1,1.077,3.173Zm-2.575-1.705q0-1.934-1.564-1.934a1.494,1.494,0,0,0-1.156.554,2.513,2.513,0,0,0-.593,1.38Zm3.64,5.177v-2.25a5.913,5.913,0,0,0,1.367.615,4.531,4.531,0,0,0,1.288.2,2.762,2.762,0,0,0,1.165-.2.653.653,0,0,0,.426-.615.569.569,0,0,0-.193-.439,1.8,1.8,0,0,0-.5-.308,5.635,5.635,0,0,0-.664-.237q-.36-.105-.694-.237a6.653,6.653,0,0,1-.945-.435,2.731,2.731,0,0,1-.686-.541,2.125,2.125,0,0,1-.422-.712,2.841,2.841,0,0,1-.145-.958,2.466,2.466,0,0,1,.33-1.3,2.692,2.692,0,0,1,.879-.892,4.016,4.016,0,0,1,1.257-.51,6.553,6.553,0,0,1,1.472-.163,8.168,8.168,0,0,1,1.213.092,9.053,9.053,0,0,1,1.213.268v2.145a4.383,4.383,0,0,0-1.129-.461,4.764,4.764,0,0,0-1.182-.154,2.619,2.619,0,0,0-.514.048,1.693,1.693,0,0,0-.426.141.783.783,0,0,0-.29.237.546.546,0,0,0-.105.33.609.609,0,0,0,.158.422,1.374,1.374,0,0,0,.413.3,4.078,4.078,0,0,0,.567.229q.312.1.62.207a8.056,8.056,0,0,1,1,.422,3.2,3.2,0,0,1,.769.536,2.105,2.105,0,0,1,.492.721,2.884,2.884,0,0,1-.176,2.351,2.78,2.78,0,0,1-.923.923,4.185,4.185,0,0,1-1.327.519,7.357,7.357,0,0,1-1.56.163A8.042,8.042,0,0,1,109.414,45.763ZM131.7,46h-2.777V44.761h-.035A3.114,3.114,0,0,1,126.1,46.22a3.412,3.412,0,0,1-2.716-1.191,4.93,4.93,0,0,1-1.028-3.327,5.366,5.366,0,0,1,1.134-3.577,3.7,3.7,0,0,1,2.971-1.345,2.527,2.527,0,0,1,2.426,1.248h.035V32.676H131.7Zm-2.725-4.377v-.677a2.13,2.13,0,0,0-.51-1.459,1.8,1.8,0,0,0-2.769.145,3.367,3.367,0,0,0-.519,1.991,2.914,2.914,0,0,0,.5,1.828,1.779,1.779,0,0,0,2.764-.035A2.821,2.821,0,0,0,128.973,41.623Zm6.471-6.047a1.622,1.622,0,0,1-1.151-.417,1.345,1.345,0,0,1-.448-1.024,1.3,1.3,0,0,1,.448-1.02,1.88,1.88,0,0,1,2.307,0,1.3,1.3,0,0,1,.444,1.02,1.34,1.34,0,0,1-.444,1.037A1.65,1.65,0,0,1,135.444,35.576ZM136.815,46h-2.777V37h2.777Zm10.909-9-3.349,9h-3.164l-3.19-9h2.971l1.564,5.546a8.1,8.1,0,0,1,.308,1.6h.035a9.078,9.078,0,0,1,.325-1.547l1.6-5.6Zm9.1,5.291h-5.871q.141,1.96,2.47,1.96a4.822,4.822,0,0,0,2.61-.7v2a6.858,6.858,0,0,1-3.243.668,4.189,4.189,0,0,1-4.588-4.579,4.816,4.816,0,0,1,1.3-3.551,4.334,4.334,0,0,1,3.2-1.31,3.933,3.933,0,0,1,3.045,1.169,4.5,4.5,0,0,1,1.077,3.173Zm-2.575-1.705q0-1.934-1.564-1.934a1.494,1.494,0,0,0-1.156.554,2.513,2.513,0,0,0-.593,1.38Zm10.1-1.081a2.409,2.409,0,0,0-1.169-.272,1.684,1.684,0,0,0-1.415.664,2.9,2.9,0,0,0-.51,1.806V46h-2.777V37h2.777v1.67h.035a2.4,2.4,0,0,1,2.373-1.828,1.788,1.788,0,0,1,.686.105Zm.81,6.258v-2.25a5.913,5.913,0,0,0,1.367.615,4.531,4.531,0,0,0,1.288.2,2.762,2.762,0,0,0,1.165-.2.653.653,0,0,0,.426-.615.569.569,0,0,0-.193-.439,1.8,1.8,0,0,0-.5-.308,5.635,5.635,0,0,0-.664-.237q-.36-.105-.694-.237a6.653,6.653,0,0,1-.945-.435,2.731,2.731,0,0,1-.686-.541,2.125,2.125,0,0,1-.422-.712,2.841,2.841,0,0,1-.145-.958,2.466,2.466,0,0,1,.33-1.3,2.692,2.692,0,0,1,.879-.892,4.016,4.016,0,0,1,1.257-.51,6.553,6.553,0,0,1,1.472-.163,8.168,8.168,0,0,1,1.213.092,9.053,9.053,0,0,1,1.213.268v2.145a4.383,4.383,0,0,0-1.129-.461,4.764,4.764,0,0,0-1.182-.154,2.619,2.619,0,0,0-.514.048,1.693,1.693,0,0,0-.426.141.783.783,0,0,0-.29.237.546.546,0,0,0-.105.33.609.609,0,0,0,.158.422,1.374,1.374,0,0,0,.413.3,4.078,4.078,0,0,0,.567.229q.312.1.62.207a8.056,8.056,0,0,1,1,.422,3.2,3.2,0,0,1,.769.536,2.105,2.105,0,0,1,.492.721,2.884,2.884,0,0,1-.176,2.351,2.78,2.78,0,0,1-.923.923,4.185,4.185,0,0,1-1.327.519,7.357,7.357,0,0,1-1.56.163A8.042,8.042,0,0,1,165.158,45.763Zm12.8.457a4.838,4.838,0,0,1-3.538-1.261,4.573,4.573,0,0,1-1.288-3.423,4.573,4.573,0,0,1,1.336-3.494,5.048,5.048,0,0,1,3.612-1.261,4.78,4.78,0,0,1,3.516,1.261,4.483,4.483,0,0,1,1.274,3.335,4.759,4.759,0,0,1-1.314,3.542A4.892,4.892,0,0,1,177.957,46.22Zm.07-7.312a1.852,1.852,0,0,0-1.529.677,2.984,2.984,0,0,0-.545,1.916q0,2.593,2.092,2.593,2,0,2-2.663Q180.04,38.907,178.027,38.907Zm6.057,6.855v-2.25a5.913,5.913,0,0,0,1.367.615,4.531,4.531,0,0,0,1.288.2,2.762,2.762,0,0,0,1.165-.2.653.653,0,0,0,.426-.615.569.569,0,0,0-.193-.439,1.8,1.8,0,0,0-.5-.308,5.635,5.635,0,0,0-.664-.237q-.36-.105-.694-.237a6.653,6.653,0,0,1-.945-.435,2.731,2.731,0,0,1-.686-.541,2.125,2.125,0,0,1-.422-.712,2.841,2.841,0,0,1-.145-.958,2.466,2.466,0,0,1,.33-1.3,2.692,2.692,0,0,1,.879-.892,4.016,4.016,0,0,1,1.257-.51,6.553,6.553,0,0,1,1.472-.163,8.168,8.168,0,0,1,1.213.092,9.053,9.053,0,0,1,1.213.268v2.145a4.383,4.383,0,0,0-1.129-.461,4.764,4.764,0,0,0-1.182-.154,2.619,2.619,0,0,0-.514.048,1.693,1.693,0,0,0-.426.141.783.783,0,0,0-.29.237.546.546,0,0,0-.105.33.609.609,0,0,0,.158.422,1.374,1.374,0,0,0,.413.3,4.078,4.078,0,0,0,.567.229q.312.1.62.207a8.056,8.056,0,0,1,1,.422,3.2,3.2,0,0,1,.769.536,2.105,2.105,0,0,1,.492.721,2.884,2.884,0,0,1-.176,2.351,2.78,2.78,0,0,1-.923.923,4.185,4.185,0,0,1-1.327.519,7.357,7.357,0,0,1-1.56.163A8.042,8.042,0,0,1,184.085,45.763Z" transform="translate(320 3241)" fill="#212429"/>
    <path id="Trazado_980252" data-name="Trazado 980252" d="M41.757,13.542q0,5.678-5.291,5.678-5.133,0-5.133-5.546V6.4h2.848v7.313q0,3.059,2.391,3.059,2.347,0,2.347-2.953V6.4h2.839Zm7.912,5.353a4.105,4.105,0,0,1-1.854.325q-2.936,0-2.936-3.05V12.048H43.42V10h1.459V8.058l2.769-.791V10h2.021v2.048H47.648v3.639q0,1.406,1.116,1.406a1.882,1.882,0,0,0,.905-.255ZM52.642,8.576a1.622,1.622,0,0,1-1.151-.417,1.345,1.345,0,0,1-.448-1.024,1.3,1.3,0,0,1,.448-1.02,1.88,1.88,0,0,1,2.307,0,1.3,1.3,0,0,1,.444,1.02A1.34,1.34,0,0,1,53.8,8.172,1.65,1.65,0,0,1,52.642,8.576ZM54.013,19H51.235V10h2.777Zm5.117,0H56.352V5.676H59.13ZM62.876,8.576a1.622,1.622,0,0,1-1.151-.417,1.345,1.345,0,0,1-.448-1.024,1.3,1.3,0,0,1,.448-1.02,1.88,1.88,0,0,1,2.307,0,1.3,1.3,0,0,1,.444,1.02,1.34,1.34,0,0,1-.444,1.037A1.65,1.65,0,0,1,62.876,8.576ZM64.247,19H61.47V10h2.777Zm9.468,0H65.637V17.849l4.518-5.8H66.086V10h7.594v1.371L69.4,16.952h4.315ZM82.7,19H80.071V17.708h-.035a2.933,2.933,0,0,1-2.681,1.512,2.8,2.8,0,0,1-2.061-.743,2.661,2.661,0,0,1-.751-1.982q0-2.619,3.1-3.023l2.443-.325q0-1.477-1.6-1.477a5.46,5.46,0,0,0-3.059.958V10.536a6.881,6.881,0,0,1,1.586-.527,8.339,8.339,0,0,1,1.833-.229q3.85,0,3.85,3.841Zm-2.61-3.656v-.606l-1.635.211Q77.1,15.124,77.1,16.17a1.01,1.01,0,0,0,.33.778,1.266,1.266,0,0,0,.892.3A1.644,1.644,0,0,0,79.6,16.71,1.952,1.952,0,0,0,80.088,15.344ZM90.769,12.5a2.409,2.409,0,0,0-1.169-.272,1.684,1.684,0,0,0-1.415.664,2.9,2.9,0,0,0-.51,1.806V19H84.9V10h2.777v1.67h.035a2.4,2.4,0,0,1,2.373-1.828,1.788,1.788,0,0,1,.686.105ZM111.321,19h-2.769V13.867q0-1.96-1.441-1.96A1.324,1.324,0,0,0,106,12.5a2.42,2.42,0,0,0-.431,1.468V19h-2.777V13.814q0-1.907-1.415-1.907a1.356,1.356,0,0,0-1.138.563A2.475,2.475,0,0,0,99.808,14v5H97.03V10h2.777v1.406h.035a3.41,3.41,0,0,1,2.909-1.626,2.592,2.592,0,0,1,2.61,1.679,3.329,3.329,0,0,1,3.023-1.679q2.936,0,2.936,3.621Zm10.285-3.709h-5.871q.141,1.96,2.47,1.96a4.822,4.822,0,0,0,2.61-.7v2a6.858,6.858,0,0,1-3.243.668,4.565,4.565,0,0,1-3.384-1.208,4.566,4.566,0,0,1-1.2-3.371,4.816,4.816,0,0,1,1.3-3.551,4.334,4.334,0,0,1,3.2-1.31,3.933,3.933,0,0,1,3.045,1.169,4.5,4.5,0,0,1,1.077,3.173Zm-2.575-1.705q0-1.934-1.564-1.934a1.494,1.494,0,0,0-1.156.554,2.513,2.513,0,0,0-.593,1.38Zm1.415-7.849L117.7,8.576h-2l2.285-2.839ZM128.7,18.895a4.105,4.105,0,0,1-1.854.325q-2.936,0-2.936-3.05V12.048h-1.459V10h1.459V8.058l2.769-.791V10H128.7v2.048h-2.021v3.639q0,1.406,1.116,1.406a1.882,1.882,0,0,0,.905-.255Zm5.785.325a4.838,4.838,0,0,1-3.538-1.261,4.573,4.573,0,0,1-1.288-3.423A4.573,4.573,0,0,1,131,11.042a5.048,5.048,0,0,1,3.612-1.261,4.78,4.78,0,0,1,3.516,1.261,4.483,4.483,0,0,1,1.274,3.335,4.759,4.759,0,0,1-1.314,3.542A4.892,4.892,0,0,1,134.486,19.22Zm.07-7.312a1.852,1.852,0,0,0-1.529.677,2.984,2.984,0,0,0-.545,1.916q0,2.593,2.092,2.593,2,0,2-2.663Q136.569,11.907,134.556,11.907ZM150.009,19h-2.777V17.761H147.2a3.114,3.114,0,0,1-2.786,1.459,3.412,3.412,0,0,1-2.716-1.191,4.93,4.93,0,0,1-1.028-3.327,5.366,5.366,0,0,1,1.134-3.577,3.7,3.7,0,0,1,2.971-1.345,2.527,2.527,0,0,1,2.426,1.248h.035V5.676h2.777Zm-2.725-4.377v-.677a2.13,2.13,0,0,0-.51-1.459,1.8,1.8,0,0,0-2.769.145,3.367,3.367,0,0,0-.519,1.991,2.914,2.914,0,0,0,.5,1.828,1.779,1.779,0,0,0,2.764-.035A2.821,2.821,0,0,0,147.285,14.623Zm9.353,4.6a4.838,4.838,0,0,1-3.538-1.261,4.573,4.573,0,0,1-1.288-3.423,4.573,4.573,0,0,1,1.336-3.494,5.048,5.048,0,0,1,3.612-1.261,4.78,4.78,0,0,1,3.516,1.261,4.483,4.483,0,0,1,1.274,3.335,4.759,4.759,0,0,1-1.314,3.542A4.892,4.892,0,0,1,156.638,19.22Zm.07-7.312a1.852,1.852,0,0,0-1.529.677,2.984,2.984,0,0,0-.545,1.916q0,2.593,2.092,2.593,2,0,2-2.663Q158.721,11.907,156.708,11.907Zm6.057,6.855v-2.25a5.913,5.913,0,0,0,1.367.615,4.531,4.531,0,0,0,1.288.2,2.762,2.762,0,0,0,1.165-.2.653.653,0,0,0,.426-.615.569.569,0,0,0-.193-.439,1.8,1.8,0,0,0-.5-.308,5.635,5.635,0,0,0-.664-.237q-.36-.105-.694-.237a6.653,6.653,0,0,1-.945-.435,2.731,2.731,0,0,1-.686-.541,2.125,2.125,0,0,1-.422-.712,2.841,2.841,0,0,1-.145-.958,2.466,2.466,0,0,1,.33-1.3,2.692,2.692,0,0,1,.879-.892,4.016,4.016,0,0,1,1.257-.51A6.553,6.553,0,0,1,166.7,9.78a8.168,8.168,0,0,1,1.213.092,9.053,9.053,0,0,1,1.213.268v2.145A4.383,4.383,0,0,0,168,11.824a4.764,4.764,0,0,0-1.182-.154,2.619,2.619,0,0,0-.514.048,1.693,1.693,0,0,0-.426.141.783.783,0,0,0-.29.237.546.546,0,0,0-.105.33.609.609,0,0,0,.158.422,1.374,1.374,0,0,0,.413.3,4.078,4.078,0,0,0,.567.229q.312.1.62.207a8.056,8.056,0,0,1,1,.422,3.2,3.2,0,0,1,.769.536,2.105,2.105,0,0,1,.492.721,2.884,2.884,0,0,1-.176,2.351,2.78,2.78,0,0,1-.923.923,4.185,4.185,0,0,1-1.327.519,7.357,7.357,0,0,1-1.56.163A8.042,8.042,0,0,1,162.766,18.763ZM185.05,19h-2.777V17.761h-.035a3.114,3.114,0,0,1-2.786,1.459,3.412,3.412,0,0,1-2.716-1.191,4.93,4.93,0,0,1-1.028-3.327,5.366,5.366,0,0,1,1.134-3.577,3.7,3.7,0,0,1,2.971-1.345,2.527,2.527,0,0,1,2.426,1.248h.035V5.676h2.777Zm-2.725-4.377v-.677a2.13,2.13,0,0,0-.51-1.459,1.8,1.8,0,0,0-2.769.145,3.367,3.367,0,0,0-.519,1.991,2.914,2.914,0,0,0,.5,1.828,1.779,1.779,0,0,0,2.764-.035A2.821,2.821,0,0,0,182.325,14.623Zm13.15.668H189.6q.141,1.96,2.47,1.96a4.822,4.822,0,0,0,2.61-.7v2a6.858,6.858,0,0,1-3.243.668,4.565,4.565,0,0,1-3.384-1.208,4.566,4.566,0,0,1-1.2-3.371,4.816,4.816,0,0,1,1.3-3.551,4.334,4.334,0,0,1,3.2-1.31,3.933,3.933,0,0,1,3.045,1.169,4.5,4.5,0,0,1,1.077,3.173ZM192.9,13.586q0-1.934-1.564-1.934a1.494,1.494,0,0,0-1.156.554,2.513,2.513,0,0,0-.593,1.38ZM50.923,42.291H45.051q.141,1.96,2.47,1.96a4.822,4.822,0,0,0,2.61-.7v2a6.858,6.858,0,0,1-3.243.668A4.189,4.189,0,0,1,42.3,41.641a4.816,4.816,0,0,1,1.3-3.551,4.334,4.334,0,0,1,3.2-1.31,3.933,3.933,0,0,1,3.045,1.169,4.5,4.5,0,0,1,1.077,3.173Zm-2.575-1.705q0-1.934-1.564-1.934a1.494,1.494,0,0,0-1.156.554,2.513,2.513,0,0,0-.593,1.38ZM61.269,46H58.5V41q0-2.092-1.494-2.092a1.483,1.483,0,0,0-1.187.554,2.109,2.109,0,0,0-.466,1.406V46H52.577V37h2.777v1.424h.035a3.183,3.183,0,0,1,2.892-1.644q2.988,0,2.988,3.709Zm1.61-.237v-2.25a5.913,5.913,0,0,0,1.367.615,4.531,4.531,0,0,0,1.288.2,2.762,2.762,0,0,0,1.165-.2.653.653,0,0,0,.426-.615.569.569,0,0,0-.193-.439,1.8,1.8,0,0,0-.5-.308,5.635,5.635,0,0,0-.664-.237q-.36-.105-.694-.237a6.653,6.653,0,0,1-.945-.435,2.731,2.731,0,0,1-.686-.541,2.125,2.125,0,0,1-.422-.712,2.841,2.841,0,0,1-.145-.958,2.466,2.466,0,0,1,.33-1.3,2.692,2.692,0,0,1,.879-.892,4.016,4.016,0,0,1,1.257-.51,6.553,6.553,0,0,1,1.472-.163,8.168,8.168,0,0,1,1.213.092,9.053,9.053,0,0,1,1.213.268v2.145a4.383,4.383,0,0,0-1.129-.461,4.764,4.764,0,0,0-1.182-.154,2.619,2.619,0,0,0-.514.048,1.693,1.693,0,0,0-.426.141.783.783,0,0,0-.29.237.546.546,0,0,0-.105.33.609.609,0,0,0,.158.422,1.374,1.374,0,0,0,.413.3,4.078,4.078,0,0,0,.567.229q.312.1.62.207a8.056,8.056,0,0,1,1,.422,3.2,3.2,0,0,1,.769.536,2.105,2.105,0,0,1,.492.721,2.884,2.884,0,0,1-.176,2.351,2.78,2.78,0,0,1-.923.923,4.185,4.185,0,0,1-1.327.519,7.357,7.357,0,0,1-1.56.163A8.042,8.042,0,0,1,62.879,45.763Zm16.6-3.472H73.6q.141,1.96,2.47,1.96a4.822,4.822,0,0,0,2.61-.7v2a6.858,6.858,0,0,1-3.243.668,4.189,4.189,0,0,1-4.588-4.579,4.816,4.816,0,0,1,1.3-3.551,4.334,4.334,0,0,1,3.2-1.31A3.933,3.933,0,0,1,78.4,37.949a4.5,4.5,0,0,1,1.077,3.173ZM76.9,40.586q0-1.934-1.564-1.934a1.494,1.494,0,0,0-1.156.554,2.513,2.513,0,0,0-.593,1.38ZM89.821,46H87.053V41q0-2.092-1.494-2.092a1.483,1.483,0,0,0-1.187.554,2.109,2.109,0,0,0-.466,1.406V46H81.129V37h2.777v1.424h.035a3.183,3.183,0,0,1,2.892-1.644q2.988,0,2.988,3.709Zm-1.23-13.157a3.2,3.2,0,0,1-.488,1.9,1.558,1.558,0,0,1-1.332.672,3.144,3.144,0,0,1-1.477-.378,2.959,2.959,0,0,0-1.081-.413q-.7,0-.7.949H82.272a3.225,3.225,0,0,1,.483-1.9A1.568,1.568,0,0,1,84.108,33a3.008,3.008,0,0,1,1.477.431,2.476,2.476,0,0,0,1.055.387q.686,0,.686-.976ZM99.509,46H96.881V44.708h-.035a2.933,2.933,0,0,1-2.681,1.512,2.8,2.8,0,0,1-2.061-.743,2.661,2.661,0,0,1-.751-1.982q0-2.619,3.1-3.023l2.443-.325q0-1.477-1.6-1.477a5.46,5.46,0,0,0-3.059.958V37.536a6.881,6.881,0,0,1,1.586-.527,8.339,8.339,0,0,1,1.833-.229q3.85,0,3.85,3.841ZM96.9,42.344v-.606l-1.635.211q-1.354.176-1.354,1.222a1.01,1.01,0,0,0,.33.778,1.266,1.266,0,0,0,.892.3,1.644,1.644,0,0,0,1.274-.541A1.952,1.952,0,0,0,96.9,42.344ZM110.4,46h-2.769V41q0-2.092-1.494-2.092a1.483,1.483,0,0,0-1.187.554,2.109,2.109,0,0,0-.466,1.406V46h-2.777V37h2.777v1.424h.035a3.183,3.183,0,0,1,2.892-1.644q2.988,0,2.988,3.709Zm9.327,0H111.65V44.849l4.518-5.8H112.1V37h7.594v1.371l-4.28,5.581h4.315Zm8.984,0h-2.628V44.708h-.035a2.933,2.933,0,0,1-2.681,1.512,2.8,2.8,0,0,1-2.061-.743,2.661,2.661,0,0,1-.751-1.982q0-2.619,3.1-3.023l2.443-.325q0-1.477-1.6-1.477a5.46,5.46,0,0,0-3.059.958V37.536a6.881,6.881,0,0,1,1.586-.527,8.339,8.339,0,0,1,1.833-.229q3.85,0,3.85,3.841Zm-2.61-3.656v-.606l-1.635.211q-1.354.176-1.354,1.222a1.01,1.01,0,0,0,.33.778,1.266,1.266,0,0,0,.892.3,1.644,1.644,0,0,0,1.274-.541A1.952,1.952,0,0,0,126.1,42.344ZM143.366,46h-2.628V44.708H140.7a2.933,2.933,0,0,1-2.681,1.512,2.8,2.8,0,0,1-2.061-.743,2.661,2.661,0,0,1-.751-1.982q0-2.619,3.1-3.023l2.443-.325q0-1.477-1.6-1.477a5.46,5.46,0,0,0-3.059.958V37.536a6.881,6.881,0,0,1,1.586-.527,8.339,8.339,0,0,1,1.833-.229q3.85,0,3.85,3.841Zm-2.61-3.656v-.606l-1.635.211q-1.354.176-1.354,1.222a1.01,1.01,0,0,0,.33.778,1.266,1.266,0,0,0,.892.3,1.644,1.644,0,0,0,1.274-.541A1.952,1.952,0,0,0,140.756,42.344Zm11.63,3.331a5.492,5.492,0,0,1-2.716.545,4.593,4.593,0,0,1-3.357-1.257,4.341,4.341,0,0,1-1.283-3.243A4.782,4.782,0,0,1,146.4,38.1a5.083,5.083,0,0,1,3.678-1.323,4.72,4.72,0,0,1,2.3.422v2.355a3.166,3.166,0,0,0-1.942-.65,2.559,2.559,0,0,0-1.894.7,2.607,2.607,0,0,0-.7,1.929,2.565,2.565,0,0,0,.668,1.876,2.455,2.455,0,0,0,1.837.681,3.666,3.666,0,0,0,2.03-.65Zm7.262.22a4.105,4.105,0,0,1-1.854.325q-2.936,0-2.936-3.05V39.048H153.4V37h1.459V35.058l2.769-.791V37h2.021v2.048h-2.021v3.639q0,1.406,1.116,1.406a1.882,1.882,0,0,0,.905-.255Zm2.973-10.318a1.622,1.622,0,0,1-1.151-.417,1.345,1.345,0,0,1-.448-1.024,1.3,1.3,0,0,1,.448-1.02,1.88,1.88,0,0,1,2.307,0,1.3,1.3,0,0,1,.444,1.02,1.34,1.34,0,0,1-.444,1.037A1.65,1.65,0,0,1,162.62,35.576ZM163.991,46h-2.777V37h2.777ZM174.9,37l-3.349,9h-3.164l-3.19-9h2.971l1.564,5.546a8.1,8.1,0,0,1,.308,1.6h.035A9.078,9.078,0,0,1,170.4,42.6L172,37Zm8.4,9h-2.628V44.708h-.035a2.933,2.933,0,0,1-2.681,1.512,2.8,2.8,0,0,1-2.061-.743,2.661,2.661,0,0,1-.751-1.982q0-2.619,3.1-3.023l2.443-.325q0-1.477-1.6-1.477a5.46,5.46,0,0,0-3.059.958V37.536a6.881,6.881,0,0,1,1.586-.527,8.339,8.339,0,0,1,1.833-.229q3.85,0,3.85,3.841Zm-2.61-3.656v-.606l-1.635.211q-1.354.176-1.354,1.222a1.01,1.01,0,0,0,.33.778,1.266,1.266,0,0,0,.892.3,1.644,1.644,0,0,0,1.274-.541A1.952,1.952,0,0,0,180.694,42.344Z" transform="translate(810 3241)" fill="#212429"/>
    <path id="Trazado_980245" data-name="Trazado 980245" d="M19.654,8.708H15.206V11.8h4.087v2.3H15.206V19H12.367V6.4h7.286ZM25.746,19.22a4.838,4.838,0,0,1-3.538-1.261,4.573,4.573,0,0,1-1.288-3.423,4.573,4.573,0,0,1,1.336-3.494A5.048,5.048,0,0,1,25.869,9.78a4.78,4.78,0,0,1,3.516,1.261,4.483,4.483,0,0,1,1.274,3.335,4.759,4.759,0,0,1-1.314,3.542A4.892,4.892,0,0,1,25.746,19.22Zm.07-7.312a1.852,1.852,0,0,0-1.529.677,2.984,2.984,0,0,0-.545,1.916q0,2.593,2.092,2.593,2,0,2-2.663Q27.829,11.907,25.816,11.907ZM46.754,19H43.985V13.867q0-1.96-1.441-1.96a1.324,1.324,0,0,0-1.116.589A2.42,2.42,0,0,0,41,13.964V19H38.22V13.814q0-1.907-1.415-1.907a1.356,1.356,0,0,0-1.138.563A2.475,2.475,0,0,0,35.24,14v5H32.463V10H35.24v1.406h.035A3.41,3.41,0,0,1,38.184,9.78a2.592,2.592,0,0,1,2.61,1.679A3.329,3.329,0,0,1,43.818,9.78q2.936,0,2.936,3.621Zm10.285-3.709H51.168q.141,1.96,2.47,1.96a4.822,4.822,0,0,0,2.61-.7v2A6.858,6.858,0,0,1,53,19.22a4.565,4.565,0,0,1-3.384-1.208,4.566,4.566,0,0,1-1.2-3.371,4.816,4.816,0,0,1,1.3-3.551,4.334,4.334,0,0,1,3.2-1.31,3.933,3.933,0,0,1,3.045,1.169,4.5,4.5,0,0,1,1.077,3.173Zm-2.575-1.705q0-1.934-1.564-1.934a1.494,1.494,0,0,0-1.156.554,2.513,2.513,0,0,0-.593,1.38ZM67.385,19H64.617V14q0-2.092-1.494-2.092a1.483,1.483,0,0,0-1.187.554,2.109,2.109,0,0,0-.466,1.406V19H58.693V10H61.47v1.424h.035A3.183,3.183,0,0,1,64.4,9.78q2.988,0,2.988,3.709Zm7.639-.105a4.105,4.105,0,0,1-1.854.325q-2.936,0-2.936-3.05V12.048H68.776V10h1.459V8.058L73,7.267V10h2.021v2.048H73v3.639q0,1.406,1.116,1.406a1.882,1.882,0,0,0,.905-.255ZM84.079,19H81.451V17.708h-.035a2.933,2.933,0,0,1-2.681,1.512,2.8,2.8,0,0,1-2.061-.743,2.661,2.661,0,0,1-.751-1.982q0-2.619,3.1-3.023l2.443-.325q0-1.477-1.6-1.477a5.46,5.46,0,0,0-3.059.958V10.536a6.881,6.881,0,0,1,1.586-.527A8.339,8.339,0,0,1,80.23,9.78q3.85,0,3.85,3.841Zm-2.61-3.656v-.606l-1.635.211q-1.354.176-1.354,1.222a1.01,1.01,0,0,0,.33.778,1.266,1.266,0,0,0,.892.3,1.644,1.644,0,0,0,1.274-.541A1.952,1.952,0,0,0,81.469,15.344ZM92.15,12.5a2.409,2.409,0,0,0-1.169-.272,1.684,1.684,0,0,0-1.415.664,2.9,2.9,0,0,0-.51,1.806V19H86.278V10h2.777v1.67h.035a2.4,2.4,0,0,1,2.373-1.828,1.788,1.788,0,0,1,.686.105ZM106.5,15.291h-5.871q.141,1.96,2.47,1.96a4.822,4.822,0,0,0,2.61-.7v2a6.858,6.858,0,0,1-3.243.668,4.565,4.565,0,0,1-3.384-1.208,4.566,4.566,0,0,1-1.2-3.371,4.816,4.816,0,0,1,1.3-3.551,4.334,4.334,0,0,1,3.2-1.31,3.933,3.933,0,0,1,3.045,1.169,4.5,4.5,0,0,1,1.077,3.173Zm-2.575-1.705q0-1.934-1.564-1.934a1.494,1.494,0,0,0-1.156.554,2.513,2.513,0,0,0-.593,1.38ZM110.928,19h-2.777V5.676h2.777Zm14.8,0H123.1V17.708h-.035a2.933,2.933,0,0,1-2.681,1.512,2.8,2.8,0,0,1-2.061-.743,2.661,2.661,0,0,1-.751-1.982q0-2.619,3.1-3.023l2.443-.325q0-1.477-1.6-1.477a5.46,5.46,0,0,0-3.059.958V10.536a6.881,6.881,0,0,1,1.586-.527,8.339,8.339,0,0,1,1.833-.229q3.85,0,3.85,3.841Zm-2.61-3.656v-.606l-1.635.211q-1.354.176-1.354,1.222a1.01,1.01,0,0,0,.33.778,1.266,1.266,0,0,0,.892.3,1.644,1.644,0,0,0,1.274-.541A1.952,1.952,0,0,0,123.114,15.344Zm7.622,2.61H130.7V23.14h-2.777V10H130.7v1.354h.035a3.534,3.534,0,0,1,5.594-.374,5.108,5.108,0,0,1,.954,3.265,5.537,5.537,0,0,1-1.112,3.612,3.625,3.625,0,0,1-2.958,1.362A2.8,2.8,0,0,1,130.736,17.954Zm-.079-3.691v.721a2.291,2.291,0,0,0,.492,1.521,1.6,1.6,0,0,0,1.292.589,1.7,1.7,0,0,0,1.472-.734,3.543,3.543,0,0,0,.523-2.079q0-2.373-1.846-2.373a1.733,1.733,0,0,0-1.393.646A2.576,2.576,0,0,0,130.656,14.263Zm14.3-1.758a2.409,2.409,0,0,0-1.169-.272,1.684,1.684,0,0,0-1.415.664,2.9,2.9,0,0,0-.51,1.806V19h-2.777V10h2.777v1.67h.035a2.4,2.4,0,0,1,2.373-1.828,1.788,1.788,0,0,1,.686.105Zm9.309,2.786H148.4q.141,1.96,2.47,1.96a4.822,4.822,0,0,0,2.61-.7v2a6.858,6.858,0,0,1-3.243.668,4.565,4.565,0,0,1-3.384-1.208,4.566,4.566,0,0,1-1.2-3.371,4.816,4.816,0,0,1,1.3-3.551,4.334,4.334,0,0,1,3.2-1.31,3.933,3.933,0,0,1,3.045,1.169,4.5,4.5,0,0,1,1.077,3.173Zm-2.575-1.705q0-1.934-1.564-1.934a1.494,1.494,0,0,0-1.156.554,2.513,2.513,0,0,0-.593,1.38ZM164.614,19h-2.769V14q0-2.092-1.494-2.092a1.483,1.483,0,0,0-1.187.554,2.109,2.109,0,0,0-.466,1.406V19h-2.777V10H158.7v1.424h.035a3.183,3.183,0,0,1,2.892-1.644q2.988,0,2.988,3.709Zm11.006,0h-2.777V17.761h-.035a3.114,3.114,0,0,1-2.786,1.459,3.412,3.412,0,0,1-2.716-1.191,4.93,4.93,0,0,1-1.028-3.327,5.366,5.366,0,0,1,1.134-3.577,3.7,3.7,0,0,1,2.971-1.345,2.527,2.527,0,0,1,2.426,1.248h.035V5.676h2.777ZM172.9,14.623v-.677a2.13,2.13,0,0,0-.51-1.459,1.8,1.8,0,0,0-2.769.145,3.367,3.367,0,0,0-.519,1.991,2.914,2.914,0,0,0,.5,1.828,1.779,1.779,0,0,0,2.764-.035A2.821,2.821,0,0,0,172.9,14.623Zm6.471-6.047a1.622,1.622,0,0,1-1.151-.417,1.345,1.345,0,0,1-.448-1.024,1.3,1.3,0,0,1,.448-1.02,1.88,1.88,0,0,1,2.307,0,1.3,1.3,0,0,1,.444,1.02,1.34,1.34,0,0,1-.444,1.037A1.65,1.65,0,0,1,179.366,8.576ZM180.737,19h-2.777V10h2.777Zm9.468,0h-8.077V17.849l4.518-5.8h-4.069V10h7.594v1.371l-4.28,5.581H190.2Zm8.984,0h-2.628V17.708h-.035a2.933,2.933,0,0,1-2.681,1.512,2.8,2.8,0,0,1-2.061-.743,2.661,2.661,0,0,1-.751-1.982q0-2.619,3.1-3.023l2.443-.325q0-1.477-1.6-1.477a5.46,5.46,0,0,0-3.059.958V10.536a6.881,6.881,0,0,1,1.586-.527,8.339,8.339,0,0,1,1.833-.229q3.85,0,3.85,3.841Zm-2.61-3.656v-.606l-1.635.211q-1.354.176-1.354,1.222a1.01,1.01,0,0,0,.33.778,1.266,1.266,0,0,0,.892.3,1.644,1.644,0,0,0,1.274-.541A1.952,1.952,0,0,0,196.578,15.344Zm6.216-6.768a1.622,1.622,0,0,1-1.151-.417,1.345,1.345,0,0,1-.448-1.024,1.3,1.3,0,0,1,.448-1.02,1.88,1.88,0,0,1,2.307,0,1.3,1.3,0,0,1,.444,1.02,1.34,1.34,0,0,1-.444,1.037A1.65,1.65,0,0,1,202.794,8.576Zm1.371,10.266a4.892,4.892,0,0,1-.976,3.19,3.421,3.421,0,0,1-2.812,1.2,3.889,3.889,0,0,1-1.327-.264v-2.18a2.163,2.163,0,0,0,1.028.325q1.31,0,1.31-2.057V10h2.777Zm10.426-3.551H208.72q.141,1.96,2.47,1.96a4.822,4.822,0,0,0,2.61-.7v2a6.858,6.858,0,0,1-3.243.668,4.565,4.565,0,0,1-3.384-1.208,4.566,4.566,0,0,1-1.2-3.371,4.816,4.816,0,0,1,1.3-3.551,4.334,4.334,0,0,1,3.2-1.31,3.933,3.933,0,0,1,3.045,1.169,4.5,4.5,0,0,1,1.077,3.173Zm-2.575-1.705q0-1.934-1.564-1.934a1.494,1.494,0,0,0-1.156.554,2.513,2.513,0,0,0-.593,1.38ZM67.9,45.675a5.492,5.492,0,0,1-2.716.545,4.593,4.593,0,0,1-3.357-1.257,4.341,4.341,0,0,1-1.283-3.243A4.782,4.782,0,0,1,61.917,38.1,5.083,5.083,0,0,1,65.6,36.78a4.72,4.72,0,0,1,2.3.422v2.355a3.166,3.166,0,0,0-1.942-.65,2.559,2.559,0,0,0-1.894.7,2.607,2.607,0,0,0-.7,1.929,2.565,2.565,0,0,0,.668,1.876,2.455,2.455,0,0,0,1.837.681,3.666,3.666,0,0,0,2.03-.65Zm6.11.545a4.838,4.838,0,0,1-3.538-1.261,4.573,4.573,0,0,1-1.288-3.423,4.573,4.573,0,0,1,1.336-3.494,5.048,5.048,0,0,1,3.612-1.261,4.78,4.78,0,0,1,3.516,1.261,4.483,4.483,0,0,1,1.274,3.335,4.759,4.759,0,0,1-1.314,3.542A4.892,4.892,0,0,1,74.008,46.22Zm.07-7.312a1.852,1.852,0,0,0-1.529.677A2.984,2.984,0,0,0,72,41.5q0,2.593,2.092,2.593,2,0,2-2.663Q76.091,38.907,74.078,38.907ZM83.5,46H80.725V32.676H83.5Zm9.828,0H90.7V44.708h-.035a2.933,2.933,0,0,1-2.681,1.512,2.8,2.8,0,0,1-2.061-.743,2.661,2.661,0,0,1-.751-1.982q0-2.619,3.1-3.023l2.443-.325q0-1.477-1.6-1.477a5.46,5.46,0,0,0-3.059.958V37.536a6.881,6.881,0,0,1,1.586-.527,8.339,8.339,0,0,1,1.833-.229q3.85,0,3.85,3.841Zm-2.61-3.656v-.606l-1.635.211q-1.354.176-1.354,1.222a1.01,1.01,0,0,0,.33.778,1.266,1.266,0,0,0,.892.3,1.644,1.644,0,0,0,1.274-.541A1.952,1.952,0,0,0,90.72,42.344Zm7.622,2.61h-.035V46H95.529V32.676h2.777v5.678h.035a3.3,3.3,0,0,1,2.927-1.573,3.211,3.211,0,0,1,2.681,1.2,5.155,5.155,0,0,1,.94,3.27,5.582,5.582,0,0,1-1.1,3.612,3.579,3.579,0,0,1-2.936,1.362A2.836,2.836,0,0,1,98.342,44.954Zm-.079-3.8v.923a2.107,2.107,0,0,0,.5,1.441,1.63,1.63,0,0,0,1.283.571,1.7,1.7,0,0,0,1.472-.734,3.543,3.543,0,0,0,.523-2.079,2.819,2.819,0,0,0-.479-1.745,1.616,1.616,0,0,0-1.367-.628,1.766,1.766,0,0,0-1.384.624A2.37,2.37,0,0,0,98.262,41.157Zm12.72,5.063a4.838,4.838,0,0,1-3.538-1.261,4.573,4.573,0,0,1-1.288-3.423,4.573,4.573,0,0,1,1.336-3.494,5.048,5.048,0,0,1,3.612-1.261,4.78,4.78,0,0,1,3.516,1.261,4.483,4.483,0,0,1,1.274,3.335,4.759,4.759,0,0,1-1.314,3.542A4.892,4.892,0,0,1,110.982,46.22Zm.07-7.312a1.852,1.852,0,0,0-1.529.677,2.984,2.984,0,0,0-.545,1.916q0,2.593,2.092,2.593,2,0,2-2.663Q113.065,38.907,111.052,38.907Zm12.517.6a2.409,2.409,0,0,0-1.169-.272,1.684,1.684,0,0,0-1.415.664,2.9,2.9,0,0,0-.51,1.806V46H117.7V37h2.777v1.67h.035a2.4,2.4,0,0,1,2.373-1.828,1.788,1.788,0,0,1,.686.105Zm8.782,6.5h-2.628V44.708h-.035a2.933,2.933,0,0,1-2.681,1.512,2.8,2.8,0,0,1-2.061-.743A2.661,2.661,0,0,1,124.2,43.5q0-2.619,3.1-3.023l2.443-.325q0-1.477-1.6-1.477a5.46,5.46,0,0,0-3.059.958V37.536a6.881,6.881,0,0,1,1.586-.527,8.339,8.339,0,0,1,1.833-.229q3.85,0,3.85,3.841Zm-2.61-3.656v-.606l-1.635.211q-1.354.176-1.354,1.222a1.01,1.01,0,0,0,.33.778,1.266,1.266,0,0,0,.892.3,1.644,1.644,0,0,0,1.274-.541A1.952,1.952,0,0,0,129.741,42.344Zm10.25,3.551a4.105,4.105,0,0,1-1.854.325q-2.936,0-2.936-3.05V39.048h-1.459V37H135.2V35.058l2.769-.791V37h2.021v2.048H137.97v3.639q0,1.406,1.116,1.406a1.882,1.882,0,0,0,.905-.255Zm2.973-10.318a1.622,1.622,0,0,1-1.151-.417,1.345,1.345,0,0,1-.448-1.024,1.3,1.3,0,0,1,.448-1.02,1.88,1.88,0,0,1,2.307,0,1.3,1.3,0,0,1,.444,1.02,1.34,1.34,0,0,1-.444,1.037A1.65,1.65,0,0,1,142.964,35.576ZM144.335,46h-2.777V37h2.777Zm10.909-9L151.9,46h-3.164l-3.19-9h2.971l1.564,5.546a8.1,8.1,0,0,1,.308,1.6h.035a9.078,9.078,0,0,1,.325-1.547l1.6-5.6Zm5.3,9.22a4.838,4.838,0,0,1-3.538-1.261,4.573,4.573,0,0,1-1.288-3.423,4.573,4.573,0,0,1,1.336-3.494,5.048,5.048,0,0,1,3.612-1.261,4.78,4.78,0,0,1,3.516,1.261,4.483,4.483,0,0,1,1.274,3.335,4.759,4.759,0,0,1-1.314,3.542A4.892,4.892,0,0,1,160.546,46.22Zm.07-7.312a1.852,1.852,0,0,0-1.529.677,2.984,2.984,0,0,0-.545,1.916q0,2.593,2.092,2.593,2,0,2-2.663Q162.629,38.907,160.616,38.907Z" transform="translate(574 2804)" fill="#212429"/>
    <path id="Trazado_980246" data-name="Trazado 980246" d="M47.8,19H44.54l-1.96-3.243q-.22-.369-.422-.659a3.662,3.662,0,0,0-.409-.5,1.625,1.625,0,0,0-.431-.316,1.093,1.093,0,0,0-.488-.11h-.765V19H37.227V6.4h4.5q4.588,0,4.588,3.428a3.55,3.55,0,0,1-.2,1.217,3.382,3.382,0,0,1-.571,1.006,3.621,3.621,0,0,1-.892.773,4.6,4.6,0,0,1-1.165.51v.035a1.806,1.806,0,0,1,.545.286,3.9,3.9,0,0,1,.51.461,6.438,6.438,0,0,1,.47.567q.224.3.409.593ZM40.066,8.523V12.03H41.3a2.04,2.04,0,0,0,1.468-.527,1.76,1.76,0,0,0,.563-1.327q0-1.652-1.978-1.652Zm16.279,6.768H50.474q.141,1.96,2.47,1.96a4.822,4.822,0,0,0,2.61-.7v2a6.858,6.858,0,0,1-3.243.668,4.565,4.565,0,0,1-3.384-1.208,4.566,4.566,0,0,1-1.2-3.371,4.816,4.816,0,0,1,1.3-3.551,4.334,4.334,0,0,1,3.2-1.31,3.933,3.933,0,0,1,3.045,1.169,4.5,4.5,0,0,1,1.077,3.173ZM53.77,13.586q0-1.934-1.564-1.934a1.494,1.494,0,0,0-1.156.554,2.513,2.513,0,0,0-.593,1.38ZM65.488,19H62.86V17.708h-.035a2.933,2.933,0,0,1-2.681,1.512,2.8,2.8,0,0,1-2.061-.743,2.661,2.661,0,0,1-.751-1.982q0-2.619,3.1-3.023l2.443-.325q0-1.477-1.6-1.477a5.46,5.46,0,0,0-3.059.958V10.536a6.881,6.881,0,0,1,1.586-.527,8.339,8.339,0,0,1,1.833-.229q3.85,0,3.85,3.841Zm-2.61-3.656v-.606l-1.635.211q-1.354.176-1.354,1.222a1.01,1.01,0,0,0,.33.778,1.266,1.266,0,0,0,.892.3,1.644,1.644,0,0,0,1.274-.541A1.952,1.952,0,0,0,62.877,15.344ZM70.464,19H67.687V5.676h2.777ZM74.21,8.576a1.622,1.622,0,0,1-1.151-.417,1.345,1.345,0,0,1-.448-1.024,1.3,1.3,0,0,1,.448-1.02,1.88,1.88,0,0,1,2.307,0,1.3,1.3,0,0,1,.444,1.02,1.34,1.34,0,0,1-.444,1.037A1.65,1.65,0,0,1,74.21,8.576ZM75.581,19H72.8V10h2.777Zm9.468,0H76.972V17.849l4.518-5.8H77.42V10h7.594v1.371l-4.28,5.581h4.315Zm8.984,0H91.405V17.708H91.37a2.933,2.933,0,0,1-2.681,1.512,2.8,2.8,0,0,1-2.061-.743,2.661,2.661,0,0,1-.751-1.982q0-2.619,3.1-3.023l2.443-.325q0-1.477-1.6-1.477a5.46,5.46,0,0,0-3.059.958V10.536a6.881,6.881,0,0,1,1.586-.527,8.339,8.339,0,0,1,1.833-.229q3.85,0,3.85,3.841Zm-2.61-3.656v-.606l-1.635.211q-1.354.176-1.354,1.222a1.01,1.01,0,0,0,.33.778,1.266,1.266,0,0,0,.892.3,1.644,1.644,0,0,0,1.274-.541A1.952,1.952,0,0,0,91.423,15.344ZM102.1,12.5a2.409,2.409,0,0,0-1.169-.272,1.684,1.684,0,0,0-1.415.664,2.9,2.9,0,0,0-.51,1.806V19H96.232V10H99.01v1.67h.035a2.4,2.4,0,0,1,2.373-1.828,1.788,1.788,0,0,1,.686.105Zm9.074,5.449h-.035V23.14h-2.777V10h2.777v1.354h.035a3.534,3.534,0,0,1,5.594-.374,5.108,5.108,0,0,1,.954,3.265,5.537,5.537,0,0,1-1.112,3.612,3.625,3.625,0,0,1-2.958,1.362A2.8,2.8,0,0,1,111.177,17.954Zm-.079-3.691v.721a2.291,2.291,0,0,0,.492,1.521,1.6,1.6,0,0,0,1.292.589,1.7,1.7,0,0,0,1.472-.734,3.543,3.543,0,0,0,.523-2.079q0-2.373-1.846-2.373a1.733,1.733,0,0,0-1.393.646A2.576,2.576,0,0,0,111.1,14.263ZM125.4,12.5a2.409,2.409,0,0,0-1.169-.272,1.684,1.684,0,0,0-1.415.664,2.9,2.9,0,0,0-.51,1.806V19h-2.777V10h2.777v1.67h.035a2.4,2.4,0,0,1,2.373-1.828,1.788,1.788,0,0,1,.686.105Zm5.513,6.715a4.838,4.838,0,0,1-3.538-1.261,4.573,4.573,0,0,1-1.288-3.423,4.573,4.573,0,0,1,1.336-3.494,5.048,5.048,0,0,1,3.612-1.261,4.78,4.78,0,0,1,3.516,1.261,4.483,4.483,0,0,1,1.274,3.335,4.759,4.759,0,0,1-1.314,3.542A4.892,4.892,0,0,1,130.912,19.22Zm.07-7.312a1.852,1.852,0,0,0-1.529.677,2.984,2.984,0,0,0-.545,1.916q0,2.593,2.092,2.593,2,0,2-2.663Q133,11.907,130.983,11.907ZM146.2,10l-3.656,9.721q-1.318,3.507-3.973,3.507A5.09,5.09,0,0,1,136.908,23V20.784a2.336,2.336,0,0,0,1.2.325,1.5,1.5,0,0,0,1.494-1.011l.475-1.116L136.425,10H139.5l1.679,5.476a7.115,7.115,0,0,1,.246,1.2h.035a8.4,8.4,0,0,1,.29-1.187l1.7-5.493Zm9.028,5.291h-5.871q.141,1.96,2.47,1.96a4.822,4.822,0,0,0,2.61-.7v2a6.858,6.858,0,0,1-3.243.668,4.565,4.565,0,0,1-3.384-1.208,4.566,4.566,0,0,1-1.2-3.371,4.816,4.816,0,0,1,1.3-3.551,4.334,4.334,0,0,1,3.2-1.31,3.933,3.933,0,0,1,3.045,1.169,4.5,4.5,0,0,1,1.077,3.173Zm-2.575-1.705q0-1.934-1.564-1.934a1.494,1.494,0,0,0-1.156.554,2.513,2.513,0,0,0-.593,1.38Zm11.05,5.089a5.492,5.492,0,0,1-2.716.545,4.593,4.593,0,0,1-3.357-1.257,4.341,4.341,0,0,1-1.283-3.243A4.782,4.782,0,0,1,157.72,11.1,5.083,5.083,0,0,1,161.4,9.78a4.72,4.72,0,0,1,2.3.422v2.355a3.166,3.166,0,0,0-1.942-.65,2.559,2.559,0,0,0-1.894.7,2.607,2.607,0,0,0-.7,1.929,2.565,2.565,0,0,0,.668,1.876,2.455,2.455,0,0,0,1.837.681,3.666,3.666,0,0,0,2.03-.65Zm7.262.22a4.105,4.105,0,0,1-1.854.325q-2.936,0-2.936-3.05V12.048h-1.459V10h1.459V8.058l2.769-.791V10h2.021v2.048h-2.021v3.639q0,1.406,1.116,1.406a1.882,1.882,0,0,0,.905-.255Zm5.785.325a4.838,4.838,0,0,1-3.538-1.261,4.573,4.573,0,0,1-1.288-3.423,4.573,4.573,0,0,1,1.336-3.494A5.048,5.048,0,0,1,176.87,9.78a4.78,4.78,0,0,1,3.516,1.261,4.483,4.483,0,0,1,1.274,3.335,4.759,4.759,0,0,1-1.314,3.542A4.892,4.892,0,0,1,176.747,19.22Zm.07-7.312a1.852,1.852,0,0,0-1.529.677,2.984,2.984,0,0,0-.545,1.916q0,2.593,2.092,2.593,2,0,2-2.663Q178.83,11.907,176.818,11.907Zm6.057,6.855v-2.25a5.913,5.913,0,0,0,1.367.615,4.531,4.531,0,0,0,1.288.2,2.762,2.762,0,0,0,1.165-.2.653.653,0,0,0,.426-.615.569.569,0,0,0-.193-.439,1.8,1.8,0,0,0-.5-.308,5.635,5.635,0,0,0-.664-.237q-.36-.105-.694-.237a6.653,6.653,0,0,1-.945-.435,2.731,2.731,0,0,1-.686-.541,2.125,2.125,0,0,1-.422-.712,2.841,2.841,0,0,1-.145-.958,2.466,2.466,0,0,1,.33-1.3,2.692,2.692,0,0,1,.879-.892,4.016,4.016,0,0,1,1.257-.51,6.553,6.553,0,0,1,1.472-.163,8.168,8.168,0,0,1,1.213.092,9.053,9.053,0,0,1,1.213.268v2.145a4.383,4.383,0,0,0-1.129-.461,4.764,4.764,0,0,0-1.182-.154,2.619,2.619,0,0,0-.514.048,1.693,1.693,0,0,0-.426.141.783.783,0,0,0-.29.237.546.546,0,0,0-.105.33.609.609,0,0,0,.158.422,1.374,1.374,0,0,0,.413.3,4.078,4.078,0,0,0,.567.229q.312.1.62.207a8.056,8.056,0,0,1,1,.422,3.2,3.2,0,0,1,.769.536,2.105,2.105,0,0,1,.492.721,2.884,2.884,0,0,1-.176,2.351,2.78,2.78,0,0,1-.923.923,4.185,4.185,0,0,1-1.327.519,7.357,7.357,0,0,1-1.56.163A8.042,8.042,0,0,1,182.875,18.763ZM54.6,35.576a1.622,1.622,0,0,1-1.151-.417A1.345,1.345,0,0,1,53,34.135a1.3,1.3,0,0,1,.448-1.02,1.88,1.88,0,0,1,2.307,0,1.3,1.3,0,0,1,.444,1.02,1.34,1.34,0,0,1-.444,1.037A1.65,1.65,0,0,1,54.6,35.576ZM55.968,46H53.191V37h2.777ZM67,46H64.232V41q0-2.092-1.494-2.092a1.483,1.483,0,0,0-1.187.554,2.109,2.109,0,0,0-.466,1.406V46H58.308V37h2.777v1.424h.035a3.183,3.183,0,0,1,2.892-1.644Q67,36.78,67,40.489Zm7.639-.105a4.105,4.105,0,0,1-1.854.325q-2.936,0-2.936-3.05V39.048H68.391V37H69.85V35.058l2.769-.791V37H74.64v2.048H72.618v3.639q0,1.406,1.116,1.406a1.882,1.882,0,0,0,.905-.255Zm9.582-3.6H78.351q.141,1.96,2.47,1.96a4.822,4.822,0,0,0,2.61-.7v2a6.858,6.858,0,0,1-3.243.668A4.189,4.189,0,0,1,75.6,41.641a4.816,4.816,0,0,1,1.3-3.551,4.334,4.334,0,0,1,3.2-1.31,3.933,3.933,0,0,1,3.045,1.169,4.5,4.5,0,0,1,1.077,3.173Zm-2.575-1.705q0-1.934-1.564-1.934a1.494,1.494,0,0,0-1.156.554,2.513,2.513,0,0,0-.593,1.38Zm10.1-1.081a2.409,2.409,0,0,0-1.169-.272,1.684,1.684,0,0,0-1.415.664,2.9,2.9,0,0,0-.51,1.806V46H85.876V37h2.777v1.67h.035a2.4,2.4,0,0,1,2.373-1.828,1.788,1.788,0,0,1,.686.105Zm8.044,6.17a5.492,5.492,0,0,1-2.716.545,4.593,4.593,0,0,1-3.357-1.257,4.341,4.341,0,0,1-1.283-3.243A4.782,4.782,0,0,1,93.81,38.1a5.083,5.083,0,0,1,3.678-1.323,4.72,4.72,0,0,1,2.3.422v2.355a3.166,3.166,0,0,0-1.942-.65,2.559,2.559,0,0,0-1.894.7,2.607,2.607,0,0,0-.7,1.929,2.565,2.565,0,0,0,.668,1.876,2.455,2.455,0,0,0,1.837.681,3.666,3.666,0,0,0,2.03-.65ZM110.164,46H107.4V44.629h-.044A3.141,3.141,0,0,1,104.6,46.22q-3.129,0-3.129-3.788V37h2.769v5.186q0,1.907,1.512,1.907a1.5,1.5,0,0,0,1.2-.523,2.109,2.109,0,0,0,.448-1.419V37h2.769Zm5.117,0H112.5V32.676h2.777Zm7.78-.105a4.105,4.105,0,0,1-1.854.325q-2.936,0-2.936-3.05V39.048h-1.459V37h1.459V35.058l2.769-.791V37h2.021v2.048h-2.021v3.639q0,1.406,1.116,1.406a1.882,1.882,0,0,0,.905-.255ZM133.179,46H130.41V44.629h-.044a3.141,3.141,0,0,1-2.751,1.591q-3.129,0-3.129-3.788V37h2.769v5.186q0,1.907,1.512,1.907a1.5,1.5,0,0,0,1.2-.523,2.109,2.109,0,0,0,.448-1.419V37h2.769Zm8.211-6.5a2.409,2.409,0,0,0-1.169-.272,1.684,1.684,0,0,0-1.415.664,2.9,2.9,0,0,0-.51,1.806V46h-2.777V37H138.3v1.67h.035a2.4,2.4,0,0,1,2.373-1.828,1.788,1.788,0,0,1,.686.105Zm8.782,6.5h-2.628V44.708h-.035a2.933,2.933,0,0,1-2.681,1.512,2.8,2.8,0,0,1-2.061-.743,2.661,2.661,0,0,1-.751-1.982q0-2.619,3.1-3.023l2.443-.325q0-1.477-1.6-1.477a5.46,5.46,0,0,0-3.059.958V37.536a6.881,6.881,0,0,1,1.586-.527,8.339,8.339,0,0,1,1.833-.229q3.85,0,3.85,3.841Zm-2.61-3.656v-.606l-1.635.211q-1.354.176-1.354,1.222a1.01,1.01,0,0,0,.33.778,1.266,1.266,0,0,0,.892.3,1.644,1.644,0,0,0,1.274-.541A1.952,1.952,0,0,0,147.561,42.344ZM155.148,46h-2.777V32.676h2.777Zm10.426-3.709H159.7q.141,1.96,2.47,1.96a4.822,4.822,0,0,0,2.61-.7v2a6.858,6.858,0,0,1-3.243.668,4.189,4.189,0,0,1-4.588-4.579,4.816,4.816,0,0,1,1.3-3.551,4.334,4.334,0,0,1,3.2-1.31,3.933,3.933,0,0,1,3.045,1.169,4.5,4.5,0,0,1,1.077,3.173ZM163,40.586q0-1.934-1.564-1.934a1.494,1.494,0,0,0-1.156.554,2.513,2.513,0,0,0-.593,1.38Zm3.64,5.177v-2.25a5.913,5.913,0,0,0,1.367.615,4.531,4.531,0,0,0,1.288.2,2.762,2.762,0,0,0,1.165-.2.653.653,0,0,0,.426-.615.569.569,0,0,0-.193-.439,1.8,1.8,0,0,0-.5-.308,5.635,5.635,0,0,0-.664-.237q-.36-.105-.694-.237a6.653,6.653,0,0,1-.945-.435,2.731,2.731,0,0,1-.686-.541,2.125,2.125,0,0,1-.422-.712,2.841,2.841,0,0,1-.145-.958,2.466,2.466,0,0,1,.33-1.3,2.692,2.692,0,0,1,.879-.892,4.016,4.016,0,0,1,1.257-.51,6.553,6.553,0,0,1,1.472-.163,8.168,8.168,0,0,1,1.213.092,9.053,9.053,0,0,1,1.213.268v2.145a4.383,4.383,0,0,0-1.129-.461,4.764,4.764,0,0,0-1.182-.154,2.619,2.619,0,0,0-.514.048,1.693,1.693,0,0,0-.426.141.783.783,0,0,0-.29.237.546.546,0,0,0-.105.33.609.609,0,0,0,.158.422,1.374,1.374,0,0,0,.413.3,4.078,4.078,0,0,0,.567.229q.312.1.62.207a8.056,8.056,0,0,1,1,.422,3.2,3.2,0,0,1,.769.536,2.105,2.105,0,0,1,.492.721,2.884,2.884,0,0,1-.176,2.351,2.78,2.78,0,0,1-.923.923,4.185,4.185,0,0,1-1.327.519,7.357,7.357,0,0,1-1.56.163A8.042,8.042,0,0,1,166.639,45.763Z" transform="translate(1055 2804)" fill="#212429"/>
    <g id="Grupo_1144446" data-name="Grupo 1144446">
      <circle id="Elipse_11558" data-name="Elipse 11558" cx="147.5" cy="147.5" r="147.5" transform="translate(285 2898)" fill="#68cbf6" style="mix-blend-mode: multiply;isolation: isolate"/>
      <ellipse id="Elipse_11559" data-name="Elipse 11559" cx="73" cy="72.5" rx="73" ry="72.5" transform="translate(360 2973)" fill="#4c9cb5"/>
      <circle id="Elipse_11560" data-name="Elipse 11560" cx="58.5" cy="58.5" r="58.5" transform="translate(374 2987)" fill="#fff"/>
    </g>
    <g transform="matrix(1, 0, 0, 1, 136, 2716)" filter="url(#Trazado_980249)">
      <path id="Trazado_980249-2" data-name="Trazado 980249" d="M28,0A28,28,0,1,1,0,28,28,28,0,0,1,28,0Z" transform="translate(268 449)" fill="#fff"/>
    </g>
    <g id="Grupo_1144448" data-name="Grupo 1144448">
      <circle id="Elipse_11569" data-name="Elipse 11569" cx="147.5" cy="147.5" r="147.5" transform="translate(775 2898)" fill="#fe59c9" style="mix-blend-mode: multiply;isolation: isolate"/>
      <ellipse id="Elipse_11571" data-name="Elipse 11571" cx="73" cy="72.5" rx="73" ry="72.5" transform="translate(850 2973)" fill="#c13b8d"/>
      <circle id="Elipse_11572" data-name="Elipse 11572" cx="58.5" cy="58.5" r="58.5" transform="translate(864 2987)" fill="#fff"/>
    </g>
    <g transform="matrix(1, 0, 0, 1, 136, 2716)" filter="url(#Trazado_980250)">
      <path id="Trazado_980250-2" data-name="Trazado 980250" d="M28,0A28,28,0,1,1,0,28,28,28,0,0,1,28,0Z" transform="translate(758 449)" fill="#fff"/>
    </g>
    <g id="Grupo_1144447" data-name="Grupo 1144447">
      <circle id="Elipse_11562" data-name="Elipse 11562" cx="147.5" cy="147.5" r="147.5" transform="translate(827 3193) rotate(180)" fill="#9b5bf9" style="mix-blend-mode: multiply;isolation: isolate"/>
      <ellipse id="Elipse_11563" data-name="Elipse 11563" cx="73" cy="72.5" rx="73" ry="72.5" transform="translate(752 3118) rotate(180)" fill="#7343ae"/>
      <ellipse id="Elipse_11564" data-name="Elipse 11564" cx="58" cy="58.5" rx="58" ry="58.5" transform="translate(738 3104) rotate(180)" fill="#fff"/>
    </g>
    <g transform="matrix(1, 0, 0, 1, 136, 2716)" filter="url(#Trazado_980247)">
      <path id="Trazado_980247-2" data-name="Trazado 980247" d="M28,0A28,28,0,1,1,0,28,28,28,0,0,1,28,0Z" transform="translate(572 210) rotate(180)" fill="#fff"/>
    </g>
    <g id="Grupo_1144449" data-name="Grupo 1144449">
      <circle id="Elipse_11566" data-name="Elipse 11566" cx="147.5" cy="147.5" r="147.5" transform="translate(1315 3193) rotate(180)" fill="#febb33" style="mix-blend-mode: multiply;isolation: isolate"/>
      <ellipse id="Elipse_11567" data-name="Elipse 11567" cx="73" cy="72.5" rx="73" ry="72.5" transform="translate(1240 3118) rotate(180)" fill="#c58e1f"/>
      <ellipse id="Elipse_11568" data-name="Elipse 11568" cx="58" cy="58.5" rx="58" ry="58.5" transform="translate(1226 3104) rotate(180)" fill="#fff"/>
    </g>
    <g transform="matrix(1, 0, 0, 1, 136, 2716)" filter="url(#Trazado_980248)">
      <path id="Trazado_980248-2" data-name="Trazado 980248" d="M28,0A28,28,0,1,1,0,28,28,28,0,0,1,28,0Z" transform="translate(1060 210) rotate(180)" fill="#fff"/>
    </g>
    <g id="Grupo_1144453" data-name="Grupo 1144453">
      <g id="Grupo_1143813" data-name="Grupo 1143813" transform="translate(-438.522 2462.478)">
        <circle id="Elipse_11493" data-name="Elipse 11493" cx="26" cy="26" r="26" transform="translate(844.523 704.522)" fill="#fff"/>
      </g>
    </g>
    <g id="Grupo_1144603" data-name="Grupo 1144603" transform="translate(881.845 3005.345)">
      <g id="Grupo_1144601" data-name="Grupo 1144601" transform="translate(2.263 2.261)">
        <g id="Grupo_1144585" data-name="Grupo 1144585" transform="translate(23.998 23.066)">
          <path id="Trazado_980149" data-name="Trazado 980149" d="M21,29.91a9.442,9.442,0,0,0,1.591.126,9.789,9.789,0,0,0,9.776-9.776V34.432a10.609,10.609,0,0,1-2.539.581,10.382,10.382,0,0,1-1.25.076H23.526A2.534,2.534,0,0,1,21,32.562Z" transform="translate(-21 -20.26)" fill="#656d78"/>
        </g>
        <g id="Grupo_1144586" data-name="Grupo 1144586" transform="translate(7.578 0.002)">
          <path id="Trazado_980150" data-name="Trazado 980150" d="M15.578,38v.632l-1.314.114A15,15,0,0,0,8,40.687V15.894a13.894,13.894,0,1,1,27.787,0V18.42A6.318,6.318,0,0,0,29.472,12.1H23.157a6.318,6.318,0,0,0-6.315,6.315v2.526h-.215a3.572,3.572,0,0,0-2.526,6.1l1.478,1.478V38Z" transform="translate(-8 -2)" fill="#656d78"/>
        </g>
        <g id="Grupo_1144587" data-name="Grupo 1144587" transform="translate(7.578 66.944)">
          <path id="Trazado_980151" data-name="Trazado 980151" d="M30.735,56.895v6.947H8V55a18.86,18.86,0,0,0,11.368,3.789h4.269a4.583,4.583,0,0,0,2.5-.745Z" transform="translate(-8 -55)" fill="#ff826e"/>
        </g>
        <g id="Grupo_1144588" data-name="Grupo 1144588" transform="translate(0 35.368)">
          <path id="Trazado_980152" data-name="Trazado 980152" d="M34.839,32.526V40.1H32.313v5.684l-7.578,1.895-10.1-2.526V55.867a10.889,10.889,0,0,1-1.718-1.415A11.219,11.219,0,0,1,9.654,47.67l-.076.013H2.051C2.013,47.266,2,46.849,2,46.42A15.073,15.073,0,0,1,15.843,31.377l1.314-.114v-.632a4.426,4.426,0,0,0,4.421,4.421A4.442,4.442,0,0,0,26,30.632V30a2.534,2.534,0,0,0,2.526,2.526h5.052a10.382,10.382,0,0,0,1.25-.076Z" transform="translate(-2 -30)" fill="#ff826e"/>
        </g>
        <g id="Grupo_1144589" data-name="Grupo 1144589" transform="translate(12.631 50.524)">
          <path id="Trazado_980153" data-name="Trazado 980153" d="M22.1,52.117v.013a4.49,4.49,0,0,0-3.789,2.5A11.292,11.292,0,0,1,12,52.711V42l10.1,2.526Z" transform="translate(-12 -42)" fill="#ffeaa7"/>
        </g>
        <g id="Grupo_1144590" data-name="Grupo 1144590" transform="translate(22.735 50.524)">
          <path id="Trazado_980154" data-name="Trazado 980154" d="M22.981,61.464a4.562,4.562,0,0,0,2.071-3.827v-.96A4.571,4.571,0,0,0,20.48,52.1H20.3a1.23,1.23,0,0,0-.3.025v-7.6l7.578-1.895L30.1,42V59.683l-2.526.632Z" transform="translate(-20 -42)" fill="#ffeaa7"/>
        </g>
        <g id="Grupo_1144591" data-name="Grupo 1144591" transform="translate(45.47 63.155)">
          <path id="Trazado_980155" data-name="Trazado 980155" d="M68.313,64.631H38A12.638,12.638,0,0,1,49.368,52.063c.417-.038.834-.063,1.263-.063h5.052c.429,0,.846.025,1.263.063A12.636,12.636,0,0,1,68.313,64.631Z" transform="translate(-38 -52)" fill="#5cd6b3"/>
        </g>
        <g id="Grupo_1144592" data-name="Grupo 1144592" transform="translate(46.733 27.789)">
          <path id="Trazado_980156" data-name="Trazado 980156" d="M49.1,34.1h-2.3a11.8,11.8,0,0,1-4.017-.707,11.191,11.191,0,0,1-1.2-.53L40.73,32.3A4.594,4.594,0,0,1,39,28.686a4.679,4.679,0,0,1,3.789-4.6,4.235,4.235,0,0,1,.9-.088h7.49a15.616,15.616,0,0,1,6.985,29.581l-1.478.733V49.261l1.453-1.453a3.665,3.665,0,0,0-.96-5.873l-.493-.253V39.157A5.045,5.045,0,0,0,51.631,34.1Z" transform="translate(-39 -24)" fill="#b27946"/>
        </g>
        <g id="Grupo_1144593" data-name="Grupo 1144593" transform="translate(61.89 22.737)">
          <path id="Trazado_980157" data-name="Trazado 980157" d="M58.578,20v1.263a3.789,3.789,0,0,1-7.578,0V20h7.578Z" transform="translate(-51 -20)" fill="#aab2bd"/>
        </g>
        <g id="Grupo_1144594" data-name="Grupo 1144594" transform="translate(55.576)">
          <path id="Trazado_980158" data-name="Trazado 980158" d="M56.1,24.735H52.315v-.947a3.74,3.74,0,0,0-1.642-3.17,10.1,10.1,0,1,1,10.888-.013,3.7,3.7,0,0,0-1.667,3.132v1Z" transform="translate(-46.002 -1.998)" fill="#ffeaa7"/>
        </g>
        <g id="Grupo_1144595" data-name="Grupo 1144595" transform="translate(63.153 7.581)">
          <circle id="Elipse_11586" data-name="Elipse 11586" cx="2.5" cy="2.5" r="2.5" transform="translate(-0.261 0.313)" fill="#fcd770"/>
        </g>
        <g id="Grupo_1144596" data-name="Grupo 1144596" transform="translate(47.996 37.187)">
          <path id="Trazado_980159" data-name="Trazado 980159" d="M55.157,57.408H50.1c-.429,0-.846.025-1.263.063V52.356H47.578a3.784,3.784,0,0,1-3.789-3.789V46.041H41.945a1.939,1.939,0,0,1-1.617-3.019l1.566-2.337a3.928,3.928,0,0,0,.632-2.109V31.44a11.8,11.8,0,0,0,4.017.707h4.825A5.045,5.045,0,0,1,56.42,37.2v2.526l.493.253a3.665,3.665,0,0,1,.96,5.873L56.42,47.3V57.472C56,57.434,55.586,57.408,55.157,57.408Z" transform="translate(-40 -31.44)" fill="#f0d0b4"/>
        </g>
        <g id="Grupo_1144597" data-name="Grupo 1144597" transform="translate(0.051 53.038)">
          <path id="Trazado_980160" data-name="Trazado 980160" d="M25.2,51.581a4.571,4.571,0,0,1,4.572,4.572v.96A4.574,4.574,0,0,1,25.2,61.685H20.935A18.86,18.86,0,0,1,9.568,57.9a19.289,19.289,0,0,1-2.021-1.768A18.785,18.785,0,0,1,2.04,44H9.568l.076-.013A11.219,11.219,0,0,0,12.9,50.773a10.889,10.889,0,0,0,1.718,1.415,11.292,11.292,0,0,0,6.315,1.92,4.49,4.49,0,0,1,3.789-2.5,1.23,1.23,0,0,1,.3-.025Z" transform="translate(-2.04 -43.99)" fill="#f0d0b4"/>
        </g>
        <g id="Grupo_1144598" data-name="Grupo 1144598" transform="translate(32.827 17.685)">
          <path id="Trazado_980161" data-name="Trazado 980161" d="M30.529,35.552a11.2,11.2,0,0,0,4.244-2.678,11.31,11.31,0,0,0,3.334-8.033l-1.213-1.213A4.466,4.466,0,0,1,40.052,16h1.162a4.463,4.463,0,0,1,4.471,4.471v5.722a4.679,4.679,0,0,0-3.789,4.6,4.594,4.594,0,0,0,1.73,3.612l-.013.013A17.689,17.689,0,0,1,28,43.787V36.209l-.013-.076a10.609,10.609,0,0,0,2.539-.581Z" transform="translate(-27.99 -16)" fill="#f0d0b4"/>
        </g>
        <g id="Grupo_1144599" data-name="Grupo 1144599" transform="translate(12.631 10.107)">
          <path id="Trazado_980162" data-name="Trazado 980162" d="M23.368,32.609v3.284a4.442,4.442,0,0,1-4.421,4.421,4.426,4.426,0,0,1-4.421-4.421V26.42l-1.478-1.478a3.572,3.572,0,0,1,2.526-6.1h.215V16.315A6.318,6.318,0,0,1,22.1,10H28.42a6.318,6.318,0,0,1,6.315,6.315v6.644a9.789,9.789,0,0,1-9.776,9.776A9.442,9.442,0,0,1,23.368,32.609Z" transform="translate(-12 -10)" fill="#f0d0b4"/>
        </g>
        <g id="Grupo_1144600" data-name="Grupo 1144600" transform="translate(22.735 22.737)">
          <path id="Trazado_980163" data-name="Trazado 980163" d="M27.578,20v1.263a3.789,3.789,0,0,1-7.578,0V20Z" transform="translate(-20 -20)" fill="#ff826e"/>
        </g>
      </g>
      <g id="Grupo_1144602" data-name="Grupo 1144602" transform="translate(1 1)">
        <path id="Trazado_980164" data-name="Trazado 980164" d="M67.942,64.394V61.146l.776-.388a16.86,16.86,0,0,0,.824-29.729,5.042,5.042,0,0,0,3.453-4.768V24a2.433,2.433,0,0,1,1.089-2.071,11.369,11.369,0,1,0-12.255.018,2.484,2.484,0,0,1,1.061,2.106v2.21A5.024,5.024,0,0,0,63.706,29a16.754,16.754,0,0,0-2.535-.212H54.048V24.411a5.735,5.735,0,0,0-5.729-5.728H47.146A5.728,5.728,0,0,0,43.1,28.461l.836.836a10.1,10.1,0,0,1-5.04,8.225V16.157a15.157,15.157,0,1,0-30.313,0V40.284A16.439,16.439,0,0,0,1,54.048,20.169,20.169,0,0,0,8.578,69.8V79.31H33.839V72.086l2.526-.632V51.167l-2.526.632V49H35.1a18.921,18.921,0,0,0,16.056-8.883c.119.058.244.1.364.155v6.318a2.516,2.516,0,0,1-.424,1.4l-1.564,2.345a3.2,3.2,0,0,0,2.665,4.98h.586v1.262a5.052,5.052,0,0,0,5.05,5.052h0v2.767A13.909,13.909,0,0,0,46.47,78.047V79.31H79.31V78.047A13.909,13.909,0,0,0,67.942,64.394Zm0-35.607a2.529,2.529,0,0,1-2.526-2.526h5.052A2.529,2.529,0,0,1,67.942,28.787Zm-1.263-16.42a1.263,1.263,0,1,1,1.263,1.263A1.264,1.264,0,0,1,66.679,12.368Zm-7.5-1.17a8.872,8.872,0,0,1,7.73-7.612,9.161,9.161,0,0,1,1.047-.061,8.737,8.737,0,0,1,5.876,2.246A8.837,8.837,0,0,1,72.716,19.8a4.928,4.928,0,0,0-2.233,3.931H69.205V15.924a3.789,3.789,0,1,0-2.526,0v7.811H65.4a4.925,4.925,0,0,0-2.209-3.919A8.8,8.8,0,0,1,59.176,11.2ZM75.52,45.663a14.252,14.252,0,0,1-7.578,12.626V55.834l1.081-1.08a4.936,4.936,0,0,0-1.081-7.8V45.207a6.309,6.309,0,0,0-5.316-6.214A3.768,3.768,0,0,0,59.1,33.839H57.838v2.526H59.1a1.263,1.263,0,1,1,0,2.526H56.8a10.473,10.473,0,0,1-4.652-1.1,3.421,3.421,0,0,1,1.53-6.481h7.491a14.367,14.367,0,0,1,14.35,14.35Zm-39.155-7.1a10.094,10.094,0,0,1-2.526.331H28.787a1.264,1.264,0,0,1-1.263-1.263v-1.29c.109,0,.215.027.325.027a11.023,11.023,0,0,0,8.517-4.022Zm-17.683-.932V28.264l-1.85-1.85a2.31,2.31,0,0,1,1.634-3.942h1.479V18.683A5.057,5.057,0,0,1,25,13.631h6.315a5.057,5.057,0,0,1,5.052,5.052v6.64A8.518,8.518,0,0,1,25.155,33.4l-2.284-.762-.8,2.395,2.282.762c.21.071.429.1.643.158V38.26a3.158,3.158,0,0,1-6.315,0ZM11.1,16.157A12.626,12.626,0,0,1,35.855,12.63,7.53,7.53,0,0,0,31.313,11.1H25a7.586,7.586,0,0,0-7.578,7.578V20.06a4.835,4.835,0,0,0-2.372,8.14l1.109,1.11v8.42L16,37.744a16.09,16.09,0,0,0-4.9,1.214ZM3.728,56.575H8.833a12.651,12.651,0,0,0,12.375,10.1h.781l.349-.7A3.292,3.292,0,0,1,25.3,64.153h.184a3.311,3.311,0,0,1,3.307,3.307v.965a3.311,3.311,0,0,1-3.307,3.307H21.209A17.694,17.694,0,0,1,3.728,56.575Zm20.007,5.269a5.777,5.777,0,0,0-3.228,2.285,10.02,10.02,0,0,1-4.35-1.339V54.4L23.735,56.3Zm7.578,14.939H11.1V71.523a20.061,20.061,0,0,0,10.1,2.735h4.272a5.767,5.767,0,0,0,2.918-.812l2.915-.728Zm2.526-7.3-2.828.707a5.759,5.759,0,0,0,.3-1.764V67.46a5.823,5.823,0,0,0-5.052-5.754V56.3L33.839,54.4ZM31.313,52.43,25,54.009,13.631,51.167v9.544A10.054,10.054,0,0,1,11.1,54.048V49H8.578v5.052H3.526A13.918,13.918,0,0,1,16.214,40.26l.316-.027a5.646,5.646,0,0,0,10.329.639,3.748,3.748,0,0,0,1.929.546h5.052V46.47H26.261V49h5.052Zm5.052-6.012V41.164a12.651,12.651,0,0,0,10.1-12.375v-.523l-1.588-1.589a3.2,3.2,0,0,1,2.265-5.468H48.32a3.207,3.207,0,0,1,3.2,3.2v4.8a5.935,5.935,0,0,0-2.387,9.364A16.4,16.4,0,0,1,36.366,46.418Zm24,15.208H62.89V59.1H57.836a2.525,2.525,0,0,1-2.525-2.526V52.787H52.2a.677.677,0,0,1-.563-1.052L53.2,49.389a5.039,5.039,0,0,0,.849-2.8V41.108a12.967,12.967,0,0,0,2.753.309h4.825a3.794,3.794,0,0,1,3.789,3.789v3.308l1.195.6a2.409,2.409,0,0,1,.626,3.857l-1.821,1.82v9.364H60.364Zm-11.3,15.157a11.384,11.384,0,0,1,11.3-10.1h5.052a11.384,11.384,0,0,1,11.3,10.1Z" transform="translate(-1 -1)"/>
        <circle id="Elipse_11587" data-name="Elipse 11587" cx="1" cy="1" r="1" transform="translate(30.155 18.155)"/>
        <circle id="Elipse_11588" data-name="Elipse 11588" cx="1" cy="1" r="1" transform="translate(23.155 18.155)"/>
        <path id="Trazado_980165" data-name="Trazado 980165" d="M24.052,26.578A5.057,5.057,0,0,0,29.1,21.526V19H19v2.526A5.057,5.057,0,0,0,24.052,26.578Zm2.526-5.052a2.526,2.526,0,0,1-5.052,0Z" transform="translate(3.735 3.735)"/>
      </g>
    </g>
    <g id="Grupo_1144604" data-name="Grupo 1144604" transform="translate(640.001 3003.386)">
      <path id="Trazado_980166" data-name="Trazado 980166" d="M202.826,197.123,184.707,179a2.9,2.9,0,1,1,4.1-4.1l-4.666-4.665a2.894,2.894,0,0,1-.852-2.053,2.98,2.98,0,0,1,.037-.464,2.9,2.9,0,0,1,4.642-1.825l-1.776-1.776a2.9,2.9,0,0,1-.852-2.055,2.771,2.771,0,0,1,.039-.472,2.9,2.9,0,0,1,4.918-1.577l2.033,2.033a2.9,2.9,0,1,1,4.1-4.1l11.775,11.775.033-.047a5.305,5.305,0,0,1,7.51.006l5.491,5.491a5.634,5.634,0,0,1,1.65,3.976l0,3.435a6.063,6.063,0,0,0,1.777,4.282l1.225,1.224-14,14-1.564-1.564a6.065,6.065,0,0,0-3.892-1.763A5.627,5.627,0,0,1,202.826,197.123Zm0,0" transform="translate(-153.882 -131.885)" fill="#fecbaa"/>
      <path id="Trazado_980167" data-name="Trazado 980167" d="M353.823,357.971l15.895-15.895a1.341,1.341,0,0,1,1.9,0l5.661,5.66a1.342,1.342,0,0,1,0,1.9l-15.9,15.9a1.342,1.342,0,0,1-1.9,0l-5.66-5.661A1.341,1.341,0,0,1,353.823,357.971Zm0,0" transform="translate(-296.72 -286.858)" fill="#fdd559"/>
      <path id="Trazado_980168" data-name="Trazado 980168" d="M86.229,197.133l18.119-18.119a2.9,2.9,0,1,0-4.1-4.1l4.666-4.666a2.9,2.9,0,0,0-3.827-4.342l1.776-1.776a2.9,2.9,0,0,0,.852-2.055,2.767,2.767,0,0,0-.039-.472,2.89,2.89,0,0,0-2.4-2.392,2.9,2.9,0,0,0-2.517.814l-2.033,2.033a2.9,2.9,0,0,0,.815-2.517,2.871,2.871,0,0,0-.811-1.59,2.9,2.9,0,0,0-4.106,0L80.844,169.729l-.033-.046a5.305,5.305,0,0,0-7.51.006l-5.49,5.491a5.632,5.632,0,0,0-1.65,3.976l0,3.435a6.058,6.058,0,0,1-1.776,4.282L63.156,188.1l14,14,1.565-1.564a6.065,6.065,0,0,1,3.892-1.763,5.633,5.633,0,0,0,3.613-1.638Zm0,0" transform="translate(-53.023 -131.894)" fill="#fecbaa"/>
      <path id="Trazado_980169" data-name="Trazado 980169" d="M31.34,357.979l-15.9-15.9a1.341,1.341,0,0,0-1.9,0l-5.661,5.661a1.342,1.342,0,0,0,0,1.9l15.9,15.895a1.341,1.341,0,0,0,1.9,0l5.661-5.66a1.342,1.342,0,0,0,0-1.9Zm0,0" transform="translate(-6.292 -286.865)" fill="#ff84a7"/>
      <path id="Trazado_980170" data-name="Trazado 980170" d="M178.845,84.03v25.624a2.9,2.9,0,1,1-5.8,0v6.6a2.9,2.9,0,0,1-5.776.364v2.512a2.9,2.9,0,0,1-.851,2.055,2.72,2.72,0,0,1-.361.306,2.9,2.9,0,0,1-4.592-2.362v-2.876a2.9,2.9,0,1,1-5.8,0V99.6l-.056.01a5.307,5.307,0,0,1-5.306-5.314V86.53a5.636,5.636,0,0,1,1.645-3.978l2.426-2.431a6.063,6.063,0,0,0,1.771-4.285V74.105h19.8v2.213a6.069,6.069,0,0,0,1.5,4,5.629,5.629,0,0,1,1.4,3.713Zm0,0" transform="translate(-126.181 -62.214)" fill="#fedfc5"/>
      <path id="Trazado_980171" data-name="Trazado 980171" d="M171.584,174.908a2.9,2.9,0,0,0-4.106,0l4.666-4.666a2.9,2.9,0,0,0-3.827-4.342l1.776-1.776a2.9,2.9,0,0,0,.852-2.055,2.705,2.705,0,0,0-.039-.472,2.9,2.9,0,0,0-4.917-1.578l-2.033,2.033a2.9,2.9,0,1,0-4.1-4.1l-11.775,11.775-.033-.046a5.286,5.286,0,0,0-4.8-1.444,7.786,7.786,0,0,0,4.088,3.092v14.6a5.314,5.314,0,0,0,6.345,5.212,5.318,5.318,0,0,0,3.078,2.7l14.831-14.832a2.9,2.9,0,0,0,0-4.105Zm0,0" transform="translate(-120.255 -131.894)" fill="#ffae85"/>
      <path id="Trazado_980172" data-name="Trazado 980172" d="M208.942,179.326V169.079a5.31,5.31,0,0,0-.709.6l-.033.046-11.775-11.775a2.9,2.9,0,0,0-4.106,0,2.9,2.9,0,0,0,0,4.106l-2.033-2.033a2.9,2.9,0,0,0-4.918,1.578,2.765,2.765,0,0,0-.038.472,2.9,2.9,0,0,0,.852,2.055l1.776,1.776a2.9,2.9,0,0,0-3.828,4.342L188.8,174.9a2.9,2.9,0,1,0-4.1,4.1l12.138,12.138a5.329,5.329,0,0,0,1,.093,5.261,5.261,0,0,0,3.105-1,5.307,5.307,0,0,0,2.2-4.308v-1.308q.245.023.495.023a5.317,5.317,0,0,0,5.308-5.313Zm0,0" transform="translate(-153.873 -131.887)" fill="#ffae85"/>
      <path id="Trazado_980173" data-name="Trazado 980173" d="M178.845,84.03v25.624a2.9,2.9,0,0,1-2.9,2.906c-.043,0-.09,0-.137,0a2.87,2.87,0,0,1-1.558-.545l0,0a2.9,2.9,0,0,1-1.2-2.355v6.6a2.9,2.9,0,0,1-5.776.364v2.512a2.9,2.9,0,0,1-.851,2.055,2.721,2.721,0,0,1-.361.307,2.9,2.9,0,0,1-4.592-2.362v-2.876a2.9,2.9,0,1,1-5.8,0V99.6l-.056.01a5.307,5.307,0,0,1-5.306-5.314V86.53a5.636,5.636,0,0,1,1.645-3.978l2.426-2.431a6.074,6.074,0,0,0,1.771-4.285V74.105h19.8v2.213a5.466,5.466,0,0,0,.191,1.5,6.027,6.027,0,0,0,1.314,2.5,5.674,5.674,0,0,1,1.4,3.713Zm0,0" transform="translate(-126.181 -62.214)" fill="#fedfc5"/>
      <path id="Trazado_980174" data-name="Trazado 980174" d="M208,84.029v25.624a2.9,2.9,0,0,1-2.9,2.906c-.043,0-.09,0-.137,0a2.87,2.87,0,0,1-1.558-.545l.05-24.692a3.785,3.785,0,0,0-.1-.685,11.161,11.161,0,0,0-11.165-9.007H185.02a6.042,6.042,0,0,0,.271-1.791V74.1h19.8v2.213a5.466,5.466,0,0,0,.191,1.5,6.027,6.027,0,0,0,1.314,2.5,5.674,5.674,0,0,1,1.4,3.713Zm0,0" transform="translate(-155.332 -62.214)" fill="#fecbaa"/>
      <path id="Trazado_980175" data-name="Trazado 980175" d="M193.519,18.188h-22.48a1.341,1.341,0,0,1-1.341-1.341V8.841A1.341,1.341,0,0,1,171.039,7.5h22.48a1.341,1.341,0,0,1,1.341,1.341v8.005A1.341,1.341,0,0,1,193.519,18.188Zm0,0" transform="translate(-142.47 -6.296)" fill="#83d9ff"/>
      <path id="Trazado_980176" data-name="Trazado 980176" d="M202.8,447.76l-.241,1.179.233-1.18a1.2,1.2,0,1,0-.465,2.361l.022,0a1.228,1.228,0,0,0,.228.022,1.2,1.2,0,0,0,.224-2.386Zm0,0" transform="translate(-169.045 -375.894)"/>
      <path id="Trazado_980177" data-name="Trazado 980177" d="M262.032,450.262l.12,1.2-.123-1.2a1.2,1.2,0,0,0,.122,2.4c.041,0,.083,0,.125-.006l.033,0a1.2,1.2,0,0,0-.276-2.391Zm0,0" transform="translate(-219.077 -378.009)"/>
      <path id="Trazado_980178" data-name="Trazado 980178" d="M232.368,451.232h-.018a1.2,1.2,0,0,0-1.247,1.149,1.21,1.21,0,0,0,1.156,1.256h.056a1.2,1.2,0,0,0,.053-2.406Zm0,0" transform="translate(-194.02 -378.827)"/>
      <path id="Trazado_980179" data-name="Trazado 980179" d="M174.193,439.866l-.015-.006a1.2,1.2,0,0,0-1.532.728,1.207,1.207,0,1,0,1.547-.723Zm0,0" transform="translate(-144.885 -369.223)"/>
      <path id="Trazado_980180" data-name="Trazado 980180" d="M291.259,444.842l.3,1.166-.3-1.165a1.2,1.2,0,1,0,.6,2.33l.032-.008a1.2,1.2,0,0,0-.629-2.323Zm0,0" transform="translate(-243.763 -373.431)"/>
      <path id="Trazado_980181" data-name="Trazado 980181" d="M319.317,435.055l.477,1.1-.481-1.1a1.2,1.2,0,1,0,.961,2.207l.029-.013a1.2,1.2,0,0,0-.987-2.195Zm0,0" transform="translate(-267.471 -365.161)"/>
      <path id="Trazado_980182" data-name="Trazado 980182" d="M147.686,81.1a1.2,1.2,0,1,0-.562-2.266l-.014.008a1.2,1.2,0,0,0,.577,2.259Zm0,0" transform="translate(-122.975 -66.062)"/>
      <path id="Trazado_980183" data-name="Trazado 980183" d="M63.881,165.518a1.2,1.2,0,0,0,1.625-.507l.021-.042a1.2,1.2,0,1,0-1.647.549Zm0,0" transform="translate(-53.09 -137.042)"/>
      <path id="Trazado_980184" data-name="Trazado 980184" d="M52.414,193.341a1.2,1.2,0,0,0,1.526-.754l.016-.048a1.2,1.2,0,1,0-1.541.8Zm0,0" transform="translate(-43.317 -160.338)"/>
      <path id="Trazado_980185" data-name="Trazado 980185" d="M79.458,139.784a1.2,1.2,0,0,0,1.681-.265l.016-.021a1.2,1.2,0,0,0-1.958-1.4l.97.713-.973-.708a1.2,1.2,0,0,0,.265,1.681Zm0,0" transform="translate(-66.293 -115.518)"/>
      <path id="Trazado_980186" data-name="Trazado 980186" d="M122.248,97.24a1.209,1.209,0,1,0-.7-2.187l-.03.022a1.2,1.2,0,0,0,.727,2.165Zm0,0" transform="translate(-101.622 -79.606)"/>
      <path id="Trazado_980187" data-name="Trazado 980187" d="M49.695,311.194a1.2,1.2,0,1,0-.016-.053l.016.053Zm0,0" transform="translate(-41.672 -259.94)"/>
      <path id="Trazado_980188" data-name="Trazado 980188" d="M99.594,117.023a1.207,1.207,0,1,0-.841-2.063l-.02.02a1.2,1.2,0,0,0,.861,2.043Zm0,0" transform="translate(-82.603 -96.218)"/>
      <path id="Trazado_980189" data-name="Trazado 980189" d="M45.747,281.242a1.2,1.2,0,0,0-2.389.3l.007.048a1.2,1.2,0,0,0,2.382-.346Zm0,0" transform="translate(-36.394 -235.234)"/>
      <path id="Trazado_980190" data-name="Trazado 980190" d="M42.759,252.571h.036A1.2,1.2,0,0,0,44,251.4v-.051a1.2,1.2,0,1,0-1.24,1.219Zm0,0" transform="translate(-34.918 -210.01)"/>
      <path id="Trazado_980191" data-name="Trazado 980191" d="M45.324,222.588a1.243,1.243,0,0,0,.214.019,1.2,1.2,0,0,0,1.183-.992c0-.018.006-.035.008-.053a1.2,1.2,0,1,0-1.405,1.025Zm0,0" transform="translate(-37.219 -184.854)"/>
      <path id="Trazado_980192" data-name="Trazado 980192" d="M403.137,143.655a1.2,1.2,0,0,0,1.981-1.366l-1,.669,1-.675a1.2,1.2,0,1,0-1.993,1.351Zm0,0" transform="translate(-338.265 -119.009)"/>
      <path id="Trazado_980193" data-name="Trazado 980193" d="M437.01,229.03a1.2,1.2,0,0,0-1.061,1.331l.006.052a1.2,1.2,0,0,0,1.19,1.033,1.23,1.23,0,0,0,.172-.012,1.212,1.212,0,0,0-.307-2.4Zm0,0" transform="translate(-365.992 -192.274)"/>
      <path id="Trazado_980194" data-name="Trazado 980194" d="M429.688,199.829l.005.016a1.2,1.2,0,0,0,1.154.864,1.186,1.186,0,0,0,.34-.05,1.2,1.2,0,0,0,.815-1.494L432,199.15a1.2,1.2,0,1,0-2.309.679Zm0,0" transform="translate(-360.701 -166.469)"/>
      <path id="Trazado_980195" data-name="Trazado 980195" d="M418.664,170.707a1.21,1.21,0,0,0,1.086.676,1.2,1.2,0,0,0,1.077-1.731l-1.091.508,1.089-.511a1.2,1.2,0,0,0-2.179,1.022Zm0,0" transform="translate(-351.377 -141.846)"/>
      <path id="Trazado_980196" data-name="Trazado 980196" d="M383.55,119.408a1.212,1.212,0,1,0-.036-.038Zm0,0" transform="translate(-321.709 -98.521)"/>
      <path id="Trazado_980197" data-name="Trazado 980197" d="M438.555,260.385a1.211,1.211,0,0,0-.1,2.419l.068,0a1.2,1.2,0,0,0,1.2-1.137l0-.049A1.2,1.2,0,0,0,438.555,260.385Zm0,0" transform="translate(-367.146 -218.604)"/>
      <path id="Trazado_980198" data-name="Trazado 980198" d="M334.178,81.529l.029.016a1.2,1.2,0,0,0,1.621-.495,1.207,1.207,0,0,0-.489-1.629l-.582,1.053.579-1.055a1.2,1.2,0,1,0-1.157,2.11Zm0,0" transform="translate(-280.033 -66.551)"/>
      <path id="Trazado_980199" data-name="Trazado 980199" d="M360.353,98.5l.019.014a1.2,1.2,0,0,0,1.455-1.918l-.008-.006a1.2,1.2,0,1,0-1.465,1.909Zm0,0" transform="translate(-302.137 -80.886)"/>
      <path id="Trazado_980200" data-name="Trazado 980200" d="M81.41,60,75.761,54.34a2.541,2.541,0,0,0-3.6,0l-.131.131-.371-.371a4.857,4.857,0,0,1-1.054-1.576,1.172,1.172,0,0,0-.086-.223,4.867,4.867,0,0,1-.28-1.635v-1.6a1.212,1.212,0,1,0-.008-2.139A6.784,6.784,0,0,0,68.245,42.4l-5.481-5.49a6.5,6.5,0,0,0-8.315-.746l-.582-.585V21.816a6.834,6.834,0,0,0-1.7-4.507A4.856,4.856,0,0,1,50.966,14.1V13.1h.083a2.547,2.547,0,0,0,2.544-2.545V2.545A2.547,2.547,0,0,0,51.049,0H28.57a2.547,2.547,0,0,0-2.544,2.545V10.55A2.547,2.547,0,0,0,28.57,13.1h.186v.528a4.828,4.828,0,0,1-1.42,3.434l-2.426,2.431a6.789,6.789,0,0,0-2,4.828V32.08a6.489,6.489,0,0,0,.7,2.933,6.462,6.462,0,0,0-4.223,1.9L13.908,42.4a6.79,6.79,0,0,0-2,4.828v3.437a4.828,4.828,0,0,1-1.42,3.434l-.367.367,0,0-.13-.131a2.541,2.541,0,0,0-3.6,0L.742,60a2.551,2.551,0,0,0,0,3.6l1.935,1.937a1.2,1.2,0,1,0,1.7-1.7L2.446,61.9a.14.14,0,0,1,0-.2L8.1,56.041a.135.135,0,0,1,.191,0l.982.984h0L22.681,70.459l1.5,1.506a.14.14,0,0,1,0,.2l-5.649,5.659a.135.135,0,0,1-.192,0L7.787,67.248a1.2,1.2,0,1,0-1.7,1.7L16.639,79.522a2.541,2.541,0,0,0,3.6,0l5.649-5.659a2.551,2.551,0,0,0,0-3.6l-.061-.061.713-.714a4.836,4.836,0,0,1,3.113-1.412,6.81,6.81,0,0,0,4.382-1.987l5.19-5.2A4.12,4.12,0,0,0,42.2,57.751a4.1,4.1,0,0,0,5.864-3.713V51.18a4.1,4.1,0,0,0,5.8-3.741V38.992l3.7,3.72a1.2,1.2,0,1,0,1.706-1.7l-3.086-3.1a4.1,4.1,0,0,1,4.872.7L66.541,44.1a4.4,4.4,0,0,1,1.293,3.128v3.437A7.22,7.22,0,0,0,69.957,55.8l.374.374-1.746,1.749L58.028,68.5l-.589-.59-.018-.018-.1-.1a7.246,7.246,0,0,0-4.66-2.112,4.413,4.413,0,0,1-2.838-1.288l-3.954-3.933a1.2,1.2,0,1,0-1.7,1.706l3.952,3.93A6.81,6.81,0,0,0,52.5,68.078a4.838,4.838,0,0,1,3.113,1.411l.058.058a1.159,1.159,0,0,0,.1.1l.555.555-.061.062a2.551,2.551,0,0,0,0,3.6l5.649,5.659a2.542,2.542,0,0,0,3.6,0L81.41,63.6a2.551,2.551,0,0,0,0-3.6ZM71.048,48.033l-.023,0-.219-.045ZM32.33,64.39A4.4,4.4,0,0,1,29.5,65.676a7.246,7.246,0,0,0-4.661,2.112l-.71.711-.639-.641-.024-.024L11.822,56.175,12.2,55.8a7.22,7.22,0,0,0,2.123-5.135V47.229A4.4,4.4,0,0,1,15.612,44.1l5.481-5.489a4.1,4.1,0,0,1,4.878-.7l-3.091,3.1a1.2,1.2,0,0,0,1.7,1.7l3.692-3.7V54.038a4.1,4.1,0,0,0,5.886,3.7,4.124,4.124,0,0,0,2.04,2.771ZM51.461,47.44a1.7,1.7,0,1,1-3.4,0V34.016a1.2,1.2,0,0,0-2.407,0V54.038a1.7,1.7,0,0,1-3.371.281V34a1.216,1.216,0,0,0-2.432.014V54.037a4.126,4.126,0,0,0,.025.451v2.425a1.7,1.7,0,1,1-3.4,0V33.988a1.2,1.2,0,0,0-2.407,0V54.037a1.7,1.7,0,1,1-3.4,0V31.652a1.2,1.2,0,1,0-2.407,0v4.141a1.181,1.181,0,0,0-.29.139,4.118,4.118,0,0,1-2.667-3.852V24.315a4.4,4.4,0,0,1,1.293-3.128l2.426-2.431a7.218,7.218,0,0,0,2.124-5.135v-.528h2.419a1.2,1.2,0,1,0,0-2.407H28.57a.138.138,0,0,1-.137-.138V2.545a.138.138,0,0,1,.137-.138H51.049a.138.138,0,0,1,.138.138V10.55a.137.137,0,0,1-.138.138H39.231a1.2,1.2,0,1,0,0,2.407H48.56V14.1a7.267,7.267,0,0,0,1.8,4.793,4.424,4.424,0,0,1,1.1,2.919ZM79.707,61.9,63.81,77.821a.129.129,0,0,1-.1.04.131.131,0,0,1-.1-.04l-5.649-5.659a.14.14,0,0,1,0-.2l.909-.911h0l9.228-9.244,5.758-5.768a.134.134,0,0,1,.191,0l5.65,5.659A.14.14,0,0,1,79.707,61.9Zm0,0" transform="translate(0)"/>
      <path id="Trazado_980201" data-name="Trazado 980201" d="M195.1,32.8a1.284,1.284,0,1,0,1.282,1.284A1.284,1.284,0,0,0,195.1,32.8Zm0,0" transform="translate(-162.718 -27.541)"/>
      <path id="Trazado_980202" data-name="Trazado 980202" d="M456.7,374.688a1.284,1.284,0,1,0,1.281,1.284A1.284,1.284,0,0,0,456.7,374.688Zm0,0" transform="translate(-382.34 -314.567)"/>
      <path id="Trazado_980203" data-name="Trazado 980203" d="M111.574,444.487a1.281,1.281,0,1,0-1.281,1.284A1.284,1.284,0,0,0,111.574,444.487Zm0,0" transform="translate(-91.52 -372.088)"/>
    </g>
    <g id="Layer_1" transform="translate(1125.07 3004.051)">
      <g id="Grupo_1144605" data-name="Grupo 1144605" transform="translate(5.26 3.49)">
        <path id="Trazado_980204" data-name="Trazado 980204" d="M40.826,31.019a4.8,4.8,0,0,0,4.793,4.8h1.546v9.59h-9.59v1.546a4.8,4.8,0,0,1-9.6,0V45.408H18.39V36.976H31.044a3.272,3.272,0,0,0,3.269-3.269V28.332a3.264,3.264,0,0,0-3.269-3.269H25.2l.606-1.295A1.851,1.851,0,1,0,22.455,22.2L21.12,25.063H18.39V16.63H47.165v9.593H45.619a4.793,4.793,0,0,0-4.793,4.8Z" transform="translate(-14.371 -12.608)" fill="#f2bf22"/>
        <path id="Trazado_980205" data-name="Trazado 980205" d="M26.936,38.542v5.375a3.272,3.272,0,0,1-3.269,3.269H7.76V35.273h5.984l1.335-2.859a1.851,1.851,0,1,1,3.355,1.564l-.606,1.295h5.84A3.264,3.264,0,0,1,26.936,38.542Z" transform="translate(-6.995 -22.819)" fill="#ffb69f"/>
        <path id="Trazado_980206" data-name="Trazado 980206" d="M37.977,97.821a2.5,2.5,0,0,1-2.5-2.5v-3.84H30.441a.765.765,0,0,1,0-1.53h5.8a.765.765,0,0,1,.765.765v4.606a.971.971,0,0,0,1.942,0V90.717a.765.765,0,0,1,.765-.765h8.826V87.1a.765.765,0,1,1,1.53,0v3.616a.765.765,0,0,1-.765.765H40.478v3.84a2.5,2.5,0,0,1-2.5,2.5Zm-10.6-6.339h-.731a.765.765,0,0,1,0-1.53h.731a.765.765,0,1,1,0,1.53Z" transform="translate(-19.571 -60.977)" fill="#f8e5b0"/>
        <path id="Trazado_980207" data-name="Trazado 980207" d="M36.59,33.381v5.375a5.554,5.554,0,0,1-5.546,5.549H18.39v-2.28H31.044a3.272,3.272,0,0,0,3.269-3.269V33.381a3.264,3.264,0,0,0-3.269-3.269H25.2l.606-1.295a1.851,1.851,0,1,0-3.355-1.564L21.12,30.112H18.39V27.835h1.279l.722-1.546a4.128,4.128,0,0,1,7.863,1.546h2.788A5.553,5.553,0,0,1,36.59,33.381Z" transform="translate(-14.371 -17.657)" fill="#e8a61e"/>
        <path id="Trazado_980208" data-name="Trazado 980208" d="M158.657,16.62V45.4h-9.593V43.849a4.8,4.8,0,0,0-9.6,0V45.4h-9.59v-9.59h-1.546a4.8,4.8,0,0,1,0-9.6h1.546V16.62h8.433V29.274a3.268,3.268,0,0,0,3.269,3.269h5.375a3.266,3.266,0,0,0,3.269-3.269v-5.84l1.295.606a1.851,1.851,0,1,0,1.564-3.355l-2.859-1.335V16.62Z" transform="translate(-87.336 -12.601)" fill="#fc5d3d"/>
        <path id="Trazado_980209" data-name="Trazado 980209" d="M187.469,15.766a1.854,1.854,0,0,1-2.461.9l-1.295-.606V21.9a3.266,3.266,0,0,1-3.269,3.269h-5.375A3.268,3.268,0,0,1,171.8,21.9V5.99h11.913v5.984l2.859,1.335A1.851,1.851,0,0,1,187.469,15.766Z" transform="translate(-120.824 -5.225)" fill="#ffb69f"/>
        <path id="Trazado_980210" data-name="Trazado 980210" d="M141.757,48.3H138.14a.765.765,0,0,1-.765-.765V38.708h-3.84a2.5,2.5,0,0,1,0-5h3.84V28.671a.765.765,0,0,1,1.53,0v5.8a.765.765,0,0,1-.765.765h-4.606a.971.971,0,0,0,0,1.942h4.606a.765.765,0,0,1,.765.765v8.826h2.851a.765.765,0,0,1,0,1.53ZM138.14,26.375a.765.765,0,0,1-.765-.765v-.731a.765.765,0,0,1,1.53,0v.731A.765.765,0,0,1,138.14,26.375Z" transform="translate(-92.538 -17.801)" fill="#ffcbc3"/>
        <path id="Trazado_980211" data-name="Trazado 980211" d="M180.82,26.485v2.788a5.553,5.553,0,0,1-5.546,5.546H169.9a5.554,5.554,0,0,1-5.549-5.546V16.62h2.28V29.274a3.268,3.268,0,0,0,3.269,3.269h5.375a3.266,3.266,0,0,0,3.269-3.269v-5.84l1.295.606a1.851,1.851,0,1,0,1.564-3.355l-2.859-1.335V16.62h2.277V17.9l1.546.722A4.133,4.133,0,0,1,180.82,26.485Z" transform="translate(-115.655 -12.601)" fill="#b34f33"/>
        <path id="Trazado_980212" data-name="Trazado 980212" d="M173.035,130.029v8.433H160.382a3.272,3.272,0,0,0-3.269,3.269v5.375a3.268,3.268,0,0,0,3.269,3.269h5.84l-.606,1.295a1.851,1.851,0,1,0,3.355,1.564l1.335-2.859h2.73v8.433H144.26v-9.593h1.546a4.8,4.8,0,0,0,0-9.6H144.26v-9.59h9.59v-1.546a4.8,4.8,0,0,1,9.6,0v1.546Z" transform="translate(-101.714 -86.898)" fill="#72c2e9"/>
        <path id="Trazado_980213" data-name="Trazado 980213" d="M205.426,171.95v11.913h-5.984l-1.335,2.859a1.851,1.851,0,1,1-3.355-1.564l.606-1.295h-5.84a3.268,3.268,0,0,1-3.269-3.269v-5.375a3.272,3.272,0,0,1,3.269-3.269Z" transform="translate(-130.852 -120.387)" fill="#ffb69f"/>
        <path id="Trazado_980214" data-name="Trazado 980214" d="M152.525,142.677a.765.765,0,0,1-.765-.765V138.3a.765.765,0,0,1,.765-.765h8.826v-3.84a2.5,2.5,0,0,1,5,0v3.84h5.035a.765.765,0,1,1,0,1.53h-5.8a.765.765,0,0,1-.765-.765V133.69a.971.971,0,0,0-1.942,0V138.3a.765.765,0,0,1-.765.765H153.29v2.851A.765.765,0,0,1,152.525,142.677Zm22.655-3.616h-.731a.765.765,0,1,1,0-1.53h.731a.765.765,0,1,1,0,1.53Z" transform="translate(-106.918 -92.104)" fill="#c5e5fe"/>
        <path id="Trazado_980215" data-name="Trazado 980215" d="M181.087,170.049v5.375a3.268,3.268,0,0,0,3.269,3.269h5.84l-.606,1.295a1.851,1.851,0,1,0,3.355,1.564l1.335-2.859h2.73v2.277H195.73l-.722,1.546a4.132,4.132,0,0,1-7.863-1.546h-2.788a5.553,5.553,0,0,1-5.546-5.546v-5.375a5.554,5.554,0,0,1,5.546-5.549H197.01v2.28H184.356A3.272,3.272,0,0,0,181.087,170.049Z" transform="translate(-125.689 -115.217)" fill="#48a6c8"/>
        <path id="Trazado_980216" data-name="Trazado 980216" d="M53.5,158.769a4.8,4.8,0,0,1-4.793,4.8H47.158v9.59H38.726V160.5a3.272,3.272,0,0,0-3.269-3.269H30.082a3.27,3.27,0,0,0-3.269,3.269v5.84l-1.295-.606a1.851,1.851,0,1,0-1.564,3.355l2.859,1.335v2.73H18.38V144.38h9.593v1.546a4.8,4.8,0,0,0,9.6,0V144.38h9.59v9.59H48.7A4.8,4.8,0,0,1,53.5,158.769Z" transform="translate(-14.364 -101.256)" fill="#13bf6d"/>
        <path id="Trazado_980217" data-name="Trazado 980217" d="M48.936,189.639v15.907H37.023v-5.984l-2.859-1.335a1.851,1.851,0,1,1,1.564-3.355l1.295.606v-5.84a3.27,3.27,0,0,1,3.269-3.269h5.375A3.272,3.272,0,0,1,48.936,189.639Z" transform="translate(-24.575 -130.393)" fill="#ffb69f"/>
        <path id="Trazado_980218" data-name="Trazado 980218" d="M92.47,176.069a.765.765,0,0,1-.765-.765v-.731a.765.765,0,1,1,1.53,0v.731A.765.765,0,0,1,92.47,176.069Zm0-3.791a.765.765,0,0,1-.765-.765v-5.8a.765.765,0,0,1,.765-.765h4.606a.971.971,0,0,0,0-1.942H92.47a.765.765,0,0,1-.765-.765v-8.826H88.853a.765.765,0,1,1,0-1.53H92.47a.765.765,0,0,1,.765.765v8.826h3.84a2.5,2.5,0,0,1,0,5h-3.84v5.035A.765.765,0,0,1,92.47,172.278Z" transform="translate(-62.736 -106.463)" fill="#76ffbb"/>
        <path id="Trazado_980219" data-name="Trazado 980219" d="M46.055,184.476V197.13h-2.28V184.476a3.272,3.272,0,0,0-3.269-3.269H35.131a3.27,3.27,0,0,0-3.269,3.269v5.84l-1.295-.606A1.851,1.851,0,1,0,29,193.065l2.859,1.335v2.73H29.585V195.85l-1.546-.722a4.128,4.128,0,0,1,1.546-7.863v-2.788a5.553,5.553,0,0,1,5.546-5.546h5.375A5.554,5.554,0,0,1,46.055,184.476Z" transform="translate(-19.413 -125.23)" fill="#139d6d"/>
        <circle id="Elipse_11589" data-name="Elipse 11589" cx="0.765" cy="0.765" r="0.765" transform="translate(10.927 23.602)"/>
        <path id="Trazado_980220" data-name="Trazado 980220" d="M13.892,36.006a.765.765,0,1,0,0-1.53H6.025a.765.765,0,1,0,0,1.53H8.514v7.667a.765.765,0,0,0,.765.765H18.1v.781a5.563,5.563,0,0,0,11.126,0v-.781h8.824a.765.765,0,0,0,.765-.765v-9.59a.765.765,0,0,0-.765-.765H36.508a4.033,4.033,0,0,1,0-8.065h1.546a.765.765,0,0,0,.765-.765V14.9a.765.765,0,0,0-.765-.765H9.279a.765.765,0,0,0-.765.765v7.667H6.025a.765.765,0,1,0,0,1.53h5.984a.772.772,0,0,0,.695-.441l1.335-2.859a1.085,1.085,0,0,1,1.968.915L15.4,23a.765.765,0,0,0,.692,1.09h5.84a2.5,2.5,0,0,1,2.5,2.521H18.605a.765.765,0,0,0,0,1.53h5.831v2.282H18.605a.765.765,0,0,0,0,1.53h5.831a2.5,2.5,0,0,1-2.5,2.519H20.013a.765.765,0,1,0,0,1.53h1.919a4.042,4.042,0,0,0,4.034-4.016V26.6a4.035,4.035,0,0,0-4.034-4.034H17.3l.095-.205a2.616,2.616,0,1,0-4.741-2.213l-1.126,2.418H10.044v-6.9H37.289v8.062h-.781a5.563,5.563,0,0,0,0,11.126h.781v8.059H28.464a.765.765,0,0,0-.765.765v1.546a4.033,4.033,0,0,1-8.065,0V43.673a.765.765,0,0,0-.765-.765H10.044v-6.9Z" transform="translate(-5.26 -10.873)"/>
        <circle id="Elipse_11590" data-name="Elipse 11590" cx="0.765" cy="0.765" r="0.765" transform="translate(50.21 10.924)"/>
        <path id="Trazado_980221" data-name="Trazado 980221" d="M127.376,27.46v8.824a.765.765,0,0,0,.765.765h9.59a.765.765,0,0,0,.765-.765V34.738a4.033,4.033,0,0,1,8.065,0v1.546a.765.765,0,0,0,.765.765h9.593a.765.765,0,0,0,.765-.765V7.509a.765.765,0,0,0-.765-.765h-7.667V4.255a.765.765,0,0,0-1.53,0v5.984a.759.759,0,0,0,.441.692l2.859,1.338a1.085,1.085,0,1,1-.915,1.968l-1.295-.606a.764.764,0,0,0-1.09.692v5.84a2.5,2.5,0,0,1-2.522,2.5V16.835a.765.765,0,1,0-1.53,0v5.831h-2.282V16.835a.765.765,0,1,0-1.53,0v5.831a2.5,2.5,0,0,1-2.518-2.5V18.24a.765.765,0,1,0-1.53,0v1.922A4.036,4.036,0,0,0,139.8,24.2h5.418a4.038,4.038,0,0,0,4.034-4.034V15.525l.205.095a2.614,2.614,0,1,0,2.21-4.738l-2.415-1.129V8.274h6.9V35.519h-8.062v-.781a5.563,5.563,0,0,0-11.126,0v.781h-8.059V26.694a.765.765,0,0,0-.765-.765H126.6a4.033,4.033,0,0,1,0-8.065h1.546a.765.765,0,0,0,.765-.765V8.274h6.9v3.844a.765.765,0,1,0,1.53,0V4.255a.765.765,0,1,0-1.53,0V6.744h-7.668a.765.765,0,0,0-.765.765v8.824H126.6a5.563,5.563,0,0,0,0,11.126Z" transform="translate(-85.599 -3.49)"/>
        <path id="Trazado_980222" data-name="Trazado 980222" d="M166.688,135.964a.765.765,0,0,0,0,1.53h7.866a.765.765,0,1,0,0-1.53h-2.488V128.3a.765.765,0,0,0-.765-.765h-8.824v-.781a5.563,5.563,0,0,0-11.126,0v.781h-8.824a.765.765,0,0,0-.765.765v9.59a.765.765,0,0,0,.765.765h1.546a4.033,4.033,0,0,1,0,8.065h-1.546a.765.765,0,0,0-.765.765v9.593a.765.765,0,0,0,.765.765H171.3a.765.765,0,0,0,.765-.765v-7.668h2.488a.765.765,0,1,0,0-1.53H168.57a.77.77,0,0,0-.695.444l-1.335,2.856a1.085,1.085,0,1,1-1.968-.912l.606-1.3a.767.767,0,0,0-.692-1.09h-5.84a2.5,2.5,0,0,1-2.5-2.52h5.831a.765.765,0,1,0,0-1.53h-5.831v-2.282h5.831a.765.765,0,1,0,0-1.53h-5.831V140a2.5,2.5,0,0,1,2.5-2.5h1.922a.765.765,0,0,0,0-1.53h-1.922a4.051,4.051,0,0,0-4.034,4v5.412a4.037,4.037,0,0,0,4.034,4.034h4.637l-.095.205a2.615,2.615,0,1,0,4.738,2.213l1.129-2.418h1.478v6.9H143.29v-8.062h.781a5.563,5.563,0,0,0,0-11.126h-.781v-8.059h8.824a.765.765,0,0,0,.765-.765v-1.546a4.033,4.033,0,0,1,8.065,0V128.3a.765.765,0,0,0,.765.765h8.824v6.9Z" transform="translate(-99.979 -85.166)"/>
        <path id="Trazado_980223" data-name="Trazado 980223" d="M210.7,170.215a.767.767,0,1,0,.768-.765A.768.768,0,0,0,210.7,170.215Z" transform="translate(-147.818 -118.652)"/>
        <circle id="Elipse_11591" data-name="Elipse 11591" cx="0.765" cy="0.765" r="0.765" transform="translate(23.596 63.464)"/>
        <path id="Trazado_980224" data-name="Trazado 980224" d="M36.227,174.677a.765.765,0,0,0,1.53,0V172.19h7.668a.765.765,0,0,0,.765-.765V162.6h.781a5.563,5.563,0,0,0,0-11.126h-.781v-8.824a.765.765,0,0,0-.765-.765h-9.59a.765.765,0,0,0-.765.765v1.546a4.033,4.033,0,0,1-8.065,0v-1.546a.765.765,0,0,0-.765-.765H16.647a.765.765,0,0,0-.765.765v28.775a.765.765,0,0,0,.765.765h7.667v2.487a.765.765,0,0,0,1.53,0v-5.984A.766.766,0,0,0,25.4,168l-2.859-1.335a1.086,1.086,0,0,1,.912-1.971l1.3.609a.768.768,0,0,0,1.09-.695v-5.84a2.5,2.5,0,0,1,2.521-2.5V162.1a.765.765,0,1,0,1.53,0v-5.832h2.282V162.1a.765.765,0,1,0,1.53,0v-5.832a2.5,2.5,0,0,1,2.518,2.5v1.922a.765.765,0,0,0,1.53,0V158.77a4.04,4.04,0,0,0-4-4.034H28.348a4.035,4.035,0,0,0-4.034,4.034v4.637l-.205-.095a2.616,2.616,0,0,0-2.213,4.741l2.418,1.126v1.479h-6.9V143.414h8.062v.781a5.563,5.563,0,0,0,11.126,0v-.781H44.66v8.824a.765.765,0,0,0,.765.765h1.546a4.033,4.033,0,0,1,0,8.065H45.425a.765.765,0,0,0-.765.765v8.824h-6.9v-3.845a.765.765,0,0,0-1.53,0Z" transform="translate(-12.631 -99.524)"/>
      </g>
    </g>
    <g id="Layer_55" transform="translate(381.204 3006.785)">
      <g id="Grupo_1144606" data-name="Grupo 1144606" transform="translate(17.3 0)">
        <path id="Trazado_980225" data-name="Trazado 980225" d="M165.008,2.5H153.117a.814.814,0,0,0-.817.817v5.9h1.483a2.074,2.074,0,1,1,.151,4.145H152.3v5.265a.814.814,0,0,0,.817.817h5.174v1.573a2.074,2.074,0,0,0,4.145.151V19.445h5.991a.814.814,0,0,0,.817-.817V6.736A4.249,4.249,0,0,0,165.008,2.5Z" transform="translate(-111.451 -1.744)" fill="#fc657e"/>
        <path id="Trazado_980226" data-name="Trazado 980226" d="M90.8,33.017H89.314v-5.9A.814.814,0,0,0,88.5,26.3H76.636A4.229,4.229,0,0,0,72.4,30.536V43.214h6.627V41.641a2.074,2.074,0,0,1,4.145-.151v1.725h6.173V37.163h1.573a2.092,2.092,0,0,0,2.088-2.088v-.061a2.161,2.161,0,0,0-2.209-2Z" transform="translate(-55.728 -18.342)" fill="#f5c84c"/>
        <path id="Trazado_980227" data-name="Trazado 980227" d="M135.638,82.3h-5.991v1.573a2.074,2.074,0,0,1-4.145.151V82.3h-5.991v6.082h-1.664a2.074,2.074,0,1,0-.151,4.145h1.815v6.717h5.507a1.863,1.863,0,0,1,1.573.847l2.39,3.57a1.248,1.248,0,0,0,1.725.272,1.22,1.22,0,0,0,.514-1v-2.875a.8.8,0,0,1,.787-.787h.212a4.229,4.229,0,0,0,4.236-4.236V83.117A.814.814,0,0,0,135.638,82.3Z" transform="translate(-85.924 -57.397)" fill="#70d6f9"/>
        <path id="Trazado_980228" data-name="Trazado 980228" d="M87.58,79.8h1.664V73.72H83.072V72.147A2.074,2.074,0,0,0,78.927,72V73.72H72.3V86.4a4.229,4.229,0,0,0,4.236,4.236.8.8,0,0,1,.787.787V94.3a1.236,1.236,0,0,0,2.239.726l2.39-3.57a1.938,1.938,0,0,1,1.573-.847h5.719V83.887H87.49A2.092,2.092,0,0,1,85.4,81.8v-.061A2.172,2.172,0,0,1,87.58,79.8Z" transform="translate(-55.658 -48.818)" fill="#87d147"/>
        <path id="Trazado_980229" data-name="Trazado 980229" d="M35.09,131.893a2.359,2.359,0,0,1-1.876-1.846c0-.03-.091-.03-.091,0a2.359,2.359,0,0,1-1.876,1.846c-.03,0-.03.061,0,.091a2.359,2.359,0,0,1,1.876,1.846c0,.03.091.03.091,0a2.359,2.359,0,0,1,1.876-1.846C35.121,131.954,35.121,131.893,35.09,131.893Z" transform="translate(-27.012 -90.682)" fill="#fc657e"/>
        <path id="Trazado_980230" data-name="Trazado 980230" d="M223.123,91.264H222.4v-.7a.969.969,0,0,0-.938-.968h-.03a.99.99,0,0,0-.968.938v.726h-.7a.969.969,0,0,0-.968.938v.03a.943.943,0,0,0,.908.968h.756v.7a.969.969,0,0,0,.938.968h.03a.99.99,0,0,0,.968-.938V93.2h.7a.969.969,0,0,0,.968-.938v-.03A.99.99,0,0,0,223.123,91.264Z" transform="translate(-157.826 -62.489)" fill="#87d147"/>
        <circle id="Elipse_11592" data-name="Elipse 11592" cx="1.029" cy="1.029" r="1.029" transform="translate(56.795 41.908)" fill="#f5c84c"/>
        <circle id="Elipse_11593" data-name="Elipse 11593" cx="1.029" cy="1.029" r="1.029" transform="translate(16.854 0)" fill="#70d6f9"/>
        <path id="Trazado_980231" data-name="Trazado 980231" d="M34.2,26.028A3.358,3.358,0,0,1,31.509,23.4c0-.061-.121-.061-.121,0A3.358,3.358,0,0,1,28.7,26.028c-.061,0-.061.091,0,.121a3.358,3.358,0,0,1,2.693,2.632c0,.061.121.061.121,0A3.358,3.358,0,0,1,34.2,26.149C34.263,26.119,34.263,26.028,34.2,26.028Z" transform="translate(-25.216 -16.285)" fill="#f5c84c"/>
        <circle id="Elipse_11594" data-name="Elipse 11594" cx="5.386" cy="5.386" r="5.386" transform="translate(28.11 50.622)" fill="#f9d0b4"/>
        <path id="Trazado_980232" data-name="Trazado 980232" d="M108.669,205.7h-6.082a6.689,6.689,0,0,0-6.687,6.687v6.052a1.692,1.692,0,0,0,1.694,1.694h16.067a1.692,1.692,0,0,0,1.694-1.694v-6.052A6.728,6.728,0,0,0,108.669,205.7Z" transform="translate(-72.117 -143.459)" fill="#5290db"/>
        <circle id="Elipse_11595" data-name="Elipse 11595" cx="5.386" cy="5.386" r="5.386" transform="translate(5.114 50.622)" fill="#f9d0b4"/>
        <path id="Trazado_980233" data-name="Trazado 980233" d="M32.6,205.7H26.487a6.689,6.689,0,0,0-6.687,6.687v6.052a1.692,1.692,0,0,0,1.694,1.694H37.562a1.692,1.692,0,0,0,1.694-1.694v-6.052A6.663,6.663,0,0,0,32.6,205.7Z" transform="translate(-19.044 -143.459)" fill="#dae6f1"/>
        <circle id="Elipse_11596" data-name="Elipse 11596" cx="5.386" cy="5.386" r="5.386" transform="translate(51.106 50.622)" fill="#f9d0b4"/>
        <path id="Trazado_980234" data-name="Trazado 980234" d="M184.669,205.7h-6.082a6.689,6.689,0,0,0-6.687,6.687v6.052a1.692,1.692,0,0,0,1.694,1.694h16.067a1.692,1.692,0,0,0,1.694-1.694v-6.052A6.728,6.728,0,0,0,184.669,205.7Z" transform="translate(-125.121 -143.459)" fill="#5b5d60"/>
        <path id="Trazado_980235" data-name="Trazado 980235" d="M113.842,164.8a6.142,6.142,0,1,0,6.142,6.142A6.147,6.147,0,0,0,113.842,164.8Zm0,10.772a4.63,4.63,0,1,1,4.63-4.63A4.63,4.63,0,0,1,113.842,175.572Z" transform="translate(-80.347 -114.934)"/>
        <path id="Trazado_980236" data-name="Trazado 980236" d="M106.925,203.2h-6.082a7.438,7.438,0,0,0-7.444,7.444V216.7a2.441,2.441,0,0,0,2.451,2.451h16.067a2.441,2.441,0,0,0,2.451-2.451v-6.052A7.458,7.458,0,0,0,106.925,203.2Zm5.931,13.525a.943.943,0,0,1-.938.938H95.851a.943.943,0,0,1-.938-.938v-6.052a5.94,5.94,0,0,1,5.931-5.931h6.082a5.94,5.94,0,0,1,5.931,5.931Z" transform="translate(-70.373 -141.715)"/>
        <path id="Trazado_980237" data-name="Trazado 980237" d="M37.842,164.8a6.142,6.142,0,1,0,6.142,6.142A6.147,6.147,0,0,0,37.842,164.8Zm0,10.772a4.63,4.63,0,1,1,4.63-4.63A4.629,4.629,0,0,1,37.842,175.572Z" transform="translate(-27.343 -114.934)"/>
        <path id="Trazado_980238" data-name="Trazado 980238" d="M30.856,203.2H24.744a7.438,7.438,0,0,0-7.444,7.444V216.7a2.441,2.441,0,0,0,2.451,2.451H35.818a2.441,2.441,0,0,0,2.451-2.451v-6.052A7.412,7.412,0,0,0,30.856,203.2Zm5.931,13.525a.943.943,0,0,1-.938.938H19.781a.943.943,0,0,1-.938-.938v-6.052a5.94,5.94,0,0,1,5.931-5.931h6.082a5.94,5.94,0,0,1,5.931,5.931Z" transform="translate(-17.3 -141.715)"/>
        <path id="Trazado_980239" data-name="Trazado 980239" d="M189.842,164.8a6.142,6.142,0,1,0,6.142,6.142A6.147,6.147,0,0,0,189.842,164.8Zm0,10.772a4.63,4.63,0,1,1,4.63-4.63A4.63,4.63,0,0,1,189.842,175.572Z" transform="translate(-133.35 -114.934)"/>
        <path id="Trazado_980240" data-name="Trazado 980240" d="M182.925,203.2h-6.082a7.438,7.438,0,0,0-7.444,7.444V216.7a2.441,2.441,0,0,0,2.451,2.451h16.067a2.441,2.441,0,0,0,2.451-2.451v-6.052A7.477,7.477,0,0,0,182.925,203.2Zm5.931,13.525a.943.943,0,0,1-.938.938H171.851a.943.943,0,0,1-.938-.938v-6.052a5.94,5.94,0,0,1,5.931-5.931h6.082a5.94,5.94,0,0,1,5.931,5.931Z" transform="translate(-123.377 -141.715)"/>
        <path id="Trazado_980241" data-name="Trazado 980241" d="M163.265,0H151.373A1.563,1.563,0,0,0,149.8,1.573v5.9a.749.749,0,0,0,.756.756h1.483A1.345,1.345,0,0,1,153.431,9.5a1.318,1.318,0,0,1-1.271,1.362h-1.6a.749.749,0,0,0-.756.756v5.265a1.563,1.563,0,0,0,1.573,1.573h4.418v.817a2.9,2.9,0,0,0,2.754,2.9h.091a2.841,2.841,0,0,0,2.844-2.844v-.908h5.235a1.563,1.563,0,0,0,1.573-1.573V4.993A5.043,5.043,0,0,0,163.265,0Zm3.48,16.884a.065.065,0,0,1-.061.061h-5.991a.749.749,0,0,0-.756.756v1.664a1.324,1.324,0,0,1-1.331,1.331h-.03A1.364,1.364,0,0,1,157.3,19.3V17.731a.749.749,0,0,0-.756-.756h-5.174a.065.065,0,0,1-.061-.061V12.376h.817a2.841,2.841,0,0,0,2.844-2.844V9.441a2.917,2.917,0,0,0-2.9-2.754h-.726V1.543a.065.065,0,0,1,.06-.061h11.861a3.48,3.48,0,0,1,3.48,3.48Z" transform="translate(-109.708 0)"/>
        <path id="Trazado_980242" data-name="Trazado 980242" d="M89.053,30.517h-.726V25.373A1.563,1.563,0,0,0,86.754,23.8H74.893A5,5,0,0,0,69.9,28.793V41.471a.749.749,0,0,0,.756.756h6.627a.749.749,0,0,0,.756-.756V39.9a1.345,1.345,0,0,1,1.271-1.392,1.427,1.427,0,0,1,.968.363,1.328,1.328,0,0,1,.393.938v1.664a.749.749,0,0,0,.756.756H87.6a.749.749,0,0,0,.756-.756v-5.3h.817a2.841,2.841,0,0,0,2.844-2.844v-.091a2.945,2.945,0,0,0-2.965-2.723Zm1.029,3.722a1.328,1.328,0,0,1-.938.393H87.571a.749.749,0,0,0-.756.756v5.325h-4.66v-.908a2.841,2.841,0,0,0-2.844-2.844H79.22a2.917,2.917,0,0,0-2.754,2.9v.817H71.383V28.793a3.48,3.48,0,0,1,3.48-3.48H86.724a.065.065,0,0,1,.061.061v5.9a.749.749,0,0,0,.756.756h1.483A1.345,1.345,0,0,1,90.415,33.3,1,1,0,0,1,90.082,34.239Z" transform="translate(-53.984 -16.599)"/>
        <path id="Trazado_980243" data-name="Trazado 980243" d="M133.892,79.8H127.9a.749.749,0,0,0-.756.756V82.13a1.345,1.345,0,0,1-1.271,1.392,1.318,1.318,0,0,1-1.362-1.271V80.556a.749.749,0,0,0-.756-.756h-5.991a.749.749,0,0,0-.756.756v5.325H116.1a2.9,2.9,0,0,0-2.9,2.753,2.8,2.8,0,0,0,2.754,2.9h1.089V97.5a.749.749,0,0,0,.756.756H123.3a1.161,1.161,0,0,1,.938.484l2.39,3.57a.03.03,0,0,0,.03.03,1.964,1.964,0,0,0,1.6.817,2.3,2.3,0,0,0,.635-.091,1.952,1.952,0,0,0,1.362-1.906V98.288c0-.03,0-.03.03-.03h.212a5,5,0,0,0,4.993-4.993V81.373A1.608,1.608,0,0,0,133.892,79.8Zm.061,13.435a3.48,3.48,0,0,1-3.48,3.48h-.212a1.55,1.55,0,0,0-1.543,1.543v2.875a.478.478,0,0,1-.484.484.488.488,0,0,1-.393-.182l-2.36-3.54a2.633,2.633,0,0,0-2.179-1.18h-4.751V90.754a.749.749,0,0,0-.756-.756h-1.755a1.343,1.343,0,0,1-1.331-1.331v-.03a1.364,1.364,0,0,1,1.392-1.271h1.664a.749.749,0,0,0,.756-.756v-5.3H123v.908a2.841,2.841,0,0,0,2.844,2.844h.091a2.917,2.917,0,0,0,2.754-2.9v-.817h5.235a.065.065,0,0,1,.061.061Z" transform="translate(-84.177 -55.654)"/>
        <path id="Trazado_980244" data-name="Trazado 980244" d="M85.837,78.812H87.5a.749.749,0,0,0,.756-.756V71.973a.749.749,0,0,0-.756-.756H82.085V70.4a2.9,2.9,0,0,0-2.753-2.9,2.8,2.8,0,0,0-2.9,2.754v1h-5.87A.749.749,0,0,0,69.8,72V84.682a5,5,0,0,0,4.993,4.993c.03,0,.03,0,.03.03v2.875a1.99,1.99,0,0,0,1.362,1.906,2.3,2.3,0,0,0,.635.091,2.007,2.007,0,0,0,1.6-.817.03.03,0,0,1,.03-.03l2.39-3.57a1.121,1.121,0,0,1,.938-.484H87.5a.749.749,0,0,0,.756-.756V82.2a.749.749,0,0,0-.756-.756H85.746a1.343,1.343,0,0,1-1.331-1.331v-.03A1.413,1.413,0,0,1,85.837,78.812Zm-2.118,3.3a2.864,2.864,0,0,0,2.027.847h1v5.2H81.782a2.56,2.56,0,0,0-2.179,1.18l-2.36,3.54a.478.478,0,0,1-.666.091.488.488,0,0,1-.182-.393V89.7a1.55,1.55,0,0,0-1.543-1.543,3.48,3.48,0,0,1-3.48-3.48V72.73h5.87A.749.749,0,0,0,78,71.973V70.309a1.328,1.328,0,0,1,.393-.938,1.254,1.254,0,0,1,.968-.363A1.364,1.364,0,0,1,80.632,70.4v1.573a.749.749,0,0,0,.756.756h5.416V77.3H85.9a2.9,2.9,0,0,0-2.9,2.754,2.633,2.633,0,0,0,.726,2.058Z" transform="translate(-53.914 -47.071)"/>
      </g>
    </g>
  </g>
</svg>
