<svg xmlns="http://www.w3.org/2000/svg" width="38" height="37.902" viewBox="0 0 38 37.902">
  <g id="tab1" transform="translate(-0.424)">
    <g id="_026---Idea" data-name="026---Idea" transform="translate(0.424)">
      <path id="Shape" d="M35.576,22.745A1.285,1.285,0,0,0,34.315,21.7h-1.24l-.091-.547a1.291,1.291,0,0,0-1.073-1.064c-.122-.019-.245-.032-.367-.049a3.919,3.919,0,0,0-.488-2.865,2.629,2.629,0,0,0-1.9-3.517A5.466,5.466,0,0,0,23.81,9.2c-.064,0-.121.008-.182.01a2.613,2.613,0,0,0-4-.5A4.41,4.41,0,0,0,17.231,8a4.46,4.46,0,0,0-3.506,1.727A3.2,3.2,0,0,0,9.635,12.6a2.644,2.644,0,0,0-1.62,2.436,2.613,2.613,0,0,0,.064.548,5.17,5.17,0,0,0-.616,4.433c-.172.024-.348.045-.514.069a1.293,1.293,0,0,0-1.082,1.064l-.091.549H4.533a1.285,1.285,0,0,0-1.26,1.04L.459,37.184a1.927,1.927,0,0,0,1.9,2.295h13.4c.532.878,2.148,1.285,3.672,1.285,1.508,0,3.109-.4,3.656-1.285H36.493a1.927,1.927,0,0,0,1.9-2.294ZM9.958,16.2a1.357,1.357,0,0,1,.694-2.52,1.332,1.332,0,0,1,1.079.545.642.642,0,0,0,1.032-.766,2.6,2.6,0,0,0-1.822-1.028,1.953,1.953,0,0,1,1.9-1.546,2,2,0,0,1,.234.026,4.22,4.22,0,0,0-.135.4.642.642,0,0,0,1.244.321,3.124,3.124,0,0,1,.333-.8,3.172,3.172,0,0,1,2.71-1.546,3.12,3.12,0,0,1,1.7.514,2.611,2.611,0,0,0-.151.842.642.642,0,1,0,1.285,0,1.351,1.351,0,1,1,2.7,0,.642.642,0,1,0,1.285,0c0-.049-.012-.1-.015-.146a4.17,4.17,0,0,1,3.8,3.216,2.607,2.607,0,0,0-.831.414.642.642,0,1,0,.771,1.028,1.354,1.354,0,0,1,1.986,1.752,1.37,1.37,0,0,1-.608.563.642.642,0,0,0,.274,1.221.634.634,0,0,0,.272-.061,2.638,2.638,0,0,0,.48-.3,2.744,2.744,0,0,1-.543,2.74l-.015.016a2.775,2.775,0,0,1-3.276.6,2.55,2.55,0,0,1-.311-.194,2.188,2.188,0,0,0,.17-2.261.643.643,0,0,0-1.148.578.957.957,0,0,1-.31,1.211.969.969,0,0,1-1.4-.356.643.643,0,0,0-1.149.575,2.227,2.227,0,0,0,2,1.239,2.2,2.2,0,0,0,.806-.159,3.8,3.8,0,0,0,.753.514,3.957,3.957,0,0,0,2.967.274,4.1,4.1,0,0,1-2.645,1.622.642.642,0,0,0,.1,1.276.684.684,0,0,0,.1-.008,5.279,5.279,0,0,0,1.14-.333,5.744,5.744,0,0,1,.479,1.1.662.662,0,0,1,.033.208.693.693,0,0,1-.421.637.727.727,0,0,1-.829-.223,4.1,4.1,0,0,0-1.88-1.249c-1.388-.465-1.924-.881-2.151-1.333a6.167,6.167,0,0,0,.985-.206.643.643,0,0,0-.378-1.228,4.868,4.868,0,0,1-1.109.2,4.768,4.768,0,0,1-2.129-.321.642.642,0,0,0-.72.179,2.751,2.751,0,0,1-4.437-3.217.644.644,0,0,0-1.106-.662,4.012,4.012,0,0,0-.367.827.964.964,0,0,1-.913-.947v-.016a.635.635,0,0,0-.642-.634.649.649,0,0,0-.642.65A2.236,2.236,0,0,0,13.2,21.652a4.033,4.033,0,0,0,.058.642,3.926,3.926,0,0,1-4.442-5.376A2.59,2.59,0,0,0,9.3,17.3a.642.642,0,0,0,.663-1.1ZM7.131,21.362c.3-.044.6-.082.906-.122a5.187,5.187,0,0,0,5.634,2.286,4.024,4.024,0,0,0,6.3,1.068,6.167,6.167,0,0,0,1.341.243c.31,1.177,1.207,1.89,3.091,2.521a2.847,2.847,0,0,1,1.308.861,2.046,2.046,0,0,0,1.552.729,1.951,1.951,0,0,0,.763-.155,1.978,1.978,0,0,0,1.2-1.819,1.906,1.906,0,0,0-.1-.608,7.022,7.022,0,0,0-.568-1.307A5.416,5.416,0,0,0,30.7,21.795a4.024,4.024,0,0,0,.37-.518c.215.028.43.052.647.088l2.319,13.949a22.051,22.051,0,0,0-13.969,0V27.272a.642.642,0,0,0-1.285,0v8.044a22.055,22.055,0,0,0-13.969-.005Zm-5.277,16.6a.637.637,0,0,1-.135-.527L4.533,22.987H5.561L3.545,35.1A1.289,1.289,0,0,0,5.2,36.538a21.492,21.492,0,0,1,10.611-.673l-.191,2.329H2.355a.647.647,0,0,1-.5-.236Zm17.569,1.521a3.79,3.79,0,0,1-2.566-.661l.221-2.666a13.728,13.728,0,0,1,2.067.693.648.648,0,0,0,.278.064.639.639,0,0,0,.278-.064,13.683,13.683,0,0,1,2.067-.7l.221,2.67a3.785,3.785,0,0,1-2.566.662Zm17.569-1.521a.647.647,0,0,1-.5.236H23.228l-.193-2.333a21.5,21.5,0,0,1,10.615.679A1.289,1.289,0,0,0,35.3,35.1L33.289,22.988h1.028L37.13,37.43A.637.637,0,0,1,36.993,37.957Z" transform="translate(-0.424 -2.861)" fill="#fa6631"/>
      <path id="Shape-2" data-name="Shape" d="M26.568,21.72a.642.642,0,0,0-.046.907,3.874,3.874,0,0,0,2.059,1.187,1.914,1.914,0,0,1-1.564.806.642.642,0,1,0,0,1.285,3.186,3.186,0,0,0,2.993-2.06,3.877,3.877,0,0,0,3.172-3.084.642.642,0,1,0-1.262-.242,2.561,2.561,0,0,1-1.064,1.631,2.622,2.622,0,0,1-3.382-.385.642.642,0,0,0-.907-.046Z" transform="translate(-9.697 -7.147)" fill="#fa6631"/>
      <path id="Shape-3" data-name="Shape" d="M22.842,19.6a.642.642,0,0,0,.642-.642,1.67,1.67,0,0,1,1.67-1.67.642.642,0,1,0,0-1.285A2.958,2.958,0,0,0,22.2,18.955a.642.642,0,0,0,.642.642Z" transform="translate(-8.211 -5.721)" fill="#fa6631"/>
      <path id="Shape-4" data-name="Shape" d="M30.285,1.285V.642A.642.642,0,1,0,29,.642v.642a.642.642,0,1,0,1.285,0Z" transform="translate(-10.642)" fill="#fa6631"/>
      <path id="Shape-5" data-name="Shape" d="M45.943,7.067l-.642.642a.642.642,0,1,0,.908.908l.642-.642a.642.642,0,1,0-.908-.908Z" transform="translate(-16.401 -2.457)" fill="#fa6631"/>
      <path id="Shape-6" data-name="Shape" d="M13.163,8.806a.642.642,0,0,0,.454-1.1l-.642-.642a.642.642,0,1,0-.908.908l.642.642a.642.642,0,0,0,.454.188Z" transform="translate(-4.517 -2.457)" fill="#fa6631"/>
      <path id="Shape-7" data-name="Shape" d="M20.81,3.962a.651.651,0,0,0,.246-.049.642.642,0,0,0,.348-.84l-.738-1.781a.642.642,0,1,0-1.187.492l.737,1.781a.642.642,0,0,0,.594.4Z" transform="translate(-7.218 -0.316)" fill="#fa6631"/>
      <path id="Shape-8" data-name="Shape" d="M39.045.952a.642.642,0,0,0-.839.348L37.468,3.08a.642.642,0,0,0,.348.84.651.651,0,0,0,.246.049.642.642,0,0,0,.594-.4l.737-1.781a.642.642,0,0,0-.348-.84Z" transform="translate(-13.653 -0.323)" fill="#fa6631"/>
      <path id="Shape-9" data-name="Shape" d="M49.966,16.456a.642.642,0,0,0,.246-.049l1.78-.737a.642.642,0,0,0-.491-1.187l-1.781.737a.642.642,0,0,0,.246,1.237Z" transform="translate(-17.909 -5.161)" fill="#fa6631"/>
      <path id="Shape-10" data-name="Shape" d="M8.08,16.406a.643.643,0,0,0,.492-1.187l-1.781-.737A.642.642,0,1,0,6.3,15.669Z" transform="translate(-2.383 -5.161)" fill="#fa6631"/>
    </g>
  </g>
</svg>
